<svg width="43" height="35" viewBox="0 0 43 35" fill="none" xmlns="http://www.w3.org/2000/svg">
<path d="M2 32.0001C1.17157 32.0001 0.5 32.6717 0.5 33.5001C0.5 34.3285 1.17157 35.0001 2 35.0001V32.0001ZM18.4393 10.9393C17.8536 11.5251 17.8536 12.4749 18.4393 13.0607L27.9853 22.6066C28.5711 23.1924 29.5208 23.1924 30.1066 22.6066C30.6924 22.0208 30.6924 21.0711 30.1066 20.4853L21.6213 12L30.1066 3.51472C30.6924 2.92893 30.6924 1.97919 30.1066 1.3934C29.5208 0.807611 28.5711 0.807611 27.9853 1.3934L18.4393 10.9393ZM2 35.0001C2.01172 35.0001 2.02347 35.0001 2.03525 35.0001C2.04703 35.0001 2.05884 35.0001 2.07068 35.0001C2.08252 35.0001 2.09439 35.0001 2.10629 35.0001C2.11819 35.0001 2.13012 35.0001 2.14208 35.0001C2.15404 35.0001 2.16604 35.0001 2.17806 35.0001C2.19008 35.0001 2.20213 35.0001 2.21421 35.0001C2.22629 35.0001 2.2384 35.0001 2.25054 35.0001C2.26268 35.0001 2.27486 35.0001 2.28706 35.0001C2.29926 35.0001 2.31149 35.0001 2.32375 35.0001C2.33601 35.0001 2.34829 35.0001 2.36061 35.0001C2.37293 35.0001 2.38528 35.0001 2.39766 35.0001C2.41004 35.0001 2.42244 35.0001 2.43488 35.0001C2.44731 35.0001 2.45978 35.0001 2.47227 35.0001C2.48477 35.0001 2.49729 35.0001 2.50985 35.0001C2.5224 35.0001 2.53498 35.0001 2.54759 35.0001C2.5602 35.0001 2.57284 35.0001 2.58551 35.0001C2.59818 35.0001 2.61088 35.0001 2.6236 35.0001C2.63633 35.0001 2.64908 35.0001 2.66187 35.0001C2.67465 35.0001 2.68746 35.0001 2.7003 35.0001C2.71314 35.0001 2.72601 35.0001 2.73891 35.0001C2.75181 35.0001 2.76474 35.0001 2.77769 35.0001C2.79064 35.0001 2.80363 35.0001 2.81664 35.0001C2.82965 35.0001 2.84269 35.0001 2.85576 35.0001C2.86882 35.0001 2.88192 35.0001 2.89504 35.0001C2.90817 35.0001 2.92132 35.0001 2.9345 35.0001C2.94768 35.0001 2.96088 35.0001 2.97412 35.0001C2.98735 35.0001 3.00062 35.0001 3.01391 35.0001C3.0272 35.0001 3.04052 35.0001 3.05386 35.0001C3.06721 35.0001 3.08058 35.0001 3.09398 35.0001C3.10738 35.0001 3.12081 35.0001 3.13427 35.0001C3.14772 35.0001 3.16121 35.0001 3.17472 35.0001C3.18823 35.0001 3.20177 35.0001 3.21533 35.0001C3.2289 35.0001 3.24249 35.0001 3.25611 35.0001C3.26973 35.0001 3.28337 35.0001 3.29705 35.0001C3.31072 35.0001 3.32442 35.0001 3.33815 35.0001C3.35188 35.0001 3.36563 35.0001 3.37941 35.0001C3.39319 35.0001 3.407 35.0001 3.42083 35.0001C3.43467 35.0001 3.44853 35.0001 3.46242 35.0001C3.4763 35.0001 3.49022 35.0001 3.50416 35.0001C3.5181 35.0001 3.53207 35.0001 3.54606 35.0001C3.56005 35.0001 3.57407 35.0001 3.58812 35.0001C3.60216 35.0001 3.61624 35.0001 3.63033 35.0001C3.64443 35.0001 3.65856 35.0001 3.67271 35.0001C3.68686 35.0001 3.70103 35.0001 3.71524 35.0001C3.72944 35.0001 3.74367 35.0001 3.75792 35.0001C3.77217 35.0001 3.78645 35.0001 3.80076 35.0001C3.81507 35.0001 3.8294 35.0001 3.84375 35.0001C3.85811 35.0001 3.87249 35.0001 3.8869 35.0001C3.90131 35.0001 3.91574 35.0001 3.9302 35.0001C3.94466 35.0001 3.95915 35.0001 3.97366 35.0001C3.98817 35.0001 4.0027 35.0001 4.01726 35.0001C4.03182 35.0001 4.04641 35.0001 4.06102 35.0001C4.07563 35.0001 4.09026 35.0001 4.10492 35.0001C4.11958 35.0001 4.13427 35.0001 4.14898 35.0001C4.16369 35.0001 4.17843 35.0001 4.19319 35.0001C4.20795 35.0001 4.22273 35.0001 4.23754 35.0001C4.25235 35.0001 4.26719 35.0001 4.28204 35.0001C4.2969 35.0001 4.31179 35.0001 4.32669 35.0001C4.3416 35.0001 4.35653 35.0001 4.37149 35.0001C4.38645 35.0001 4.40143 35.0001 4.41643 35.0001C4.43144 35.0001 4.44647 35.0001 4.46152 35.0001C4.47658 35.0001 4.49165 35.0001 4.50676 35.0001C4.52186 35.0001 4.53698 35.0001 4.55213 35.0001C4.56728 35.0001 4.58246 35.0001 4.59766 35.0001C4.61285 35.0001 4.62808 35.0001 4.64332 35.0001C4.65857 35.0001 4.67384 35.0001 4.68913 35.0001C4.70442 35.0001 4.71974 35.0001 4.73508 35.0001C4.75042 35.0001 4.76578 35.0001 4.78117 35.0001C4.79655 35.0001 4.81196 35.0001 4.8274 35.0001C4.84283 35.0001 4.85829 35.0001 4.87377 35.0001C4.88925 35.0001 4.90475 35.0001 4.92028 35.0001C4.9358 35.0001 4.95135 35.0001 4.96693 35.0001C4.9825 35.0001 4.99809 35.0001 5.01371 35.0001C5.02933 35.0001 5.04497 35.0001 5.06064 35.0001C5.0763 35.0001 5.09199 35.0001 5.1077 35.0001C5.12341 35.0001 5.13914 35.0001 5.15489 35.0001C5.17065 35.0001 5.18643 35.0001 5.20223 35.0001C5.21803 35.0001 5.23385 35.0001 5.24969 35.0001C5.26554 35.0001 5.28141 35.0001 5.2973 35.0001C5.31319 35.0001 5.3291 35.0001 5.34503 35.0001C5.36097 35.0001 5.37692 35.0001 5.3929 35.0001C5.40888 35.0001 5.42488 35.0001 5.4409 35.0001C5.45692 35.0001 5.47297 35.0001 5.48903 35.0001C5.5051 35.0001 5.52119 35.0001 5.5373 35.0001C5.55341 35.0001 5.56954 35.0001 5.58569 35.0001C5.60184 35.0001 5.61802 35.0001 5.63422 35.0001C5.65041 35.0001 5.66663 35.0001 5.68287 35.0001C5.69911 35.0001 5.71537 35.0001 5.73165 35.0001C5.74793 35.0001 5.76424 35.0001 5.78056 35.0001C5.79689 35.0001 5.81323 35.0001 5.8296 35.0001C5.84597 35.0001 5.86235 35.0001 5.87876 35.0001C5.89517 35.0001 5.9116 35.0001 5.92805 35.0001C5.9445 35.0001 5.96098 35.0001 5.97747 35.0001C5.99396 35.0001 6.01048 35.0001 6.02701 35.0001C6.04355 35.0001 6.0601 35.0001 6.07668 35.0001C6.09325 35.0001 6.10985 35.0001 6.12646 35.0001C6.14308 35.0001 6.15972 35.0001 6.17638 35.0001C6.19303 35.0001 6.20971 35.0001 6.22641 35.0001C6.24311 35.0001 6.25983 35.0001 6.27657 35.0001C6.29331 35.0001 6.31007 35.0001 6.32684 35.0001C6.34362 35.0001 6.36042 35.0001 6.37724 35.0001C6.39406 35.0001 6.4109 35.0001 6.42776 35.0001C6.44462 35.0001 6.4615 35.0001 6.4784 35.0001C6.4953 35.0001 6.51221 35.0001 6.52915 35.0001C6.54609 35.0001 6.56305 35.0001 6.58003 35.0001C6.597 35.0001 6.614 35.0001 6.63102 35.0001C6.64803 35.0001 6.66507 35.0001 6.68212 35.0001C6.69918 35.0001 6.71625 35.0001 6.73335 35.0001C6.75044 35.0001 6.76755 35.0001 6.78469 35.0001C6.80182 35.0001 6.81897 35.0001 6.83614 35.0001C6.85331 35.0001 6.8705 35.0001 6.88771 35.0001C6.90492 35.0001 6.92215 35.0001 6.93939 35.0001C6.95664 35.0001 6.9739 35.0001 6.99119 35.0001C7.00847 35.0001 7.02577 35.0001 7.04309 35.0001C7.06042 35.0001 7.07776 35.0001 7.09511 35.0001C7.11247 35.0001 7.12985 35.0001 7.14724 35.0001C7.16464 35.0001 7.18205 35.0001 7.19949 35.0001C7.21692 35.0001 7.23437 35.0001 7.25184 35.0001C7.2693 35.0001 7.28679 35.0001 7.3043 35.0001C7.3218 35.0001 7.33932 35.0001 7.35686 35.0001C7.37441 35.0001 7.39196 35.0001 7.40954 35.0001C7.42712 35.0001 7.44471 35.0001 7.46233 35.0001C7.47994 35.0001 7.49757 35.0001 7.51522 35.0001C7.53286 35.0001 7.55053 35.0001 7.56821 35.0001C7.5859 35.0001 7.6036 35.0001 7.62132 35.0001C7.63903 35.0001 7.65677 35.0001 7.67452 35.0001C7.69228 35.0001 7.71005 35.0001 7.72783 35.0001C7.74562 35.0001 7.76343 35.0001 7.78125 35.0001C7.79907 35.0001 7.81691 35.0001 7.83477 35.0001C7.85262 35.0001 7.8705 35.0001 7.88839 35.0001C7.90628 35.0001 7.92419 35.0001 7.94211 35.0001C7.96004 35.0001 7.97798 35.0001 7.99593 35.0001C8.01389 35.0001 8.03187 35.0001 8.04986 35.0001C8.06785 35.0001 8.08586 35.0001 8.10388 35.0001C8.12191 35.0001 8.13995 35.0001 8.15801 35.0001C8.17606 35.0001 8.19414 35.0001 8.21223 35.0001C8.23032 35.0001 8.24842 35.0001 8.26655 35.0001C8.28467 35.0001 8.30281 35.0001 8.32096 35.0001C8.33912 35.0001 8.35729 35.0001 8.37548 35.0001C8.39366 35.0001 8.41187 35.0001 8.43009 35.0001C8.44831 35.0001 8.46654 35.0001 8.48479 35.0001C8.50304 35.0001 8.52131 35.0001 8.53959 35.0001C8.55788 35.0001 8.57617 35.0001 8.59449 35.0001C8.6128 35.0001 8.63113 35.0001 8.64948 35.0001C8.66782 35.0001 8.68618 35.0001 8.70456 35.0001C8.72293 35.0001 8.74132 35.0001 8.75973 35.0001C8.77814 35.0001 8.79656 35.0001 8.81499 35.0001C8.83343 35.0001 8.85188 35.0001 8.87035 35.0001C8.88882 35.0001 8.9073 35.0001 8.9258 35.0001C8.94429 35.0001 8.96281 35.0001 8.98133 35.0001C8.99986 35.0001 9.0184 35.0001 9.03696 35.0001C9.05552 35.0001 9.07409 35.0001 9.09267 35.0001C9.11126 35.0001 9.12986 35.0001 9.14848 35.0001C9.16709 35.0001 9.18572 35.0001 9.20437 35.0001C9.22301 35.0001 9.24167 35.0001 9.26034 35.0001C9.27902 35.0001 9.2977 35.0001 9.31641 35.0001C9.33511 35.0001 9.35382 35.0001 9.37255 35.0001C9.39128 35.0001 9.41003 35.0001 9.42879 35.0001C9.44754 35.0001 9.46632 35.0001 9.4851 35.0001C9.50389 35.0001 9.52269 35.0001 9.5415 35.0001C9.56032 35.0001 9.57915 35.0001 9.59799 35.0001C9.61683 35.0001 9.63568 35.0001 9.65455 35.0001C9.67342 35.0001 9.69231 35.0001 9.7112 35.0001C9.7301 35.0001 9.74901 35.0001 9.76793 35.0001C9.78685 35.0001 9.80579 35.0001 9.82474 35.0001C9.84369 35.0001 9.86265 35.0001 9.88163 35.0001C9.9006 35.0001 9.91959 35.0001 9.9386 35.0001C9.9576 35.0001 9.97661 35.0001 9.99564 35.0001C10.0147 35.0001 10.0337 35.0001 10.0528 35.0001C10.0718 35.0001 10.0909 35.0001 10.11 35.0001C10.1291 35.0001 10.1481 35.0001 10.1672 35.0001C10.1864 35.0001 10.2055 35.0001 10.2246 35.0001C10.2437 35.0001 10.2629 35.0001 10.282 35.0001C10.3012 35.0001 10.3204 35.0001 10.3395 35.0001C10.3587 35.0001 10.3779 35.0001 10.3971 35.0001C10.4163 35.0001 10.4355 35.0001 10.4548 35.0001C10.474 35.0001 10.4932 35.0001 10.5125 35.0001C10.5318 35.0001 10.551 35.0001 10.5703 35.0001C10.5896 35.0001 10.6089 35.0001 10.6282 35.0001C10.6475 35.0001 10.6668 35.0001 10.6861 35.0001C10.7054 35.0001 10.7248 35.0001 10.7441 35.0001C10.7635 35.0001 10.7828 35.0001 10.8022 35.0001C10.8216 35.0001 10.841 35.0001 10.8604 35.0001C10.8797 35.0001 10.8992 35.0001 10.9186 35.0001C10.938 35.0001 10.9574 35.0001 10.9769 35.0001C10.9963 35.0001 11.0158 35.0001 11.0352 35.0001C11.0547 35.0001 11.0741 35.0001 11.0936 35.0001C11.1131 35.0001 11.1326 35.0001 11.1521 35.0001C11.1716 35.0001 11.1911 35.0001 11.2107 35.0001C11.2302 35.0001 11.2497 35.0001 11.2693 35.0001C11.2888 35.0001 11.3084 35.0001 11.328 35.0001C11.3475 35.0001 11.3671 35.0001 11.3867 35.0001C11.4063 35.0001 11.4259 35.0001 11.4455 35.0001C11.4651 35.0001 11.4848 35.0001 11.5044 35.0001C11.524 35.0001 11.5437 35.0001 11.5633 35.0001C11.583 35.0001 11.6026 35.0001 11.6223 35.0001C11.642 35.0001 11.6617 35.0001 11.6814 35.0001C11.7011 35.0001 11.7208 35.0001 11.7405 35.0001C11.7602 35.0001 11.7799 35.0001 11.7997 35.0001C11.8194 35.0001 11.8391 35.0001 11.8589 35.0001C11.8786 35.0001 11.8984 35.0001 11.9182 35.0001C11.938 35.0001 11.9577 35.0001 11.9775 35.0001C11.9973 35.0001 12.0171 35.0001 12.0369 35.0001C12.0567 35.0001 12.0766 35.0001 12.0964 35.0001C12.1162 35.0001 12.1361 35.0001 12.1559 35.0001C12.1758 35.0001 12.1956 35.0001 12.2155 35.0001C12.2353 35.0001 12.2552 35.0001 12.2751 35.0001C12.295 35.0001 12.3149 35.0001 12.3348 35.0001C12.3547 35.0001 12.3746 35.0001 12.3945 35.0001C12.4144 35.0001 12.4344 35.0001 12.4543 35.0001C12.4742 35.0001 12.4942 35.0001 12.5141 35.0001C12.5341 35.0001 12.554 35.0001 12.574 35.0001C12.594 35.0001 12.614 35.0001 12.6339 35.0001C12.6539 35.0001 12.6739 35.0001 12.6939 35.0001C12.7139 35.0001 12.7339 35.0001 12.754 35.0001C12.774 35.0001 12.794 35.0001 12.814 35.0001C12.8341 35.0001 12.8541 35.0001 12.8742 35.0001C12.8942 35.0001 12.9143 35.0001 12.9344 35.0001C12.9544 35.0001 12.9745 35.0001 12.9946 35.0001C13.0147 35.0001 13.0348 35.0001 13.0549 35.0001C13.075 35.0001 13.0951 35.0001 13.1152 35.0001C13.1353 35.0001 13.1554 35.0001 13.1755 35.0001C13.1957 35.0001 13.2158 35.0001 13.2359 35.0001C13.2561 35.0001 13.2762 35.0001 13.2964 35.0001C13.3165 35.0001 13.3367 35.0001 13.3569 35.0001C13.377 35.0001 13.3972 35.0001 13.4174 35.0001C13.4376 35.0001 13.4578 35.0001 13.478 35.0001C13.4982 35.0001 13.5184 35.0001 13.5386 35.0001C13.5588 35.0001 13.579 35.0001 13.5993 35.0001C13.6195 35.0001 13.6397 35.0001 13.66 35.0001C13.6802 35.0001 13.7004 35.0001 13.7207 35.0001C13.7409 35.0001 13.7612 35.0001 13.7815 35.0001C13.8017 35.0001 13.822 35.0001 13.8423 35.0001C13.8626 35.0001 13.8828 35.0001 13.9031 35.0001C13.9234 35.0001 13.9437 35.0001 13.964 35.0001C13.9843 35.0001 14.0046 35.0001 14.0249 35.0001C14.0453 35.0001 14.0656 35.0001 14.0859 35.0001C14.1062 35.0001 14.1266 35.0001 14.1469 35.0001C14.1672 35.0001 14.1876 35.0001 14.2079 35.0001C14.2283 35.0001 14.2486 35.0001 14.269 35.0001C14.2893 35.0001 14.3097 35.0001 14.3301 35.0001C14.3504 35.0001 14.3708 35.0001 14.3912 35.0001C14.4116 35.0001 14.432 35.0001 14.4524 35.0001C14.4727 35.0001 14.4931 35.0001 14.5135 35.0001C14.5339 35.0001 14.5544 35.0001 14.5748 35.0001C14.5952 35.0001 14.6156 35.0001 14.636 35.0001C14.6564 35.0001 14.6769 35.0001 14.6973 35.0001C14.7177 35.0001 14.7382 35.0001 14.7586 35.0001C14.779 35.0001 14.7995 35.0001 14.8199 35.0001C14.8404 35.0001 14.8608 35.0001 14.8813 35.0001C14.9018 35.0001 14.9222 35.0001 14.9427 35.0001C14.9631 35.0001 14.9836 35.0001 15.0041 35.0001C15.0246 35.0001 15.0451 35.0001 15.0655 35.0001C15.086 35.0001 15.1065 35.0001 15.127 35.0001C15.1475 35.0001 15.168 35.0001 15.1885 35.0001C15.209 35.0001 15.2295 35.0001 15.25 35.0001C15.2705 35.0001 15.291 35.0001 15.3115 35.0001C15.3321 35.0001 15.3526 35.0001 15.3731 35.0001C15.3936 35.0001 15.4141 35.0001 15.4347 35.0001C15.4552 35.0001 15.4757 35.0001 15.4963 35.0001C15.5168 35.0001 15.5373 35.0001 15.5579 35.0001C15.5784 35.0001 15.599 35.0001 15.6195 35.0001C15.6401 35.0001 15.6606 35.0001 15.6812 35.0001C15.7017 35.0001 15.7223 35.0001 15.7429 35.0001C15.7634 35.0001 15.784 35.0001 15.8046 35.0001C15.8251 35.0001 15.8457 35.0001 15.8663 35.0001C15.8868 35.0001 15.9074 35.0001 15.928 35.0001C15.9486 35.0001 15.9692 35.0001 15.9897 35.0001C16.0103 35.0001 16.0309 35.0001 16.0515 35.0001C16.0721 35.0001 16.0927 35.0001 16.1133 35.0001C16.1339 35.0001 16.1545 35.0001 16.1751 35.0001C16.1957 35.0001 16.2163 35.0001 16.2369 35.0001C16.2575 35.0001 16.2781 35.0001 16.2987 35.0001C16.3193 35.0001 16.3399 35.0001 16.3605 35.0001C16.3811 35.0001 16.4017 35.0001 16.4224 35.0001C16.443 35.0001 16.4636 35.0001 16.4842 35.0001C16.5048 35.0001 16.5255 35.0001 16.5461 35.0001C16.5667 35.0001 16.5873 35.0001 16.6079 35.0001C16.6286 35.0001 16.6492 35.0001 16.6698 35.0001C16.6905 35.0001 16.7111 35.0001 16.7317 35.0001C16.7523 35.0001 16.773 35.0001 16.7936 35.0001C16.8142 35.0001 16.8349 35.0001 16.8555 35.0001C16.8761 35.0001 16.8968 35.0001 16.9174 35.0001C16.9381 35.0001 16.9587 35.0001 16.9793 35.0001C17 35.0001 17.0206 35.0001 17.0413 35.0001C17.0619 35.0001 17.0825 35.0001 17.1032 35.0001C17.1238 35.0001 17.1445 35.0001 17.1651 35.0001C17.1858 35.0001 17.2064 35.0001 17.2271 35.0001C17.2477 35.0001 17.2683 35.0001 17.289 35.0001C17.3096 35.0001 17.3303 35.0001 17.3509 35.0001C17.3716 35.0001 17.3922 35.0001 17.4129 35.0001C17.4335 35.0001 17.4542 35.0001 17.4748 35.0001C17.4955 35.0001 17.5161 35.0001 17.5368 35.0001C17.5574 35.0001 17.578 35.0001 17.5987 35.0001C17.6193 35.0001 17.64 35.0001 17.6606 35.0001C17.6813 35.0001 17.7019 35.0001 17.7226 35.0001C17.7432 35.0001 17.7639 35.0001 17.7845 35.0001C17.8052 35.0001 17.8258 35.0001 17.8464 35.0001C17.8671 35.0001 17.8877 35.0001 17.9084 35.0001C17.929 35.0001 17.9497 35.0001 17.9703 35.0001C17.9909 35.0001 18.0116 35.0001 18.0322 35.0001C18.0529 35.0001 18.0735 35.0001 18.0941 35.0001C18.1148 35.0001 18.1354 35.0001 18.1561 35.0001C18.1767 35.0001 18.1973 35.0001 18.218 35.0001C18.2386 35.0001 18.2592 35.0001 18.2799 35.0001C18.3005 35.0001 18.3211 35.0001 18.3417 35.0001C18.3624 35.0001 18.383 35.0001 18.4036 35.0001C18.4242 35.0001 18.4449 35.0001 18.4655 35.0001C18.4861 35.0001 18.5067 35.0001 18.5274 35.0001C18.548 35.0001 18.5686 35.0001 18.5892 35.0001C18.6098 35.0001 18.6304 35.0001 18.6511 35.0001C18.6717 35.0001 18.6923 35.0001 18.7129 35.0001C18.7335 35.0001 18.7541 35.0001 18.7747 35.0001C18.7953 35.0001 18.8159 35.0001 18.8365 35.0001C18.8571 35.0001 18.8777 35.0001 18.8983 35.0001C18.9189 35.0001 18.9395 35.0001 18.9601 35.0001C18.9807 35.0001 19.0013 35.0001 19.0218 35.0001C19.0424 35.0001 19.063 35.0001 19.0836 35.0001C19.1042 35.0001 19.1247 35.0001 19.1453 35.0001C19.1659 35.0001 19.1865 35.0001 19.207 35.0001C19.2276 35.0001 19.2482 35.0001 19.2687 35.0001C19.2893 35.0001 19.3099 35.0001 19.3304 35.0001C19.351 35.0001 19.3715 35.0001 19.3921 35.0001C19.4126 35.0001 19.4332 35.0001 19.4537 35.0001C19.4743 35.0001 19.4948 35.0001 19.5153 35.0001C19.5359 35.0001 19.5564 35.0001 19.5769 35.0001C19.5975 35.0001 19.618 35.0001 19.6385 35.0001C19.659 35.0001 19.6796 35.0001 19.7001 35.0001C19.7206 35.0001 19.7411 35.0001 19.7616 35.0001C19.7821 35.0001 19.8026 35.0001 19.8231 35.0001C19.8436 35.0001 19.8641 35.0001 19.8846 35.0001C19.9051 35.0001 19.9256 35.0001 19.9461 35.0001C19.9666 35.0001 19.9871 35.0001 20.0075 35.0001C20.028 35.0001 20.0485 35.0001 20.069 35.0001C20.0894 35.0001 20.1099 35.0001 20.1303 35.0001C20.1508 35.0001 20.1713 35.0001 20.1917 35.0001C20.2122 35.0001 20.2326 35.0001 20.253 35.0001C20.2735 35.0001 20.2939 35.0001 20.3144 35.0001C20.3348 35.0001 20.3552 35.0001 20.3756 35.0001C20.3961 35.0001 20.4165 35.0001 20.4369 35.0001C20.4573 35.0001 20.4777 35.0001 20.4981 35.0001C20.5185 35.0001 20.5389 35.0001 20.5593 35.0001C20.5797 35.0001 20.6001 35.0001 20.6205 35.0001C20.6409 35.0001 20.6612 35.0001 20.6816 35.0001C20.702 35.0001 20.7223 35.0001 20.7427 35.0001C20.7631 35.0001 20.7834 35.0001 20.8038 35.0001C20.8241 35.0001 20.8445 35.0001 20.8648 35.0001C20.8851 35.0001 20.9055 35.0001 20.9258 35.0001C20.9461 35.0001 20.9664 35.0001 20.9868 35.0001C21.0071 35.0001 21.0274 35.0001 21.0477 35.0001C21.068 35.0001 21.0883 35.0001 21.1086 35.0001C21.1289 35.0001 21.1492 35.0001 21.1694 35.0001C21.1897 35.0001 21.21 35.0001 21.2303 35.0001C21.2505 35.0001 21.2708 35.0001 21.291 35.0001C21.3113 35.0001 21.3315 35.0001 21.3518 35.0001C21.372 35.0001 21.3922 35.0001 21.4125 35.0001C21.4327 35.0001 21.4529 35.0001 21.4731 35.0001C21.4934 35.0001 21.5136 35.0001 21.5338 35.0001C21.554 35.0001 21.5742 35.0001 21.5943 35.0001C21.6145 35.0001 21.6347 35.0001 21.6549 35.0001C21.6751 35.0001 21.6952 35.0001 21.7154 35.0001C21.7355 35.0001 21.7557 35.0001 21.7758 35.0001C21.796 35.0001 21.8161 35.0001 21.8362 35.0001C21.8564 35.0001 21.8765 35.0001 21.8966 35.0001C21.9167 35.0001 21.9368 35.0001 21.9569 35.0001C21.977 35.0001 21.9971 35.0001 22.0172 35.0001C22.0373 35.0001 22.0574 35.0001 22.0774 35.0001C22.0975 35.0001 22.1176 35.0001 22.1376 35.0001C22.1577 35.0001 22.1777 35.0001 22.1978 35.0001C22.2178 35.0001 22.2378 35.0001 22.2579 35.0001C22.2779 35.0001 22.2979 35.0001 22.3179 35.0001C22.3379 35.0001 22.3579 35.0001 22.3779 35.0001C22.3979 35.0001 22.4179 35.0001 22.4378 35.0001C22.4578 35.0001 22.4778 35.0001 22.4977 35.0001C22.5177 35.0001 22.5376 35.0001 22.5576 35.0001C22.5775 35.0001 22.5974 35.0001 22.6174 35.0001C22.6373 35.0001 22.6572 35.0001 22.6771 35.0001C22.697 35.0001 22.7169 35.0001 22.7368 35.0001C22.7567 35.0001 22.7765 35.0001 22.7964 35.0001C22.8163 35.0001 22.8361 35.0001 22.856 35.0001C22.8758 35.0001 22.8957 35.0001 22.9155 35.0001C22.9353 35.0001 22.9552 35.0001 22.975 35.0001C22.9948 35.0001 23.0146 35.0001 23.0344 35.0001C23.0542 35.0001 23.074 35.0001 23.0938 35.0001C23.1135 35.0001 23.1333 35.0001 23.153 35.0001C23.1728 35.0001 23.1926 35.0001 23.2123 35.0001C23.232 35.0001 23.2518 35.0001 23.2715 35.0001C23.2912 35.0001 23.3109 35.0001 23.3306 35.0001C23.3503 35.0001 23.37 35.0001 23.3897 35.0001C23.4093 35.0001 23.429 35.0001 23.4487 35.0001C23.4683 35.0001 23.488 35.0001 23.5076 35.0001C23.5272 35.0001 23.5469 35.0001 23.5665 35.0001C23.5861 35.0001 23.6057 35.0001 23.6253 35.0001C23.6449 35.0001 23.6645 35.0001 23.684 35.0001C23.7036 35.0001 23.7232 35.0001 23.7427 35.0001C23.7623 35.0001 23.7818 35.0001 23.8014 35.0001C23.8209 35.0001 23.8404 35.0001 23.8599 35.0001C23.8794 35.0001 23.8989 35.0001 23.9184 35.0001C23.9379 35.0001 23.9574 35.0001 23.9769 35.0001C23.9963 35.0001 24.0158 35.0001 24.0352 35.0001C24.0547 35.0001 24.0741 35.0001 24.0935 35.0001C24.1129 35.0001 24.1323 35.0001 24.1517 35.0001C24.1711 35.0001 24.1905 35.0001 24.2099 35.0001C24.2293 35.0001 24.2486 35.0001 24.268 35.0001C24.2873 35.0001 24.3067 35.0001 24.326 35.0001C24.3453 35.0001 24.3647 35.0001 24.384 35.0001C24.4033 35.0001 24.4226 35.0001 24.4418 35.0001C24.4611 35.0001 24.4804 35.0001 24.4997 35.0001C24.5189 35.0001 24.5382 35.0001 24.5574 35.0001C24.5766 35.0001 24.5958 35.0001 24.6151 35.0001C24.6343 35.0001 24.6535 35.0001 24.6726 35.0001C24.6918 35.0001 24.711 35.0001 24.7302 35.0001C24.7493 35.0001 24.7685 35.0001 24.7876 35.0001C24.8067 35.0001 24.8259 35.0001 24.845 35.0001C24.8641 35.0001 24.8832 35.0001 24.9023 35.0001C24.9213 35.0001 24.9404 35.0001 24.9595 35.0001C24.9785 35.0001 24.9976 35.0001 25.0166 35.0001C25.0356 35.0001 25.0547 35.0001 25.0737 35.0001C25.0927 35.0001 25.1117 35.0001 25.1306 35.0001C25.1496 35.0001 25.1686 35.0001 25.1875 35.0001C25.2065 35.0001 25.2254 35.0001 25.2444 35.0001C25.2633 35.0001 25.2822 35.0001 25.3011 35.0001C25.32 35.0001 25.3389 35.0001 25.3578 35.0001C25.3766 35.0001 25.3955 35.0001 25.4143 35.0001C25.4332 35.0001 25.452 35.0001 25.4708 35.0001C25.4897 35.0001 25.5085 35.0001 25.5273 35.0001C25.546 35.0001 25.5648 35.0001 25.5836 35.0001C25.6023 35.0001 25.6211 35.0001 25.6398 35.0001C25.6586 35.0001 25.6773 35.0001 25.696 35.0001C25.7147 35.0001 25.7334 35.0001 25.7521 35.0001C25.7707 35.0001 25.7894 35.0001 25.8081 35.0001C25.8267 35.0001 25.8453 35.0001 25.864 35.0001C25.8826 35.0001 25.9012 35.0001 25.9198 35.0001C25.9384 35.0001 25.9569 35.0001 25.9755 35.0001C25.9941 35.0001 26.0126 35.0001 26.0311 35.0001C26.0497 35.0001 26.0682 35.0001 26.0867 35.0001C26.1052 35.0001 26.1237 35.0001 26.1421 35.0001C26.1606 35.0001 26.1791 35.0001 26.1975 35.0001C26.216 35.0001 26.2344 35.0001 26.2528 35.0001C26.2712 35.0001 26.2896 35.0001 26.308 35.0001C26.3264 35.0001 26.3447 35.0001 26.3631 35.0001C26.3814 35.0001 26.3998 35.0001 26.4181 35.0001C26.4364 35.0001 26.4547 35.0001 26.473 35.0001C26.4913 35.0001 26.5095 35.0001 26.5278 35.0001C26.546 35.0001 26.5643 35.0001 26.5825 35.0001C26.6007 35.0001 26.6189 35.0001 26.6371 35.0001C26.6553 35.0001 26.6735 35.0001 26.6917 35.0001C26.7098 35.0001 26.728 35.0001 26.7461 35.0001C26.7642 35.0001 26.7823 35.0001 26.8004 35.0001C26.8185 35.0001 26.8366 35.0001 26.8547 35.0001C26.8727 35.0001 26.8908 35.0001 26.9088 35.0001C26.9268 35.0001 26.9448 35.0001 26.9628 35.0001C26.9808 35.0001 26.9988 35.0001 27.0168 35.0001C27.0347 35.0001 27.0527 35.0001 27.0706 35.0001C27.0885 35.0001 27.1065 35.0001 27.1244 35.0001C27.1422 35.0001 27.1601 35.0001 27.178 35.0001C27.1958 35.0001 27.2137 35.0001 27.2315 35.0001C27.2493 35.0001 27.2672 35.0001 27.2849 35.0001C27.3027 35.0001 27.3205 35.0001 27.3383 35.0001C27.356 35.0001 27.3738 35.0001 27.3915 35.0001C27.4092 35.0001 27.4269 35.0001 27.4446 35.0001C27.4623 35.0001 27.48 35.0001 27.4976 35.0001C27.5153 35.0001 27.5329 35.0001 27.5505 35.0001C27.5682 35.0001 27.5858 35.0001 27.6033 35.0001C27.6209 35.0001 27.6385 35.0001 27.656 35.0001C27.6736 35.0001 27.6911 35.0001 27.7086 35.0001C27.7261 35.0001 27.7436 35.0001 27.7611 35.0001C27.7786 35.0001 27.796 35.0001 27.8134 35.0001C27.8309 35.0001 27.8483 35.0001 27.8657 35.0001C27.8831 35.0001 27.9005 35.0001 27.9179 35.0001C27.9352 35.0001 27.9526 35.0001 27.9699 35.0001C27.9872 35.0001 28.0045 35.0001 28.0218 35.0001C28.0391 35.0001 28.0564 35.0001 28.0736 35.0001C28.0909 35.0001 28.1081 35.0001 28.1253 35.0001C28.1425 35.0001 28.1597 35.0001 28.1769 35.0001C28.1941 35.0001 28.2112 35.0001 28.2284 35.0001C28.2455 35.0001 28.2626 35.0001 28.2797 35.0001C28.2968 35.0001 28.3139 35.0001 28.331 35.0001C28.348 35.0001 28.3651 35.0001 28.3821 35.0001C28.3991 35.0001 28.4161 35.0001 28.4331 35.0001C28.4501 35.0001 28.4671 35.0001 28.484 35.0001C28.5009 35.0001 28.5179 35.0001 28.5348 35.0001C28.5517 35.0001 28.5686 35.0001 28.5854 35.0001C28.6023 35.0001 28.6191 35.0001 28.636 35.0001C28.6528 35.0001 28.6696 35.0001 28.6864 35.0001C28.7032 35.0001 28.7199 35.0001 28.7367 35.0001C28.7534 35.0001 28.7701 35.0001 28.7868 35.0001C28.8035 35.0001 28.8202 35.0001 28.8369 35.0001C28.8536 35.0001 28.8702 35.0001 28.8868 35.0001C28.9034 35.0001 28.92 35.0001 28.9366 35.0001C28.9532 35.0001 28.9698 35.0001 28.9863 35.0001C29.0028 35.0001 29.0194 35.0001 29.0359 35.0001C29.0524 35.0001 29.0688 35.0001 29.0853 35.0001C29.1018 35.0001 29.1182 35.0001 29.1346 35.0001C29.151 35.0001 29.1674 35.0001 29.1838 35.0001C29.2002 35.0001 29.2165 35.0001 29.2328 35.0001C29.2492 35.0001 29.2655 35.0001 29.2818 35.0001C29.2981 35.0001 29.3143 35.0001 29.3306 35.0001C29.3468 35.0001 29.363 35.0001 29.3792 35.0001C29.3955 35.0001 29.4116 35.0001 29.4278 35.0001C29.444 35.0001 29.4601 35.0001 29.4762 35.0001C29.4923 35.0001 29.5084 35.0001 29.5245 35.0001C29.5406 35.0001 29.5566 35.0001 29.5726 35.0001C29.5887 35.0001 29.6047 35.0001 29.6207 35.0001C29.6366 35.0001 29.6526 35.0001 29.6685 35.0001C29.6845 35.0001 29.7004 35.0001 29.7163 35.0001C29.7322 35.0001 29.7481 35.0001 29.7639 35.0001C29.7798 35.0001 29.7956 35.0001 29.8114 35.0001C29.8272 35.0001 29.843 35.0001 29.8588 35.0001C29.8745 35.0001 29.8903 35.0001 29.906 35.0001C29.9217 35.0001 29.9374 35.0001 29.9531 35.0001C29.9687 35.0001 29.9844 35.0001 30 35.0001V32.0001C29.9844 32.0001 29.9687 32.0001 29.9531 32.0001C29.9374 32.0001 29.9217 32.0001 29.906 32.0001C29.8903 32.0001 29.8745 32.0001 29.8588 32.0001C29.843 32.0001 29.8272 32.0001 29.8114 32.0001C29.7956 32.0001 29.7798 32.0001 29.7639 32.0001C29.7481 32.0001 29.7322 32.0001 29.7163 32.0001C29.7004 32.0001 29.6845 32.0001 29.6685 32.0001C29.6526 32.0001 29.6366 32.0001 29.6207 32.0001C29.6047 32.0001 29.5887 32.0001 29.5726 32.0001C29.5566 32.0001 29.5406 32.0001 29.5245 32.0001C29.5084 32.0001 29.4923 32.0001 29.4762 32.0001C29.4601 32.0001 29.444 32.0001 29.4278 32.0001C29.4116 32.0001 29.3955 32.0001 29.3792 32.0001C29.363 32.0001 29.3468 32.0001 29.3306 32.0001C29.3143 32.0001 29.2981 32.0001 29.2818 32.0001C29.2655 32.0001 29.2492 32.0001 29.2328 32.0001C29.2165 32.0001 29.2002 32.0001 29.1838 32.0001C29.1674 32.0001 29.151 32.0001 29.1346 32.0001C29.1182 32.0001 29.1018 32.0001 29.0853 32.0001C29.0688 32.0001 29.0524 32.0001 29.0359 32.0001C29.0194 32.0001 29.0028 32.0001 28.9863 32.0001C28.9698 32.0001 28.9532 32.0001 28.9366 32.0001C28.92 32.0001 28.9034 32.0001 28.8868 32.0001C28.8702 32.0001 28.8536 32.0001 28.8369 32.0001C28.8202 32.0001 28.8035 32.0001 28.7868 32.0001C28.7701 32.0001 28.7534 32.0001 28.7367 32.0001C28.7199 32.0001 28.7032 32.0001 28.6864 32.0001C28.6696 32.0001 28.6528 32.0001 28.636 32.0001C28.6191 32.0001 28.6023 32.0001 28.5854 32.0001C28.5686 32.0001 28.5517 32.0001 28.5348 32.0001C28.5179 32.0001 28.5009 32.0001 28.484 32.0001C28.4671 32.0001 28.4501 32.0001 28.4331 32.0001C28.4161 32.0001 28.3991 32.0001 28.3821 32.0001C28.3651 32.0001 28.348 32.0001 28.331 32.0001C28.3139 32.0001 28.2968 32.0001 28.2797 32.0001C28.2626 32.0001 28.2455 32.0001 28.2284 32.0001C28.2112 32.0001 28.1941 32.0001 28.1769 32.0001C28.1597 32.0001 28.1425 32.0001 28.1253 32.0001C28.1081 32.0001 28.0909 32.0001 28.0736 32.0001C28.0564 32.0001 28.0391 32.0001 28.0218 32.0001C28.0045 32.0001 27.9872 32.0001 27.9699 32.0001C27.9526 32.0001 27.9352 32.0001 27.9179 32.0001C27.9005 32.0001 27.8831 32.0001 27.8657 32.0001C27.8483 32.0001 27.8309 32.0001 27.8134 32.0001C27.796 32.0001 27.7786 32.0001 27.7611 32.0001C27.7436 32.0001 27.7261 32.0001 27.7086 32.0001C27.6911 32.0001 27.6736 32.0001 27.656 32.0001C27.6385 32.0001 27.6209 32.0001 27.6033 32.0001C27.5858 32.0001 27.5682 32.0001 27.5505 32.0001C27.5329 32.0001 27.5153 32.0001 27.4976 32.0001C27.48 32.0001 27.4623 32.0001 27.4446 32.0001C27.4269 32.0001 27.4092 32.0001 27.3915 32.0001C27.3738 32.0001 27.356 32.0001 27.3383 32.0001C27.3205 32.0001 27.3027 32.0001 27.2849 32.0001C27.2672 32.0001 27.2493 32.0001 27.2315 32.0001C27.2137 32.0001 27.1958 32.0001 27.178 32.0001C27.1601 32.0001 27.1422 32.0001 27.1244 32.0001C27.1065 32.0001 27.0885 32.0001 27.0706 32.0001C27.0527 32.0001 27.0347 32.0001 27.0168 32.0001C26.9988 32.0001 26.9808 32.0001 26.9628 32.0001C26.9448 32.0001 26.9268 32.0001 26.9088 32.0001C26.8908 32.0001 26.8727 32.0001 26.8547 32.0001C26.8366 32.0001 26.8185 32.0001 26.8004 32.0001C26.7823 32.0001 26.7642 32.0001 26.7461 32.0001C26.728 32.0001 26.7098 32.0001 26.6917 32.0001C26.6735 32.0001 26.6553 32.0001 26.6371 32.0001C26.6189 32.0001 26.6007 32.0001 26.5825 32.0001C26.5643 32.0001 26.546 32.0001 26.5278 32.0001C26.5095 32.0001 26.4913 32.0001 26.473 32.0001C26.4547 32.0001 26.4364 32.0001 26.4181 32.0001C26.3998 32.0001 26.3814 32.0001 26.3631 32.0001C26.3447 32.0001 26.3264 32.0001 26.308 32.0001C26.2896 32.0001 26.2712 32.0001 26.2528 32.0001C26.2344 32.0001 26.216 32.0001 26.1975 32.0001C26.1791 32.0001 26.1606 32.0001 26.1421 32.0001C26.1237 32.0001 26.1052 32.0001 26.0867 32.0001C26.0682 32.0001 26.0497 32.0001 26.0311 32.0001C26.0126 32.0001 25.9941 32.0001 25.9755 32.0001C25.9569 32.0001 25.9384 32.0001 25.9198 32.0001C25.9012 32.0001 25.8826 32.0001 25.864 32.0001C25.8453 32.0001 25.8267 32.0001 25.8081 32.0001C25.7894 32.0001 25.7707 32.0001 25.7521 32.0001C25.7334 32.0001 25.7147 32.0001 25.696 32.0001C25.6773 32.0001 25.6586 32.0001 25.6398 32.0001C25.6211 32.0001 25.6023 32.0001 25.5836 32.0001C25.5648 32.0001 25.546 32.0001 25.5273 32.0001C25.5085 32.0001 25.4897 32.0001 25.4708 32.0001C25.452 32.0001 25.4332 32.0001 25.4143 32.0001C25.3955 32.0001 25.3766 32.0001 25.3578 32.0001C25.3389 32.0001 25.32 32.0001 25.3011 32.0001C25.2822 32.0001 25.2633 32.0001 25.2444 32.0001C25.2254 32.0001 25.2065 32.0001 25.1875 32.0001C25.1686 32.0001 25.1496 32.0001 25.1306 32.0001C25.1117 32.0001 25.0927 32.0001 25.0737 32.0001C25.0547 32.0001 25.0356 32.0001 25.0166 32.0001C24.9976 32.0001 24.9785 32.0001 24.9595 32.0001C24.9404 32.0001 24.9213 32.0001 24.9023 32.0001C24.8832 32.0001 24.8641 32.0001 24.845 32.0001C24.8259 32.0001 24.8067 32.0001 24.7876 32.0001C24.7685 32.0001 24.7493 32.0001 24.7302 32.0001C24.711 32.0001 24.6918 32.0001 24.6726 32.0001C24.6535 32.0001 24.6343 32.0001 24.6151 32.0001C24.5958 32.0001 24.5766 32.0001 24.5574 32.0001C24.5382 32.0001 24.5189 32.0001 24.4997 32.0001C24.4804 32.0001 24.4611 32.0001 24.4418 32.0001C24.4226 32.0001 24.4033 32.0001 24.384 32.0001C24.3647 32.0001 24.3453 32.0001 24.326 32.0001C24.3067 32.0001 24.2873 32.0001 24.268 32.0001C24.2486 32.0001 24.2293 32.0001 24.2099 32.0001C24.1905 32.0001 24.1711 32.0001 24.1517 32.0001C24.1323 32.0001 24.1129 32.0001 24.0935 32.0001C24.0741 32.0001 24.0547 32.0001 24.0352 32.0001C24.0158 32.0001 23.9963 32.0001 23.9769 32.0001C23.9574 32.0001 23.9379 32.0001 23.9184 32.0001C23.8989 32.0001 23.8794 32.0001 23.8599 32.0001C23.8404 32.0001 23.8209 32.0001 23.8014 32.0001C23.7818 32.0001 23.7623 32.0001 23.7427 32.0001C23.7232 32.0001 23.7036 32.0001 23.684 32.0001C23.6645 32.0001 23.6449 32.0001 23.6253 32.0001C23.6057 32.0001 23.5861 32.0001 23.5665 32.0001C23.5469 32.0001 23.5272 32.0001 23.5076 32.0001C23.488 32.0001 23.4683 32.0001 23.4487 32.0001C23.429 32.0001 23.4093 32.0001 23.3897 32.0001C23.37 32.0001 23.3503 32.0001 23.3306 32.0001C23.3109 32.0001 23.2912 32.0001 23.2715 32.0001C23.2518 32.0001 23.232 32.0001 23.2123 32.0001C23.1926 32.0001 23.1728 32.0001 23.153 32.0001C23.1333 32.0001 23.1135 32.0001 23.0938 32.0001C23.074 32.0001 23.0542 32.0001 23.0344 32.0001C23.0146 32.0001 22.9948 32.0001 22.975 32.0001C22.9552 32.0001 22.9353 32.0001 22.9155 32.0001C22.8957 32.0001 22.8758 32.0001 22.856 32.0001C22.8361 32.0001 22.8163 32.0001 22.7964 32.0001C22.7765 32.0001 22.7567 32.0001 22.7368 32.0001C22.7169 32.0001 22.697 32.0001 22.6771 32.0001C22.6572 32.0001 22.6373 32.0001 22.6174 32.0001C22.5974 32.0001 22.5775 32.0001 22.5576 32.0001C22.5376 32.0001 22.5177 32.0001 22.4977 32.0001C22.4778 32.0001 22.4578 32.0001 22.4378 32.0001C22.4179 32.0001 22.3979 32.0001 22.3779 32.0001C22.3579 32.0001 22.3379 32.0001 22.3179 32.0001C22.2979 32.0001 22.2779 32.0001 22.2579 32.0001C22.2378 32.0001 22.2178 32.0001 22.1978 32.0001C22.1777 32.0001 22.1577 32.0001 22.1376 32.0001C22.1176 32.0001 22.0975 32.0001 22.0774 32.0001C22.0574 32.0001 22.0373 32.0001 22.0172 32.0001C21.9971 32.0001 21.977 32.0001 21.9569 32.0001C21.9368 32.0001 21.9167 32.0001 21.8966 32.0001C21.8765 32.0001 21.8564 32.0001 21.8362 32.0001C21.8161 32.0001 21.796 32.0001 21.7758 32.0001C21.7557 32.0001 21.7355 32.0001 21.7154 32.0001C21.6952 32.0001 21.6751 32.0001 21.6549 32.0001C21.6347 32.0001 21.6145 32.0001 21.5943 32.0001C21.5742 32.0001 21.554 32.0001 21.5338 32.0001C21.5136 32.0001 21.4934 32.0001 21.4731 32.0001C21.4529 32.0001 21.4327 32.0001 21.4125 32.0001C21.3922 32.0001 21.372 32.0001 21.3518 32.0001C21.3315 32.0001 21.3113 32.0001 21.291 32.0001C21.2708 32.0001 21.2505 32.0001 21.2303 32.0001C21.21 32.0001 21.1897 32.0001 21.1694 32.0001C21.1492 32.0001 21.1289 32.0001 21.1086 32.0001C21.0883 32.0001 21.068 32.0001 21.0477 32.0001C21.0274 32.0001 21.0071 32.0001 20.9868 32.0001C20.9664 32.0001 20.9461 32.0001 20.9258 32.0001C20.9055 32.0001 20.8851 32.0001 20.8648 32.0001C20.8445 32.0001 20.8241 32.0001 20.8038 32.0001C20.7834 32.0001 20.7631 32.0001 20.7427 32.0001C20.7223 32.0001 20.702 32.0001 20.6816 32.0001C20.6612 32.0001 20.6409 32.0001 20.6205 32.0001C20.6001 32.0001 20.5797 32.0001 20.5593 32.0001C20.5389 32.0001 20.5185 32.0001 20.4981 32.0001C20.4777 32.0001 20.4573 32.0001 20.4369 32.0001C20.4165 32.0001 20.3961 32.0001 20.3756 32.0001C20.3552 32.0001 20.3348 32.0001 20.3144 32.0001C20.2939 32.0001 20.2735 32.0001 20.253 32.0001C20.2326 32.0001 20.2122 32.0001 20.1917 32.0001C20.1713 32.0001 20.1508 32.0001 20.1303 32.0001C20.1099 32.0001 20.0894 32.0001 20.069 32.0001C20.0485 32.0001 20.028 32.0001 20.0075 32.0001C19.9871 32.0001 19.9666 32.0001 19.9461 32.0001C19.9256 32.0001 19.9051 32.0001 19.8846 32.0001C19.8641 32.0001 19.8436 32.0001 19.8231 32.0001C19.8026 32.0001 19.7821 32.0001 19.7616 32.0001C19.7411 32.0001 19.7206 32.0001 19.7001 32.0001C19.6796 32.0001 19.659 32.0001 19.6385 32.0001C19.618 32.0001 19.5975 32.0001 19.5769 32.0001C19.5564 32.0001 19.5359 32.0001 19.5153 32.0001C19.4948 32.0001 19.4743 32.0001 19.4537 32.0001C19.4332 32.0001 19.4126 32.0001 19.3921 32.0001C19.3715 32.0001 19.351 32.0001 19.3304 32.0001C19.3099 32.0001 19.2893 32.0001 19.2687 32.0001C19.2482 32.0001 19.2276 32.0001 19.207 32.0001C19.1865 32.0001 19.1659 32.0001 19.1453 32.0001C19.1247 32.0001 19.1042 32.0001 19.0836 32.0001C19.063 32.0001 19.0424 32.0001 19.0218 32.0001C19.0013 32.0001 18.9807 32.0001 18.9601 32.0001C18.9395 32.0001 18.9189 32.0001 18.8983 32.0001C18.8777 32.0001 18.8571 32.0001 18.8365 32.0001C18.8159 32.0001 18.7953 32.0001 18.7747 32.0001C18.7541 32.0001 18.7335 32.0001 18.7129 32.0001C18.6923 32.0001 18.6717 32.0001 18.6511 32.0001C18.6304 32.0001 18.6098 32.0001 18.5892 32.0001C18.5686 32.0001 18.548 32.0001 18.5274 32.0001C18.5067 32.0001 18.4861 32.0001 18.4655 32.0001C18.4449 32.0001 18.4242 32.0001 18.4036 32.0001C18.383 32.0001 18.3624 32.0001 18.3417 32.0001C18.3211 32.0001 18.3005 32.0001 18.2799 32.0001C18.2592 32.0001 18.2386 32.0001 18.218 32.0001C18.1973 32.0001 18.1767 32.0001 18.1561 32.0001C18.1354 32.0001 18.1148 32.0001 18.0941 32.0001C18.0735 32.0001 18.0529 32.0001 18.0322 32.0001C18.0116 32.0001 17.9909 32.0001 17.9703 32.0001C17.9497 32.0001 17.929 32.0001 17.9084 32.0001C17.8877 32.0001 17.8671 32.0001 17.8464 32.0001C17.8258 32.0001 17.8052 32.0001 17.7845 32.0001C17.7639 32.0001 17.7432 32.0001 17.7226 32.0001C17.7019 32.0001 17.6813 32.0001 17.6606 32.0001C17.64 32.0001 17.6193 32.0001 17.5987 32.0001C17.578 32.0001 17.5574 32.0001 17.5368 32.0001C17.5161 32.0001 17.4955 32.0001 17.4748 32.0001C17.4542 32.0001 17.4335 32.0001 17.4129 32.0001C17.3922 32.0001 17.3716 32.0001 17.3509 32.0001C17.3303 32.0001 17.3096 32.0001 17.289 32.0001C17.2683 32.0001 17.2477 32.0001 17.2271 32.0001C17.2064 32.0001 17.1858 32.0001 17.1651 32.0001C17.1445 32.0001 17.1238 32.0001 17.1032 32.0001C17.0825 32.0001 17.0619 32.0001 17.0413 32.0001C17.0206 32.0001 17 32.0001 16.9793 32.0001C16.9587 32.0001 16.9381 32.0001 16.9174 32.0001C16.8968 32.0001 16.8761 32.0001 16.8555 32.0001C16.8349 32.0001 16.8142 32.0001 16.7936 32.0001C16.773 32.0001 16.7523 32.0001 16.7317 32.0001C16.7111 32.0001 16.6905 32.0001 16.6698 32.0001C16.6492 32.0001 16.6286 32.0001 16.6079 32.0001C16.5873 32.0001 16.5667 32.0001 16.5461 32.0001C16.5255 32.0001 16.5048 32.0001 16.4842 32.0001C16.4636 32.0001 16.443 32.0001 16.4224 32.0001C16.4017 32.0001 16.3811 32.0001 16.3605 32.0001C16.3399 32.0001 16.3193 32.0001 16.2987 32.0001C16.2781 32.0001 16.2575 32.0001 16.2369 32.0001C16.2163 32.0001 16.1957 32.0001 16.1751 32.0001C16.1545 32.0001 16.1339 32.0001 16.1133 32.0001C16.0927 32.0001 16.0721 32.0001 16.0515 32.0001C16.0309 32.0001 16.0103 32.0001 15.9897 32.0001C15.9692 32.0001 15.9486 32.0001 15.928 32.0001C15.9074 32.0001 15.8868 32.0001 15.8663 32.0001C15.8457 32.0001 15.8251 32.0001 15.8046 32.0001C15.784 32.0001 15.7634 32.0001 15.7429 32.0001C15.7223 32.0001 15.7017 32.0001 15.6812 32.0001C15.6606 32.0001 15.6401 32.0001 15.6195 32.0001C15.599 32.0001 15.5784 32.0001 15.5579 32.0001C15.5373 32.0001 15.5168 32.0001 15.4963 32.0001C15.4757 32.0001 15.4552 32.0001 15.4347 32.0001C15.4141 32.0001 15.3936 32.0001 15.3731 32.0001C15.3526 32.0001 15.3321 32.0001 15.3115 32.0001C15.291 32.0001 15.2705 32.0001 15.25 32.0001C15.2295 32.0001 15.209 32.0001 15.1885 32.0001C15.168 32.0001 15.1475 32.0001 15.127 32.0001C15.1065 32.0001 15.086 32.0001 15.0655 32.0001C15.0451 32.0001 15.0246 32.0001 15.0041 32.0001C14.9836 32.0001 14.9631 32.0001 14.9427 32.0001C14.9222 32.0001 14.9018 32.0001 14.8813 32.0001C14.8608 32.0001 14.8404 32.0001 14.8199 32.0001C14.7995 32.0001 14.779 32.0001 14.7586 32.0001C14.7382 32.0001 14.7177 32.0001 14.6973 32.0001C14.6769 32.0001 14.6564 32.0001 14.636 32.0001C14.6156 32.0001 14.5952 32.0001 14.5748 32.0001C14.5544 32.0001 14.5339 32.0001 14.5135 32.0001C14.4931 32.0001 14.4727 32.0001 14.4524 32.0001C14.432 32.0001 14.4116 32.0001 14.3912 32.0001C14.3708 32.0001 14.3504 32.0001 14.3301 32.0001C14.3097 32.0001 14.2893 32.0001 14.269 32.0001C14.2486 32.0001 14.2283 32.0001 14.2079 32.0001C14.1876 32.0001 14.1672 32.0001 14.1469 32.0001C14.1266 32.0001 14.1062 32.0001 14.0859 32.0001C14.0656 32.0001 14.0453 32.0001 14.0249 32.0001C14.0046 32.0001 13.9843 32.0001 13.964 32.0001C13.9437 32.0001 13.9234 32.0001 13.9031 32.0001C13.8828 32.0001 13.8626 32.0001 13.8423 32.0001C13.822 32.0001 13.8017 32.0001 13.7815 32.0001C13.7612 32.0001 13.7409 32.0001 13.7207 32.0001C13.7004 32.0001 13.6802 32.0001 13.66 32.0001C13.6397 32.0001 13.6195 32.0001 13.5993 32.0001C13.579 32.0001 13.5588 32.0001 13.5386 32.0001C13.5184 32.0001 13.4982 32.0001 13.478 32.0001C13.4578 32.0001 13.4376 32.0001 13.4174 32.0001C13.3972 32.0001 13.377 32.0001 13.3569 32.0001C13.3367 32.0001 13.3165 32.0001 13.2964 32.0001C13.2762 32.0001 13.2561 32.0001 13.2359 32.0001C13.2158 32.0001 13.1957 32.0001 13.1755 32.0001C13.1554 32.0001 13.1353 32.0001 13.1152 32.0001C13.0951 32.0001 13.075 32.0001 13.0549 32.0001C13.0348 32.0001 13.0147 32.0001 12.9946 32.0001C12.9745 32.0001 12.9544 32.0001 12.9344 32.0001C12.9143 32.0001 12.8942 32.0001 12.8742 32.0001C12.8541 32.0001 12.8341 32.0001 12.814 32.0001C12.794 32.0001 12.774 32.0001 12.754 32.0001C12.7339 32.0001 12.7139 32.0001 12.6939 32.0001C12.6739 32.0001 12.6539 32.0001 12.6339 32.0001C12.614 32.0001 12.594 32.0001 12.574 32.0001C12.554 32.0001 12.5341 32.0001 12.5141 32.0001C12.4942 32.0001 12.4742 32.0001 12.4543 32.0001C12.4344 32.0001 12.4144 32.0001 12.3945 32.0001C12.3746 32.0001 12.3547 32.0001 12.3348 32.0001C12.3149 32.0001 12.295 32.0001 12.2751 32.0001C12.2552 32.0001 12.2353 32.0001 12.2155 32.0001C12.1956 32.0001 12.1758 32.0001 12.1559 32.0001C12.1361 32.0001 12.1162 32.0001 12.0964 32.0001C12.0766 32.0001 12.0567 32.0001 12.0369 32.0001C12.0171 32.0001 11.9973 32.0001 11.9775 32.0001C11.9577 32.0001 11.938 32.0001 11.9182 32.0001C11.8984 32.0001 11.8786 32.0001 11.8589 32.0001C11.8391 32.0001 11.8194 32.0001 11.7997 32.0001C11.7799 32.0001 11.7602 32.0001 11.7405 32.0001C11.7208 32.0001 11.7011 32.0001 11.6814 32.0001C11.6617 32.0001 11.642 32.0001 11.6223 32.0001C11.6026 32.0001 11.583 32.0001 11.5633 32.0001C11.5437 32.0001 11.524 32.0001 11.5044 32.0001C11.4848 32.0001 11.4651 32.0001 11.4455 32.0001C11.4259 32.0001 11.4063 32.0001 11.3867 32.0001C11.3671 32.0001 11.3475 32.0001 11.328 32.0001C11.3084 32.0001 11.2888 32.0001 11.2693 32.0001C11.2497 32.0001 11.2302 32.0001 11.2107 32.0001C11.1911 32.0001 11.1716 32.0001 11.1521 32.0001C11.1326 32.0001 11.1131 32.0001 11.0936 32.0001C11.0741 32.0001 11.0547 32.0001 11.0352 32.0001C11.0158 32.0001 10.9963 32.0001 10.9769 32.0001C10.9574 32.0001 10.938 32.0001 10.9186 32.0001C10.8992 32.0001 10.8797 32.0001 10.8604 32.0001C10.841 32.0001 10.8216 32.0001 10.8022 32.0001C10.7828 32.0001 10.7635 32.0001 10.7441 32.0001C10.7248 32.0001 10.7054 32.0001 10.6861 32.0001C10.6668 32.0001 10.6475 32.0001 10.6282 32.0001C10.6089 32.0001 10.5896 32.0001 10.5703 32.0001C10.551 32.0001 10.5318 32.0001 10.5125 32.0001C10.4932 32.0001 10.474 32.0001 10.4548 32.0001C10.4355 32.0001 10.4163 32.0001 10.3971 32.0001C10.3779 32.0001 10.3587 32.0001 10.3395 32.0001C10.3204 32.0001 10.3012 32.0001 10.282 32.0001C10.2629 32.0001 10.2437 32.0001 10.2246 32.0001C10.2055 32.0001 10.1864 32.0001 10.1672 32.0001C10.1481 32.0001 10.1291 32.0001 10.11 32.0001C10.0909 32.0001 10.0718 32.0001 10.0528 32.0001C10.0337 32.0001 10.0147 32.0001 9.99564 32.0001C9.97661 32.0001 9.9576 32.0001 9.9386 32.0001C9.91959 32.0001 9.9006 32.0001 9.88163 32.0001C9.86265 32.0001 9.84369 32.0001 9.82474 32.0001C9.80579 32.0001 9.78685 32.0001 9.76793 32.0001C9.74901 32.0001 9.7301 32.0001 9.7112 32.0001C9.69231 32.0001 9.67342 32.0001 9.65455 32.0001C9.63568 32.0001 9.61683 32.0001 9.59799 32.0001C9.57915 32.0001 9.56032 32.0001 9.5415 32.0001C9.52269 32.0001 9.50389 32.0001 9.4851 32.0001C9.46632 32.0001 9.44754 32.0001 9.42879 32.0001C9.41003 32.0001 9.39128 32.0001 9.37255 32.0001C9.35382 32.0001 9.33511 32.0001 9.31641 32.0001C9.2977 32.0001 9.27902 32.0001 9.26034 32.0001C9.24167 32.0001 9.22301 32.0001 9.20437 32.0001C9.18572 32.0001 9.16709 32.0001 9.14848 32.0001C9.12986 32.0001 9.11126 32.0001 9.09267 32.0001C9.07409 32.0001 9.05552 32.0001 9.03696 32.0001C9.0184 32.0001 8.99986 32.0001 8.98133 32.0001C8.96281 32.0001 8.94429 32.0001 8.9258 32.0001C8.9073 32.0001 8.88882 32.0001 8.87035 32.0001C8.85188 32.0001 8.83343 32.0001 8.81499 32.0001C8.79656 32.0001 8.77814 32.0001 8.75973 32.0001C8.74132 32.0001 8.72293 32.0001 8.70456 32.0001C8.68618 32.0001 8.66782 32.0001 8.64948 32.0001C8.63113 32.0001 8.6128 32.0001 8.59449 32.0001C8.57617 32.0001 8.55788 32.0001 8.53959 32.0001C8.52131 32.0001 8.50304 32.0001 8.48479 32.0001C8.46654 32.0001 8.44831 32.0001 8.43009 32.0001C8.41187 32.0001 8.39366 32.0001 8.37548 32.0001C8.35729 32.0001 8.33912 32.0001 8.32096 32.0001C8.30281 32.0001 8.28467 32.0001 8.26655 32.0001C8.24842 32.0001 8.23032 32.0001 8.21223 32.0001C8.19414 32.0001 8.17606 32.0001 8.15801 32.0001C8.13995 32.0001 8.12191 32.0001 8.10388 32.0001C8.08586 32.0001 8.06785 32.0001 8.04986 32.0001C8.03187 32.0001 8.01389 32.0001 7.99593 32.0001C7.97798 32.0001 7.96004 32.0001 7.94211 32.0001C7.92419 32.0001 7.90628 32.0001 7.88839 32.0001C7.8705 32.0001 7.85262 32.0001 7.83477 32.0001C7.81691 32.0001 7.79907 32.0001 7.78125 32.0001C7.76343 32.0001 7.74562 32.0001 7.72783 32.0001C7.71005 32.0001 7.69228 32.0001 7.67452 32.0001C7.65677 32.0001 7.63903 32.0001 7.62132 32.0001C7.6036 32.0001 7.5859 32.0001 7.56821 32.0001C7.55053 32.0001 7.53286 32.0001 7.51522 32.0001C7.49757 32.0001 7.47994 32.0001 7.46233 32.0001C7.44471 32.0001 7.42712 32.0001 7.40954 32.0001C7.39196 32.0001 7.37441 32.0001 7.35686 32.0001C7.33932 32.0001 7.3218 32.0001 7.3043 32.0001C7.28679 32.0001 7.2693 32.0001 7.25184 32.0001C7.23437 32.0001 7.21692 32.0001 7.19949 32.0001C7.18205 32.0001 7.16464 32.0001 7.14724 32.0001C7.12985 32.0001 7.11247 32.0001 7.09511 32.0001C7.07776 32.0001 7.06042 32.0001 7.04309 32.0001C7.02577 32.0001 7.00847 32.0001 6.99119 32.0001C6.9739 32.0001 6.95664 32.0001 6.93939 32.0001C6.92215 32.0001 6.90492 32.0001 6.88771 32.0001C6.8705 32.0001 6.85331 32.0001 6.83614 32.0001C6.81897 32.0001 6.80182 32.0001 6.78469 32.0001C6.76755 32.0001 6.75044 32.0001 6.73335 32.0001C6.71625 32.0001 6.69918 32.0001 6.68212 32.0001C6.66507 32.0001 6.64803 32.0001 6.63102 32.0001C6.614 32.0001 6.597 32.0001 6.58003 32.0001C6.56305 32.0001 6.54609 32.0001 6.52915 32.0001C6.51221 32.0001 6.4953 32.0001 6.4784 32.0001C6.4615 32.0001 6.44462 32.0001 6.42776 32.0001C6.4109 32.0001 6.39406 32.0001 6.37724 32.0001C6.36042 32.0001 6.34362 32.0001 6.32684 32.0001C6.31007 32.0001 6.29331 32.0001 6.27657 32.0001C6.25983 32.0001 6.24311 32.0001 6.22641 32.0001C6.20971 32.0001 6.19303 32.0001 6.17638 32.0001C6.15972 32.0001 6.14308 32.0001 6.12646 32.0001C6.10985 32.0001 6.09325 32.0001 6.07668 32.0001C6.0601 32.0001 6.04355 32.0001 6.02701 32.0001C6.01048 32.0001 5.99396 32.0001 5.97747 32.0001C5.96098 32.0001 5.9445 32.0001 5.92805 32.0001C5.9116 32.0001 5.89517 32.0001 5.87876 32.0001C5.86235 32.0001 5.84597 32.0001 5.8296 32.0001C5.81323 32.0001 5.79689 32.0001 5.78056 32.0001C5.76424 32.0001 5.74793 32.0001 5.73165 32.0001C5.71537 32.0001 5.69911 32.0001 5.68287 32.0001C5.66663 32.0001 5.65041 32.0001 5.63422 32.0001C5.61802 32.0001 5.60184 32.0001 5.58569 32.0001C5.56954 32.0001 5.55341 32.0001 5.5373 32.0001C5.52119 32.0001 5.5051 32.0001 5.48903 32.0001C5.47297 32.0001 5.45692 32.0001 5.4409 32.0001C5.42488 32.0001 5.40888 32.0001 5.3929 32.0001C5.37692 32.0001 5.36097 32.0001 5.34503 32.0001C5.3291 32.0001 5.31319 32.0001 5.2973 32.0001C5.28141 32.0001 5.26554 32.0001 5.24969 32.0001C5.23385 32.0001 5.21803 32.0001 5.20223 32.0001C5.18643 32.0001 5.17065 32.0001 5.15489 32.0001C5.13914 32.0001 5.12341 32.0001 5.1077 32.0001C5.09199 32.0001 5.0763 32.0001 5.06064 32.0001C5.04497 32.0001 5.02933 32.0001 5.01371 32.0001C4.99809 32.0001 4.9825 32.0001 4.96693 32.0001C4.95135 32.0001 4.9358 32.0001 4.92028 32.0001C4.90475 32.0001 4.88925 32.0001 4.87377 32.0001C4.85829 32.0001 4.84283 32.0001 4.8274 32.0001C4.81196 32.0001 4.79655 32.0001 4.78117 32.0001C4.76578 32.0001 4.75042 32.0001 4.73508 32.0001C4.71974 32.0001 4.70442 32.0001 4.68913 32.0001C4.67384 32.0001 4.65857 32.0001 4.64332 32.0001C4.62808 32.0001 4.61285 32.0001 4.59766 32.0001C4.58246 32.0001 4.56728 32.0001 4.55213 32.0001C4.53698 32.0001 4.52186 32.0001 4.50676 32.0001C4.49165 32.0001 4.47658 32.0001 4.46152 32.0001C4.44647 32.0001 4.43144 32.0001 4.41643 32.0001C4.40143 32.0001 4.38645 32.0001 4.37149 32.0001C4.35653 32.0001 4.3416 32.0001 4.32669 32.0001C4.31179 32.0001 4.2969 32.0001 4.28204 32.0001C4.26719 32.0001 4.25235 32.0001 4.23754 32.0001C4.22273 32.0001 4.20795 32.0001 4.19319 32.0001C4.17843 32.0001 4.16369 32.0001 4.14898 32.0001C4.13427 32.0001 4.11958 32.0001 4.10492 32.0001C4.09026 32.0001 4.07563 32.0001 4.06102 32.0001C4.04641 32.0001 4.03182 32.0001 4.01726 32.0001C4.0027 32.0001 3.98817 32.0001 3.97366 32.0001C3.95915 32.0001 3.94466 32.0001 3.9302 32.0001C3.91574 32.0001 3.90131 32.0001 3.8869 32.0001C3.87249 32.0001 3.85811 32.0001 3.84375 32.0001C3.8294 32.0001 3.81507 32.0001 3.80076 32.0001C3.78645 32.0001 3.77217 32.0001 3.75792 32.0001C3.74367 32.0001 3.72944 32.0001 3.71524 32.0001C3.70103 32.0001 3.68686 32.0001 3.67271 32.0001C3.65856 32.0001 3.64443 32.0001 3.63033 32.0001C3.61624 32.0001 3.60216 32.0001 3.58812 32.0001C3.57407 32.0001 3.56005 32.0001 3.54606 32.0001C3.53207 32.0001 3.5181 32.0001 3.50416 32.0001C3.49022 32.0001 3.4763 32.0001 3.46242 32.0001C3.44853 32.0001 3.43467 32.0001 3.42083 32.0001C3.407 32.0001 3.39319 32.0001 3.37941 32.0001C3.36563 32.0001 3.35188 32.0001 3.33815 32.0001C3.32442 32.0001 3.31072 32.0001 3.29705 32.0001C3.28337 32.0001 3.26973 32.0001 3.25611 32.0001C3.24249 32.0001 3.2289 32.0001 3.21533 32.0001C3.20177 32.0001 3.18823 32.0001 3.17472 32.0001C3.16121 32.0001 3.14772 32.0001 3.13427 32.0001C3.12081 32.0001 3.10738 32.0001 3.09398 32.0001C3.08058 32.0001 3.06721 32.0001 3.05386 32.0001C3.04052 32.0001 3.0272 32.0001 3.01391 32.0001C3.00062 32.0001 2.98735 32.0001 2.97412 32.0001C2.96088 32.0001 2.94768 32.0001 2.9345 32.0001C2.92132 32.0001 2.90817 32.0001 2.89504 32.0001C2.88192 32.0001 2.86882 32.0001 2.85576 32.0001C2.84269 32.0001 2.82965 32.0001 2.81664 32.0001C2.80363 32.0001 2.79064 32.0001 2.77769 32.0001C2.76474 32.0001 2.75181 32.0001 2.73891 32.0001C2.72601 32.0001 2.71314 32.0001 2.7003 32.0001C2.68746 32.0001 2.67465 32.0001 2.66187 32.0001C2.64908 32.0001 2.63633 32.0001 2.6236 32.0001C2.61088 32.0001 2.59818 32.0001 2.58551 32.0001C2.57284 32.0001 2.5602 32.0001 2.54759 32.0001C2.53498 32.0001 2.5224 32.0001 2.50985 32.0001C2.49729 32.0001 2.48477 32.0001 2.47227 32.0001C2.45978 32.0001 2.44731 32.0001 2.43488 32.0001C2.42244 32.0001 2.41004 32.0001 2.39766 32.0001C2.38528 32.0001 2.37293 32.0001 2.36061 32.0001C2.34829 32.0001 2.33601 32.0001 2.32375 32.0001C2.31149 32.0001 2.29926 32.0001 2.28706 32.0001C2.27486 32.0001 2.26268 32.0001 2.25054 32.0001C2.2384 32.0001 2.22629 32.0001 2.21421 32.0001C2.20213 32.0001 2.19008 32.0001 2.17806 32.0001C2.16604 32.0001 2.15404 32.0001 2.14208 32.0001C2.13012 32.0001 2.11819 32.0001 2.10629 32.0001C2.09439 32.0001 2.08252 32.0001 2.07068 32.0001C2.05884 32.0001 2.04703 32.0001 2.03525 32.0001C2.02347 32.0001 2.01172 32.0001 2 32.0001V35.0001ZM30 35.0001C34.0318 35.0001 37.1934 33.4956 39.3443 31.1559C41.4732 28.8403 42.5415 25.7854 42.5744 22.7664C42.6073 19.7468 41.6045 16.6779 39.4799 14.3486C37.3332 11.9949 34.1346 10.5 30 10.5V13.5C33.3654 13.5 35.7333 14.6926 37.2634 16.3702C38.8157 18.0721 39.6002 20.3783 39.5746 22.7337C39.5489 25.0897 38.713 27.4099 37.1358 29.1255C35.5806 30.8171 33.2342 32.0001 30 32.0001V35.0001ZM30 12C30 10.5 30 10.5 29.9999 10.5C29.9998 10.5 29.9997 10.5 29.9996 10.5C29.9995 10.5 29.9993 10.5 29.9991 10.5C29.9989 10.5 29.9986 10.5 29.9984 10.5C29.9981 10.5 29.9978 10.5 29.9974 10.5C29.9971 10.5 29.9967 10.5 29.9963 10.5C29.9959 10.5 29.9955 10.5 29.995 10.5C29.9945 10.5 29.994 10.5 29.9934 10.5C29.9929 10.5 29.9923 10.5 29.9917 10.5C29.9911 10.5 29.9905 10.5 29.9898 10.5C29.9891 10.5 29.9884 10.5 29.9877 10.5C29.9869 10.5 29.9861 10.5 29.9853 10.5C29.9845 10.5 29.9837 10.5 29.9828 10.5C29.9819 10.5 29.981 10.5 29.9801 10.5C29.9791 10.5 29.9782 10.5 29.9772 10.5C29.9762 10.5 29.9751 10.5 29.974 10.5C29.973 10.5 29.9719 10.5 29.9707 10.5C29.9696 10.5 29.9684 10.5 29.9672 10.5C29.966 10.5 29.9648 10.5 29.9635 10.5C29.9623 10.5 29.961 10.5 29.9596 10.5C29.9583 10.5 29.957 10.5 29.9556 10.5C29.9542 10.5 29.9527 10.5 29.9513 10.5C29.9498 10.5 29.9483 10.5 29.9468 10.5C29.9453 10.5 29.9438 10.5 29.9422 10.5C29.9406 10.5 29.939 10.5 29.9373 10.5C29.9357 10.5 29.934 10.5 29.9323 10.5C29.9306 10.5 29.9289 10.5 29.9271 10.5C29.9253 10.5 29.9235 10.5 29.9217 10.5C29.9198 10.5 29.918 10.5 29.9161 10.5C29.9142 10.5 29.9123 10.5 29.9103 10.5C29.9084 10.5 29.9064 10.5 29.9044 10.5C29.9023 10.5 29.9003 10.5 29.8982 10.5C29.8961 10.5 29.894 10.5 29.8919 10.5C29.8897 10.5 29.8876 10.5 29.8854 10.5C29.8832 10.5 29.8809 10.5 29.8787 10.5C29.8764 10.5 29.8741 10.5 29.8718 10.5C29.8695 10.5 29.8671 10.5 29.8648 10.5C29.8624 10.5 29.86 10.5 29.8575 10.5C29.8551 10.5 29.8526 10.5 29.8501 10.5C29.8476 10.5 29.8451 10.5 29.8425 10.5C29.84 10.5 29.8374 10.5 29.8348 10.5C29.8322 10.5 29.8295 10.5 29.8268 10.5C29.8242 10.5 29.8214 10.5 29.8187 10.5C29.816 10.5 29.8132 10.5 29.8104 10.5C29.8076 10.5 29.8048 10.5 29.802 10.5C29.7991 10.5 29.7962 10.5 29.7933 10.5C29.7904 10.5 29.7875 10.5 29.7845 10.5C29.7815 10.5 29.7785 10.5 29.7755 10.5C29.7725 10.5 29.7695 10.5 29.7664 10.5C29.7633 10.5 29.7602 10.5 29.757 10.5C29.7539 10.5 29.7507 10.5 29.7476 10.5C29.7444 10.5 29.7411 10.5 29.7379 10.5C29.7346 10.5 29.7314 10.5 29.7281 10.5C29.7248 10.5 29.7214 10.5 29.7181 10.5C29.7147 10.5 29.7113 10.5 29.7079 10.5C29.7045 10.5 29.701 10.5 29.6976 10.5C29.6941 10.5 29.6906 10.5 29.6871 10.5C29.6835 10.5 29.68 10.5 29.6764 10.5C29.6728 10.5 29.6692 10.5 29.6656 10.5C29.662 10.5 29.6583 10.5 29.6546 10.5C29.6509 10.5 29.6472 10.5 29.6435 10.5C29.6397 10.5 29.6359 10.5 29.6321 10.5C29.6283 10.5 29.6245 10.5 29.6207 10.5C29.6168 10.5 29.6129 10.5 29.609 10.5C29.6051 10.5 29.6012 10.5 29.5972 10.5C29.5933 10.5 29.5893 10.5 29.5853 10.5C29.5813 10.5 29.5773 10.5 29.5732 10.5C29.5691 10.5 29.565 10.5 29.5609 10.5C29.5568 10.5 29.5527 10.5 29.5485 10.5C29.5443 10.5 29.5402 10.5 29.5359 10.5C29.5317 10.5 29.5275 10.5 29.5232 10.5C29.5189 10.5 29.5146 10.5 29.5103 10.5C29.506 10.5 29.5017 10.5 29.4973 10.5C29.4929 10.5 29.4885 10.5 29.4841 10.5C29.4797 10.5 29.4752 10.5 29.4707 10.5C29.4663 10.5 29.4618 10.5 29.4573 10.5C29.4527 10.5 29.4482 10.5 29.4436 10.5C29.439 10.5 29.4344 10.5 29.4298 10.5C29.4252 10.5 29.4205 10.5 29.4159 10.5C29.4112 10.5 29.4065 10.5 29.4018 10.5C29.3971 10.5 29.3923 10.5 29.3876 10.5C29.3828 10.5 29.378 10.5 29.3732 10.5C29.3683 10.5 29.3635 10.5 29.3586 10.5C29.3538 10.5 29.3489 10.5 29.344 10.5C29.339 10.5 29.3341 10.5 29.3291 10.5C29.3242 10.5 29.3192 10.5 29.3142 10.5C29.3092 10.5 29.3041 10.5 29.2991 10.5C29.294 10.5 29.2889 10.5 29.2838 10.5C29.2787 10.5 29.2736 10.5 29.2684 10.5C29.2633 10.5 29.2581 10.5 29.2529 10.5C29.2477 10.5 29.2425 10.5 29.2372 10.5C29.232 10.5 29.2267 10.5 29.2214 10.5C29.2161 10.5 29.2108 10.5 29.2055 10.5C29.2001 10.5 29.1948 10.5 29.1894 10.5C29.184 10.5 29.1786 10.5 29.1732 10.5C29.1677 10.5 29.1623 10.5 29.1568 10.5C29.1513 10.5 29.1458 10.5 29.1403 10.5C29.1348 10.5 29.1292 10.5 29.1237 10.5C29.1181 10.5 29.1125 10.5 29.1069 10.5C29.1013 10.5 29.0957 10.5 29.09 10.5C29.0844 10.5 29.0787 10.5 29.073 10.5C29.0673 10.5 29.0616 10.5 29.0558 10.5C29.0501 10.5 29.0443 10.5 29.0385 10.5C29.0328 10.5 29.0269 10.5 29.0211 10.5C29.0153 10.5 29.0094 10.5 29.0036 10.5C28.9977 10.5 28.9918 10.5 28.9859 10.5C28.98 10.5 28.974 10.5 28.9681 10.5C28.9621 10.5 28.9561 10.5 28.9501 10.5C28.9441 10.5 28.9381 10.5 28.9321 10.5C28.926 10.5 28.92 10.5 28.9139 10.5C28.9078 10.5 28.9017 10.5 28.8956 10.5C28.8894 10.5 28.8833 10.5 28.8771 10.5C28.871 10.5 28.8648 10.5 28.8586 10.5C28.8524 10.5 28.8461 10.5 28.8399 10.5C28.8336 10.5 28.8274 10.5 28.8211 10.5C28.8148 10.5 28.8085 10.5 28.8022 10.5C28.7958 10.5 28.7895 10.5 28.7831 10.5C28.7767 10.5 28.7703 10.5 28.7639 10.5C28.7575 10.5 28.7511 10.5 28.7446 10.5C28.7382 10.5 28.7317 10.5 28.7252 10.5C28.7188 10.5 28.7122 10.5 28.7057 10.5C28.6992 10.5 28.6926 10.5 28.6861 10.5C28.6795 10.5 28.6729 10.5 28.6663 10.5C28.6597 10.5 28.6531 10.5 28.6464 10.5C28.6398 10.5 28.6331 10.5 28.6265 10.5C28.6198 10.5 28.6131 10.5 28.6064 10.5C28.5996 10.5 28.5929 10.5 28.5861 10.5C28.5794 10.5 28.5726 10.5 28.5658 10.5C28.559 10.5 28.5522 10.5 28.5454 10.5C28.5385 10.5 28.5317 10.5 28.5248 10.5C28.518 10.5 28.5111 10.5 28.5042 10.5C28.4973 10.5 28.4903 10.5 28.4834 10.5C28.4765 10.5 28.4695 10.5 28.4625 10.5C28.4555 10.5 28.4485 10.5 28.4415 10.5C28.4345 10.5 28.4275 10.5 28.4204 10.5C28.4134 10.5 28.4063 10.5 28.3992 10.5C28.3922 10.5 28.385 10.5 28.3779 10.5C28.3708 10.5 28.3637 10.5 28.3565 10.5C28.3494 10.5 28.3422 10.5 28.335 10.5C28.3278 10.5 28.3206 10.5 28.3134 10.5C28.3062 10.5 28.2989 10.5 28.2917 10.5C28.2844 10.5 28.2771 10.5 28.2698 10.5C28.2625 10.5 28.2552 10.5 28.2479 10.5C28.2406 10.5 28.2332 10.5 28.2259 10.5C28.2185 10.5 28.2112 10.5 28.2038 10.5C28.1964 10.5 28.189 10.5 28.1815 10.5C28.1741 10.5 28.1667 10.5 28.1592 10.5C28.1518 10.5 28.1443 10.5 28.1368 10.5C28.1293 10.5 28.1218 10.5 28.1143 10.5C28.1067 10.5 28.0992 10.5 28.0917 10.5C28.0841 10.5 28.0765 10.5 28.0689 10.5C28.0614 10.5 28.0538 10.5 28.0461 10.5C28.0385 10.5 28.0309 10.5 28.0232 10.5C28.0156 10.5 28.0079 10.5 28.0002 10.5C27.9926 10.5 27.9849 10.5 27.9772 10.5C27.9695 10.5 27.9617 10.5 27.954 10.5C27.9462 10.5 27.9385 10.5 27.9307 10.5C27.923 10.5 27.9152 10.5 27.9074 10.5C27.8996 10.5 27.8917 10.5 27.8839 10.5C27.8761 10.5 27.8682 10.5 27.8604 10.5C27.8525 10.5 27.8446 10.5 27.8368 10.5C27.8289 10.5 27.821 10.5 27.813 10.5C27.8051 10.5 27.7972 10.5 27.7892 10.5C27.7813 10.5 27.7733 10.5 27.7654 10.5C27.7574 10.5 27.7494 10.5 27.7414 10.5C27.7334 10.5 27.7254 10.5 27.7173 10.5C27.7093 10.5 27.7013 10.5 27.6932 10.5C27.6852 10.5 27.6771 10.5 27.669 10.5C27.6609 10.5 27.6528 10.5 27.6447 10.5C27.6366 10.5 27.6284 10.5 27.6203 10.5C27.6122 10.5 27.604 10.5 27.5958 10.5C27.5877 10.5 27.5795 10.5 27.5713 10.5C27.5631 10.5 27.5549 10.5 27.5467 10.5C27.5385 10.5 27.5302 10.5 27.522 10.5C27.5137 10.5 27.5055 10.5 27.4972 10.5C27.4889 10.5 27.4806 10.5 27.4723 10.5C27.464 10.5 27.4557 10.5 27.4474 10.5C27.4391 10.5 27.4308 10.5 27.4224 10.5C27.4141 10.5 27.4057 10.5 27.3973 10.5C27.389 10.5 27.3806 10.5 27.3722 10.5C27.3638 10.5 27.3554 10.5 27.3469 10.5C27.3385 10.5 27.3301 10.5 27.3216 10.5C27.3132 10.5 27.3047 10.5 27.2963 10.5C27.2878 10.5 27.2793 10.5 27.2708 10.5C27.2623 10.5 27.2538 10.5 27.2453 10.5C27.2368 10.5 27.2283 10.5 27.2197 10.5C27.2112 10.5 27.2026 10.5 27.1941 10.5C27.1855 10.5 27.1769 10.5 27.1684 10.5C27.1598 10.5 27.1512 10.5 27.1426 10.5C27.134 10.5 27.1253 10.5 27.1167 10.5C27.1081 10.5 27.0994 10.5 27.0908 10.5C27.0821 10.5 27.0735 10.5 27.0648 10.5C27.0561 10.5 27.0475 10.5 27.0388 10.5C27.0301 10.5 27.0214 10.5 27.0127 10.5C27.0039 10.5 26.9952 10.5 26.9865 10.5C26.9777 10.5 26.969 10.5 26.9602 10.5C26.9515 10.5 26.9427 10.5 26.9339 10.5C26.9252 10.5 26.9164 10.5 26.9076 10.5C26.8988 10.5 26.89 10.5 26.8812 10.5C26.8723 10.5 26.8635 10.5 26.8547 10.5C26.8458 10.5 26.837 10.5 26.8281 10.5C26.8193 10.5 26.8104 10.5 26.8016 10.5C26.7927 10.5 26.7838 10.5 26.7749 10.5C26.766 10.5 26.7571 10.5 26.7482 10.5C26.7393 10.5 26.7304 10.5 26.7214 10.5C26.7125 10.5 26.7036 10.5 26.6946 10.5C26.6857 10.5 26.6767 10.5 26.6677 10.5C26.6588 10.5 26.6498 10.5 26.6408 10.5C26.6318 10.5 26.6228 10.5 26.6138 10.5C26.6048 10.5 26.5958 10.5 26.5868 10.5C26.5778 10.5 26.5688 10.5 26.5597 10.5C26.5507 10.5 26.5417 10.5 26.5326 10.5C26.5236 10.5 26.5145 10.5 26.5054 10.5C26.4964 10.5 26.4873 10.5 26.4782 10.5C26.4691 10.5 26.46 10.5 26.4509 10.5C26.4418 10.5 26.4327 10.5 26.4236 10.5C26.4145 10.5 26.4054 10.5 26.3962 10.5C26.3871 10.5 26.378 10.5 26.3688 10.5C26.3597 10.5 26.3505 10.5 26.3414 10.5C26.3322 10.5 26.323 10.5 26.3139 10.5C26.3047 10.5 26.2955 10.5 26.2863 10.5C26.2771 10.5 26.2679 10.5 26.2587 10.5C26.2495 10.5 26.2403 10.5 26.2311 10.5C26.2219 10.5 26.2126 10.5 26.2034 10.5C26.1942 10.5 26.1849 10.5 26.1757 10.5C26.1665 10.5 26.1572 10.5 26.148 10.5C26.1387 10.5 26.1294 10.5 26.1202 10.5C26.1109 10.5 26.1016 10.5 26.0923 10.5C26.083 10.5 26.0738 10.5 26.0645 10.5C26.0552 10.5 26.0459 10.5 26.0366 10.5C26.0272 10.5 26.0179 10.5 26.0086 10.5C25.9993 10.5 25.99 10.5 25.9806 10.5C25.9713 10.5 25.962 10.5 25.9526 10.5C25.9433 10.5 25.9339 10.5 25.9246 10.5C25.9152 10.5 25.9059 10.5 25.8965 10.5C25.8871 10.5 25.8778 10.5 25.8684 10.5C25.859 10.5 25.8496 10.5 25.8402 10.5C25.8309 10.5 25.8215 10.5 25.8121 10.5C25.8027 10.5 25.7933 10.5 25.7839 10.5C25.7745 10.5 25.765 10.5 25.7556 10.5C25.7462 10.5 25.7368 10.5 25.7274 10.5C25.7179 10.5 25.7085 10.5 25.6991 10.5C25.6896 10.5 25.6802 10.5 25.6708 10.5C25.6613 10.5 25.6519 10.5 25.6424 10.5C25.633 10.5 25.6235 10.5 25.6141 10.5C25.6046 10.5 25.5951 10.5 25.5857 10.5C25.5762 10.5 25.5667 10.5 25.5572 10.5C25.5478 10.5 25.5383 10.5 25.5288 10.5C25.5193 10.5 25.5098 10.5 25.5003 10.5C25.4908 10.5 25.4813 10.5 25.4718 10.5C25.4623 10.5 25.4528 10.5 25.4433 10.5C25.4338 10.5 25.4243 10.5 25.4148 10.5C25.4053 10.5 25.3958 10.5 25.3863 10.5C25.3767 10.5 25.3672 10.5 25.3577 10.5C25.3482 10.5 25.3386 10.5 25.3291 10.5C25.3196 10.5 25.31 10.5 25.3005 10.5C25.291 10.5 25.2814 10.5 25.2719 10.5C25.2623 10.5 25.2528 10.5 25.2433 10.5C25.2337 10.5 25.2242 10.5 25.2146 10.5C25.2051 10.5 25.1955 10.5 25.1859 10.5C25.1764 10.5 25.1668 10.5 25.1573 10.5C25.1477 10.5 25.1381 10.5 25.1286 10.5C25.119 10.5 25.1094 10.5 25.0999 10.5C25.0903 10.5 25.0807 10.5 25.0711 10.5C25.0616 10.5 25.052 10.5 25.0424 10.5C25.0328 10.5 25.0233 10.5 25.0137 10.5C25.0041 10.5 24.9945 10.5 24.9849 10.5C24.9754 10.5 24.9658 10.5 24.9562 10.5C24.9466 10.5 24.937 10.5 24.9274 10.5C24.9178 10.5 24.9082 10.5 24.8986 10.5C24.8891 10.5 24.8795 10.5 24.8699 10.5C24.8603 10.5 24.8507 10.5 24.8411 10.5C24.8315 10.5 24.8219 10.5 24.8123 10.5C24.8027 10.5 24.7931 10.5 24.7835 10.5C24.7739 10.5 24.7643 10.5 24.7547 10.5C24.7451 10.5 24.7355 10.5 24.7259 10.5C24.7163 10.5 24.7067 10.5 24.6971 10.5C24.6875 10.5 24.6779 10.5 24.6683 10.5C24.6587 10.5 24.6491 10.5 24.6395 10.5C24.6299 10.5 24.6203 10.5 24.6107 10.5C24.6011 10.5 24.5915 10.5 24.5819 10.5C24.5723 10.5 24.5627 10.5 24.5531 10.5C24.5435 10.5 24.5339 10.5 24.5243 10.5C24.5147 10.5 24.5051 10.5 24.4955 10.5C24.4859 10.5 24.4763 10.5 24.4667 10.5C24.4571 10.5 24.4475 10.5 24.438 10.5C24.4284 10.5 24.4188 10.5 24.4092 10.5C24.3996 10.5 24.39 10.5 24.3804 10.5C24.3708 10.5 24.3612 10.5 24.3516 10.5C24.342 10.5 24.3325 10.5 24.3229 10.5C24.3133 10.5 24.3037 10.5 24.2941 10.5C24.2845 10.5 24.275 10.5 24.2654 10.5C24.2558 10.5 24.2462 10.5 24.2367 10.5C24.2271 10.5 24.2175 10.5 24.2079 10.5C24.1984 10.5 24.1888 10.5 24.1792 10.5C24.1697 10.5 24.1601 10.5 24.1505 10.5C24.141 10.5 24.1314 10.5 24.1218 10.5C24.1123 10.5 24.1027 10.5 24.0932 10.5C24.0836 10.5 24.0741 10.5 24.0645 10.5C24.055 10.5 24.0454 10.5 24.0359 10.5C24.0263 10.5 24.0168 10.5 24.0073 10.5C23.9977 10.5 23.9882 10.5 23.9787 10.5C23.9691 10.5 23.9596 10.5 23.9501 10.5C23.9405 10.5 23.931 10.5 23.9215 10.5C23.912 10.5 23.9025 10.5 23.8929 10.5C23.8834 10.5 23.8739 10.5 23.8644 10.5C23.8549 10.5 23.8454 10.5 23.8359 10.5C23.8264 10.5 23.8169 10.5 23.8074 10.5C23.7979 10.5 23.7884 10.5 23.7789 10.5C23.7694 10.5 23.76 10.5 23.7505 10.5C23.741 10.5 23.7315 10.5 23.7221 10.5C23.7126 10.5 23.7031 10.5 23.6936 10.5C23.6842 10.5 23.6747 10.5 23.6653 10.5C23.6558 10.5 23.6464 10.5 23.6369 10.5C23.6275 10.5 23.618 10.5 23.6086 10.5C23.5992 10.5 23.5897 10.5 23.5803 10.5C23.5709 10.5 23.5614 10.5 23.552 10.5C23.5426 10.5 23.5332 10.5 23.5238 10.5C23.5144 10.5 23.505 10.5 23.4956 10.5C23.4862 10.5 23.4768 10.5 23.4674 10.5C23.458 10.5 23.4486 10.5 23.4392 10.5C23.4299 10.5 23.4205 10.5 23.4111 10.5C23.4018 10.5 23.3924 10.5 23.383 10.5C23.3737 10.5 23.3643 10.5 23.355 10.5C23.3456 10.5 23.3363 10.5 23.327 10.5C23.3176 10.5 23.3083 10.5 23.299 10.5C23.2896 10.5 23.2803 10.5 23.271 10.5C23.2617 10.5 23.2524 10.5 23.2431 10.5C23.2338 10.5 23.2245 10.5 23.2152 10.5C23.2059 10.5 23.1967 10.5 23.1874 10.5C23.1781 10.5 23.1688 10.5 23.1596 10.5C23.1503 10.5 23.1411 10.5 23.1318 10.5C23.1226 10.5 23.1133 10.5 23.1041 10.5C23.0949 10.5 23.0856 10.5 23.0764 10.5C23.0672 10.5 23.058 10.5 23.0488 10.5C23.0395 10.5 23.0303 10.5 23.0212 10.5C23.012 10.5 23.0028 10.5 22.9936 10.5C22.9844 10.5 22.9752 10.5 22.9661 10.5C22.9569 10.5 22.9478 10.5 22.9386 10.5C22.9295 10.5 22.9203 10.5 22.9112 10.5C22.902 10.5 22.8929 10.5 22.8838 10.5C22.8747 10.5 22.8656 10.5 22.8565 10.5C22.8474 10.5 22.8383 10.5 22.8292 10.5C22.8201 10.5 22.811 10.5 22.8019 10.5C22.7929 10.5 22.7838 10.5 22.7747 10.5C22.7657 10.5 22.7566 10.5 22.7476 10.5C22.7386 10.5 22.7295 10.5 22.7205 10.5C22.7115 10.5 22.7025 10.5 22.6935 10.5C22.6845 10.5 22.6755 10.5 22.6665 10.5C22.6575 10.5 22.6485 10.5 22.6395 10.5C22.6306 10.5 22.6216 10.5 22.6126 10.5C22.6037 10.5 22.5947 10.5 22.5858 10.5C22.5769 10.5 22.5679 10.5 22.559 10.5C22.5501 10.5 22.5412 10.5 22.5323 10.5C22.5234 10.5 22.5145 10.5 22.5056 10.5C22.4968 10.5 22.4879 10.5 22.479 10.5C22.4702 10.5 22.4613 10.5 22.4525 10.5C22.4436 10.5 22.4348 10.5 22.426 10.5C22.4172 10.5 22.4083 10.5 22.3995 10.5C22.3907 10.5 22.382 10.5 22.3732 10.5C22.3644 10.5 22.3556 10.5 22.3469 10.5C22.3381 10.5 22.3293 10.5 22.3206 10.5C22.3119 10.5 22.3031 10.5 22.2944 10.5C22.2857 10.5 22.277 10.5 22.2683 10.5C22.2596 10.5 22.2509 10.5 22.2422 10.5C22.2335 10.5 22.2249 10.5 22.2162 10.5C22.2075 10.5 22.1989 10.5 22.1903 10.5C22.1816 10.5 22.173 10.5 22.1644 10.5C22.1558 10.5 22.1472 10.5 22.1386 10.5C22.13 10.5 22.1214 10.5 22.1128 10.5C22.1043 10.5 22.0957 10.5 22.0872 10.5C22.0786 10.5 22.0701 10.5 22.0616 10.5C22.053 10.5 22.0445 10.5 22.036 10.5C22.0275 10.5 22.0191 10.5 22.0106 10.5C22.0021 10.5 21.9936 10.5 21.9852 10.5C21.9767 10.5 21.9683 10.5 21.9599 10.5C21.9514 10.5 21.943 10.5 21.9346 10.5C21.9262 10.5 21.9178 10.5 21.9094 10.5C21.9011 10.5 21.8927 10.5 21.8843 10.5C21.876 10.5 21.8676 10.5 21.8593 10.5C21.851 10.5 21.8427 10.5 21.8344 10.5C21.826 10.5 21.8178 10.5 21.8095 10.5C21.8012 10.5 21.7929 10.5 21.7847 10.5C21.7764 10.5 21.7682 10.5 21.7599 10.5C21.7517 10.5 21.7435 10.5 21.7353 10.5C21.7271 10.5 21.7189 10.5 21.7107 10.5C21.7026 10.5 21.6944 10.5 21.6863 10.5C21.6781 10.5 21.67 10.5 21.6618 10.5C21.6537 10.5 21.6456 10.5 21.6375 10.5C21.6294 10.5 21.6213 10.5 21.6133 10.5C21.6052 10.5 21.5972 10.5 21.5891 10.5C21.5811 10.5 21.5731 10.5 21.565 10.5C21.557 10.5 21.549 10.5 21.541 10.5C21.5331 10.5 21.5251 10.5 21.5171 10.5C21.5092 10.5 21.5012 10.5 21.4933 10.5C21.4854 10.5 21.4775 10.5 21.4696 10.5C21.4617 10.5 21.4538 10.5 21.4459 10.5C21.4381 10.5 21.4302 10.5 21.4224 10.5C21.4145 10.5 21.4067 10.5 21.3989 10.5C21.3911 10.5 21.3833 10.5 21.3755 10.5C21.3677 10.5 21.36 10.5 21.3522 10.5C21.3445 10.5 21.3367 10.5 21.329 10.5C21.3213 10.5 21.3136 10.5 21.3059 10.5C21.2982 10.5 21.2905 10.5 21.2829 10.5C21.2752 10.5 21.2676 10.5 21.26 10.5C21.2523 10.5 21.2447 10.5 21.2371 10.5C21.2295 10.5 21.222 10.5 21.2144 10.5C21.2068 10.5 21.1993 10.5 21.1917 10.5C21.1842 10.5 21.1767 10.5 21.1692 10.5C21.1617 10.5 21.1542 10.5 21.1468 10.5C21.1393 10.5 21.1318 10.5 21.1244 10.5C21.117 10.5 21.1095 10.5 21.1021 10.5C21.0947 10.5 21.0874 10.5 21.08 10.5C21.0726 10.5 21.0653 10.5 21.0579 10.5C21.0506 10.5 21.0433 10.5 21.036 10.5C21.0287 10.5 21.0214 10.5 21.0141 10.5C21.0069 10.5 20.9996 10.5 20.9924 10.5C20.9851 10.5 20.9779 10.5 20.9707 10.5C20.9635 10.5 20.9563 10.5 20.9492 10.5C20.942 10.5 20.9349 10.5 20.9277 10.5C20.9206 10.5 20.9135 10.5 20.9064 10.5C20.8993 10.5 20.8922 10.5 20.8852 10.5C20.8781 10.5 20.8711 10.5 20.864 10.5C20.857 10.5 20.85 10.5 20.843 10.5C20.836 10.5 20.8291 10.5 20.8221 10.5C20.8152 10.5 20.8082 10.5 20.8013 10.5C20.7944 10.5 20.7875 10.5 20.7806 10.5C20.7737 10.5 20.7669 10.5 20.76 10.5C20.7532 10.5 20.7464 10.5 20.7396 10.5C20.7328 10.5 20.726 10.5 20.7192 10.5C20.7124 10.5 20.7057 10.5 20.699 10.5C20.6922 10.5 20.6855 10.5 20.6788 10.5C20.6721 10.5 20.6655 10.5 20.6588 10.5C20.6522 10.5 20.6455 10.5 20.6389 10.5C20.6323 10.5 20.6257 10.5 20.6191 10.5C20.6125 10.5 20.606 10.5 20.5994 10.5C20.5929 10.5 20.5864 10.5 20.5799 10.5C20.5734 10.5 20.5669 10.5 20.5604 10.5C20.554 10.5 20.5475 10.5 20.5411 10.5C20.5347 10.5 20.5283 10.5 20.5219 10.5C20.5155 10.5 20.5092 10.5 20.5028 10.5C20.4965 10.5 20.4902 10.5 20.4839 10.5C20.4776 10.5 20.4713 10.5 20.465 10.5C20.4588 10.5 20.4525 10.5 20.4463 10.5C20.4401 10.5 20.4339 10.5 20.4277 10.5C20.4215 10.5 20.4154 10.5 20.4092 10.5C20.4031 10.5 20.397 10.5 20.3909 10.5C20.3848 10.5 20.3787 10.5 20.3727 10.5C20.3666 10.5 20.3606 10.5 20.3546 10.5C20.3485 10.5 20.3426 10.5 20.3366 10.5C20.3306 10.5 20.3247 10.5 20.3187 10.5C20.3128 10.5 20.3069 10.5 20.301 10.5C20.2951 10.5 20.2893 10.5 20.2834 10.5C20.2776 10.5 20.2718 10.5 20.266 10.5C20.2602 10.5 20.2544 10.5 20.2486 10.5C20.2429 10.5 20.2372 10.5 20.2314 10.5C20.2257 10.5 20.22 10.5 20.2144 10.5C20.2087 10.5 20.2031 10.5 20.1974 10.5C20.1918 10.5 20.1862 10.5 20.1806 10.5C20.1751 10.5 20.1695 10.5 20.164 10.5C20.1584 10.5 20.1529 10.5 20.1474 10.5C20.1419 10.5 20.1365 10.5 20.131 10.5C20.1256 10.5 20.1202 10.5 20.1148 10.5C20.1094 10.5 20.104 10.5 20.0986 10.5C20.0933 10.5 20.088 10.5 20.0827 10.5C20.0774 10.5 20.0721 10.5 20.0668 10.5C20.0616 10.5 20.0563 10.5 20.0511 10.5C20.0459 10.5 20.0407 10.5 20.0355 10.5C20.0304 10.5 20.0252 10.5 20.0201 10.5C20.015 10.5 20.0099 10.5 20.0048 10.5C19.9997 10.5 19.9947 10.5 19.9897 10.5C19.9846 10.5 19.9796 10.5 19.9747 10.5C19.9697 10.5 19.9647 10.5 19.9598 10.5C19.9549 10.5 19.95 10.5 19.9451 10.5C19.9402 10.5 19.9353 10.5 19.9305 10.5C19.9257 10.5 19.9209 10.5 19.9161 10.5C19.9113 10.5 19.9065 10.5 19.9018 10.5C19.8971 10.5 19.8924 10.5 19.8877 10.5C19.883 10.5 19.8783 10.5 19.8737 10.5C19.869 10.5 19.8644 10.5 19.8598 10.5C19.8553 10.5 19.8507 10.5 19.8462 10.5C19.8416 10.5 19.8371 10.5 19.8326 10.5C19.8281 10.5 19.8237 10.5 19.8192 10.5C19.8148 10.5 19.8104 10.5 19.806 10.5C19.8016 10.5 19.7973 10.5 19.7929 10.5C19.7886 10.5 19.7843 10.5 19.78 10.5C19.7757 10.5 19.7714 10.5 19.7672 10.5C19.763 10.5 19.7588 10.5 19.7546 10.5C19.7504 10.5 19.7463 10.5 19.7421 10.5C19.738 10.5 19.7339 10.5 19.7298 10.5C19.7257 10.5 19.7217 10.5 19.7177 10.5C19.7136 10.5 19.7096 10.5 19.7057 10.5C19.7017 10.5 19.6978 10.5 19.6938 10.5C19.6899 10.5 19.686 10.5 19.6822 10.5C19.6783 10.5 19.6745 10.5 19.6706 10.5C19.6668 10.5 19.663 10.5 19.6593 10.5C19.6555 10.5 19.6518 10.5 19.6481 10.5C19.6444 10.5 19.6407 10.5 19.6371 10.5C19.6334 10.5 19.6298 10.5 19.6262 10.5C19.6226 10.5 19.619 10.5 19.6155 10.5C19.6119 10.5 19.6084 10.5 19.6049 10.5C19.6014 10.5 19.598 10.5 19.5945 10.5C19.5911 10.5 19.5877 10.5 19.5843 10.5C19.581 10.5 19.5776 10.5 19.5743 10.5C19.571 10.5 19.5677 10.5 19.5644 10.5C19.5611 10.5 19.5579 10.5 19.5547 10.5C19.5515 10.5 19.5483 10.5 19.5452 10.5C19.542 10.5 19.5389 10.5 19.5358 10.5C19.5327 10.5 19.5296 10.5 19.5266 10.5C19.5235 10.5 19.5205 10.5 19.5175 10.5C19.5146 10.5 19.5116 10.5 19.5087 10.5C19.5058 10.5 19.5029 10.5 19.5 10.5V13.5C19.5029 13.5 19.5058 13.5 19.5087 13.5C19.5116 13.5 19.5146 13.5 19.5175 13.5C19.5205 13.5 19.5235 13.5 19.5266 13.5C19.5296 13.5 19.5327 13.5 19.5358 13.5C19.5389 13.5 19.542 13.5 19.5452 13.5C19.5483 13.5 19.5515 13.5 19.5547 13.5C19.5579 13.5 19.5611 13.5 19.5644 13.5C19.5677 13.5 19.571 13.5 19.5743 13.5C19.5776 13.5 19.581 13.5 19.5843 13.5C19.5877 13.5 19.5911 13.5 19.5945 13.5C19.598 13.5 19.6014 13.5 19.6049 13.5C19.6084 13.5 19.6119 13.5 19.6155 13.5C19.619 13.5 19.6226 13.5 19.6262 13.5C19.6298 13.5 19.6334 13.5 19.6371 13.5C19.6407 13.5 19.6444 13.5 19.6481 13.5C19.6518 13.5 19.6555 13.5 19.6593 13.5C19.663 13.5 19.6668 13.5 19.6706 13.5C19.6745 13.5 19.6783 13.5 19.6822 13.5C19.686 13.5 19.6899 13.5 19.6938 13.5C19.6978 13.5 19.7017 13.5 19.7057 13.5C19.7096 13.5 19.7136 13.5 19.7177 13.5C19.7217 13.5 19.7257 13.5 19.7298 13.5C19.7339 13.5 19.738 13.5 19.7421 13.5C19.7463 13.5 19.7504 13.5 19.7546 13.5C19.7588 13.5 19.763 13.5 19.7672 13.5C19.7714 13.5 19.7757 13.5 19.78 13.5C19.7843 13.5 19.7886 13.5 19.7929 13.5C19.7973 13.5 19.8016 13.5 19.806 13.5C19.8104 13.5 19.8148 13.5 19.8192 13.5C19.8237 13.5 19.8281 13.5 19.8326 13.5C19.8371 13.5 19.8416 13.5 19.8462 13.5C19.8507 13.5 19.8553 13.5 19.8598 13.5C19.8644 13.5 19.869 13.5 19.8737 13.5C19.8783 13.5 19.883 13.5 19.8877 13.5C19.8924 13.5 19.8971 13.5 19.9018 13.5C19.9065 13.5 19.9113 13.5 19.9161 13.5C19.9209 13.5 19.9257 13.5 19.9305 13.5C19.9353 13.5 19.9402 13.5 19.9451 13.5C19.95 13.5 19.9549 13.5 19.9598 13.5C19.9647 13.5 19.9697 13.5 19.9747 13.5C19.9796 13.5 19.9846 13.5 19.9897 13.5C19.9947 13.5 19.9997 13.5 20.0048 13.5C20.0099 13.5 20.015 13.5 20.0201 13.5C20.0252 13.5 20.0304 13.5 20.0355 13.5C20.0407 13.5 20.0459 13.5 20.0511 13.5C20.0563 13.5 20.0616 13.5 20.0668 13.5C20.0721 13.5 20.0774 13.5 20.0827 13.5C20.088 13.5 20.0933 13.5 20.0986 13.5C20.104 13.5 20.1094 13.5 20.1148 13.5C20.1202 13.5 20.1256 13.5 20.131 13.5C20.1365 13.5 20.1419 13.5 20.1474 13.5C20.1529 13.5 20.1584 13.5 20.164 13.5C20.1695 13.5 20.1751 13.5 20.1806 13.5C20.1862 13.5 20.1918 13.5 20.1974 13.5C20.2031 13.5 20.2087 13.5 20.2144 13.5C20.22 13.5 20.2257 13.5 20.2314 13.5C20.2372 13.5 20.2429 13.5 20.2486 13.5C20.2544 13.5 20.2602 13.5 20.266 13.5C20.2718 13.5 20.2776 13.5 20.2834 13.5C20.2893 13.5 20.2951 13.5 20.301 13.5C20.3069 13.5 20.3128 13.5 20.3187 13.5C20.3247 13.5 20.3306 13.5 20.3366 13.5C20.3426 13.5 20.3485 13.5 20.3546 13.5C20.3606 13.5 20.3666 13.5 20.3727 13.5C20.3787 13.5 20.3848 13.5 20.3909 13.5C20.397 13.5 20.4031 13.5 20.4092 13.5C20.4154 13.5 20.4215 13.5 20.4277 13.5C20.4339 13.5 20.4401 13.5 20.4463 13.5C20.4525 13.5 20.4588 13.5 20.465 13.5C20.4713 13.5 20.4776 13.5 20.4839 13.5C20.4902 13.5 20.4965 13.5 20.5028 13.5C20.5092 13.5 20.5155 13.5 20.5219 13.5C20.5283 13.5 20.5347 13.5 20.5411 13.5C20.5475 13.5 20.554 13.5 20.5604 13.5C20.5669 13.5 20.5734 13.5 20.5799 13.5C20.5864 13.5 20.5929 13.5 20.5994 13.5C20.606 13.5 20.6125 13.5 20.6191 13.5C20.6257 13.5 20.6323 13.5 20.6389 13.5C20.6455 13.5 20.6522 13.5 20.6588 13.5C20.6655 13.5 20.6721 13.5 20.6788 13.5C20.6855 13.5 20.6922 13.5 20.699 13.5C20.7057 13.5 20.7124 13.5 20.7192 13.5C20.726 13.5 20.7328 13.5 20.7396 13.5C20.7464 13.5 20.7532 13.5 20.76 13.5C20.7669 13.5 20.7737 13.5 20.7806 13.5C20.7875 13.5 20.7944 13.5 20.8013 13.5C20.8082 13.5 20.8152 13.5 20.8221 13.5C20.8291 13.5 20.836 13.5 20.843 13.5C20.85 13.5 20.857 13.5 20.864 13.5C20.8711 13.5 20.8781 13.5 20.8852 13.5C20.8922 13.5 20.8993 13.5 20.9064 13.5C20.9135 13.5 20.9206 13.5 20.9277 13.5C20.9349 13.5 20.942 13.5 20.9492 13.5C20.9563 13.5 20.9635 13.5 20.9707 13.5C20.9779 13.5 20.9851 13.5 20.9924 13.5C20.9996 13.5 21.0069 13.5 21.0141 13.5C21.0214 13.5 21.0287 13.5 21.036 13.5C21.0433 13.5 21.0506 13.5 21.0579 13.5C21.0653 13.5 21.0726 13.5 21.08 13.5C21.0874 13.5 21.0947 13.5 21.1021 13.5C21.1095 13.5 21.117 13.5 21.1244 13.5C21.1318 13.5 21.1393 13.5 21.1468 13.5C21.1542 13.5 21.1617 13.5 21.1692 13.5C21.1767 13.5 21.1842 13.5 21.1917 13.5C21.1993 13.5 21.2068 13.5 21.2144 13.5C21.222 13.5 21.2295 13.5 21.2371 13.5C21.2447 13.5 21.2523 13.5 21.26 13.5C21.2676 13.5 21.2752 13.5 21.2829 13.5C21.2905 13.5 21.2982 13.5 21.3059 13.5C21.3136 13.5 21.3213 13.5 21.329 13.5C21.3367 13.5 21.3445 13.5 21.3522 13.5C21.36 13.5 21.3677 13.5 21.3755 13.5C21.3833 13.5 21.3911 13.5 21.3989 13.5C21.4067 13.5 21.4145 13.5 21.4224 13.5C21.4302 13.5 21.4381 13.5 21.4459 13.5C21.4538 13.5 21.4617 13.5 21.4696 13.5C21.4775 13.5 21.4854 13.5 21.4933 13.5C21.5012 13.5 21.5092 13.5 21.5171 13.5C21.5251 13.5 21.5331 13.5 21.541 13.5C21.549 13.5 21.557 13.5 21.565 13.5C21.5731 13.5 21.5811 13.5 21.5891 13.5C21.5972 13.5 21.6052 13.5 21.6133 13.5C21.6213 13.5 21.6294 13.5 21.6375 13.5C21.6456 13.5 21.6537 13.5 21.6618 13.5C21.67 13.5 21.6781 13.5 21.6863 13.5C21.6944 13.5 21.7026 13.5 21.7107 13.5C21.7189 13.5 21.7271 13.5 21.7353 13.5C21.7435 13.5 21.7517 13.5 21.7599 13.5C21.7682 13.5 21.7764 13.5 21.7847 13.5C21.7929 13.5 21.8012 13.5 21.8095 13.5C21.8178 13.5 21.826 13.5 21.8344 13.5C21.8427 13.5 21.851 13.5 21.8593 13.5C21.8676 13.5 21.876 13.5 21.8843 13.5C21.8927 13.5 21.9011 13.5 21.9094 13.5C21.9178 13.5 21.9262 13.5 21.9346 13.5C21.943 13.5 21.9514 13.5 21.9599 13.5C21.9683 13.5 21.9767 13.5 21.9852 13.5C21.9936 13.5 22.0021 13.5 22.0106 13.5C22.0191 13.5 22.0275 13.5 22.036 13.5C22.0445 13.5 22.053 13.5 22.0616 13.5C22.0701 13.5 22.0786 13.5 22.0872 13.5C22.0957 13.5 22.1043 13.5 22.1128 13.5C22.1214 13.5 22.13 13.5 22.1386 13.5C22.1472 13.5 22.1558 13.5 22.1644 13.5C22.173 13.5 22.1816 13.5 22.1903 13.5C22.1989 13.5 22.2075 13.5 22.2162 13.5C22.2249 13.5 22.2335 13.5 22.2422 13.5C22.2509 13.5 22.2596 13.5 22.2683 13.5C22.277 13.5 22.2857 13.5 22.2944 13.5C22.3031 13.5 22.3119 13.5 22.3206 13.5C22.3293 13.5 22.3381 13.5 22.3469 13.5C22.3556 13.5 22.3644 13.5 22.3732 13.5C22.382 13.5 22.3907 13.5 22.3995 13.5C22.4083 13.5 22.4172 13.5 22.426 13.5C22.4348 13.5 22.4436 13.5 22.4525 13.5C22.4613 13.5 22.4702 13.5 22.479 13.5C22.4879 13.5 22.4968 13.5 22.5056 13.5C22.5145 13.5 22.5234 13.5 22.5323 13.5C22.5412 13.5 22.5501 13.5 22.559 13.5C22.5679 13.5 22.5769 13.5 22.5858 13.5C22.5947 13.5 22.6037 13.5 22.6126 13.5C22.6216 13.5 22.6306 13.5 22.6395 13.5C22.6485 13.5 22.6575 13.5 22.6665 13.5C22.6755 13.5 22.6845 13.5 22.6935 13.5C22.7025 13.5 22.7115 13.5 22.7205 13.5C22.7295 13.5 22.7386 13.5 22.7476 13.5C22.7566 13.5 22.7657 13.5 22.7747 13.5C22.7838 13.5 22.7929 13.5 22.8019 13.5C22.811 13.5 22.8201 13.5 22.8292 13.5C22.8383 13.5 22.8474 13.5 22.8565 13.5C22.8656 13.5 22.8747 13.5 22.8838 13.5C22.8929 13.5 22.902 13.5 22.9112 13.5C22.9203 13.5 22.9295 13.5 22.9386 13.5C22.9478 13.5 22.9569 13.5 22.9661 13.5C22.9752 13.5 22.9844 13.5 22.9936 13.5C23.0028 13.5 23.012 13.5 23.0212 13.5C23.0303 13.5 23.0395 13.5 23.0488 13.5C23.058 13.5 23.0672 13.5 23.0764 13.5C23.0856 13.5 23.0949 13.5 23.1041 13.5C23.1133 13.5 23.1226 13.5 23.1318 13.5C23.1411 13.5 23.1503 13.5 23.1596 13.5C23.1688 13.5 23.1781 13.5 23.1874 13.5C23.1967 13.5 23.2059 13.5 23.2152 13.5C23.2245 13.5 23.2338 13.5 23.2431 13.5C23.2524 13.5 23.2617 13.5 23.271 13.5C23.2803 13.5 23.2896 13.5 23.299 13.5C23.3083 13.5 23.3176 13.5 23.327 13.5C23.3363 13.5 23.3456 13.5 23.355 13.5C23.3643 13.5 23.3737 13.5 23.383 13.5C23.3924 13.5 23.4018 13.5 23.4111 13.5C23.4205 13.5 23.4299 13.5 23.4392 13.5C23.4486 13.5 23.458 13.5 23.4674 13.5C23.4768 13.5 23.4862 13.5 23.4956 13.5C23.505 13.5 23.5144 13.5 23.5238 13.5C23.5332 13.5 23.5426 13.5 23.552 13.5C23.5614 13.5 23.5709 13.5 23.5803 13.5C23.5897 13.5 23.5992 13.5 23.6086 13.5C23.618 13.5 23.6275 13.5 23.6369 13.5C23.6464 13.5 23.6558 13.5 23.6653 13.5C23.6747 13.5 23.6842 13.5 23.6936 13.5C23.7031 13.5 23.7126 13.5 23.7221 13.5C23.7315 13.5 23.741 13.5 23.7505 13.5C23.76 13.5 23.7694 13.5 23.7789 13.5C23.7884 13.5 23.7979 13.5 23.8074 13.5C23.8169 13.5 23.8264 13.5 23.8359 13.5C23.8454 13.5 23.8549 13.5 23.8644 13.5C23.8739 13.5 23.8834 13.5 23.8929 13.5C23.9025 13.5 23.912 13.5 23.9215 13.5C23.931 13.5 23.9405 13.5 23.9501 13.5C23.9596 13.5 23.9691 13.5 23.9787 13.5C23.9882 13.5 23.9977 13.5 24.0073 13.5C24.0168 13.5 24.0263 13.5 24.0359 13.5C24.0454 13.5 24.055 13.5 24.0645 13.5C24.0741 13.5 24.0836 13.5 24.0932 13.5C24.1027 13.5 24.1123 13.5 24.1218 13.5C24.1314 13.5 24.141 13.5 24.1505 13.5C24.1601 13.5 24.1697 13.5 24.1792 13.5C24.1888 13.5 24.1984 13.5 24.2079 13.5C24.2175 13.5 24.2271 13.5 24.2367 13.5C24.2462 13.5 24.2558 13.5 24.2654 13.5C24.275 13.5 24.2845 13.5 24.2941 13.5C24.3037 13.5 24.3133 13.5 24.3229 13.5C24.3325 13.5 24.342 13.5 24.3516 13.5C24.3612 13.5 24.3708 13.5 24.3804 13.5C24.39 13.5 24.3996 13.5 24.4092 13.5C24.4188 13.5 24.4284 13.5 24.438 13.5C24.4475 13.5 24.4571 13.5 24.4667 13.5C24.4763 13.5 24.4859 13.5 24.4955 13.5C24.5051 13.5 24.5147 13.5 24.5243 13.5C24.5339 13.5 24.5435 13.5 24.5531 13.5C24.5627 13.5 24.5723 13.5 24.5819 13.5C24.5915 13.5 24.6011 13.5 24.6107 13.5C24.6203 13.5 24.6299 13.5 24.6395 13.5C24.6491 13.5 24.6587 13.5 24.6683 13.5C24.6779 13.5 24.6875 13.5 24.6971 13.5C24.7067 13.5 24.7163 13.5 24.7259 13.5C24.7355 13.5 24.7451 13.5 24.7547 13.5C24.7643 13.5 24.7739 13.5 24.7835 13.5C24.7931 13.5 24.8027 13.5 24.8123 13.5C24.8219 13.5 24.8315 13.5 24.8411 13.5C24.8507 13.5 24.8603 13.5 24.8699 13.5C24.8795 13.5 24.8891 13.5 24.8986 13.5C24.9082 13.5 24.9178 13.5 24.9274 13.5C24.937 13.5 24.9466 13.5 24.9562 13.5C24.9658 13.5 24.9754 13.5 24.9849 13.5C24.9945 13.5 25.0041 13.5 25.0137 13.5C25.0233 13.5 25.0328 13.5 25.0424 13.5C25.052 13.5 25.0616 13.5 25.0711 13.5C25.0807 13.5 25.0903 13.5 25.0999 13.5C25.1094 13.5 25.119 13.5 25.1286 13.5C25.1381 13.5 25.1477 13.5 25.1573 13.5C25.1668 13.5 25.1764 13.5 25.1859 13.5C25.1955 13.5 25.2051 13.5 25.2146 13.5C25.2242 13.5 25.2337 13.5 25.2433 13.5C25.2528 13.5 25.2623 13.5 25.2719 13.5C25.2814 13.5 25.291 13.5 25.3005 13.5C25.31 13.5 25.3196 13.5 25.3291 13.5C25.3386 13.5 25.3482 13.5 25.3577 13.5C25.3672 13.5 25.3767 13.5 25.3863 13.5C25.3958 13.5 25.4053 13.5 25.4148 13.5C25.4243 13.5 25.4338 13.5 25.4433 13.5C25.4528 13.5 25.4623 13.5 25.4718 13.5C25.4813 13.5 25.4908 13.5 25.5003 13.5C25.5098 13.5 25.5193 13.5 25.5288 13.5C25.5383 13.5 25.5478 13.5 25.5572 13.5C25.5667 13.5 25.5762 13.5 25.5857 13.5C25.5951 13.5 25.6046 13.5 25.6141 13.5C25.6235 13.5 25.633 13.5 25.6424 13.5C25.6519 13.5 25.6613 13.5 25.6708 13.5C25.6802 13.5 25.6896 13.5 25.6991 13.5C25.7085 13.5 25.7179 13.5 25.7274 13.5C25.7368 13.5 25.7462 13.5 25.7556 13.5C25.765 13.5 25.7745 13.5 25.7839 13.5C25.7933 13.5 25.8027 13.5 25.8121 13.5C25.8215 13.5 25.8309 13.5 25.8402 13.5C25.8496 13.5 25.859 13.5 25.8684 13.5C25.8778 13.5 25.8871 13.5 25.8965 13.5C25.9059 13.5 25.9152 13.5 25.9246 13.5C25.9339 13.5 25.9433 13.5 25.9526 13.5C25.962 13.5 25.9713 13.5 25.9806 13.5C25.99 13.5 25.9993 13.5 26.0086 13.5C26.0179 13.5 26.0272 13.5 26.0366 13.5C26.0459 13.5 26.0552 13.5 26.0645 13.5C26.0738 13.5 26.083 13.5 26.0923 13.5C26.1016 13.5 26.1109 13.5 26.1202 13.5C26.1294 13.5 26.1387 13.5 26.148 13.5C26.1572 13.5 26.1665 13.5 26.1757 13.5C26.1849 13.5 26.1942 13.5 26.2034 13.5C26.2126 13.5 26.2219 13.5 26.2311 13.5C26.2403 13.5 26.2495 13.5 26.2587 13.5C26.2679 13.5 26.2771 13.5 26.2863 13.5C26.2955 13.5 26.3047 13.5 26.3139 13.5C26.323 13.5 26.3322 13.5 26.3414 13.5C26.3505 13.5 26.3597 13.5 26.3688 13.5C26.378 13.5 26.3871 13.5 26.3962 13.5C26.4054 13.5 26.4145 13.5 26.4236 13.5C26.4327 13.5 26.4418 13.5 26.4509 13.5C26.46 13.5 26.4691 13.5 26.4782 13.5C26.4873 13.5 26.4964 13.5 26.5054 13.5C26.5145 13.5 26.5236 13.5 26.5326 13.5C26.5417 13.5 26.5507 13.5 26.5597 13.5C26.5688 13.5 26.5778 13.5 26.5868 13.5C26.5958 13.5 26.6048 13.5 26.6138 13.5C26.6228 13.5 26.6318 13.5 26.6408 13.5C26.6498 13.5 26.6588 13.5 26.6677 13.5C26.6767 13.5 26.6857 13.5 26.6946 13.5C26.7036 13.5 26.7125 13.5 26.7214 13.5C26.7304 13.5 26.7393 13.5 26.7482 13.5C26.7571 13.5 26.766 13.5 26.7749 13.5C26.7838 13.5 26.7927 13.5 26.8016 13.5C26.8104 13.5 26.8193 13.5 26.8281 13.5C26.837 13.5 26.8458 13.5 26.8547 13.5C26.8635 13.5 26.8723 13.5 26.8812 13.5C26.89 13.5 26.8988 13.5 26.9076 13.5C26.9164 13.5 26.9252 13.5 26.9339 13.5C26.9427 13.5 26.9515 13.5 26.9602 13.5C26.969 13.5 26.9777 13.5 26.9865 13.5C26.9952 13.5 27.0039 13.5 27.0127 13.5C27.0214 13.5 27.0301 13.5 27.0388 13.5C27.0475 13.5 27.0561 13.5 27.0648 13.5C27.0735 13.5 27.0821 13.5 27.0908 13.5C27.0994 13.5 27.1081 13.5 27.1167 13.5C27.1253 13.5 27.134 13.5 27.1426 13.5C27.1512 13.5 27.1598 13.5 27.1684 13.5C27.1769 13.5 27.1855 13.5 27.1941 13.5C27.2026 13.5 27.2112 13.5 27.2197 13.5C27.2283 13.5 27.2368 13.5 27.2453 13.5C27.2538 13.5 27.2623 13.5 27.2708 13.5C27.2793 13.5 27.2878 13.5 27.2963 13.5C27.3047 13.5 27.3132 13.5 27.3216 13.5C27.3301 13.5 27.3385 13.5 27.3469 13.5C27.3554 13.5 27.3638 13.5 27.3722 13.5C27.3806 13.5 27.389 13.5 27.3973 13.5C27.4057 13.5 27.4141 13.5 27.4224 13.5C27.4308 13.5 27.4391 13.5 27.4474 13.5C27.4557 13.5 27.464 13.5 27.4723 13.5C27.4806 13.5 27.4889 13.5 27.4972 13.5C27.5055 13.5 27.5137 13.5 27.522 13.5C27.5302 13.5 27.5385 13.5 27.5467 13.5C27.5549 13.5 27.5631 13.5 27.5713 13.5C27.5795 13.5 27.5877 13.5 27.5958 13.5C27.604 13.5 27.6122 13.5 27.6203 13.5C27.6284 13.5 27.6366 13.5 27.6447 13.5C27.6528 13.5 27.6609 13.5 27.669 13.5C27.6771 13.5 27.6852 13.5 27.6932 13.5C27.7013 13.5 27.7093 13.5 27.7173 13.5C27.7254 13.5 27.7334 13.5 27.7414 13.5C27.7494 13.5 27.7574 13.5 27.7654 13.5C27.7733 13.5 27.7813 13.5 27.7892 13.5C27.7972 13.5 27.8051 13.5 27.813 13.5C27.821 13.5 27.8289 13.5 27.8368 13.5C27.8446 13.5 27.8525 13.5 27.8604 13.5C27.8682 13.5 27.8761 13.5 27.8839 13.5C27.8917 13.5 27.8996 13.5 27.9074 13.5C27.9152 13.5 27.923 13.5 27.9307 13.5C27.9385 13.5 27.9462 13.5 27.954 13.5C27.9617 13.5 27.9695 13.5 27.9772 13.5C27.9849 13.5 27.9926 13.5 28.0002 13.5C28.0079 13.5 28.0156 13.5 28.0232 13.5C28.0309 13.5 28.0385 13.5 28.0461 13.5C28.0538 13.5 28.0614 13.5 28.0689 13.5C28.0765 13.5 28.0841 13.5 28.0917 13.5C28.0992 13.5 28.1067 13.5 28.1143 13.5C28.1218 13.5 28.1293 13.5 28.1368 13.5C28.1443 13.5 28.1518 13.5 28.1592 13.5C28.1667 13.5 28.1741 13.5 28.1815 13.5C28.189 13.5 28.1964 13.5 28.2038 13.5C28.2112 13.5 28.2185 13.5 28.2259 13.5C28.2332 13.5 28.2406 13.5 28.2479 13.5C28.2552 13.5 28.2625 13.5 28.2698 13.5C28.2771 13.5 28.2844 13.5 28.2917 13.5C28.2989 13.5 28.3062 13.5 28.3134 13.5C28.3206 13.5 28.3278 13.5 28.335 13.5C28.3422 13.5 28.3494 13.5 28.3565 13.5C28.3637 13.5 28.3708 13.5 28.3779 13.5C28.385 13.5 28.3922 13.5 28.3992 13.5C28.4063 13.5 28.4134 13.5 28.4204 13.5C28.4275 13.5 28.4345 13.5 28.4415 13.5C28.4485 13.5 28.4555 13.5 28.4625 13.5C28.4695 13.5 28.4765 13.5 28.4834 13.5C28.4903 13.5 28.4973 13.5 28.5042 13.5C28.5111 13.5 28.518 13.5 28.5248 13.5C28.5317 13.5 28.5385 13.5 28.5454 13.5C28.5522 13.5 28.559 13.5 28.5658 13.5C28.5726 13.5 28.5794 13.5 28.5861 13.5C28.5929 13.5 28.5996 13.5 28.6064 13.5C28.6131 13.5 28.6198 13.5 28.6265 13.5C28.6331 13.5 28.6398 13.5 28.6464 13.5C28.6531 13.5 28.6597 13.5 28.6663 13.5C28.6729 13.5 28.6795 13.5 28.6861 13.5C28.6926 13.5 28.6992 13.5 28.7057 13.5C28.7122 13.5 28.7188 13.5 28.7252 13.5C28.7317 13.5 28.7382 13.5 28.7446 13.5C28.7511 13.5 28.7575 13.5 28.7639 13.5C28.7703 13.5 28.7767 13.5 28.7831 13.5C28.7895 13.5 28.7958 13.5 28.8022 13.5C28.8085 13.5 28.8148 13.5 28.8211 13.5C28.8274 13.5 28.8336 13.5 28.8399 13.5C28.8461 13.5 28.8524 13.5 28.8586 13.5C28.8648 13.5 28.871 13.5 28.8771 13.5C28.8833 13.5 28.8894 13.5 28.8956 13.5C28.9017 13.5 28.9078 13.5 28.9139 13.5C28.92 13.5 28.926 13.5 28.9321 13.5C28.9381 13.5 28.9441 13.5 28.9501 13.5C28.9561 13.5 28.9621 13.5 28.9681 13.5C28.974 13.5 28.98 13.5 28.9859 13.5C28.9918 13.5 28.9977 13.5 29.0036 13.5C29.0094 13.5 29.0153 13.5 29.0211 13.5C29.0269 13.5 29.0328 13.5 29.0385 13.5C29.0443 13.5 29.0501 13.5 29.0558 13.5C29.0616 13.5 29.0673 13.5 29.073 13.5C29.0787 13.5 29.0844 13.5 29.09 13.5C29.0957 13.5 29.1013 13.5 29.1069 13.5C29.1125 13.5 29.1181 13.5 29.1237 13.5C29.1292 13.5 29.1348 13.5 29.1403 13.5C29.1458 13.5 29.1513 13.5 29.1568 13.5C29.1623 13.5 29.1677 13.5 29.1732 13.5C29.1786 13.5 29.184 13.5 29.1894 13.5C29.1948 13.5 29.2001 13.5 29.2055 13.5C29.2108 13.5 29.2161 13.5 29.2214 13.5C29.2267 13.5 29.232 13.5 29.2372 13.5C29.2425 13.5 29.2477 13.5 29.2529 13.5C29.2581 13.5 29.2633 13.5 29.2684 13.5C29.2736 13.5 29.2787 13.5 29.2838 13.5C29.2889 13.5 29.294 13.5 29.2991 13.5C29.3041 13.5 29.3092 13.5 29.3142 13.5C29.3192 13.5 29.3242 13.5 29.3291 13.5C29.3341 13.5 29.339 13.5 29.344 13.5C29.3489 13.5 29.3538 13.5 29.3586 13.5C29.3635 13.5 29.3683 13.5 29.3732 13.5C29.378 13.5 29.3828 13.5 29.3876 13.5C29.3923 13.5 29.3971 13.5 29.4018 13.5C29.4065 13.5 29.4112 13.5 29.4159 13.5C29.4205 13.5 29.4252 13.5 29.4298 13.5C29.4344 13.5 29.439 13.5 29.4436 13.5C29.4482 13.5 29.4527 13.5 29.4573 13.5C29.4618 13.5 29.4663 13.5 29.4707 13.5C29.4752 13.5 29.4797 13.5 29.4841 13.5C29.4885 13.5 29.4929 13.5 29.4973 13.5C29.5017 13.5 29.506 13.5 29.5103 13.5C29.5146 13.5 29.5189 13.5 29.5232 13.5C29.5275 13.5 29.5317 13.5 29.5359 13.5C29.5402 13.5 29.5443 13.5 29.5485 13.5C29.5527 13.5 29.5568 13.5 29.5609 13.5C29.565 13.5 29.5691 13.5 29.5732 13.5C29.5773 13.5 29.5813 13.5 29.5853 13.5C29.5893 13.5 29.5933 13.5 29.5972 13.5C29.6012 13.5 29.6051 13.5 29.609 13.5C29.6129 13.5 29.6168 13.5 29.6207 13.5C29.6245 13.5 29.6283 13.5 29.6321 13.5C29.6359 13.5 29.6397 13.5 29.6435 13.5C29.6472 13.5 29.6509 13.5 29.6546 13.5C29.6583 13.5 29.662 13.5 29.6656 13.5C29.6692 13.5 29.6728 13.5 29.6764 13.5C29.68 13.5 29.6835 13.5 29.6871 13.5C29.6906 13.5 29.6941 13.5 29.6976 13.5C29.701 13.5 29.7045 13.5 29.7079 13.5C29.7113 13.5 29.7147 13.5 29.7181 13.5C29.7214 13.5 29.7248 13.5 29.7281 13.5C29.7314 13.5 29.7346 13.5 29.7379 13.5C29.7411 13.5 29.7444 13.5 29.7476 13.5C29.7507 13.5 29.7539 13.5 29.757 13.5C29.7602 13.5 29.7633 13.5 29.7664 13.5C29.7695 13.5 29.7725 13.5 29.7755 13.5C29.7785 13.5 29.7815 13.5 29.7845 13.5C29.7875 13.5 29.7904 13.5 29.7933 13.5C29.7962 13.5 29.7991 13.5 29.802 13.5C29.8048 13.5 29.8076 13.5 29.8104 13.5C29.8132 13.5 29.816 13.5 29.8187 13.5C29.8214 13.5 29.8242 13.5 29.8268 13.5C29.8295 13.5 29.8322 13.5 29.8348 13.5C29.8374 13.5 29.84 13.5 29.8425 13.5C29.8451 13.5 29.8476 13.5 29.8501 13.5C29.8526 13.5 29.8551 13.5 29.8575 13.5C29.86 13.5 29.8624 13.5 29.8648 13.5C29.8671 13.5 29.8695 13.5 29.8718 13.5C29.8741 13.5 29.8764 13.5 29.8787 13.5C29.8809 13.5 29.8832 13.5 29.8854 13.5C29.8876 13.5 29.8897 13.5 29.8919 13.5C29.894 13.5 29.8961 13.5 29.8982 13.5C29.9003 13.5 29.9023 13.5 29.9044 13.5C29.9064 13.5 29.9084 13.5 29.9103 13.5C29.9123 13.5 29.9142 13.5 29.9161 13.5C29.918 13.5 29.9198 13.5 29.9217 13.5C29.9235 13.5 29.9253 13.5 29.9271 13.5C29.9289 13.5 29.9306 13.5 29.9323 13.5C29.934 13.5 29.9357 13.5 29.9373 13.5C29.939 13.5 29.9406 13.5 29.9422 13.5C29.9438 13.5 29.9453 13.5 29.9468 13.5C29.9483 13.5 29.9498 13.5 29.9513 13.5C29.9527 13.5 29.9542 13.5 29.9556 13.5C29.957 13.5 29.9583 13.5 29.9596 13.5C29.961 13.5 29.9623 13.5 29.9635 13.5C29.9648 13.5 29.966 13.5 29.9672 13.5C29.9684 13.5 29.9696 13.5 29.9707 13.5C29.9719 13.5 29.973 13.5 29.974 13.5C29.9751 13.5 29.9762 13.5 29.9772 13.5C29.9782 13.5 29.9791 13.5 29.9801 13.5C29.981 13.5 29.9819 13.5 29.9828 13.5C29.9837 13.5 29.9845 13.5 29.9853 13.5C29.9861 13.5 29.9869 13.5 29.9877 13.5C29.9884 13.5 29.9891 13.5 29.9898 13.5C29.9905 13.5 29.9911 13.5 29.9917 13.5C29.9923 13.5 29.9929 13.5 29.9934 13.5C29.994 13.5 29.9945 13.5 29.995 13.5C29.9955 13.5 29.9959 13.5 29.9963 13.5C29.9967 13.5 29.9971 13.5 29.9974 13.5C29.9978 13.5 29.9981 13.5 29.9984 13.5C29.9986 13.5 29.9989 13.5 29.9991 13.5C29.9993 13.5 29.9995 13.5 29.9996 13.5C29.9997 13.5 29.9998 13.5 29.9999 13.5C30 13.5 30 13.5 30 12Z" fill="#1E1E1E"/>
</svg>
