<svg width="15" height="14" viewBox="0 0 15 14" fill="none" xmlns="http://www.w3.org/2000/svg">
<path d="M11.8665 12.9541C11.476 13.3446 10.8428 13.3446 10.4523 12.9541L8.23591 10.7377C7.84539 10.3472 7.21222 10.3472 6.8217 10.7377L4.68309 12.8763C4.29256 13.2668 3.6594 13.2668 3.26887 12.8763L1.28586 10.8933C0.895339 10.5028 0.895338 9.8696 1.28586 9.47907L3.42447 7.34046C3.815 6.94994 3.815 6.31677 3.42447 5.92625L1.25993 3.76171C0.869405 3.37118 0.869405 2.73802 1.25993 2.34749L3.24294 0.364482C3.63346 -0.0260422 4.26663 -0.0260425 4.65715 0.364482L6.8217 2.52902C7.21222 2.91955 7.84539 2.91955 8.23591 2.52902L10.4783 0.286684C10.8688 -0.10384 11.5019 -0.103841 11.8925 0.286683L13.8755 2.26969C14.266 2.66022 14.266 3.29338 13.8755 3.68391L11.6331 5.92625C11.2426 6.31677 11.2426 6.94994 11.6331 7.34046L13.8495 9.55687C14.2401 9.94739 14.2401 10.5806 13.8495 10.9711L11.8665 12.9541Z" fill="#101010"/>
</svg>
