<svg width="55" height="46" viewBox="0 0 55 46" fill="none" xmlns="http://www.w3.org/2000/svg">
<path d="M52.4866 26.9004L16.6903 27.9595C16.6903 27.9595 16.6903 27.9595 16.5805 27.9595C14.9334 27.8536 14.8236 30.0776 16.8001 29.9717C16.9099 29.9717 17.0197 29.9717 17.1295 29.9717H52.9258C53.6944 29.9717 54.2435 30.5013 54.2435 31.1367C54.2435 31.8781 53.5846 33.1489 52.9258 33.1489H17.1295C17.0197 33.1489 16.9099 33.1489 16.8001 33.1489C11.0903 33.043 11.6393 25.8414 14.604 25.8414C14.7138 25.7354 14.7138 25.8414 14.9334 25.8414L8.01573 4.13038H5.60003C5.16082 4.97764 4.17257 5.71899 2.96472 5.71899C1.31765 5.71899 0 4.4481 0 2.85949C0 1.27089 1.31765 0 2.96472 0C4.17257 0 5.16082 0.847258 5.70984 1.90633H9.22359H9.6628L11.0903 5.8249L52.4866 7.4135C52.5964 7.3076 54.9023 7.4135 54.9023 10.273H52.7062V9.31983L46.5571 9.10802V10.8025H52.7062V10.273H54.9023V24.0409C54.9023 26.7945 52.5964 26.9004 52.4866 26.9004ZM17.0197 25.8414L20.8629 25.7354L20.3138 22.4523H16.0315L17.0197 25.8414ZM15.7021 20.8637H20.0942L19.7648 19.2751H14.9334L15.7021 20.8637ZM17.8981 8.15485L11.6393 7.94304L12.6275 10.8025H18.3374L17.8981 8.15485ZM18.6668 12.3911H12.9569L13.6158 14.1916H18.8864L18.6668 12.3911ZM19.2158 15.7802H14.055L14.7138 17.5806H19.5452L19.2158 15.7802ZM26.4629 8.36667L19.5452 8.15485L19.9844 10.8025H26.5727L26.4629 8.36667ZM26.6825 12.3911H20.3138L20.6433 14.1916H26.7923L26.6825 12.3911ZM26.9021 15.7802H20.8629L21.1923 17.5806H27.0119L26.9021 15.7802ZM27.1217 19.2751H21.5217L21.8511 20.9696H27.2315L27.1217 19.2751ZM27.2315 22.4523H22.0707L22.6197 25.6295L27.4511 25.5236L27.2315 22.4523ZM35.3571 8.68439L28.2198 8.47257L28.3296 10.8025H35.3571V8.68439ZM35.4669 12.3911H28.4394L28.5492 14.1916H35.5767L35.4669 12.3911ZM35.6865 15.7802H28.659L28.7688 17.5806H35.7963L35.6865 15.7802ZM35.7963 19.2751H28.7688L28.8786 20.9696H35.9061L35.7963 19.2751ZM36.0159 22.4523H28.9884L29.208 25.5236L36.1257 25.3118L36.0159 22.4523ZM44.8003 9.00211L37.0041 8.68439L37.1139 10.6966H44.8003V9.00211ZM44.8003 12.3911H37.2238L37.3336 14.1916H44.8003V12.3911ZM44.8003 15.7802H37.3336L37.4434 17.5806H44.8003V15.7802ZM44.8003 19.2751H37.5532L37.663 20.9696H44.8003V19.2751ZM44.8003 22.4523H37.663L37.7728 25.3118L44.8003 25.1V22.4523ZM52.7062 12.3911H46.5571V14.1916H52.7062V12.3911ZM52.7062 15.7802H46.5571V17.5806H52.7062V15.7802ZM52.7062 19.2751H46.5571V20.9696H52.7062V19.2751ZM52.7062 22.4523H46.5571V25.1L52.7062 24.9941V24.8882V24.0409V22.4523ZM23.4982 34.9494C26.5727 34.9494 29.0982 37.3852 29.0982 40.3506C29.0982 43.316 26.5727 45.7519 23.4982 45.7519C20.4237 45.7519 17.8981 43.316 17.8981 40.3506C17.8981 37.3852 20.4237 34.9494 23.4982 34.9494ZM23.4982 42.8924C24.9256 42.8924 26.1335 41.7274 26.1335 40.4565C26.1335 39.1857 24.9256 38.0207 23.4982 38.0207C22.0707 38.0207 20.9727 39.1857 20.9727 40.4565C20.9727 41.7274 22.0707 42.8924 23.4982 42.8924ZM46.9964 34.9494C50.0709 34.9494 52.5964 37.3852 52.5964 40.3506C52.5964 43.316 50.0709 45.7519 46.9964 45.7519C43.9218 45.7519 41.3963 43.316 41.3963 40.3506C41.2865 37.3852 43.812 34.9494 46.9964 34.9494ZM46.9964 42.8924C48.4238 42.8924 49.5219 41.7274 49.5219 40.4565C49.5219 39.1857 48.314 38.0207 46.9964 38.0207C45.6787 38.0207 44.4709 39.1857 44.4709 40.4565C44.4709 41.7274 45.5689 42.8924 46.9964 42.8924Z" fill="white"/>
</svg>
