<svg width="21" height="14" viewBox="0 0 21 14" fill="none" xmlns="http://www.w3.org/2000/svg">
<path fill-rule="evenodd" clip-rule="evenodd" d="M12.8645 3.13308L16.9846 0.533324C17.4517 0.238603 18.0692 0.378323 18.3639 0.845396L19.8605 3.21711C20.1552 3.68418 20.0155 4.30174 19.5484 4.59646L15.4283 7.19622L10.68 10.1924L6.75363 12.6699L6.21008 13.0349C5.75155 13.3427 5.13028 13.2206 4.82243 12.762L3.52489 10.8294L1.8015 8.26257L0.556589 6.40836C0.248736 5.94983 0.370881 5.32856 0.829406 5.02071L3.15771 3.45749C3.61624 3.14964 4.23751 3.27178 4.54536 3.73031L5.79027 5.58452L6.19749 6.19104C6.49919 6.64039 7.10363 6.76816 7.56136 6.47933L8.11618 6.12925L12.8645 3.13308Z" fill="#101010"/>
</svg>
