<svg width="15" height="15" viewBox="0 0 15 15" fill="none" xmlns="http://www.w3.org/2000/svg">
<path d="M14.4163 2.9203H11.8334V1.17302C11.8334 0.526653 11.307 0 10.6604 0H4.34301C3.69641 0 3.17025 0.526653 3.17025 1.17302V2.92167L0.582709 2.92258C0.427013 2.92258 0.280702 2.98324 0.170351 3.09401C0.0602223 3.20388 -0.000460608 3.35058 2.63275e-06 3.506C2.63275e-06 3.82734 0.261486 4.08942 0.583173 4.08942L1.90087 4.0892V13.827C1.90087 14.4733 2.42703 15 3.07386 15H11.93C12.5766 15 13.103 14.4733 13.103 13.827V4.46549H13.1003L13.1 4.08738L14.4168 4.08715C14.7385 4.08715 15 3.82508 15 3.50305C14.9995 3.18168 14.7378 2.9203 14.4163 2.9203ZM5.83083 12.697C5.50912 12.697 5.24766 12.4349 5.24766 12.1136L5.24489 5.87196C5.24489 5.55061 5.50638 5.28831 5.82831 5.28831C6.15001 5.28831 6.41147 5.55061 6.41147 5.87196L6.41422 12.1127C6.41422 12.434 6.15229 12.6963 5.83083 12.697ZM9.17554 12.697C8.85361 12.697 8.59191 12.4349 8.59191 12.1136L8.58916 5.87196C8.58916 5.55061 8.85065 5.28831 9.17233 5.28831C9.49426 5.28831 9.75574 5.55061 9.75574 5.87196L9.75849 12.1127C9.75873 12.434 9.49724 12.6963 9.17554 12.697ZM4.33958 1.894C4.33958 1.49438 4.66493 1.16981 5.06425 1.16981H9.93915C10.3389 1.16981 10.6643 1.49436 10.6643 1.894V2.921L4.33958 2.92168V1.894Z" fill="#F2D861"/>
</svg>
