<svg width="14" height="15" viewBox="0 0 14 15" fill="none" xmlns="http://www.w3.org/2000/svg">
<path d="M14 12.5618H13.9984C13.9984 12.564 14 12.5672 14 12.5704C14 13.9123 10.866 15 7.00054 15C3.13403 15 0 13.9123 0 12.5704C0 12.5672 0.00108841 12.564 0.00108841 12.5618H0V10.2813C0 11.6237 3.13403 12.7114 7.00054 12.7114C10.8665 12.7114 14 11.6237 14 10.2813V12.5618ZM14 9.15815H13.9984C13.9984 9.16083 14 9.16405 14 9.16726C14 10.5091 10.866 11.5969 7.00054 11.5969C3.13403 11.5969 0 10.5091 0 9.16726C0 9.16405 0.00108841 9.16083 0.00108841 9.15815H0V6.87813C0 8.22051 3.13403 9.30826 7.00054 9.30826C10.8665 9.30826 14 8.22051 14 6.87813V9.15815ZM14 5.755H13.9984C13.9984 5.75715 14 5.76036 14 5.76358C14 7.10543 10.866 8.19317 7.00054 8.19317C3.13403 8.19317 0 7.10543 0 5.76358C0 5.76036 0.00108841 5.75715 0.00108841 5.755H0V3.47445C0 4.81683 3.13403 5.90457 7.00054 5.90457C10.8665 5.90457 14 4.81683 14 3.47445V5.755ZM7.00054 4.86026C3.13403 4.86026 0 3.77198 0 2.42959C0 1.08774 3.13403 0 7.00054 0C10.8665 0 14 1.08774 14 2.42959C14 3.77198 10.866 4.86026 7.00054 4.86026Z" fill="#1B1B1B"/>
</svg>
