<svg width="54" height="63" viewBox="0 0 54 63" fill="none" xmlns="http://www.w3.org/2000/svg">
<path fill-rule="evenodd" clip-rule="evenodd" d="M23.0172 0.775526C22.1936 -0.0387985 20.8413 -0.0562947 19.9969 0.736447L15.5248 4.9347L11.163 0.622376C10.3393 -0.191948 8.98708 -0.209444 8.14262 0.583297C7.29817 1.37604 7.28132 2.67882 8.10498 3.49315L12.4667 7.80547L7.89019 12.1018C7.04574 12.8945 7.02888 14.1973 7.85254 15.0116C8.6762 15.8259 10.0285 15.8434 10.8729 15.0507L15.4495 10.7544L19.9135 15.1679C20.7372 15.9822 22.0895 15.9997 22.9339 15.207C23.7784 14.4142 23.7952 13.1114 22.9716 12.2971L18.5075 7.88362L22.9796 3.68538C23.824 2.89263 23.8409 1.58985 23.0172 0.775526ZM48.3066 7.89186C48.3066 12.239 44.7221 15.7623 40.2994 15.7623C35.8767 15.7623 32.291 12.239 32.291 7.89186C32.291 3.54475 35.8767 0.0201512 40.2994 0.0201512C44.7221 0.0201512 48.3066 3.54475 48.3066 7.89186ZM44.3489 7.8912C44.3489 10.1537 42.4946 11.9141 40.2999 11.9141C38.1053 11.9141 36.251 10.1537 36.251 7.8912C36.251 5.62869 38.1053 3.86708 40.2999 3.86708C42.4946 3.86708 44.3489 5.62869 44.3489 7.8912ZM4.23396 15.6332C2.26236 15.6332 0.664062 17.2315 0.664062 19.2031V43.9823C0.664062 45.9539 2.26236 47.5522 4.23396 47.5522C6.20555 47.5522 7.80385 45.9539 7.80385 43.9823V19.2031C7.80385 17.2315 6.20555 15.6332 4.23396 15.6332ZM8.64532 32.259L8.64523 17.7707C9.62518 17.6307 11.8371 17.8126 12.845 19.6606C14.1049 21.9704 31.3241 24.0696 42.4534 19.6606C43.0834 18.6097 44.5533 17.7707 46.0233 17.7707V30.7534V45.2417C44.5534 45.2417 43.0835 44.4027 42.4535 43.3518C38.9062 41.9465 34.7402 41.2024 30.6695 40.9155L32.6477 72.5548C32.8397 75.6257 30.4008 78.2218 27.3239 78.2218C24.2532 78.2218 21.8166 75.6357 21.9992 72.5705L23.8898 40.8349C18.0641 41.102 13.473 42.2007 12.8451 43.3518C11.8372 45.1997 9.62527 45.3817 8.64532 45.2417V32.259ZM16.9663 31.0119C18.0679 31.7892 19.2619 32.4351 20.5481 32.9494C22.1624 33.595 23.8039 33.9799 25.4726 34.1042C29.7937 34.4261 33.9133 33.0111 37.8315 29.8593C38.0655 29.6755 38.2091 29.3841 38.191 29.0643C38.1615 28.545 37.7165 28.1477 37.1971 28.1771C36.989 28.189 36.8005 28.2675 36.6512 28.3907C33.1191 31.2322 29.4395 32.5104 25.6126 32.2253C22.8852 32.0222 20.3649 31.1045 18.0519 29.4722C17.883 29.3506 17.6729 29.284 17.4489 29.2967C16.9295 29.3261 16.5323 29.7711 16.5617 30.2905C16.5788 30.592 16.7359 30.8523 16.9663 31.0119ZM46.8621 19.2031C46.8621 17.2315 48.4604 15.6332 50.432 15.6332C52.4036 15.6332 54.0019 17.2315 54.0019 19.2031V43.9823C54.0019 45.9539 52.4036 47.5522 50.432 47.5522C48.4604 47.5522 46.8621 45.9539 46.8621 43.9823V19.2031Z" fill="#211D1A"/>
</svg>
