<svg xmlns="http://www.w3.org/2000/svg" xmlns:xlink="http://www.w3.org/1999/xlink" width="33" height="26.0703125" viewBox="0 0 33 26.0703125" fill="none"><path  id="back arrow" style="fill:#FFFFFF; opacity:1;" d="M22.6617 15.8485C22.2711 16.239 21.638 16.239 21.2475 15.8485L14.1764 8.77742C13.7859 8.3869 13.7859 7.75373 14.1764 7.36321L21.2475 0.292138C21.638 -0.0983868 22.2711 -0.0983868 22.6617 0.292138C23.0522 0.682662 23.0522 1.31583 22.6617 1.70635L17.2977 7.07031L23.2136 7.07031Q27.8647 7.07031 30.5929 10.0514Q33.0415 12.7271 32.9994 16.5812Q32.9576 20.4125 30.4858 23.0921Q27.7386 26.0703 23.2136 26.0703L1 26.0703C0.447715 26.0703 0 25.6226 0 25.0703C0 24.518 0.447715 24.0703 1 24.0703L23.2136 24.0703Q26.8625 24.0703 29.0157 21.736Q30.9661 19.6217 30.9995 16.5594Q31.033 13.4948 29.1175 11.4017Q26.9839 9.07031 23.2136 9.07031L17.2977 9.07031L22.6617 14.4343C23.0522 14.8248 23.0522 15.458 22.6617 15.8485Z"></path></svg>