<svg width="35" height="28" viewBox="0 0 35 28" fill="none" xmlns="http://www.w3.org/2000/svg">
<path d="M0.642228 24.8499L5.45751 17.8506L1.60414 11.9014C1.28445 11.5504 0.961915 11.1994 0.961915 10.8514C0.961915 9.80135 1.60415 9.09933 2.8886 8.75131C3.53083 8.75131 3.85337 9.09933 4.4956 9.80135L7.3842 14.3495L10.5953 9.80135C11.2376 9.09933 11.5601 8.75131 12.2023 8.75131C13.4868 8.75131 13.8065 9.45034 14.129 10.8514C14.129 11.1994 14.129 11.5504 13.8065 11.9014L9.63342 17.8506L14.4487 24.8499C14.7684 25.2009 14.7684 25.5519 14.7684 26.2509C14.7684 27.301 14.1262 28 12.8417 28C12.522 28 11.8798 27.652 11.5572 27.301L7.70388 21.3518L3.53368 27.301C3.214 27.652 2.89145 28 1.92669 28C0.642232 28 0.32254 27.301 0 26.2509C0.32254 25.5519 0.322541 25.2009 0.645082 24.8499H0.642228ZM16.0557 26.2509V11.1994C16.0557 9.80135 16.6979 9.09933 17.9824 9.09933H22.478C26.3313 9.45034 28.5777 11.5504 28.5777 15.3996C28.2552 19.2517 26.3313 21.3518 22.478 21.6998H19.9091V25.8999C19.9091 27.301 19.2668 27.652 17.9824 27.652C16.6979 27.652 16.3754 27.301 16.0557 26.2509ZM19.9091 12.6005V18.2017H22.1554C23.7624 18.2017 24.4018 17.1516 24.7244 15.3996C24.7244 13.6505 23.7596 12.6005 22.1554 12.6005H19.9091ZM33.3959 3.50113H31.7889V1.74906C31.7889 0.699025 31.1466 0 30.1819 0C29.22 0 28.5777 0.699025 28.5777 1.74906V3.50113H26.9707C26.0088 3.50113 25.3666 4.20015 25.3666 5.25019C25.3666 6.30023 26.0088 6.99925 26.9736 6.99925H28.5777V8.75131C28.5777 9.80135 29.2199 10.5004 30.1847 10.5004C31.1466 10.5004 31.7889 9.80135 31.7889 8.75131V6.99925H33.3959C34.3578 6.99925 35 6.30023 35 5.25019C35 4.20015 34.3578 3.50113 33.393 3.50113H33.3959Z" fill="currentColor"/>
</svg>
