<svg width="33" height="33" viewBox="0 0 33 33" fill="none" xmlns="http://www.w3.org/2000/svg">
<rect x="1" y="1" width="30.4359" height="30.4359" rx="9" stroke="white" stroke-width="2"/>
<rect x="11.4602" y="23.137" width="9.94702" height="1.29744" rx="0.648718" stroke="white" stroke-width="1.29744"/>
<rect x="12.7581" y="26.1643" width="7.35214" height="1.29744" rx="0.648718" stroke="white" stroke-width="1.29744"/>
<circle cx="16.2175" cy="13.6228" r="7.43334" stroke="white" stroke-width="2"/>
<path d="M15.1367 22.7057C15.1367 20.9757 15.1367 17.1267 15.1367 15.5698C15.1367 14.4886 14.488 13.8398 13.6231 13.8398C12.5419 13.8398 12.1094 14.7048 12.1094 15.1373C12.1094 16.2185 12.9743 16.651 13.6231 16.651C15.007 16.651 16.0017 16.651 16.4342 16.651" stroke="white" stroke-width="2"/>
<path d="M17.7314 22.7057C17.7314 20.9757 17.7314 17.1267 17.7314 15.5698C17.7314 14.4886 18.3802 13.8398 19.2451 13.8398C20.3263 13.8398 20.7588 14.7048 20.7588 15.1373C20.7588 16.2185 19.8938 16.651 19.2451 16.651C17.8612 16.651 16.8665 16.651 16.434 16.651" stroke="white" stroke-width="2"/>
</svg>
