<svg width="16" height="14" viewBox="0 0 16 14" fill="none" xmlns="http://www.w3.org/2000/svg">
<path d="M14.6002 13.9992H1.39808L1.30959 13.9553C1.25754 13.9287 0.792538 13.6914 0.566112 13.5268C0.38427 13.398 0.238704 13.2344 0.140635 13.0486C0.0425667 12.8628 -0.00538411 12.6598 0.000479823 12.4553L0.00221492 12.3431C0.00394998 12.1171 0.00655264 11.8835 0.0785579 11.6454C0.248594 11.085 0.724003 10.7218 1.19594 10.3972C1.81449 9.97259 2.54582 9.61164 3.56604 9.22869C4.08768 9.0338 4.61723 8.85548 5.15363 8.69407C5.40348 8.61824 5.66461 8.38089 5.81816 8.0897C5.93961 7.85993 5.97605 7.63016 5.91706 7.46864L5.88843 7.43906C5.19614 6.70502 4.64525 6.05287 4.38413 4.92146C4.17418 4.013 4.20455 3.15459 4.47348 2.36973C4.88556 1.16705 5.77565 0.385224 7.04745 0.108439C7.23918 0.0667317 7.4257 0.0371575 7.61135 0.0197162V0.00151665L8.38953 0V0.0197162C8.57344 0.0371575 8.76083 0.0667317 8.95342 0.108439C10.2244 0.385224 11.1136 1.16705 11.5265 2.36973C11.7955 3.15459 11.8258 4.013 11.6168 4.92146C11.3548 6.05362 10.8039 6.70502 10.1116 7.43906L10.0856 7.46561L10.083 7.46864C10.024 7.63168 10.0604 7.85993 10.1819 8.09046C10.3354 8.38089 10.5965 8.61824 10.8455 8.69332C11.4268 8.87 11.9464 9.04517 12.434 9.22869C13.4542 9.61164 14.1847 9.97183 14.8041 10.3972C15.2552 10.7082 15.7514 11.085 15.9215 11.6462C15.9926 11.8828 15.9952 12.1163 15.9978 12.3416L15.9995 12.4553C16.0053 12.6598 15.9573 12.8628 15.8593 13.0486C15.7612 13.2343 15.6157 13.3979 15.4339 13.5268C15.2075 13.6914 14.7433 13.9287 14.6904 13.9545L14.6019 14L14.6002 13.9992Z" fill="white"/>
</svg>
