<svg width="110" height="80" viewBox="0 0 110 80" fill="none" xmlns="http://www.w3.org/2000/svg">
<path opacity="0.7" d="M27.8505 75L0 14H110L81.6645 75H27.8505Z" fill="url(#paint0_linear_8722_1801)"/>
<path d="M55 46C59.549 46 63.9958 44.6511 67.7781 42.1238C71.5604 39.5965 74.5084 36.0044 76.2492 31.8017C77.99 27.599 78.4455 22.9745 77.5581 18.5129C76.6706 14.0514 74.4801 9.95316 71.2635 6.73655C68.0468 3.51995 63.9486 1.32941 59.4871 0.441949C55.0255 -0.445511 50.401 0.00996561 46.1983 1.75078C41.9956 3.4916 38.4035 6.43956 35.8762 10.2219C33.3489 14.0042 32 18.451 32 23C32.0166 29.0949 34.4451 34.9354 38.7548 39.2452C43.0646 43.5549 48.9051 45.9834 55 46ZM37.8901 30.7886C40.2949 31.66 42.7777 32.2985 45.3044 32.6955C45.7015 35.2223 46.34 37.7051 47.2114 40.1099C43.0863 38.2222 39.7778 34.9137 37.8901 30.7886ZM57.4631 41.6384C55.8298 41.8781 54.1702 41.8781 52.5369 41.6384C51.0928 39.018 50.1171 36.1657 49.6535 33.2099C51.3911 33.3584 53.1704 33.4545 55 33.4545C56.8295 33.4545 58.6089 33.3584 60.3464 33.2099C59.8829 36.1657 58.9072 39.018 57.4631 41.6384ZM62.7886 40.1099C63.66 37.7051 64.2985 35.2223 64.6955 32.6955C67.2223 32.2985 69.7051 31.66 72.1099 30.7886C70.2222 34.9137 66.9137 38.2222 62.7886 40.1099ZM73.8182 23C73.8123 23.8241 73.7523 24.6469 73.6384 25.4631C71.018 26.9072 68.1657 27.8829 65.2099 28.3465C65.3584 26.6089 65.4545 24.8295 65.4545 23C65.4545 21.1705 65.3584 19.3911 65.2099 17.6536C68.1657 18.1171 71.018 19.0928 73.6384 20.5369C73.7523 21.3531 73.8123 22.1759 73.8182 23ZM72.1099 15.2114C69.7051 14.34 67.2223 13.7015 64.6955 13.3045C64.2985 10.7777 63.66 8.29487 62.7886 5.8901C66.9137 7.7778 70.2222 11.0863 72.1099 15.2114ZM52.5369 4.36165C54.1702 4.12189 55.8298 4.12189 57.4631 4.36165C58.9072 6.98202 59.8829 9.83428 60.3464 12.7901C58.6089 12.6416 56.8295 12.5455 55 12.5455C53.1704 12.5455 51.3911 12.6416 49.6535 12.7901C50.1171 9.83428 51.0928 6.98202 52.5369 4.36165ZM49.0263 17.0263C52.9988 16.6276 57.0012 16.6276 60.9737 17.0263C61.1736 19.0112 61.2734 21.005 61.2727 23C61.2734 24.995 61.1736 26.9888 60.9737 28.9737C58.9888 29.1736 56.995 29.2734 55 29.2727C53.005 29.2734 51.0112 29.1736 49.0263 28.9737C48.6276 25.0012 48.6276 20.9988 49.0263 17.0263ZM47.2114 5.8901C46.34 8.29487 45.7015 10.7777 45.3044 13.3045C42.7777 13.7015 40.2949 14.34 37.8901 15.2114C39.7778 11.0863 43.0863 7.7778 47.2114 5.8901ZM36.3616 20.5265C38.982 19.0824 41.8343 18.1066 44.7901 17.6431C44.6416 19.3911 44.5455 21.1705 44.5455 23C44.5455 24.8295 44.6416 26.6089 44.7901 28.3465C41.8343 27.8829 38.982 26.9072 36.3616 25.4631C36.2477 24.6469 36.1877 23.8241 36.1818 23C36.1877 22.1759 36.2477 21.3531 36.3616 20.5369V20.5265Z" fill="url(#paint1_linear_8722_1801)"/>
<path d="M106.333 72.7335H66V61.8335C66 60.8699 65.6137 59.9458 64.9261 59.2644C64.2384 58.583 63.3058 58.2002 62.3333 58.2002H47.6667C46.6942 58.2002 45.7616 58.583 45.0739 59.2644C44.3863 59.9458 44 60.8699 44 61.8335V72.7335H3.66667C2.69421 72.7335 1.76158 73.1163 1.07394 73.7977C0.386308 74.4791 0 75.4032 0 76.3669C0 77.3305 0.386308 78.2546 1.07394 78.936C1.76158 79.6174 2.69421 80.0002 3.66667 80.0002H106.333C107.306 80.0002 108.238 79.6174 108.926 78.936C109.614 78.2546 110 77.3305 110 76.3669C110 75.4032 109.614 74.4791 108.926 73.7977C108.238 73.1163 107.306 72.7335 106.333 72.7335ZM58.6667 72.7335H51.3333V65.4669H58.6667V72.7335Z" fill="url(#paint2_linear_8722_1801)"/>
<defs>
<linearGradient id="paint0_linear_8722_1801" x1="57.135" y1="20" x2="57.137" y2="75" gradientUnits="userSpaceOnUse">
<stop stop-color="#FFB02C" stop-opacity="0"/>
<stop offset="1" stop-color="#FFB02C" stop-opacity="0.71"/>
</linearGradient>
<linearGradient id="paint1_linear_8722_1801" x1="54.9993" y1="0" x2="54.9993" y2="62.7273" gradientUnits="userSpaceOnUse">
<stop stop-color="white" stop-opacity="0.33"/>
<stop offset="1" stop-color="white"/>
</linearGradient>
<linearGradient id="paint2_linear_8722_1801" x1="55" y1="-29" x2="55" y2="80" gradientUnits="userSpaceOnUse">
<stop stop-color="white" stop-opacity="0"/>
<stop offset="1" stop-color="white"/>
</linearGradient>
</defs>
</svg>
