<svg width="110" height="82" viewBox="0 0 110 82" fill="none" xmlns="http://www.w3.org/2000/svg">
<path opacity="0.7" d="M27.8505 77L0 16H110L81.6645 77H27.8505Z" fill="url(#paint0_linear_8724_7592)"/>
<path d="M106.333 74.7335H66V63.8335C66 62.8699 65.6137 61.9458 64.9261 61.2644C64.2384 60.583 63.3058 60.2002 62.3333 60.2002H47.6667C46.6942 60.2002 45.7616 60.583 45.0739 61.2644C44.3863 61.9458 44 62.8699 44 63.8335V74.7335H3.66667C2.69421 74.7335 1.76158 75.1163 1.07394 75.7977C0.386308 76.4791 0 77.4032 0 78.3669C0 79.3305 0.386308 80.2546 1.07394 80.936C1.76158 81.6174 2.69421 82.0002 3.66667 82.0002H106.333C107.306 82.0002 108.238 81.6174 108.926 80.936C109.614 80.2546 110 79.3305 110 78.3669C110 77.4032 109.614 76.4791 108.926 75.7977C108.238 75.1163 107.306 74.7335 106.333 74.7335ZM58.6667 74.7335H51.3333V67.4669H58.6667V74.7335Z" fill="url(#paint1_linear_8724_7592)"/>
<path d="M66.5003 18.4004L55 0L43.4997 18.4004L32 13.8002L36.5996 27.6003V42.3265C47.9716 47.0385 61.1369 47.407 73.4004 42.3265V27.6003L78 13.8002L66.5003 18.4004ZM68.8001 39.1414C64.3603 40.6393 59.7057 41.4024 55.02 41.4005H55.0179C50.3198 41.4028 45.6527 40.6398 41.1999 39.1414V34.0291C45.7031 35.2575 50.3502 35.8784 55.0179 35.8756C59.6962 35.8756 64.3103 35.256 68.8001 34.0291V39.1414ZM67.9307 29.4578C59.2449 31.8949 50.328 31.7645 42.0644 29.4461L39.5018 21.756L45.362 24.1006L55 8.67961L64.638 24.1013L70.5003 21.7566L67.9307 29.4578Z" fill="url(#paint2_linear_8724_7592)"/>
<defs>
<linearGradient id="paint0_linear_8724_7592" x1="57.135" y1="22" x2="57.137" y2="77" gradientUnits="userSpaceOnUse">
<stop stop-color="#FFB02C" stop-opacity="0"/>
<stop offset="1" stop-color="#FFB02C" stop-opacity="0.71"/>
</linearGradient>
<linearGradient id="paint1_linear_8724_7592" x1="55" y1="-27" x2="55" y2="82" gradientUnits="userSpaceOnUse">
<stop stop-color="white" stop-opacity="0"/>
<stop offset="1" stop-color="white"/>
</linearGradient>
<linearGradient id="paint2_linear_8724_7592" x1="54.9993" y1="0" x2="54.9993" y2="62.7273" gradientUnits="userSpaceOnUse">
<stop stop-color="white" stop-opacity="0.33"/>
<stop offset="1" stop-color="white"/>
</linearGradient>
</defs>
</svg>
