<svg width="110" height="82" viewBox="0 0 110 82" fill="none" xmlns="http://www.w3.org/2000/svg">
<path opacity="0.7" d="M27.8505 77L0 16H110L81.6645 77H27.8505Z" fill="url(#paint0_linear_8725_8250)"/>
<path d="M106.333 74.7335H66V63.8335C66 62.8699 65.6137 61.9458 64.9261 61.2644C64.2384 60.583 63.3058 60.2002 62.3333 60.2002H47.6667C46.6942 60.2002 45.7616 60.583 45.0739 61.2644C44.3863 61.9458 44 62.8699 44 63.8335V74.7335H3.66667C2.69421 74.7335 1.76158 75.1163 1.07394 75.7977C0.386308 76.4791 0 77.4032 0 78.3669C0 79.3305 0.386308 80.2546 1.07394 80.936C1.76158 81.6174 2.69421 82.0002 3.66667 82.0002H106.333C107.306 82.0002 108.238 81.6174 108.926 80.936C109.614 80.2546 110 79.3305 110 78.3669C110 77.4032 109.614 76.4791 108.926 75.7977C108.238 75.1163 107.306 74.7335 106.333 74.7335ZM58.6667 74.7335H51.3333V67.4669H58.6667V74.7335Z" fill="url(#paint1_linear_8725_8250)"/>
<path d="M40.4241 27.9395V32.0502C42.333 32.4695 44.0414 33.5285 45.2664 35.0517C46.4913 36.575 47.1593 38.4711 47.1595 40.4259C47.1567 42.6185 46.3153 44.7269 44.8079 46.3189C43.3005 47.9109 41.2413 48.8658 39.0525 48.9877L38.5871 49C36.471 49.0036 34.4283 48.2242 32.8522 46.8119C31.2761 45.3995 30.2779 43.454 30.0499 41.3498C29.8219 39.2455 30.3801 37.1313 31.6171 35.414C32.854 33.6967 34.6824 32.4977 36.7502 32.0477V26.1022C36.7502 25.8609 36.7977 25.622 36.89 25.3991C36.9823 25.1762 37.1176 24.9736 37.2882 24.803C37.4588 24.6324 37.6613 24.4971 37.8841 24.4047C38.107 24.3124 38.3459 24.2649 38.5871 24.2649H52.6704V19.4315C50.5138 19.0189 48.5582 17.894 47.117 16.2371C45.6759 14.5802 44.8326 12.4874 44.7225 10.294L44.7103 9.80404C44.7093 7.9444 45.2374 6.12289 46.233 4.55228C47.2285 2.98168 48.6503 1.72684 50.3323 0.934342C52.0142 0.141848 53.887 -0.155573 55.7317 0.0768236C57.5764 0.30922 59.3169 1.06184 60.7498 2.24676C62.1828 3.43168 63.2491 4.99998 63.8241 6.76844C64.3991 8.5369 64.4591 10.4325 63.9971 12.2338C63.5352 14.0351 62.5702 15.6678 61.2151 16.941C59.86 18.2142 58.1706 19.0755 56.3443 19.4242V24.2649H70.4276C70.8718 24.265 71.301 24.4261 71.6356 24.7184C71.9702 25.0108 72.1875 25.4145 72.2474 25.8548L72.2645 26.1022V32.0502C74.1735 32.4695 75.8819 33.5285 77.1068 35.0517C78.3318 36.575 78.9997 38.4711 79 40.4259C78.9971 42.6185 78.1558 44.7269 76.6483 46.3189C75.1409 47.9109 73.0817 48.8658 70.8929 48.9877L70.4276 49C68.3114 49.0036 66.2687 48.2242 64.6926 46.8119C63.1165 45.3995 62.1184 43.454 61.8904 41.3498C61.6624 39.2455 62.2206 37.1313 63.4575 35.414C64.6945 33.6967 66.5228 32.4977 68.5906 32.0477V27.9395H40.4241ZM38.5871 35.5264C37.2879 35.5264 36.042 36.0426 35.1233 36.9614C34.2047 37.8802 33.6886 39.1264 33.6886 40.4259C33.6886 43.1328 35.8807 45.3254 38.5332 45.3254L38.8884 45.3156C40.1575 45.2352 41.3456 44.6644 42.2015 43.7237C43.0575 42.7831 43.5142 41.5464 43.475 40.2751C43.4359 39.0038 42.904 37.7976 41.9919 36.9114C41.0797 36.0252 39.8587 35.5285 38.5871 35.5264ZM70.4276 35.5264C69.1284 35.5264 67.8824 36.0426 66.9638 36.9614C66.0451 37.8802 65.529 39.1264 65.529 40.4259C65.529 43.1328 67.7211 45.3254 70.3737 45.3254L70.7288 45.3156C71.9979 45.2352 73.186 44.6644 74.042 43.7237C74.8979 42.7831 75.3546 41.5464 75.3155 40.2751C75.2764 39.0038 74.7445 37.7976 73.8323 36.9114C72.9202 36.0252 71.6992 35.5285 70.4276 35.5264ZM54.5073 3.67967C52.8834 3.67967 51.3259 4.32491 50.1776 5.47345C49.0293 6.622 48.3842 8.17975 48.3842 9.80404C48.3842 13.1847 51.1273 15.9284 54.4584 15.9284L54.8576 15.9186C56.4494 15.8284 57.9432 15.1209 59.0215 13.9463C60.0999 12.7717 60.6776 11.2228 60.632 9.62881C60.5864 8.03483 59.921 6.52149 58.7773 5.41054C57.6335 4.29958 56.1017 3.67862 54.5073 3.67967Z" fill="url(#paint2_linear_8725_8250)"/>
<defs>
<linearGradient id="paint0_linear_8725_8250" x1="57.135" y1="22" x2="57.137" y2="77" gradientUnits="userSpaceOnUse">
<stop stop-color="#FFB02C" stop-opacity="0"/>
<stop offset="1" stop-color="#FFB02C" stop-opacity="0.71"/>
</linearGradient>
<linearGradient id="paint1_linear_8725_8250" x1="55" y1="-27" x2="55" y2="82" gradientUnits="userSpaceOnUse">
<stop stop-color="white" stop-opacity="0"/>
<stop offset="1" stop-color="white"/>
</linearGradient>
<linearGradient id="paint2_linear_8725_8250" x1="54.4992" y1="0" x2="54.4992" y2="66.8182" gradientUnits="userSpaceOnUse">
<stop stop-color="white" stop-opacity="0.33"/>
<stop offset="1" stop-color="white"/>
</linearGradient>
</defs>
</svg>
