<svg width="110" height="80" viewBox="0 0 110 80" fill="none" xmlns="http://www.w3.org/2000/svg">
<path opacity="0.7" d="M27.8505 75L0 14H110L81.6645 75H27.8505Z" fill="url(#paint0_linear_8725_8416)"/>
<path fill-rule="evenodd" clip-rule="evenodd" d="M30.75 23.625C30.75 10.5771 41.3271 0 54.375 0C67.4229 0 78 10.5771 78 23.625C78 36.6729 67.4229 47.25 54.375 47.25C41.3271 47.25 30.75 36.6729 30.75 23.625ZM54.375 43.75C59.7508 43.75 64.8044 41.6566 68.6058 37.8552C72.4066 34.0544 74.5 29.0008 74.5 23.625C74.5 18.2492 72.4066 13.1955 68.6052 9.39422C64.8045 5.59344 59.7508 3.5 54.375 3.5C48.9992 3.5 43.9455 5.59344 40.1442 9.39422C36.3434 13.1955 34.25 18.2498 34.25 23.625C34.25 29.0002 36.3429 34.055 40.1442 37.8558C43.9455 41.6566 48.9992 43.75 54.375 43.75ZM49.1884 26.346L51.6635 23.8709C52.3471 23.1873 52.3471 22.0793 51.6635 21.3963C50.9804 20.7127 49.8725 20.7127 49.1889 21.3963L46.714 23.8712L44.2392 21.396C43.5556 20.7124 42.4476 20.7124 41.7646 21.396C41.081 22.0796 41.081 23.1875 41.764 23.8711L44.239 26.3461L41.7645 28.8207C41.0809 29.5037 41.0809 30.6117 41.7645 31.2953C42.4476 31.9789 43.5555 31.9789 44.2391 31.2953L46.7136 28.8207L49.1884 31.2955C49.872 31.9791 50.98 31.9791 51.663 31.2955C52.3466 30.6119 52.3466 29.5039 51.663 28.8209L49.1884 26.346ZM67.5864 18.3647C67.5864 18.3646 67.5863 18.3645 67.5863 18.3644H67.6142C67.6142 18.3907 67.6142 18.4175 67.6131 18.4437C67.6129 18.4432 67.6128 18.4427 67.6126 18.4421C67.6126 18.4428 67.6126 18.4434 67.6126 18.444C67.6049 18.4172 67.5956 18.391 67.5858 18.3647H67.5864ZM60.8062 14.7343C59.1152 14.7343 57.5998 15.4868 56.5766 16.6757C56.3141 16.9814 56.0834 17.3156 55.8914 17.6738C55.8799 17.6929 55.8695 17.7126 55.8591 17.7328C55.8482 17.7531 55.8384 17.7728 55.8285 17.793C55.7169 18.028 55.6592 18.2848 55.6595 18.5449C55.6595 19.5113 56.4427 20.2949 57.4095 20.2949C58.0619 20.2949 58.6312 19.9373 58.9326 19.4079H58.9353C59.0775 19.1153 59.2864 18.861 59.5418 18.6642C59.9041 18.385 60.3488 18.2338 60.8062 18.2343C61.9519 18.2343 62.8843 19.1667 62.8843 20.3124C62.8843 20.8238 62.6994 21.2924 62.3916 21.6545L55.4501 28.5965C55.1937 28.8524 55.0337 29.1687 54.9697 29.4995C54.9483 29.6098 54.9377 29.7217 54.9377 29.8335C54.9377 29.8338 54.9377 29.8341 54.9377 29.8344C54.9377 30.1279 55.01 30.4046 55.1377 30.6476C55.1691 30.7072 55.2041 30.7654 55.2428 30.8218C55.5581 31.2822 56.0876 31.5844 56.6877 31.5844H65.4376C66.4045 31.5844 67.1876 30.8007 67.1876 29.8344C67.1876 28.868 66.404 28.0844 65.4376 28.0844H60.9115L64.5446 24.4512C64.5703 24.4288 64.596 24.4053 64.6217 24.3812C64.7089 24.3 64.7932 24.2157 64.8744 24.1285C64.9017 24.0996 64.9285 24.07 64.9553 24.0405C65.5935 23.3312 66.0518 22.4567 66.2596 21.4893C66.3416 21.1098 66.3843 20.716 66.3843 20.3124C66.3843 17.2319 63.8867 14.7343 60.8062 14.7343Z" fill="url(#paint1_linear_8725_8416)"/>
<path d="M106.333 72.7335H66V61.8335C66 60.8699 65.6137 59.9458 64.9261 59.2644C64.2384 58.583 63.3058 58.2002 62.3333 58.2002H47.6667C46.6942 58.2002 45.7616 58.583 45.0739 59.2644C44.3863 59.9458 44 60.8699 44 61.8335V72.7335H3.66667C2.69421 72.7335 1.76158 73.1163 1.07394 73.7977C0.386308 74.4791 0 75.4032 0 76.3669C0 77.3305 0.386308 78.2546 1.07394 78.936C1.76158 79.6174 2.69421 80.0002 3.66667 80.0002H106.333C107.306 80.0002 108.238 79.6174 108.926 78.936C109.614 78.2546 110 77.3305 110 76.3669C110 75.4032 109.614 74.4791 108.926 73.7977C108.238 73.1163 107.306 72.7335 106.333 72.7335ZM58.6667 72.7335H51.3333V65.4669H58.6667V72.7335Z" fill="url(#paint2_linear_8725_8416)"/>
<defs>
<linearGradient id="paint0_linear_8725_8416" x1="57.135" y1="20" x2="57.137" y2="75" gradientUnits="userSpaceOnUse">
<stop stop-color="#FFB02C" stop-opacity="0"/>
<stop offset="1" stop-color="#FFB02C" stop-opacity="0.71"/>
</linearGradient>
<linearGradient id="paint1_linear_8725_8416" x1="54.3742" y1="0" x2="54.3742" y2="64.4318" gradientUnits="userSpaceOnUse">
<stop stop-color="white" stop-opacity="0.33"/>
<stop offset="1" stop-color="white"/>
</linearGradient>
<linearGradient id="paint2_linear_8725_8416" x1="55" y1="-29" x2="55" y2="80" gradientUnits="userSpaceOnUse">
<stop stop-color="white" stop-opacity="0"/>
<stop offset="1" stop-color="white"/>
</linearGradient>
</defs>
</svg>
