<svg width="14" height="13" viewBox="0 0 14 13" fill="none" xmlns="http://www.w3.org/2000/svg">
<path d="M7.44213 6.33412C7.69585 6.24244 7.91553 6.07167 8.07063 5.84556C8.22574 5.61944 8.30856 5.34921 8.3076 5.07241C8.3076 4.96839 8.29519 4.87094 8.27605 4.77313L11.5234 2.6468L7.44249 9.91743V6.33412H7.44213ZM5.74913 4.78007C5.72998 4.87751 5.71722 4.97496 5.71722 5.07934C5.71817 5.35569 5.80179 5.62502 5.95671 5.85071C6.11162 6.07639 6.33032 6.24748 6.58304 6.34069V10.2361L2.22378 2.47124L5.74913 4.78007ZM7.80874 4.02567C7.57946 3.84143 7.29724 3.74079 7.00638 3.73953C6.70288 3.73953 6.42491 3.84354 6.20402 4.02567L2.7861 1.78181H11.2391L7.80874 4.02567ZM12.7236 8.50325e-06C12.4552 0.000959268 12.1936 0.0869843 11.9743 0.246386C11.7551 0.405787 11.5889 0.630829 11.4983 0.890909H2.52089C2.43183 0.629732 2.26594 0.403601 2.04627 0.24394C1.82661 0.0842798 1.56409 -0.000980235 1.29519 8.50325e-06C0.951831 0.000491292 0.622666 0.141113 0.379871 0.391041C0.137077 0.640969 0.000469008 0.979805 0 1.33326C0.000469013 1.68671 0.137077 2.02554 0.379871 2.27547C0.622666 2.5254 0.951831 2.66602 1.29519 2.6665H1.33313L5.94484 10.893C5.78795 11.1186 5.70398 11.3893 5.70481 11.6668C5.70528 12.0202 5.84188 12.359 6.08468 12.609C6.32747 12.8589 6.65664 12.9995 7 13C7.34336 12.9995 7.67253 12.8589 7.91532 12.609C8.15812 12.359 8.29472 12.0202 8.29519 11.6668C8.29519 11.3222 8.16259 11.0036 7.95376 10.7693L12.5027 2.65337C12.5658 2.6665 12.6353 2.67271 12.7048 2.67271C13.0481 2.67223 13.3772 2.53166 13.62 2.28181C13.8628 2.03196 13.9994 1.69321 14 1.33983C14 0.60477 13.4377 8.50325e-06 12.7236 8.50325e-06Z" fill="white"/>
</svg>
