<svg width="37" height="37" viewBox="0 0 37 37" fill="none" xmlns="http://www.w3.org/2000/svg">
<path fill-rule="evenodd" clip-rule="evenodd" d="M1.00214 31.1171C-0.334045 32.4626 -0.334049 34.6371 1.00214 35.9826C2.33833 37.3281 4.50625 37.3368 5.84244 35.9912L18.501 23.2443L31.1591 35.9909C32.4953 37.3364 34.6617 37.3364 35.9979 35.9909C37.334 34.6454 37.334 32.4639 35.9979 31.1183L23.3397 18.3717L35.7414 5.88328C37.0777 4.53775 37.069 2.35467 35.7329 1.00914C34.3966 -0.336383 32.2374 -0.33638 30.9012 1.00915L18.4994 13.4976L6.10382 1.01538C4.76764 -0.330146 2.60126 -0.330148 1.26507 1.01537C-0.0711094 2.36089 -0.0711059 4.54241 1.26508 5.88794L13.6606 18.3701L1.00214 31.1171Z" fill="white"/>
</svg>
