<svg width="26" height="23" viewBox="0 0 26 23" fill="none" xmlns="http://www.w3.org/2000/svg">
<path d="M23.9238 0C23.3715 0 22.9238 0.447715 22.9238 1V13.7089C22.9238 14.2611 22.476 14.7089 21.9238 14.7089H10.0007C9.44838 14.7089 9.00067 14.2611 9.00067 13.7089V10.6899C9.00067 9.83459 7.99656 9.37403 7.3483 9.93201L0.880769 15.4989C0.41717 15.8979 0.417268 16.616 0.880976 17.0149L7.34851 22.5787C7.99683 23.1364 9.00067 22.6758 9.00067 21.8206V18.8053C9.00067 18.253 9.44838 17.8053 10.0007 17.8053H24.4619C25.3119 17.8053 26 17.1107 26 16.257V0.999999C26 0.447714 25.5523 0 25 0H23.9238Z" fill="currentColor"/>
</svg>
