<svg width="29" height="27" viewBox="0 0 29 27" fill="none" xmlns="http://www.w3.org/2000/svg">
<path d="M19.8947 6.13671V2.45314H3.35069V18.4082H7.16869V6.13671H19.8947ZM22.4407 8.59179V20.8633H9.71469V24.5469H26.2587V8.58986H22.4407V8.59179ZM22.4407 6.13671H28.8047V27H7.16869V20.8633H0.804688V0H22.4407V6.13671ZM9.71469 8.59179V18.4082H19.8947V8.59179H9.71469ZM14.8047 9.81643C15.5067 9.81643 16.0767 10.3661 16.0767 11.043V12.8848C16.0767 13.2101 15.9427 13.5221 15.7041 13.7521C15.4656 13.9821 15.142 14.1114 14.8047 14.1114C14.4673 14.1114 14.1438 13.9821 13.9052 13.7521C13.6667 13.5221 13.5327 13.2101 13.5327 12.8848V11.043C13.5327 10.3661 14.1027 9.81643 14.8047 9.81643ZM14.7967 14.7246C15.1767 14.7246 15.4827 14.8404 15.7147 15.0699C15.8361 15.1822 15.9313 15.3182 15.9937 15.4689C16.0561 15.6196 16.0844 15.7814 16.0767 15.9435C16.0767 16.2984 15.9567 16.5954 15.7147 16.8364C15.4647 17.0598 15.1355 17.1826 14.7947 17.1797C14.6301 17.1818 14.4668 17.1508 14.3153 17.0887C14.1638 17.0266 14.0274 16.9348 13.9147 16.8191C13.7916 16.7066 13.6941 16.5707 13.6283 16.42C13.5626 16.2693 13.53 16.107 13.5327 15.9435C13.5327 15.5771 13.6587 15.2878 13.9127 15.0679C14.0271 14.9545 14.1649 14.8654 14.3171 14.8062C14.4693 14.7471 14.6327 14.7193 14.7967 14.7246Z" fill="white"/>
</svg>
