<svg width="29" height="25" viewBox="0 0 29 25" fill="none" xmlns="http://www.w3.org/2000/svg">
<path d="M26.1931 0C25.6409 0 25.1931 0.447715 25.1931 1V14.9346C25.1931 15.4869 24.7454 15.9346 24.1931 15.9346H10.8917C10.3394 15.9346 9.89171 15.4869 9.89171 14.9346V11.3788C9.89171 10.5268 8.89439 10.0651 8.24474 10.6163L0.898933 16.8491C0.428147 17.2485 0.428247 17.9749 0.899142 18.3743L8.24494 24.6035C8.89466 25.1545 9.89171 24.6927 9.89171 23.8408V20.289C9.89171 19.7367 10.3394 19.289 10.8917 19.289H26.8835C27.8178 19.289 28.5739 18.5366 28.5739 17.6118V1C28.5739 0.447717 28.1262 0 27.5739 0H26.1931Z" fill="currentColor"/>
</svg>
