<svg width="24" height="17" viewBox="0 0 24 17" fill="none" xmlns="http://www.w3.org/2000/svg">
<path d="M18.0002 6.80017L12 0L5.99982 6.80017L0 5.10006L2.39978 10.2001V15.6424C8.333 17.3838 15.2019 17.52 21.6002 15.6424V10.2001L24 5.10006L18.0002 6.80017ZM19.2001 14.4653C16.8836 15.0189 14.4552 15.3009 12.0104 15.3002H12.0094C9.55816 15.301 7.12313 15.019 4.79993 14.4653V12.576C7.14942 13.0299 9.57403 13.2594 12.0094 13.2584C14.4502 13.2584 16.8575 13.0294 19.2001 12.576V14.4653ZM18.7465 10.8866C14.2147 11.7873 9.56242 11.7391 5.25101 10.8823L3.91396 8.04024L6.97147 8.90675L12 3.20768L17.0285 8.907L20.0871 8.0405L18.7465 10.8866Z" fill="#F2D861"/>
</svg>
