<svg width="131" height="34" viewBox="0 0 131 34" fill="none" xmlns="http://www.w3.org/2000/svg">
<g style="mix-blend-mode:overlay">
<path d="M57.9314 33.8864L59.7833 29.7809C61.687 29.8383 63.6322 29.8669 65.5635 29.8669H65.6534V34.0011H65.5635C63.0172 34.0011 60.4501 33.9635 57.9349 33.8864H57.9314ZM67.526 29.8562C69.4781 29.8365 71.4405 29.7863 73.3581 29.7074L75.8664 33.7897C73.327 33.8936 70.7323 33.9599 68.1514 33.9868L67.526 29.8562ZM47.8738 33.3739L52.1995 29.3938C54.0687 29.53 55.9931 29.6376 57.9176 29.7146L55.4576 33.7986C52.9078 33.6965 50.358 33.5531 47.8738 33.3739ZM75.21 29.6232C77.1171 29.5247 79.0208 29.3974 80.8693 29.2415L85.8376 33.1714C83.3845 33.3775 80.8589 33.5477 78.3264 33.6786L75.21 29.625V29.6232ZM82.6452 29.082C84.4694 28.9082 86.2695 28.7039 88.0004 28.4745L95.3009 32.1535C93.0033 32.4582 90.6124 32.7288 88.1939 32.9599L82.6452 29.082ZM89.6554 28.2452C91.3484 27.9997 93.0068 27.7237 94.5788 27.428L104.014 30.7665C101.931 31.159 99.7371 31.5228 97.4914 31.8489L89.6519 28.2452H89.6554ZM21.2598 29.5264L32.1224 26.489C33.5562 26.8313 35.0799 27.1538 36.6554 27.4477L27.2543 30.7934C25.1709 30.4027 23.1532 29.9762 21.2598 29.5247V29.5264ZM14.3049 27.5875L26.8673 25.0249C28.0766 25.4192 29.386 25.7991 30.768 26.1539L19.4632 29.082C17.639 28.6125 15.9046 28.1108 14.3049 27.5893V27.5875ZM8.6041 25.3923L22.5624 23.3673C23.516 23.8045 24.5801 24.2328 25.7306 24.6378L12.8019 27.0768C11.2783 26.5392 9.86863 25.9729 8.60755 25.3923H8.6041ZM106.561 24.2095C107.642 23.792 108.641 23.353 109.522 22.9067L123.791 24.7812C122.62 25.3743 121.3 25.955 119.863 26.5087L106.557 24.2077L106.561 24.2095ZM4.29914 22.9928L19.3147 21.5574C19.9884 22.0287 20.783 22.4928 21.6675 22.939L7.41902 24.826C6.24086 24.2328 5.19054 23.6164 4.29569 22.991L4.29914 22.9928ZM110.344 22.4695C111.159 22.0125 111.878 21.5394 112.476 21.0628L127.709 22.3351C126.914 22.9695 125.964 23.5967 124.879 24.2024L110.341 22.4695H110.344ZM1.51094 20.4445L17.214 19.6381C17.5941 20.1309 18.0916 20.6219 18.6962 21.0986L3.47685 22.3817C2.67528 21.7491 2.01537 21.0968 1.51094 20.4427V20.4445ZM113.018 20.5968C113.543 20.1148 113.961 19.6184 114.262 19.122L130.083 19.7582C129.685 20.4176 129.129 21.0753 128.431 21.7168L113.018 20.5968ZM0.308594 17.8174L16.3053 17.6543C16.3848 18.1579 16.5783 18.665 16.8823 19.1596L1.07215 19.8101C0.667916 19.1543 0.412244 18.4841 0.308594 17.8192L0.308594 17.8174ZM114.518 18.6382C114.742 18.1454 114.856 17.64 114.856 17.14V17.1239H130.867V17.14C130.867 17.7995 130.718 18.4661 130.421 19.1184L114.518 18.6382ZM114.248 15.1348L130.062 14.4896C130.463 15.1455 130.718 15.8157 130.818 16.4824L114.818 16.6419C114.742 16.1383 114.552 15.6312 114.248 15.1366V15.1348ZM109.477 11.3536L123.732 9.47021C124.907 10.0634 125.957 10.6816 126.849 11.3052L111.826 12.7353C111.153 12.2658 110.361 11.7998 109.477 11.3518V11.3536ZM105.428 9.65479L118.367 7.22124C119.887 7.75884 121.296 8.32691 122.554 8.90573L108.589 10.9271C107.639 10.4899 106.575 10.0616 105.428 9.65479ZM100.397 8.13696L111.712 5.21239C113.536 5.6819 115.267 6.18545 116.864 6.70693L104.291 9.26593C103.085 8.87168 101.776 8.49178 100.397 8.13516V8.13696ZM19.3803 5.22135C21.2011 4.75184 23.1497 4.30383 25.1744 3.89167L35.0834 7.1388C33.5528 7.45061 32.0775 7.7893 30.7024 8.14412L19.3803 5.22135ZM94.5097 6.83954L103.925 3.49564C106.008 3.8863 108.022 4.31459 109.916 4.76618L99.0392 7.80006C97.6088 7.45778 96.0852 7.13522 94.5097 6.83954ZM27.161 3.5028C29.2478 3.11035 31.4418 2.74837 33.6875 2.42222L41.5132 6.02775C39.8167 6.27326 38.1583 6.54744 36.5828 6.84312L27.161 3.50101V3.5028ZM35.8849 2.11937C38.1825 1.81652 40.5768 1.54592 42.9954 1.31655L48.5303 5.19447C46.7061 5.36829 44.9025 5.57079 43.1716 5.80017L35.8884 2.11937H35.8849ZM45.3551 1.10509C47.8082 0.899005 50.3373 0.728765 52.8698 0.59974L55.9655 4.65507C54.0583 4.75184 52.1546 4.87907 50.3062 5.03498L45.3551 1.1033V1.10509ZM55.3263 0.488636C57.8658 0.384699 60.4605 0.320186 63.0414 0.295098L63.6495 4.42569C61.6974 4.4454 59.7349 4.49379 57.8174 4.57264L55.3263 0.488636ZM65.5635 4.41494H65.5359L65.5635 0.280762C68.1341 0.280762 70.7253 0.320185 73.2613 0.397242L71.3887 4.50275C69.4712 4.44361 67.5087 4.41494 65.5601 4.41494H65.5635Z" fill="url(#paint0_linear_9100_6081)"/>
</g>
<defs>
<linearGradient id="paint0_linear_9100_6081" x1="66.5936" y1="-4.36056" x2="67.1336" y2="32.9652" gradientUnits="userSpaceOnUse">
<stop stop-color="white" stop-opacity="0"/>
<stop offset="1" stop-color="white"/>
</linearGradient>
</defs>
</svg>
