<svg width="90" height="24" viewBox="0 0 90 24" fill="none" xmlns="http://www.w3.org/2000/svg">
<g style="mix-blend-mode:overlay">
<path d="M39.6888 23.7054L40.9643 20.8624C42.2755 20.9021 43.6153 20.9219 44.9455 20.9219H45.0074V23.7848H44.9455C43.1917 23.7848 41.4236 23.7587 39.6911 23.7054H39.6888ZM46.2972 20.9145C47.6418 20.9008 48.9934 20.8661 50.3142 20.8115L52.0418 23.6384C50.2927 23.7103 48.5056 23.7562 46.7279 23.7749L46.2972 20.9145ZM32.7614 23.3505L35.7408 20.5943C37.0283 20.6886 38.3538 20.7631 39.6792 20.8165L37.9849 23.6446C36.2287 23.5738 34.4724 23.4746 32.7614 23.3505ZM51.5897 20.7532C52.9033 20.6849 54.2145 20.5968 55.4876 20.4889L58.9097 23.2102C57.2201 23.3529 55.4805 23.4708 53.7362 23.5614L51.5897 20.7544V20.7532ZM56.7108 20.3784C57.9673 20.258 59.2071 20.1166 60.3994 19.9577L65.4277 22.5054C63.8452 22.7163 62.1984 22.9037 60.5326 23.0638L56.7108 20.3784ZM61.5392 19.7989C62.7053 19.6289 63.8476 19.4378 64.9303 19.233L71.4293 21.5449C69.9943 21.8167 68.4832 22.0686 66.9364 22.2944L61.5369 19.7989H61.5392ZM14.4305 20.6862L21.9123 18.5828C22.8999 18.8198 23.9494 19.0432 25.0345 19.2467L18.5593 21.5635C17.1244 21.293 15.7346 20.9976 14.4305 20.6849V20.6862ZM9.6402 19.3435L18.2928 17.5689C19.1257 17.8419 20.0276 18.105 20.9795 18.3507L13.1931 20.3784C11.9366 20.0533 10.742 19.7058 9.6402 19.3447V19.3435ZM5.71368 17.8233L15.3277 16.4211C15.9845 16.7239 16.7174 17.0204 17.5099 17.3009L8.60502 18.9898C7.55557 18.6175 6.58465 18.2254 5.71606 17.8233H5.71368ZM73.1832 17.0043C73.928 16.7152 74.6157 16.4111 75.2226 16.1021L85.0508 17.4002C84.244 17.8109 83.335 18.213 82.345 18.5964L73.1808 17.0031L73.1832 17.0043ZM2.74856 16.1617L13.0908 15.1677C13.5548 15.4941 14.1021 15.8155 14.7114 16.1245L4.89744 17.4312C4.08596 17.0204 3.36253 16.5936 2.74618 16.1605L2.74856 16.1617ZM75.7889 15.7994C76.3505 15.4829 76.8455 15.1553 77.2572 14.8252L87.7493 15.7063C87.202 16.1456 86.5476 16.5799 85.8004 16.9993L75.7866 15.7994H75.7889ZM0.828138 14.3971L11.6439 13.8387C11.9057 14.1799 12.2484 14.52 12.6648 14.85L2.18219 15.7386C1.6301 15.3005 1.17558 14.8488 0.828138 14.3959V14.3971ZM77.6308 14.5026C77.9925 14.1688 78.2805 13.825 78.4875 13.4813L89.3842 13.9218C89.1105 14.3785 88.7274 14.8339 88.2467 15.2782L77.6308 14.5026ZM0 12.5779L11.018 12.465C11.0728 12.8137 11.206 13.1648 11.4155 13.5073L0.525915 13.9578C0.24749 13.5036 0.0713912 13.0395 0 12.5791L0 12.5779ZM78.6636 13.1462C78.8183 12.805 78.8968 12.455 78.8968 12.1088V12.0976H89.9244V12.1088C89.9244 12.5655 89.8221 13.0271 89.6174 13.4788L78.6636 13.1462ZM78.478 10.7202L89.3699 10.2735C89.646 10.7276 89.8221 11.1918 89.8911 11.6534L78.8707 11.7638C78.8183 11.4151 78.6874 11.0639 78.478 10.7214V10.7202ZM75.1916 8.10183L85.0103 6.7976C85.8194 7.20835 86.5428 7.63648 87.1568 8.06832L76.8098 9.05859C76.3458 8.73346 75.8008 8.41082 75.1916 8.10059V8.10183ZM72.4026 6.92542L81.3146 5.24023C82.3617 5.61251 83.3326 6.00589 84.1988 6.40671L74.58 7.80649C73.9256 7.5037 73.1927 7.20711 72.4026 6.92542ZM68.9378 5.87435L76.7313 3.84914C77.9878 4.17427 79.18 4.52297 80.2794 4.88408L71.6197 6.65614C70.7892 6.38313 69.8873 6.12005 68.9378 5.87311V5.87435ZM13.136 3.85534C14.3901 3.53022 15.7322 3.21998 17.1268 2.93457L23.9518 5.18315C22.8975 5.39907 21.8814 5.6336 20.9343 5.87931L13.136 3.85534ZM64.8827 4.97591L71.3674 2.66032C72.8024 2.93085 74.1898 3.22743 75.4939 3.54015L68.0025 5.64105C67.0173 5.40403 65.9679 5.18066 64.8827 4.97591ZM18.4951 2.66529C19.9324 2.39352 21.4435 2.14285 22.9904 1.917L28.3804 4.41376C27.212 4.58377 26.0697 4.77364 24.9846 4.97839L18.4951 2.66405V2.66529ZM24.5039 1.70728C26.0864 1.49756 27.7355 1.31018 29.4013 1.15134L33.2136 3.83673C31.9571 3.9571 30.7149 4.09733 29.5227 4.25617L24.5062 1.70728H24.5039ZM31.0266 1.00491C32.7162 0.862204 34.4582 0.744316 36.2025 0.654969L38.3347 3.46321C37.0211 3.53022 35.7099 3.61832 34.4368 3.72629L31.0266 1.00367V1.00491ZM37.8945 0.578031C39.6436 0.506057 41.4307 0.461383 43.2084 0.44401L43.6272 3.30437C42.2826 3.31802 40.931 3.35152 39.6102 3.40612L37.8945 0.578031ZM44.9455 3.29692H44.9265L44.9455 0.434082C46.716 0.434082 48.5008 0.461382 50.2475 0.514742L48.9577 3.35773C47.637 3.31678 46.2853 3.29692 44.9432 3.29692H44.9455Z" fill="url(#paint0_linear_9276_5376)"/>
</g>
<defs>
<linearGradient id="paint0_linear_9276_5376" x1="45.655" y1="-2.77994" x2="46.031" y2="23.0674" gradientUnits="userSpaceOnUse">
<stop stop-color="white" stop-opacity="0"/>
<stop offset="1" stop-color="white"/>
</linearGradient>
</defs>
</svg>
