<svg width="479" height="125" viewBox="0 0 479 125" fill="none" xmlns="http://www.w3.org/2000/svg">
<path d="M211.761 123.894L218.547 108.77C225.522 108.981 232.649 109.087 239.726 109.087H240.055V124.316H239.726C230.396 124.316 220.99 124.178 211.774 123.894H211.761ZM246.916 109.047C254.069 108.975 261.259 108.79 268.285 108.499L277.476 123.537C268.171 123.92 258.664 124.165 249.208 124.264L246.916 109.047ZM174.91 122.006L190.759 107.344C197.608 107.846 204.659 108.242 211.711 108.526L202.697 123.57C193.355 123.194 184.012 122.666 174.91 122.006ZM275.071 108.189C282.059 107.826 289.034 107.357 295.807 106.783L314.011 121.26C305.023 122.019 295.769 122.646 286.489 123.128L275.071 108.196V108.189ZM302.313 106.196C308.998 105.555 315.593 104.803 321.935 103.958L348.685 117.51C340.266 118.633 331.506 119.629 322.644 120.481L302.313 106.196ZM327.999 103.113C334.202 102.208 340.279 101.192 346.039 100.102L380.611 112.401C372.978 113.847 364.939 115.187 356.711 116.388L327.987 103.113H327.999ZM77.3951 107.833L117.196 96.6433C122.45 97.9042 128.032 99.0924 133.805 100.175L99.359 112.5C91.7255 111.061 84.3324 109.49 77.3951 107.826V107.833ZM51.9119 100.69L97.9412 91.2499C102.372 92.7023 107.17 94.1018 112.234 95.4088L70.8122 106.196C64.1281 104.466 57.7731 102.618 51.9119 100.697V100.69ZM31.024 92.6032L82.1677 85.1436C85.6617 86.7544 89.5607 88.3321 93.7763 89.824L46.4051 98.8086C40.8223 96.8281 35.6573 94.7421 31.0366 92.6032H31.024ZM389.941 88.2463C393.904 86.7082 397.562 85.0908 400.79 83.4471L453.073 90.3521C448.782 92.5372 443.946 94.6761 438.68 96.7159L389.929 88.2397L389.941 88.2463ZM15.2504 83.764L70.2679 78.4762C72.7365 80.2124 75.6481 81.9221 78.8889 83.5659L26.6818 90.5172C22.365 88.3321 18.5165 86.0612 15.2378 83.7573L15.2504 83.764ZM403.803 81.8363C406.791 80.153 409.424 78.4102 411.614 76.6542L467.429 81.3412C464.518 83.6781 461.036 85.9886 457.061 88.2199L403.791 81.8363H403.803ZM5.03435 74.3767L62.571 71.4061C63.9636 73.2215 65.7865 75.0303 68.0019 76.7863L12.2375 81.5129C9.30055 79.1826 6.88262 76.7796 5.03435 74.3701V74.3767ZM413.602 74.9379C415.526 73.1621 417.058 71.3335 418.159 69.5049L476.126 71.8484C474.67 74.2777 472.632 76.7004 470.075 79.0638L413.602 74.9379ZM0.628906 64.6991L59.2416 64.0983C59.5328 65.9533 60.2417 67.8215 61.3557 69.6435L3.42662 72.0398C1.94548 69.6237 1.00869 67.1548 0.628906 64.7057L0.628906 64.6991ZM419.096 67.7225C419.919 65.9071 420.336 64.0455 420.336 62.2037V62.1443H479V62.2037C479 64.6331 478.455 67.0888 477.367 69.4917L419.096 67.7225ZM418.108 54.8168L476.05 52.4402C477.519 54.8564 478.455 57.3253 478.823 59.781L420.197 60.3685C419.919 58.5135 419.222 56.6454 418.108 54.8234V54.8168ZM400.626 40.8878L452.858 33.9497C457.162 36.1348 461.011 38.4123 464.277 40.7095L409.234 45.9775C406.766 44.2479 403.867 42.5315 400.626 40.8812V40.8878ZM385.789 34.6296L433.198 25.6649C438.768 27.6453 443.933 29.738 448.541 31.8702L397.372 39.3166C393.891 37.7059 389.992 36.1282 385.789 34.6296ZM367.357 29.0382L408.816 18.2647C415.501 19.9943 421.843 21.8493 427.692 23.7703L381.624 33.1971C377.206 31.7448 372.408 30.3453 367.357 29.0316V29.0382ZM70.5084 18.2977C77.1799 16.5682 84.3198 14.9178 91.7381 13.3995L128.045 25.3613C122.437 26.5099 117.031 27.7576 111.993 29.0646L70.5084 18.2977ZM345.786 24.2588L380.282 11.9406C387.916 13.3797 395.296 14.9574 402.234 16.621L362.382 27.7972C357.141 26.5363 351.558 25.348 345.786 24.2588ZM99.0173 11.967C106.663 10.5213 114.702 9.1878 122.931 7.98634L151.604 21.2684C145.388 22.1728 139.312 23.1828 133.539 24.272L99.0173 11.9604V11.967ZM130.982 6.8707C139.401 5.75506 148.173 4.75825 157.035 3.91327L177.315 18.1987C170.631 18.8391 164.023 19.585 157.681 20.43L130.995 6.8707H130.982ZM165.681 3.1343C174.669 2.37514 183.936 1.74801 193.215 1.27271L204.558 16.2117C197.57 16.5682 190.595 17.0369 183.822 17.6112L165.681 3.1277V3.1343ZM202.216 0.863422C211.521 0.480541 221.028 0.242889 230.484 0.150469L232.712 15.3667C225.56 15.4393 218.369 15.6176 211.344 15.908L202.216 0.863422ZM239.726 15.3271H239.624L239.726 0.0976562C249.144 0.0976562 258.639 0.242883 267.931 0.526744L261.069 15.6506C254.043 15.4327 246.853 15.3271 239.713 15.3271H239.726Z" fill="url(#paint0_linear_8704_3579)"/>
<defs>
<linearGradient id="paint0_linear_8704_3579" x1="243.5" y1="-17" x2="245.5" y2="120.5" gradientUnits="userSpaceOnUse">
<stop stop-color="white" stop-opacity="0"/>
<stop offset="1" stop-color="white"/>
</linearGradient>
</defs>
</svg>
