<svg width="110" height="68" viewBox="0 0 110 68" fill="none" xmlns="http://www.w3.org/2000/svg">
<g opacity="0.3">
<path d="M106.333 60.7335H66V49.8335C66 48.8699 65.6137 47.9458 64.9261 47.2644C64.2384 46.583 63.3058 46.2002 62.3333 46.2002H47.6667C46.6942 46.2002 45.7616 46.583 45.0739 47.2644C44.3863 47.9458 44 48.8699 44 49.8335V60.7335H3.66667C2.69421 60.7335 1.76158 61.1163 1.07394 61.7977C0.386308 62.4791 0 63.4032 0 64.3669C0 65.3305 0.386308 66.2546 1.07394 66.936C1.76158 67.6174 2.69421 68.0002 3.66667 68.0002H106.333C107.306 68.0002 108.238 67.6174 108.926 66.936C109.614 66.2546 110 65.3305 110 64.3669C110 63.4032 109.614 62.4791 108.926 61.7977C108.238 61.1163 107.306 60.7335 106.333 60.7335ZM58.6667 60.7335H51.3333V53.4669H58.6667V60.7335Z" fill="url(#paint0_linear_8722_1846)"/>
<path opacity="0.6" fill-rule="evenodd" clip-rule="evenodd" d="M47.2243 1.29009C48.5716 -0.0455631 50.7292 -0.0160846 52.0433 1.35593C53.3575 2.72794 53.3306 4.92294 51.9832 6.25859L44.848 13.332L51.9704 20.7681C53.2846 22.1401 53.2577 24.3351 51.9104 25.6707C50.5631 27.0064 48.4055 26.9769 47.0914 25.6049L39.9689 18.1688L32.667 25.4074C31.3197 26.7431 29.1622 26.7136 27.848 25.3416C26.5339 23.9696 26.5608 21.7746 27.9081 20.4389L35.21 13.2003L28.2508 5.93471C26.9366 4.5627 26.9635 2.3677 28.3109 1.03205C29.6582 -0.303597 31.8157 -0.274119 33.1299 1.09789L40.0891 8.36351L47.2243 1.29009Z" fill="url(#paint1_linear_8722_1846)"/>
<path opacity="0.6" fill-rule="evenodd" clip-rule="evenodd" d="M85.1163 14.0011C85.1163 21.7331 79.0789 28 71.6295 28C64.1802 28 58.1406 21.7331 58.1406 14.0011C58.1406 6.26907 64.1802 0 71.6295 0C79.0789 0 85.1163 6.26907 85.1163 14.0011ZM78.4522 14.0009C78.4522 18.0251 75.3288 21.1562 71.6323 21.1562C67.9359 21.1562 64.8125 18.0251 64.8125 14.0009C64.8125 9.97667 67.9359 6.84335 71.6323 6.84335C75.3288 6.84335 78.4522 9.97667 78.4522 14.0009Z" fill="url(#paint2_linear_8722_1846)"/>
</g>
<defs>
<linearGradient id="paint0_linear_8722_1846" x1="55" y1="-41" x2="55" y2="68" gradientUnits="userSpaceOnUse">
<stop stop-color="white" stop-opacity="0"/>
<stop offset="1" stop-color="white"/>
</linearGradient>
<linearGradient id="paint1_linear_8722_1846" x1="40.1899" y1="0.178433" x2="39.6991" y2="36.1004" gradientUnits="userSpaceOnUse">
<stop stop-color="white" stop-opacity="0.33"/>
<stop offset="1" stop-color="white"/>
</linearGradient>
<linearGradient id="paint2_linear_8722_1846" x1="71.628" y1="0" x2="71.628" y2="38.1818" gradientUnits="userSpaceOnUse">
<stop stop-color="white" stop-opacity="0.33"/>
<stop offset="1" stop-color="white"/>
</linearGradient>
</defs>
</svg>
