<svg width="33" height="32" viewBox="0 0 33 32" fill="none" xmlns="http://www.w3.org/2000/svg">
<path fill-rule="evenodd" clip-rule="evenodd" d="M15.6943 0H17.882C18.0036 0 18.0643 0.0607713 18.0643 0.182314V3.67727C18.0643 3.79881 18.0036 3.85959 17.882 3.85959H15.6943C15.5727 3.85959 15.512 3.79881 15.512 3.67727V0.182314C15.512 0.0607713 15.5727 0 15.6943 0ZM16.7877 5.32174C14.6783 5.32174 12.6163 5.94726 10.8623 7.11918C9.10843 8.29111 7.74142 9.95681 6.93419 11.9057C6.12695 13.8545 5.91574 15.9989 6.32727 18.0678C6.73879 20.1367 7.75457 22.0371 9.24615 23.5287C10.7377 25.0202 12.6381 26.036 14.707 26.4475C16.7759 26.8591 18.9203 26.6479 20.8692 25.8406C22.818 25.0334 24.4837 23.6664 25.6556 21.9125C26.8276 20.1586 27.4531 18.0965 27.4531 15.9871C27.4531 13.1585 26.3294 10.4457 24.3293 8.44556C22.3291 6.44541 19.6163 5.32174 16.7877 5.32174ZM16.7877 24.1001C15.1831 24.1001 13.6145 23.6243 12.2804 22.7328C10.9462 21.8413 9.90634 20.5743 9.29229 19.0918C8.67824 17.6094 8.51758 15.9781 8.83062 14.4043C9.14366 12.8306 9.91634 11.385 11.051 10.2504C12.1856 9.11575 13.6312 8.34307 15.2049 8.03003C16.7787 7.71699 18.4099 7.87765 19.8924 8.4917C21.3749 9.10575 22.6419 10.1456 23.5334 11.4798C24.4249 12.814 24.9007 14.3825 24.9007 15.9871C24.8983 18.1381 24.0427 20.2002 22.5218 21.7212C21.0008 23.2421 18.9387 24.0977 16.7877 24.1001ZM6.2584 3.90724L4.71141 5.45422C4.62547 5.54017 4.62547 5.62611 4.71141 5.71205L7.18272 8.18336C7.26866 8.26931 7.35461 8.26931 7.44055 8.18336L8.98754 6.63638C9.07348 6.55043 9.07348 6.46449 8.98754 6.37855L6.51623 3.90724C6.43028 3.82129 6.34434 3.82129 6.2584 3.90724ZM0.987001 14.7091H4.48196C4.6035 14.7091 4.66427 14.7699 4.66427 14.8914V17.0792C4.66427 17.2007 4.6035 17.2615 4.48196 17.2615H0.987001C0.865459 17.2615 0.804688 17.2007 0.804688 17.0792V14.8914C0.804688 14.7699 0.865459 14.7091 0.987001 14.7091ZM7.18682 23.7854L4.71551 26.2567C4.62957 26.3426 4.62957 26.4286 4.71551 26.5145L6.2625 28.0615C6.34844 28.1474 6.43439 28.1474 6.52033 28.0615L8.99164 25.5902C9.07758 25.5042 9.07758 25.4183 8.99164 25.3324L7.44465 23.7854C7.35871 23.6994 7.27277 23.6994 7.18682 23.7854ZM15.697 28.1092H17.8848C18.0063 28.1092 18.0671 28.1699 18.0671 28.2915V31.7864C18.0671 31.908 18.0063 31.9688 17.8848 31.9688H15.697C15.5755 31.9688 15.5147 31.908 15.5147 31.7864V28.2915C15.5147 28.1699 15.5755 28.1092 15.697 28.1092ZM26.1384 23.7831L24.5914 25.33C24.5054 25.416 24.5054 25.5019 24.5914 25.5879L27.0627 28.0592C27.1486 28.1451 27.2346 28.1451 27.3205 28.0592L28.8675 26.5122C28.9534 26.4263 28.9534 26.3403 28.8675 26.2544L26.3962 23.7831C26.3103 23.6971 26.2243 23.6971 26.1384 23.7831ZM29.0971 14.7054H32.592C32.7136 14.7054 32.7743 14.7662 32.7743 14.8877V17.0755C32.7743 17.1971 32.7136 17.2578 32.592 17.2578H29.0971C28.9755 17.2578 28.9148 17.1971 28.9148 17.0755V14.8877C28.9148 14.7662 28.9755 14.7054 29.0971 14.7054ZM27.06 3.90506L24.5886 6.37637C24.5027 6.46231 24.5027 6.54825 24.5886 6.6342L26.1356 8.18118C26.2216 8.26713 26.3075 8.26713 26.3935 8.18118L28.8648 5.70987C28.9507 5.62393 28.9507 5.53799 28.8648 5.45204L27.3178 3.90506C27.2318 3.81911 27.1459 3.81911 27.06 3.90506Z" fill="white"/>
</svg>
