<svg width="59" height="59" viewBox="0 0 59 59" fill="none" xmlns="http://www.w3.org/2000/svg">
<rect width="59" height="59" rx="12" fill="#D5D5D5"/>
<path d="M22.8333 9.04118C23.1702 8.44705 22.5424 7.77943 21.9238 8.07037C18.0597 9.88289 14.792 12.7587 12.5032 16.3611C10.2144 19.9636 8.99927 24.1435 9.00003 28.4115C8.99559 31.3627 9.5736 34.2857 10.7009 37.0131C11.8282 39.7405 13.4827 42.2186 15.5695 44.3054C17.6563 46.3922 20.1344 48.0467 22.8618 49.174C25.5892 50.3014 28.5123 50.8794 31.4635 50.8749C35.7315 50.8757 39.9114 49.6605 43.5138 47.3717C47.1162 45.0829 49.9921 41.8152 51.8046 37.9512C52.0955 37.3326 51.4279 36.7047 50.8338 37.0416C47.7494 38.7896 44.2636 39.7057 40.7183 39.6999C29.3626 39.6999 20.1751 30.5124 20.1751 19.1566C20.1751 15.4816 21.1398 12.0271 22.8333 9.04118ZM43.6216 18.6237C43.5547 18.442 43.4337 18.2851 43.2749 18.1743C43.1161 18.0635 42.9271 18.0041 42.7335 18.0041C42.5398 18.0041 42.3508 18.0635 42.192 18.1743C42.0332 18.2851 41.9122 18.442 41.8453 18.6237L40.9664 21.0431C40.6518 21.908 40.1515 22.6935 39.5007 23.3443C38.8499 23.9951 38.0644 24.4954 37.1995 24.81L34.7801 25.6889C34.5984 25.7558 34.4416 25.8768 34.3308 26.0356C34.22 26.1944 34.1606 26.3834 34.1606 26.5771C34.1606 26.7707 34.22 26.9597 34.3308 27.1185C34.4416 27.2773 34.5984 27.3983 34.7801 27.4652L37.1995 28.3441C38.0644 28.6587 38.8499 29.159 39.5007 29.8098C40.1515 30.4606 40.6518 31.2461 40.9664 32.111L41.8453 34.5304C42.1485 35.3572 43.3215 35.3572 43.6216 34.5304L44.5005 32.111C44.8153 31.2462 45.3156 30.4608 45.9664 29.81C46.6172 29.1592 47.4026 28.6589 48.2674 28.3441L50.6868 27.4652C50.8685 27.3983 51.0254 27.2773 51.1362 27.1185C51.247 26.9597 51.3064 26.7707 51.3064 26.5771C51.3064 26.3834 51.247 26.1944 51.1362 26.0356C51.0254 25.8768 50.8685 25.7558 50.6868 25.6889L48.2674 24.8069C47.4025 24.4923 46.617 23.9921 45.9662 23.3413C45.3154 22.6905 44.8151 21.905 44.5005 21.0401L43.6216 18.6207V18.6237ZM33.1938 9.07793C33.1394 8.92655 33.0397 8.79564 32.9081 8.70309C32.7765 8.61055 32.6196 8.56088 32.4588 8.56088C32.2979 8.56088 32.141 8.61055 32.0095 8.70309C31.8779 8.79564 31.7781 8.92655 31.7238 9.07793L31.5523 9.55568C31.3909 9.99854 31.1345 10.4007 30.8012 10.734C30.4679 11.0673 30.0658 11.3237 29.6229 11.4851L29.1451 11.6596C28.9948 11.7146 28.865 11.8144 28.7732 11.9456C28.6815 12.0768 28.6323 12.233 28.6323 12.3931C28.6323 12.5532 28.6815 12.7094 28.7732 12.8406C28.865 12.9718 28.9948 13.0716 29.1451 13.1266L29.6198 13.3011C30.5202 13.6257 31.2276 14.3332 31.5523 15.2305L31.7268 15.7082C31.7818 15.8586 31.8816 15.9884 32.0128 16.0801C32.144 16.1719 32.3002 16.2211 32.4603 16.2211C32.6204 16.2211 32.7766 16.1719 32.9078 16.0801C33.039 15.9884 33.1388 15.8586 33.1938 15.7082L33.3653 15.2305C33.693 14.3332 34.4004 13.6257 35.2977 13.3011L35.7755 13.1266C35.9258 13.0716 36.0556 12.9718 36.1474 12.8406C36.2391 12.7094 36.2883 12.5532 36.2883 12.3931C36.2883 12.233 36.2391 12.0768 36.1474 11.9456C36.0556 11.8144 35.9258 11.7146 35.7755 11.6596L35.2977 11.4881C34.8545 11.3264 34.4522 11.0696 34.1188 10.7357C33.7855 10.4019 33.5293 9.99911 33.3683 9.55568L33.1938 9.07793Z" fill="#1B1B1B"/>
</svg>
