<svg width="90" height="26" viewBox="0 0 90 26" fill="none" xmlns="http://www.w3.org/2000/svg">
<path d="M5.02613 26C4.11413 26 3.27413 25.772 2.50613 25.316C1.76213 24.86 1.16213 24.26 0.706125 23.516C0.250125 22.748 0.0221251 21.908 0.0221251 20.996V5.084C0.0221251 4.172 0.250125 3.344 0.706125 2.6C1.16213 1.832 1.76213 1.22 2.50613 0.763999C3.27413 0.307999 4.11413 0.079999 5.02613 0.079999H20.9381C21.8501 0.079999 22.6781 0.307999 23.4221 0.763999C24.1901 1.22 24.8021 1.832 25.2581 2.6C25.7141 3.344 25.9421 4.172 25.9421 5.084V20.996C25.9421 21.908 25.7141 22.748 25.2581 23.516C24.8021 24.26 24.1901 24.86 23.4221 25.316C22.6781 25.772 21.8501 26 20.9381 26H5.02613ZM5.20613 21.212H20.6861C20.8061 21.212 20.9141 21.176 21.0101 21.104C21.1061 21.008 21.1541 20.9 21.1541 20.78V5.3C21.1541 5.18 21.1061 5.084 21.0101 5.012C20.9141 4.916 20.8061 4.868 20.6861 4.868H5.20613C5.08613 4.868 4.97813 4.916 4.88213 5.012C4.81013 5.084 4.77413 5.18 4.77413 5.3V20.78C4.77413 20.9 4.81013 21.008 4.88213 21.104C4.97813 21.176 5.08613 21.212 5.20613 21.212ZM34.9786 26V0.079999H58.8466V4.868H39.7666V10.628H55.1026V15.452H39.7666V26H34.9786ZM65.9943 26V0.079999H89.8623V4.868H70.7823V10.628H86.1183V15.452H70.7823V26H65.9943Z" fill="url(#paint0_linear_8757_1799)"/>
<defs>
<linearGradient id="paint0_linear_8757_1799" x1="-17" y1="12.5" x2="105" y2="12.5" gradientUnits="userSpaceOnUse">
<stop stop-color="white"/>
<stop offset="1" stop-color="#999999"/>
</linearGradient>
</defs>
</svg>
