<svg width="59" height="59" viewBox="0 0 59 59" fill="none" xmlns="http://www.w3.org/2000/svg">
<rect width="59" height="59" rx="12" fill="#F2D861"/>
<path d="M30 19.9091C24.9818 19.9091 20.9091 23.9818 20.9091 29C20.9091 34.0182 24.9818 38.0909 30 38.0909C35.0182 38.0909 39.0909 34.0182 39.0909 29C39.0909 23.9818 35.0182 19.9091 30 19.9091ZM11.8182 30.8182H15.4545C16.4545 30.8182 17.2727 30 17.2727 29C17.2727 28 16.4545 27.1818 15.4545 27.1818H11.8182C10.8182 27.1818 10 28 10 29C10 30 10.8182 30.8182 11.8182 30.8182ZM44.5455 30.8182H48.1818C49.1818 30.8182 50 30 50 29C50 28 49.1818 27.1818 48.1818 27.1818H44.5455C43.5455 27.1818 42.7273 28 42.7273 29C42.7273 30 43.5455 30.8182 44.5455 30.8182ZM28.1818 10.8182V14.4545C28.1818 15.4545 29 16.2727 30 16.2727C31 16.2727 31.8182 15.4545 31.8182 14.4545V10.8182C31.8182 9.81818 31 9 30 9C29 9 28.1818 9.81818 28.1818 10.8182ZM28.1818 43.5455V47.1818C28.1818 48.1818 29 49 30 49C31 49 31.8182 48.1818 31.8182 47.1818V43.5455C31.8182 42.5455 31 41.7273 30 41.7273C29 41.7273 28.1818 42.5455 28.1818 43.5455ZM19.0727 15.5091C18.9045 15.3405 18.7047 15.2068 18.4848 15.1156C18.2648 15.0243 18.029 14.9774 17.7909 14.9774C17.5528 14.9774 17.317 15.0243 17.097 15.1156C16.8771 15.2068 16.6773 15.3405 16.5091 15.5091C16.3405 15.6773 16.2068 15.8771 16.1156 16.097C16.0243 16.317 15.9774 16.5528 15.9774 16.7909C15.9774 17.029 16.0243 17.2648 16.1156 17.4848C16.2068 17.7047 16.3405 17.9045 16.5091 18.0727L18.4364 20C19.1455 20.7091 20.3091 20.7091 21 20C21.6909 19.2909 21.7091 18.1273 21 17.4364L19.0727 15.5091ZM41.5636 38C41.3954 37.8314 41.1956 37.6977 40.9757 37.6065C40.7557 37.5152 40.5199 37.4683 40.2818 37.4683C40.0437 37.4683 39.8079 37.5152 39.588 37.6065C39.368 37.6977 39.1682 37.8314 39 38C38.8314 38.1682 38.6977 38.368 38.6065 38.588C38.5152 38.8079 38.4683 39.0437 38.4683 39.2818C38.4683 39.5199 38.5152 39.7557 38.6065 39.9757C38.6977 40.1956 38.8314 40.3954 39 40.5636L40.9273 42.4909C41.6364 43.2 42.8 43.2 43.4909 42.4909C43.6595 42.3227 43.7932 42.1229 43.8844 41.903C43.9757 41.683 44.0226 41.4472 44.0226 41.2091C44.0226 40.971 43.9757 40.7352 43.8844 40.5152C43.7932 40.2953 43.6595 40.0955 43.4909 39.9273L41.5636 38ZM43.4909 18.0727C43.6595 17.9045 43.7932 17.7047 43.8844 17.4848C43.9757 17.2648 44.0226 17.029 44.0226 16.7909C44.0226 16.5528 43.9757 16.317 43.8844 16.097C43.7932 15.8771 43.6595 15.6773 43.4909 15.5091C43.3227 15.3405 43.1229 15.2068 42.903 15.1156C42.683 15.0243 42.4472 14.9774 42.2091 14.9774C41.971 14.9774 41.7352 15.0243 41.5152 15.1156C41.2953 15.2068 41.0955 15.3405 40.9273 15.5091L39 17.4364C38.2909 18.1455 38.2909 19.3091 39 20C39.7091 20.6909 40.8727 20.7091 41.5636 20L43.4909 18.0727ZM21 40.5636C21.1686 40.3954 21.3023 40.1956 21.3935 39.9757C21.4848 39.7557 21.5317 39.5199 21.5317 39.2818C21.5317 39.0437 21.4848 38.8079 21.3935 38.588C21.3023 38.368 21.1686 38.1682 21 38C20.8318 37.8314 20.632 37.6977 20.412 37.6065C20.1921 37.5152 19.9563 37.4683 19.7182 37.4683C19.4801 37.4683 19.2443 37.5152 19.0243 37.6065C18.8044 37.6977 18.6046 37.8314 18.4364 38L16.5091 39.9273C15.8 40.6364 15.8 41.8 16.5091 42.4909C17.2182 43.1818 18.3818 43.2 19.0727 42.4909L21 40.5636Z" fill="#1B1B1B"/>
</svg>
