<svg width="62" height="26" viewBox="0 0 62 26" fill="none" xmlns="http://www.w3.org/2000/svg">
<path d="M5.56519 26C4.65319 26 3.81319 25.772 3.04519 25.316C2.30119 24.86 1.70119 24.26 1.24519 23.516C0.789188 22.748 0.561188 21.908 0.561188 20.996V5.084C0.561188 4.172 0.789188 3.344 1.24519 2.6C1.70119 1.832 2.30119 1.22 3.04519 0.763999C3.81319 0.307999 4.65319 0.079999 5.56519 0.079999H21.4772C22.3892 0.079999 23.2172 0.307999 23.9612 0.763999C24.7292 1.22 25.3412 1.832 25.7972 2.6C26.2532 3.344 26.4812 4.172 26.4812 5.084V20.996C26.4812 21.908 26.2532 22.748 25.7972 23.516C25.3412 24.26 24.7292 24.86 23.9612 25.316C23.2172 25.772 22.3892 26 21.4772 26H5.56519ZM5.74519 21.212H21.2252C21.3452 21.212 21.4532 21.176 21.5492 21.104C21.6452 21.008 21.6932 20.9 21.6932 20.78V5.3C21.6932 5.18 21.6452 5.084 21.5492 5.012C21.4532 4.916 21.3452 4.868 21.2252 4.868H5.74519C5.62519 4.868 5.51719 4.916 5.42119 5.012C5.34919 5.084 5.31319 5.18 5.31319 5.3V20.78C5.31319 20.9 5.34919 21.008 5.42119 21.104C5.51719 21.176 5.62519 21.212 5.74519 21.212ZM35.4457 26V0.079999H40.6657L56.5777 19.016V0.079999H61.3657V26H56.1457L40.1977 7.028V26H35.4457Z" fill="url(#paint0_linear_8768_5398)"/>
<defs>
<linearGradient id="paint0_linear_8768_5398" x1="-13" y1="12.5" x2="75" y2="12.5" gradientUnits="userSpaceOnUse">
<stop stop-color="white"/>
<stop offset="1" stop-color="#999999"/>
</linearGradient>
</defs>
</svg>
