<svg width="43" height="26" viewBox="0 0 43 26" fill="none" xmlns="http://www.w3.org/2000/svg">
<path d="M38.7 4.33333V21.6667H4.3V4.33333H38.7ZM43 0H0V26H43V0ZM26.875 13C26.2372 13 25.6136 13.1906 25.0833 13.5477C24.5529 13.9048 24.1396 14.4124 23.8955 15.0063C23.6514 15.6001 23.5875 16.2536 23.712 16.884C23.8364 17.5145 24.1436 18.0936 24.5946 18.5481C25.0456 19.0026 25.6202 19.3122 26.2458 19.4376C26.8714 19.563 27.5199 19.4986 28.1092 19.2526C28.6984 19.0066 29.2021 18.5901 29.5565 18.0556C29.9109 17.5211 30.1 16.8928 30.1 16.25C30.1 15.388 29.7602 14.5614 29.1554 13.9519C28.5506 13.3424 27.7303 13 26.875 13ZM33.325 6.5C32.6872 6.5 32.0636 6.69061 31.5333 7.04772C31.0029 7.40484 30.5896 7.91242 30.3455 8.50628C30.1014 9.10014 30.0375 9.7536 30.162 10.384C30.2864 11.0145 30.5936 11.5936 31.0446 12.0481C31.4956 12.5026 32.0702 12.8122 32.6958 12.9376C33.3214 13.063 33.9699 12.9986 34.5592 12.7526C35.1484 12.5066 35.6521 12.0901 36.0065 11.5556C36.3609 11.0211 36.55 10.3928 36.55 9.75C36.55 8.88805 36.2102 8.0614 35.6054 7.4519C35.0006 6.84241 34.1803 6.5 33.325 6.5ZM19.35 10.8333H15.05V6.5H10.75V10.8333H6.45V15.1667H10.75V19.5H15.05V15.1667H19.35V10.8333Z" fill="white"/>
</svg>
