<svg width="326" height="82" viewBox="0 0 326 82" fill="none" xmlns="http://www.w3.org/2000/svg">
<path d="M118.843 12.6L116.707 21H114.907L113.395 15.324H113.371L111.859 21H110.059L107.923 12.6H109.555L110.971 18.36H110.995L112.531 12.6H114.235L115.771 18.336H115.795L117.211 12.6H118.843ZM120.163 21V12.6H121.843V21H120.163ZM125.557 15.564V21H123.877V12.6H125.449L129.073 18.036H129.097V12.6H130.777V21H129.205L125.581 15.564H125.557ZM134.499 15.564V21H132.819V12.6H134.391L138.015 18.036H138.039V12.6H139.719V21H138.147L134.523 15.564H134.499ZM141.76 21V12.6H143.44V21H141.76ZM147.155 15.564V21H145.475V12.6H147.047L150.671 18.036H150.695V12.6H152.375V21H150.803L147.179 15.564H147.155ZM157.416 18.06V16.62H160.476V20.256L159.084 21.06H155.688L154.296 20.256V13.344L155.688 12.54H159.084L160.476 13.344V15.06H158.796V13.98H155.976V19.62H158.796V18.06H157.416ZM107.852 29.54H109.532V31.256L108.14 32.06H104.744L103.352 31.256V24.344L104.744 23.54H108.14L109.532 24.344V26.06H107.852V24.98H105.032V30.62H107.852V29.54ZM113.13 28.4V32H111.45V23.6H113.13V26.96H116.43V23.6H118.11V32H116.43V28.4H113.13ZM124.033 23.6L127.033 32H125.377L124.741 30.188H121.597L120.961 32H119.305L122.305 23.6H124.033ZM123.157 25.712L122.101 28.748H124.225L123.181 25.712H123.157ZM135.299 32V26.456H135.275L133.379 32H131.783L129.875 26.384H129.851V32H128.231V23.6H130.463L132.575 29.78H132.599L134.699 23.6H136.919V32H135.299ZM138.954 32V23.6H143.382L144.774 24.404V28.148L143.382 28.952H140.634V32H138.954ZM140.634 25.04V27.512H143.094V25.04H140.634ZM146.454 32V23.6H148.134V32H146.454ZM156.708 31.256L155.316 32.06H151.56L150.168 31.256V24.344L151.56 23.54H155.316L156.708 24.344V31.256ZM151.848 24.98V30.62H155.028V24.98H151.848ZM160.427 26.564V32H158.747V23.6H160.319L163.943 29.036H163.967V23.6H165.647V32H164.075L160.451 26.564H160.427Z" fill="white"/>
<path d="M21.843 12.6L19.707 21H17.907L16.395 15.324H16.371L14.859 21H13.059L10.923 12.6H12.555L13.971 18.36H13.995L15.531 12.6H17.235L18.771 18.336H18.795L20.211 12.6H21.843ZM23.1626 21V12.6H24.8426V21H23.1626ZM28.5574 15.564V21H26.8774V12.6H28.4494L32.0734 18.036H32.0974V12.6H33.7774V21H32.2054L28.5814 15.564H28.5574ZM37.4988 15.564V21H35.8188V12.6H37.3908L41.0148 18.036H41.0388V12.6H42.7188V21H41.1468L37.5228 15.564H37.4988ZM44.7602 21V12.6H46.4402V21H44.7602ZM50.1551 15.564V21H48.4751V12.6H50.0471L53.6711 18.036H53.6951V12.6H55.3751V21H53.8031L50.1791 15.564H50.1551ZM60.4165 18.06V16.62H63.4765V20.256L62.0845 21.06H58.6885L57.2965 20.256V13.344L58.6885 12.54H62.0845L63.4765 13.344V15.06H61.7965V13.98H58.9765V19.62H61.7965V18.06H60.4165ZM10.852 29.54H12.532V31.256L11.14 32.06H7.74403L6.35203 31.256V24.344L7.74403 23.54H11.14L12.532 24.344V26.06H10.852V24.98H8.03203V30.62H10.852V29.54ZM16.1297 28.4V32H14.4497V23.6H16.1297V26.96H19.4297V23.6H21.1097V32H19.4297V28.4H16.1297ZM27.033 23.6L30.033 32H28.377L27.741 30.188H24.597L23.961 32H22.305L25.305 23.6H27.033ZM26.157 25.712L25.101 28.748H27.225L26.181 25.712H26.157ZM38.2989 32V26.456H38.2749L36.3789 32H34.7829L32.8749 26.384H32.8509V32H31.2309V23.6H33.4629L35.5749 29.78H35.5989L37.6989 23.6H39.9189V32H38.2989ZM41.9536 32V23.6H46.3816L47.7736 24.404V28.148L46.3816 28.952H43.6336V32H41.9536ZM43.6336 25.04V27.512H46.0936V25.04H43.6336ZM49.4536 32V23.6H51.1336V32H49.4536ZM59.7084 31.256L58.3164 32.06H54.5604L53.1684 31.256V24.344L54.5604 23.54H58.3164L59.7084 24.344V31.256ZM54.8484 24.98V30.62H58.0284V24.98H54.8484ZM63.4266 26.564V32H61.7466V23.6H63.3186L66.9426 29.036H66.9666V23.6H68.6466V32H67.0746L63.4506 26.564H63.4266Z" fill="white"/>
<path d="M112.177 48.088V43.896L117.937 40.6H121.777V59.16H126.897V63H112.177V59.16H117.297V45.144L112.177 48.088ZM135.86 44.44V48.728H142.548L146.26 50.872V61.016L142.548 63.16H134.452L130.74 61.016V56.44H135.22V59.32H141.78V52.568H131.38V40.6H145.94V44.44H135.86ZM154.268 57.912L152.876 58.716H151.28L149.888 57.912V55.284L151.28 54.48H152.876L154.268 55.284V57.912ZM151.34 55.812V57.384H152.816V55.812H151.34ZM157.292 54.48H158.852L152.696 63.12H151.136L157.292 54.48ZM155.72 59.688L157.112 58.884H158.708L160.1 59.688V62.316L158.708 63.12H157.112L155.72 62.316V59.688ZM158.648 61.788V60.216H157.172V61.788H158.648Z" fill="white"/>
<path d="M21.1258 59.16H31.6858V63H16.6458V52.472L20.3578 50.328H27.2058V44.44H21.1258V47.32H16.6458V42.744L20.3578 40.6H27.9738L31.6858 42.744V52.024L27.9738 54.168H21.1258V59.16ZM53.2745 61.016L49.5625 63.16H40.8265L37.1145 61.016V42.584L40.8265 40.44H49.5625L53.2745 42.584V61.016ZM41.5945 44.28V59.32H48.7945V44.28H41.5945ZM61.2683 57.912L59.8763 58.716H58.2803L56.8883 57.912V55.284L58.2803 54.48H59.8763L61.2683 55.284V57.912ZM58.3403 55.812V57.384H59.8163V55.812H58.3403ZM64.2923 54.48H65.8523L59.6963 63.12H58.1363L64.2923 54.48ZM62.7203 59.688L64.1123 58.884H65.7083L67.1003 59.688V62.316L65.7083 63.12H64.1123L62.7203 62.316V59.688ZM65.6483 61.788V60.216H64.1723V61.788H65.6483Z" fill="white"/>
<path d="M297.516 29H299.289V44.216H297.516C297.232 44.216 297 43.9864 297 43.7056V29.5104C297 29.2297 297.232 29 297.516 29ZM319.482 44.2192H308.721L310.056 47.5399C310.698 49.1349 309.908 50.9404 308.296 51.5752L307.303 51.9644C307.038 52.0665 306.741 51.9421 306.635 51.6805L303.639 44.2192H301.582V29.0032H317.421C317.676 29.0032 317.892 29.1882 317.928 29.437L319.995 43.6323C320.04 43.9417 319.798 44.2192 319.482 44.2192Z" fill="#F2D861"/>
<path d="M215.893 40.6L212.893 49H211.045L208.045 40.6H209.749L211.969 46.948H211.993L214.189 40.6H215.893ZM221.948 47.596V49H218.36L216.968 48.196V43.744L218.36 42.94H220.556L221.948 43.744V46.612H218.612V47.596H221.948ZM218.612 44.344V45.376H220.304V44.344H218.612ZM223.274 44.404V43H224.378V41.992L226.022 41.044V43H227.342V44.404H226.022V47.596H227.342V49H225.77L224.378 48.196V44.404H223.274ZM234.238 48.256L232.846 49.06H230.29L228.898 48.256V43.744L230.29 42.94H232.846L234.238 43.744V48.256ZM230.542 44.344V47.656H232.594V44.344H230.542Z" fill="white"/>
<path d="M215.198 25.1543L215.173 25.6536L215.198 25.1543ZM250.119 51.3984L250.599 51.5405L250.639 51.4057L250.603 51.2697L250.119 51.3984ZM216.498 63.9885L216.488 64.4885L216.498 63.9885ZM284.963 31.702C285.211 31.5813 285.315 31.2821 285.194 31.0338L283.227 26.9865C283.106 26.7382 282.807 26.6347 282.559 26.7554C282.31 26.8761 282.207 27.1753 282.328 27.4237L284.076 31.0212L280.479 32.7698C280.23 32.8906 280.127 33.1898 280.248 33.4381C280.368 33.6865 280.667 33.7899 280.916 33.6692L284.963 31.702ZM169.872 35.1535C170.157 35.002 170.448 34.8476 170.74 34.692L170.272 33.8088C169.977 33.965 169.689 34.1185 169.403 34.2702L169.872 35.1535ZM172.478 33.7767C173.044 33.4825 173.625 33.1848 174.225 32.8856L173.778 31.9907C173.172 32.293 172.586 32.5935 172.017 32.8896L172.478 33.7767ZM175.987 32.0311C176.563 31.7606 177.155 31.4908 177.767 31.2232L177.367 30.307C176.746 30.5785 176.145 30.8521 175.562 31.1261L175.987 32.0311ZM179.567 30.4675C180.157 30.2299 180.765 29.9956 181.392 29.7657L181.047 28.8269C180.411 29.0605 179.793 29.2985 179.194 29.5398L179.567 30.4675ZM183.236 29.1218C183.84 28.9214 184.46 28.7257 185.099 28.5357L184.814 27.5773C184.165 27.7703 183.534 27.9691 182.921 28.1726L183.236 29.1218ZM186.979 28.0074C187.597 27.844 188.23 27.686 188.88 27.5343L188.653 26.5605C187.993 26.7144 187.35 26.8748 186.723 27.0407L186.979 28.0074ZM190.785 27.1183C191.411 26.991 192.051 26.8695 192.706 26.7544L192.533 25.7694C191.869 25.8861 191.22 26.0093 190.586 26.1385L190.785 27.1183ZM194.638 26.4408C195.272 26.3463 195.919 26.2578 196.58 26.1756L196.457 25.1833C195.788 25.2664 195.132 25.356 194.491 25.4517L194.638 26.4408ZM198.528 25.9568C199.165 25.8927 199.814 25.8344 200.476 25.7823L200.398 24.7854C199.728 24.838 199.072 24.897 198.427 24.9619L198.528 25.9568ZM202.43 25.6491C203.071 25.6121 203.723 25.5807 204.387 25.5553L204.349 24.556C203.678 24.5817 203.02 24.6134 202.372 24.6508L202.43 25.6491ZM206.348 25.4986C206.991 25.4859 207.645 25.4787 208.309 25.4772L208.307 24.4772C207.637 24.4787 206.977 24.486 206.328 24.4988L206.348 25.4986ZM210.267 25.4892C210.909 25.4983 211.562 25.5127 212.224 25.5326L212.254 24.533C211.587 24.513 210.929 24.4985 210.281 24.4893L210.267 25.4892ZM214.183 25.6058C214.51 25.6204 214.84 25.6364 215.173 25.6536L215.224 24.655C214.89 24.6376 214.557 24.6215 214.227 24.6068L214.183 25.6058ZM215.173 25.6536C215.515 25.6714 215.854 25.6905 216.189 25.7108L216.25 24.7126C215.912 24.6921 215.57 24.6729 215.224 24.655L215.173 25.6536ZM218.189 25.8499C218.871 25.9038 219.535 25.9633 220.184 26.0285L220.284 25.0335C219.628 24.9676 218.956 24.9074 218.268 24.853L218.189 25.8499ZM222.175 26.2523C222.854 26.3373 223.515 26.4293 224.158 26.5282L224.31 25.5398C223.657 25.4394 222.987 25.3462 222.299 25.26L222.175 26.2523ZM226.13 26.8643C226.804 26.9908 227.456 27.126 228.087 27.2698L228.31 26.2949C227.665 26.148 227.001 26.0102 226.315 25.8814L226.13 26.8643ZM230.021 27.7555C230.679 27.9371 231.311 28.1295 231.92 28.3329L232.237 27.3844C231.611 27.1752 230.961 26.9776 230.287 26.7916L230.021 27.7555ZM233.782 29.0182C234.413 29.2736 235.016 29.543 235.592 29.8264L236.034 28.929C235.435 28.6345 234.81 28.3553 234.158 28.0912L233.782 29.0182ZM237.323 30.7664C237.9 31.112 238.448 31.4749 238.968 31.8552L239.558 31.0481C239.013 30.6493 238.44 30.2695 237.837 29.9085L237.323 30.7664ZM240.496 33.0908C240.989 33.5307 241.454 33.9907 241.895 34.4711L242.632 33.7946C242.169 33.2903 241.68 32.8072 241.162 32.345L240.496 33.0908ZM243.156 35.9822C243.55 36.502 243.923 37.0428 244.277 37.605L245.123 37.0715C244.754 36.4864 244.365 35.922 243.953 35.3782L243.156 35.9822ZM245.268 39.3177C245.573 39.8914 245.864 40.4847 246.143 41.0979L247.053 40.684C246.767 40.0535 246.467 39.4417 246.151 38.8483L245.268 39.3177ZM246.921 42.9332C247.16 43.5388 247.391 44.1616 247.616 44.8021L248.559 44.4713C248.331 43.8197 248.095 43.1845 247.85 42.5654L246.921 42.9332ZM248.247 46.7012C248.445 47.3264 248.639 47.9666 248.83 48.6222L249.79 48.3425C249.597 47.6806 249.401 47.0329 249.201 46.3995L248.247 46.7012ZM249.373 50.5514C249.461 50.8732 249.549 51.1984 249.636 51.527L250.603 51.2697C250.515 50.9392 250.426 50.6119 250.338 50.2879L249.373 50.5514ZM249.64 51.2562C249.549 51.5633 249.451 51.8625 249.346 52.1541L250.286 52.4936C250.398 52.1835 250.502 51.8659 250.599 51.5405L249.64 51.2562ZM248.602 53.8749C248.313 54.4421 247.993 54.976 247.646 55.4785L248.468 56.0475C248.841 55.5082 249.184 54.9359 249.493 54.329L248.602 53.8749ZM246.479 56.94C246.056 57.4014 245.604 57.8315 245.126 58.2323L245.768 58.9986C246.279 58.5707 246.762 58.1105 247.216 57.6157L246.479 56.94ZM243.616 59.3486C243.095 59.6888 242.55 60.0026 241.984 60.292L242.439 61.1823C243.034 60.878 243.61 60.5467 244.162 60.1862L243.616 59.3486ZM240.261 61.0746C239.681 61.3082 239.083 61.521 238.471 61.7145L238.773 62.668C239.407 62.4674 240.029 62.2461 240.635 62.0023L240.261 61.0746ZM236.636 62.2287C236.024 62.3799 235.401 62.5148 234.768 62.6352L234.955 63.6175C235.604 63.4941 236.245 63.3553 236.876 63.1995L236.636 62.2287ZM232.878 62.9494C232.248 63.0399 231.613 63.1179 230.973 63.1851L231.077 64.1796C231.729 64.1113 232.377 64.0317 233.02 63.9393L232.878 62.9494ZM229.057 63.3544C228.418 63.4009 227.777 63.4382 227.135 63.4677L227.181 64.4667C227.831 64.4368 228.481 64.399 229.13 64.3518L229.057 63.3544ZM225.208 63.5346C224.562 63.5502 223.918 63.5594 223.278 63.5638L223.284 64.5637C223.93 64.5594 224.58 64.5501 225.233 64.5343L225.208 63.5346ZM221.347 63.5633C220.694 63.5591 220.048 63.5513 219.41 63.5416L219.395 64.5415C220.035 64.5512 220.684 64.5591 221.34 64.5633L221.347 63.5633ZM217.475 63.5074C217.15 63.5011 216.826 63.4948 216.507 63.4886L216.488 64.4885C216.808 64.4946 217.129 64.5009 217.455 64.5072L217.475 63.5074ZM216.507 63.4886C216.166 63.4821 215.824 63.4733 215.484 63.4619L215.45 64.4613C215.796 64.4729 216.142 64.4818 216.488 64.4885L216.507 63.4886ZM213.442 63.358C212.757 63.3098 212.079 63.2474 211.413 63.1673L211.294 64.1602C211.978 64.2424 212.672 64.3064 213.372 64.3555L213.442 63.358ZM209.406 62.8627C208.732 62.7368 208.075 62.5876 207.438 62.4116L207.172 63.3754C207.839 63.5599 208.524 63.7152 209.223 63.8457L209.406 62.8627ZM205.536 61.7759C204.908 61.5251 204.308 61.2398 203.741 60.9156L203.244 61.7838C203.856 62.1332 204.498 62.4383 205.165 62.7046L205.536 61.7759ZM202.112 59.7986C201.608 59.3848 201.142 58.9259 200.716 58.4167L199.949 59.058C200.416 59.6168 200.927 60.1195 201.477 60.5713L202.112 59.7986ZM199.603 56.7977C199.294 56.2461 199.022 55.6477 198.789 54.9983L197.848 55.3354C198.098 56.0351 198.394 56.6842 198.731 57.2861L199.603 56.7977ZM198.254 53.0773C198.125 52.4567 198.026 51.7978 197.96 51.0983L196.965 51.1921C197.034 51.926 197.138 52.6217 197.275 53.2808L198.254 53.0773ZM197.864 49.0785C197.86 48.4359 197.881 47.7641 197.928 47.0618L196.93 46.9959C196.882 47.7203 196.86 48.4157 196.864 49.0835L197.864 49.0785ZM198.122 45.0395C198.203 44.3906 198.303 43.7187 198.424 43.0231L197.439 42.8522C197.315 43.5627 197.213 44.2503 197.13 44.9159L198.122 45.0395ZM198.814 41.0189C198.953 40.3742 199.107 39.7111 199.278 39.029L198.308 38.7857C198.135 39.4783 197.978 40.1524 197.836 40.8087L198.814 41.0189ZM199.806 37.053C199.899 36.7232 199.995 36.3893 200.096 36.0512L199.137 35.7668C199.035 36.1091 198.937 36.4473 198.843 36.7815L199.806 37.053ZM200.096 36.0512C200.19 35.7327 200.293 35.4207 200.403 35.115L199.462 34.7753C199.345 35.0994 199.237 35.4299 199.137 35.7668L200.096 36.0512ZM201.168 33.3374C201.462 32.7551 201.789 32.1987 202.146 31.6675L201.316 31.1093C200.936 31.6749 200.588 32.2672 200.275 32.8868L201.168 33.3374ZM203.326 30.1289C203.749 29.642 204.203 29.1794 204.686 28.74L204.012 28.0005C203.502 28.4652 203.021 28.9556 202.571 29.4729L203.326 30.1289ZM206.193 27.5103C206.711 27.1314 207.254 26.7733 207.821 26.4354L207.309 25.5763C206.716 25.9296 206.147 26.305 205.602 26.7034L206.193 27.5103ZM209.544 25.5058C210.123 25.2229 210.723 24.9575 211.342 24.709L210.969 23.781C210.329 24.038 209.707 24.3132 209.105 24.6072L209.544 25.5058ZM213.199 24.0322C213.814 23.8294 214.444 23.6411 215.089 23.4668L214.828 22.5014C214.167 22.6802 213.519 22.8737 212.886 23.0825L213.199 24.0322ZM217.005 22.9989C217.642 22.8591 218.291 22.7314 218.951 22.6154L218.778 21.6305C218.104 21.7488 217.442 21.8792 216.791 22.0221L217.005 22.9989ZM220.921 22.308C221.565 22.2195 222.219 22.1412 222.882 22.0725L222.779 21.0778C222.106 21.1476 221.441 21.2273 220.785 21.3173L220.921 22.308ZM224.862 21.8978C225.519 21.8494 226.185 21.8099 226.856 21.7788L226.81 20.7799C226.13 20.8114 225.456 20.8514 224.788 20.9005L224.862 21.8978ZM228.837 21.7117C229.495 21.6973 230.16 21.6905 230.829 21.6908L230.83 20.6908C230.153 20.6905 229.481 20.6974 228.815 20.712L228.837 21.7117ZM232.825 21.7127C233.484 21.7267 234.146 21.7471 234.812 21.7738L234.852 20.7746C234.18 20.7477 233.511 20.727 232.846 20.713L232.825 21.7127ZM236.808 21.8715C237.468 21.9096 238.131 21.9535 238.796 22.0028L238.869 21.0055C238.199 20.9558 237.531 20.9116 236.865 20.8732L236.808 21.8715ZM240.784 22.1656C241.445 22.2248 242.108 22.2891 242.772 22.3582L242.876 21.3636C242.207 21.294 241.539 21.2292 240.873 21.1696L240.784 22.1656ZM244.754 22.5781C245.414 22.6559 246.075 22.7381 246.736 22.8246L246.866 21.833C246.201 21.746 245.535 21.6633 244.871 21.585L244.754 22.5781ZM248.713 23.0956C249.373 23.19 250.031 23.2883 250.689 23.3903L250.842 22.4021C250.181 22.2995 249.518 22.2006 248.855 22.1057L248.713 23.0956ZM252.66 23.7073C253.318 23.8169 253.975 23.93 254.63 24.0463L254.805 23.0617C254.146 22.9448 253.486 22.8311 252.824 22.7209L252.66 23.7073ZM256.593 24.4053C257.25 24.529 257.904 24.6556 258.556 24.785L258.751 23.8042C258.096 23.6741 257.438 23.5468 256.778 23.4225L256.593 24.4053ZM260.514 25.1839C261.168 25.3204 261.818 25.4594 262.464 25.6006L262.678 24.6237C262.029 24.4818 261.376 24.3421 260.719 24.205L260.514 25.1839ZM264.419 26.0378C265.072 26.1869 265.72 26.3381 266.361 26.491L266.593 25.5182C265.948 25.3646 265.298 25.2128 264.642 25.0629L264.419 26.0378ZM268.304 26.9632C268.958 27.1255 269.606 27.2892 270.245 27.4541L270.495 26.4858C269.852 26.3201 269.202 26.1556 268.545 25.9926L268.304 26.9632ZM272.17 27.9598C272.823 28.1346 273.468 28.3103 274.102 28.4865L274.37 27.5229C273.732 27.3459 273.085 27.1694 272.429 26.9937L272.17 27.9598ZM276.03 29.032C276.679 29.2192 277.317 29.4065 277.941 29.5934L278.228 28.6354C277.6 28.4475 276.959 28.2593 276.307 28.0711L276.03 29.032ZM279.843 30.1735C280.498 30.3772 281.137 30.5798 281.757 30.7807L282.065 29.8293C281.441 29.6272 280.799 29.4234 280.14 29.2186L279.843 30.1735ZM283.658 31.4093C283.971 31.5152 284.279 31.6204 284.581 31.7249L284.908 30.7798C284.604 30.6746 284.294 30.5686 283.978 30.4619L283.658 31.4093Z" fill="#F2D861"/>
<path opacity="0.8" d="M78 37V49.4582L84.1929 43.2291L78 37Z" fill="#FB0000" fill-opacity="0.4"/>
<path opacity="0.9" d="M86.2227 37V49.4582L92.4155 43.2291L86.2227 37Z" fill="#FB0000" fill-opacity="0.7"/>
<path d="M94.4375 37V49.4582L100.63 43.2291L94.4375 37Z" fill="#FB0000"/>
<path fill-rule="evenodd" clip-rule="evenodd" d="M313.31 56.8684C312.914 55.949 312.899 54.8671 313.369 53.8843C314.23 52.0839 316.387 51.2986 318.18 52.134C319.158 52.5858 319.825 53.431 320.096 54.3969L319.269 54.6981C319.078 53.9428 318.565 53.28 317.804 52.9259C316.444 52.2922 314.81 52.887 314.158 54.2516C313.795 55.0151 313.816 55.8583 314.141 56.5645C314.396 57.1218 314.843 57.5948 315.441 57.8742L315.062 58.6691C314.244 58.2888 313.643 57.6391 313.31 56.8684ZM321.351 53.6848C320.905 52.4278 319.997 51.4283 318.788 50.8633L319.167 50.0685C320.587 50.7312 321.655 51.9073 322.179 53.3837C322.198 53.4324 322.214 53.4837 322.23 53.5349C322.238 53.5616 322.246 53.5883 322.255 53.6147L321.428 53.9159C321.412 53.8647 321.394 53.8107 321.376 53.7569C321.367 53.7327 321.359 53.7086 321.351 53.6848ZM311.153 57.6537L311.981 57.3526C312.453 58.5031 313.324 59.4191 314.456 59.9424L314.077 60.7373C312.731 60.1133 311.703 59.0236 311.153 57.6537ZM309 58.442L309.828 58.1409C310.503 59.8577 311.786 61.2277 313.468 62.0134L313.089 62.8083C312.097 62.3471 311.224 61.6989 310.5 60.8891C309.852 60.1703 309.35 59.3476 309 58.442ZM319.774 48.7949L320.153 48C321.15 48.4618 322.023 49.1097 322.741 49.9195C323.441 50.7021 323.975 51.602 324.329 52.5982C324.355 52.6713 324.379 52.7421 324.402 52.8126L324.408 52.8321L323.581 53.1333C323.567 53.0926 323.553 53.0511 323.539 53.0097C323.527 52.9726 323.514 52.9356 323.502 52.8992C322.855 51.0731 321.529 49.6135 319.774 48.7949ZM322.661 55.6595C322.841 55.569 323.034 55.5491 323.238 55.6027C323.443 55.656 323.612 55.7691 323.749 55.939L323.838 56.0365L325.81 58.9609C325.96 59.181 326.025 59.4113 325.992 59.6575C325.96 59.9037 325.851 60.1084 325.669 60.2744L322.768 62.9093C322.542 63.1142 322.299 63.2017 322.038 63.1774L317.237 62.9673L317.219 62.1942C317.228 61.9905 317.319 61.8143 317.489 61.6592L317.608 61.5513L319.624 60.4038L315.611 55.9855C315.398 55.7509 315.298 55.4752 315.313 55.1611C315.328 54.847 315.448 54.5876 315.679 54.3772C315.908 54.1696 316.181 54.0721 316.495 54.0872C316.806 54.0991 317.071 54.2255 317.287 54.4631L319.454 56.8491L319.771 56.5612L320.101 56.3671L322.661 55.6595Z" fill="white"/>
</svg>
