<svg width="30" height="29" viewBox="0 0 30 29" fill="none" xmlns="http://www.w3.org/2000/svg">
<path fill-rule="evenodd" clip-rule="evenodd" d="M12.0259 0.369679C11.699 0.480355 11.4726 0.778302 11.4505 1.12215L11.3007 3.52082C10.4597 3.76593 9.64762 4.11154 8.87309 4.55072L7.56392 3.06796C7.33404 2.80748 6.96972 2.71386 6.64635 2.8262C5.79171 3.12414 5.02225 3.57017 4.35998 4.15401C3.69951 4.73633 3.1598 5.4445 2.7598 6.25816C2.60655 6.56802 2.65593 6.93918 2.88402 7.1979L4.47066 8.99563C4.05201 9.7618 3.72168 10.5806 3.48502 11.4437L1.50861 11.3212C1.13918 11.3025 0.839577 11.488 0.689674 11.8012C0.296416 12.6167 0.0683598 13.473 0.0121754 14.3582C-0.0406572 15.2417 0.0785479 16.1219 0.367933 16.9765C0.478576 17.3017 0.776523 17.5281 1.11871 17.5503L3.51738 17.7C3.76432 18.541 4.10979 19.3564 4.54914 20.1276L3.06289 21.4384C2.80411 21.6684 2.7088 22.0309 2.82282 22.356C3.12074 23.2107 3.56517 23.9785 4.15081 24.6475C4.73811 25.308 5.4463 25.8477 6.25489 26.2461C6.56471 26.3992 6.9376 26.3499 7.19459 26.12L8.99405 24.5351C9.76009 24.9539 10.5789 25.2824 11.442 25.5191L11.3194 27.4938C11.2991 27.8395 11.4863 28.1612 11.7979 28.3109C12.6081 28.706 13.4663 28.9358 14.3566 28.9919C14.4018 28.9954 14.4468 28.9979 14.4917 28.9999V27.2944L14.4774 27.2937L14.4621 27.293C13.982 27.2625 13.5122 27.1637 13.0559 26.9969L13.187 24.9113C13.2143 24.4892 12.9265 24.1113 12.5128 24.0245C11.362 23.7861 10.2963 23.3605 9.3447 22.7681C9.02628 22.5655 8.61271 22.603 8.33013 22.8515L6.52207 24.445C6.11182 24.1896 5.74584 23.8764 5.42921 23.5206C5.11245 23.1614 4.85034 22.7596 4.64439 22.3169L6.214 20.9329C6.53226 20.6537 6.59538 20.1822 6.36214 19.8263C5.72533 18.8594 5.27251 17.8039 5.01714 16.6973C4.93208 16.3313 4.61718 16.0624 4.24094 16.0384L1.8286 15.8886C1.72137 15.4171 1.68221 14.9405 1.71112 14.4655C1.74185 13.9854 1.84058 13.5139 2.00564 13.0576L4.09114 13.1869C4.51679 13.2142 4.89302 12.9282 4.97804 12.5127C5.21815 11.3638 5.64197 10.298 6.23783 9.34455C6.43701 9.02633 6.40462 8.61266 6.15609 8.33005L4.56106 6.52216C4.81802 6.11191 5.12964 5.74576 5.48705 5.43079C5.84464 5.11419 6.24805 4.85205 6.6872 4.646L8.06958 6.2123C8.35047 6.52889 8.81866 6.59361 9.17276 6.3621C10.1465 5.72363 11.2003 5.2708 12.3034 5.01726C12.6712 4.93207 12.9384 4.61547 12.9622 4.24086L13.1139 1.83031C13.5679 1.7267 14.0251 1.68565 14.4917 1.71064V0.00678674C13.6515 -0.0320744 12.8296 0.0968876 12.0259 0.369679ZM29.0179 14.3582C28.9618 13.473 28.7337 12.6167 28.3405 11.8013C28.1905 11.488 27.891 11.3025 27.5215 11.3212L25.5451 11.4437C25.3084 10.5807 24.9781 9.76183 24.5595 8.99566L26.1461 7.19792C26.3742 6.9392 26.4236 6.56804 26.2703 6.25818C25.8703 5.44449 25.3306 4.73636 24.6701 4.15404C24.0078 3.57019 23.2384 3.12417 22.3837 2.82622C22.0604 2.71389 21.696 2.80754 21.4662 3.06798L20.157 4.55075C19.3825 4.11156 18.5704 3.76596 17.7294 3.52084L17.5796 1.12217C17.5575 0.778326 17.3311 0.48038 17.0042 0.369703C16.2005 0.0968786 15.3786 -0.0320504 14.5385 0.00677761V1.71066C15.0051 1.68567 15.4623 1.72672 15.9163 1.83033L16.068 4.24089C16.0918 4.61546 16.3589 4.93206 16.7268 5.01728C17.8298 5.27086 18.8837 5.72365 19.8574 6.36212C20.2115 6.59366 20.6797 6.52892 20.9606 6.21232L22.343 4.64603C22.7821 4.85208 23.1855 5.11422 23.5431 5.43082C23.9005 5.74579 24.2122 6.1119 24.4692 6.52218L22.8741 8.33007C22.6256 8.61272 22.5932 9.02635 22.7923 9.34458C23.3882 10.298 23.8121 11.3638 24.0521 12.5128C24.1372 12.9282 24.5134 13.2142 24.939 13.1869L27.0245 13.0576C27.1896 13.5139 27.2883 13.9854 27.3191 14.4656C27.348 14.9405 27.3088 15.4171 27.2016 15.8887L24.7893 16.0385C24.413 16.0624 24.0981 16.3313 24.013 16.6973C23.7577 17.804 23.3048 18.8594 22.6681 19.8263C22.4348 20.1822 22.4979 20.6537 22.8162 20.933L24.3858 22.3169C24.1799 22.7596 23.9177 23.1614 23.601 23.5206C23.2844 23.8764 22.9184 24.1896 22.5082 24.445L20.7001 22.8516C20.4175 22.603 20.0039 22.5655 19.6855 22.7681C18.7339 23.3606 17.6682 23.7861 16.5174 24.0245C16.1037 24.1113 15.816 24.4892 15.8433 24.9113L15.9744 26.9969C15.518 27.1637 15.0482 27.2625 14.5681 27.293C14.5584 27.2937 14.5483 27.2938 14.5385 27.2944V29C14.5834 28.9979 14.6284 28.9955 14.6736 28.992C15.5639 28.9359 16.4221 28.7061 17.2323 28.311C17.544 28.1612 17.7311 27.8396 17.7108 27.4939L17.5882 25.5192C18.4513 25.2825 19.2702 24.954 20.0362 24.5351L21.8357 26.1201C22.0927 26.35 22.4656 26.3993 22.7754 26.2462C23.584 25.8478 24.2922 25.3081 24.8795 24.6476C25.4651 23.9786 25.9095 23.2108 26.2075 22.3561C26.3215 22.031 26.2262 21.6684 25.9674 21.4385L24.4811 20.1277C24.9205 19.3565 25.2659 18.5411 25.5129 17.7001L27.9116 17.5504C28.2538 17.5282 28.5516 17.3018 28.6623 16.9766C28.9516 16.1219 29.0708 15.2418 29.0179 14.3582ZM9.48162 14.4991C9.48162 17.277 11.7409 19.5363 14.5171 19.5363C17.2949 19.5363 19.5542 17.277 19.5542 14.4991C19.5542 11.7229 17.2949 9.46369 14.5171 9.46369C11.7409 9.46369 9.48162 11.7229 9.48162 14.4991ZM11.3994 14.4991C11.3994 12.7792 12.7987 11.3815 14.5171 11.3815C16.2355 11.3815 17.6348 12.7808 17.6348 14.4991C17.6348 16.2176 16.2355 17.6169 14.5171 17.6169C12.7987 17.6169 11.3994 16.2176 11.3994 14.4991Z" fill="white"/>
</svg>
