<svg width="56" height="22" viewBox="0 0 56 22" fill="none" xmlns="http://www.w3.org/2000/svg">
<path d="M38 14V18H54V14H56V19C56 19.2652 55.8946 19.5196 55.7071 19.7071C55.5196 19.8946 55.2652 20 55 20H37C36.7348 20 36.4804 19.8946 36.2929 19.7071C36.1054 19.5196 36 19.2652 36 19V14H38Z" fill="currentColor"/>
<path d="M25.595 16.7505V13.6505H22.555V12.0105H25.595V8.95049H27.235V12.0105H30.355V13.6505H27.235V16.7505H25.595Z" fill="currentColor"/>
<path d="M6.01279 19.5009H10.8495C11.9473 19.5009 12.5354 18.8382 12.5354 17.7713V14.1506H15.7261C16.3609 14.1506 16.8626 13.7465 16.8626 13.1323C16.8626 12.7527 16.682 12.4696 16.3924 12.1789L9.39951 4.99408C9.10148 4.67891 8.78003 4.50098 8.43517 4.50098C8.08228 4.50098 7.76887 4.67891 7.46281 4.99408L0.470293 12.1789C0.172597 12.4858 0 12.7527 0 13.1323C0 13.7468 0.501735 14.1506 1.14463 14.1506H4.3273V17.7713C4.3273 18.8382 4.91533 19.5009 6.01313 19.5009H6.01279ZM6.13823 18.2482C5.8402 18.2482 5.63649 18.0378 5.63649 17.7392V13.2051C5.63649 13.003 5.56592 12.9303 5.3776 12.9303H1.76377C1.70858 12.9303 1.67747 12.9061 1.67747 12.8658C1.67747 12.8334 1.68516 12.8092 1.7243 12.7689L8.27027 6.06097C8.28976 6.03518 8.31481 6.01443 8.34343 6.00037C8.37206 5.9863 8.40347 5.97931 8.43517 5.97994C8.49003 5.97994 8.53719 5.99614 8.59974 6.06097L15.1457 12.7689C15.1772 12.8092 15.1929 12.8334 15.1929 12.8654C15.1929 12.9061 15.1614 12.9303 15.1066 12.9303H11.4851C11.2967 12.9303 11.2265 13.003 11.2265 13.2051V17.7392C11.2265 18.0299 11.0148 18.2482 10.7248 18.2482H6.13823Z" fill="currentColor"/>
</svg>
