<svg width="83" height="34" viewBox="0 0 83 34" fill="none" xmlns="http://www.w3.org/2000/svg">
<path d="M80.6871 8C80.1348 8 79.6871 8.44772 79.6871 9V22.9346C79.6871 23.4869 79.2394 23.9346 78.6871 23.9346H65.693C65.1407 23.9346 64.693 23.4869 64.693 22.9346V19.4075C64.693 18.5508 63.6861 18.0908 63.0384 18.6515L55.8733 24.8556C55.4127 25.2544 55.4128 25.969 55.8735 26.3677L63.0387 32.5683C63.6864 33.1289 64.693 32.6687 64.693 31.8122V28.289C64.693 27.7367 65.1407 27.289 65.693 27.289H81.3436C82.259 27.289 83 26.5366 83 25.6118V9C83 8.44772 82.5523 8 82 8H80.6871Z" fill="currentColor"/>
<path d="M9.62752 30H17.3719C19.1297 30 20.0713 28.9396 20.0713 27.2326V21.4394H25.1801C26.1966 21.4394 27 20.7928 27 19.8102C27 19.2028 26.7108 18.7498 26.247 18.2847L15.0502 6.78897C14.573 6.28469 14.0583 6 13.5062 6C12.9411 6 12.4393 6.28469 11.9492 6.78897L0.75302 18.2847C0.276357 18.7757 0 19.2028 0 19.8102C0 20.7934 0.803364 21.4394 1.83274 21.4394H6.92875V27.2326C6.92875 28.9396 7.87029 30 9.62805 30H9.62752ZM9.82836 27.9956C9.35116 27.9956 9.02499 27.659 9.02499 27.1812V19.9266C9.02499 19.6033 8.91199 19.4869 8.61046 19.4869H2.82409C2.73572 19.4869 2.68591 19.4483 2.68591 19.3837C2.68591 19.3319 2.69823 19.2932 2.7609 19.2287L13.2421 8.496C13.2733 8.45474 13.3134 8.42154 13.3593 8.39903C13.4051 8.37653 13.4554 8.36533 13.5062 8.36634C13.594 8.36634 13.6695 8.39228 13.7697 8.496L24.2509 19.2287C24.3012 19.2932 24.3264 19.3319 24.3264 19.3832C24.3264 19.4483 24.2761 19.4869 24.1882 19.4869H18.3895C18.088 19.4869 17.9755 19.6033 17.9755 19.9266V27.1812C17.9755 27.6463 17.6365 27.9956 17.1722 27.9956H9.82836Z" fill="currentColor"/>
<path d="M40.6077 28V21.8H34.5277V18.52H40.6077V12.4H43.8877V18.52H50.1277V21.8H43.8877V28H40.6077Z" fill="currentColor"/>
</svg>
