<svg width="27" height="24" viewBox="0 0 27 24" fill="none" xmlns="http://www.w3.org/2000/svg">
<path d="M9.62752 24H17.3719C19.1297 24 20.0713 22.9396 20.0713 21.2326V15.4394H25.1801C26.1966 15.4394 27 14.7928 27 13.8102C27 13.2028 26.7108 12.7498 26.247 12.2847L15.0502 0.788965C14.573 0.28469 14.0583 3.01724e-08 13.5062 0C12.9411 0 12.4393 0.28469 11.9492 0.788965L0.75302 12.2847C0.276357 12.7757 0 13.2028 0 13.8102C0 14.7934 0.803364 15.4394 1.83274 15.4394H6.92875V21.2326C6.92875 22.9396 7.87029 24 9.62805 24H9.62752ZM9.82836 21.9956C9.35116 21.9956 9.02499 21.659 9.02499 21.1812V13.9266C9.02499 13.6033 8.91199 13.4869 8.61046 13.4869H2.82409C2.73572 13.4869 2.68591 13.4483 2.68591 13.3837C2.68591 13.3319 2.69823 13.2932 2.7609 13.2287L13.2421 2.496C13.2733 2.45474 13.3134 2.42154 13.3593 2.39903C13.4051 2.37653 13.4554 2.36533 13.5062 2.36634C13.594 2.36634 13.6695 2.39228 13.7697 2.496L24.2509 13.2287C24.3012 13.2932 24.3264 13.3319 24.3264 13.3832C24.3264 13.4483 24.2761 13.4869 24.1882 13.4869H18.3895C18.088 13.4869 17.9755 13.6033 17.9755 13.9266V21.1812C17.9755 21.6463 17.6365 21.9956 17.1722 21.9956H9.82836Z" fill="white"/>
</svg>
