<svg width="22" height="24" viewBox="0 0 22 24" fill="none" xmlns="http://www.w3.org/2000/svg">
<path fill-rule="evenodd" clip-rule="evenodd" d="M9.52564 21.7711C9.52564 22.679 10.2617 23.415 11.1696 23.415C12.0775 23.415 12.8135 22.679 12.8135 21.7711V13.5517H20.4674C21.3144 13.5517 22.001 12.865 22.001 12.0181C22.001 11.1711 21.3144 10.4845 20.4674 10.4845H12.8135V2.26502C12.8135 1.35711 12.0775 0.621094 11.1696 0.621094C10.2617 0.621094 9.52564 1.3571 9.52564 2.26502V10.4845H1.91445C1.06747 10.4845 0.380859 11.1711 0.380859 12.0181C0.380859 12.865 1.06747 13.5517 1.91445 13.5517H9.52564V21.7711Z" fill="#1B1B1B"/>
</svg>
