<svg width="23" height="23" viewBox="0 0 23 23" fill="none" xmlns="http://www.w3.org/2000/svg">
<path fill-rule="evenodd" clip-rule="evenodd" d="M11.4999 0C5.14893 0 0 1.62573 0 3.63158V4.84211C0 6.84796 5.14893 8.47368 11.4999 8.47368C17.8515 8.47368 22.9998 6.84796 22.9998 4.84211V3.63158C22.9998 1.62573 17.8515 0 11.4999 0ZM22.8134 9.09106C22.4569 8.47309 21.7094 8.28788 21.1435 8.67766C19.4397 9.85367 15.6931 10.669 11.5005 10.669C7.3085 10.669 3.56195 9.85367 1.85695 8.67766C1.29161 8.28788 0.544142 8.47309 0.187636 9.09106C-0.16946 9.70963 0 10.5267 0.564711 10.9165C2.72972 12.4097 6.89209 13.3158 11.4999 13.3158C16.1077 13.3158 20.2701 12.4097 22.4351 10.9165C23.0011 10.5267 23.1705 9.70963 22.8134 9.09106ZM21.1435 13.5198C21.7094 13.13 22.4569 13.3152 22.8134 13.9332C23.1705 14.5517 23.0011 15.3688 22.4351 15.7586C20.2701 17.2518 16.1077 18.1579 11.4999 18.1579C6.89209 18.1579 2.72972 17.2518 0.564711 15.7586C0 15.3688 -0.16946 14.5517 0.187636 13.9332C0.544142 13.3152 1.29161 13.13 1.85695 13.5198C3.56195 14.6958 7.3085 15.5111 11.5005 15.5111C15.6931 15.5111 19.4397 14.6958 21.1435 13.5198ZM22.8134 18.7753C22.4569 18.1573 21.7094 17.9721 21.1435 18.3619C19.4397 19.5379 15.6931 20.3532 11.5005 20.3532C7.3085 20.3532 3.56195 19.5379 1.85695 18.3619C1.29161 17.9721 0.544142 18.1573 0.187636 18.7753C-0.16946 19.3938 0 20.2109 0.564711 20.6007C2.72972 22.0939 6.89209 23 11.4999 23C16.1077 23 20.2701 22.0939 22.4351 20.6007C23.0011 20.2109 23.1705 19.3938 22.8134 18.7753Z" fill="#1B1B1B"/>
</svg>
