<svg width="13" height="18" viewBox="0 0 13 18" fill="none" xmlns="http://www.w3.org/2000/svg">
<g id="ETH">
<path d="M11.7578 0H0.705505C0.315866 0 0 0.315866 0 0.705505C0 1.09515 0.315866 1.41101 0.705505 1.41101H11.7578C12.1474 1.41101 12.4633 1.09515 12.4633 0.705505C12.4633 0.315866 12.1474 0 11.7578 0Z" fill="currentColor"/>
<path d="M8.94231 7.8613H3.51861C3.12897 7.8613 2.8131 8.17717 2.8131 8.56681C2.8131 8.95645 3.12897 9.27231 3.51861 9.27231H8.94231C9.33195 9.27231 9.64782 8.95645 9.64782 8.56681C9.64782 8.17717 9.33195 7.8613 8.94231 7.8613Z" fill="currentColor"/>
<path d="M0.705505 15.6221H11.7578C12.1474 15.6221 12.4633 15.938 12.4633 16.3276C12.4633 16.7172 12.1474 17.0331 11.7578 17.0331H0.705505C0.315866 17.0331 0 16.7172 0 16.3276C0 15.938 0.315866 15.6221 0.705505 15.6221Z" fill="currentColor"/>
</g>
</svg>
