<svg width="40" height="32" viewBox="0 0 40 32" fill="none" xmlns="http://www.w3.org/2000/svg">
<g filter="url(#filter0_d_8_31383)">
<path d="M38.9742 16.4142C39.7553 15.6332 39.7553 14.3668 38.9742 13.5858L26.2463 0.857864C25.4652 0.0768156 24.1989 0.0768156 23.4179 0.857864C22.6368 1.63891 22.6368 2.90524 23.4179 3.68629L34.7316 15L23.4179 26.3137C22.6368 27.0948 22.6368 28.3611 23.4179 29.1421C24.1989 29.9232 25.4652 29.9232 26.2463 29.1421L38.9742 16.4142ZM0 17H1.04333V13H0V17ZM3.13 17H5.21667V13H3.13V17ZM7.30333 17H9.39V13H7.30333V17ZM11.4767 17H13.5633V13H11.4767V17ZM15.65 17H17.7367V13H15.65V17ZM19.8233 17H21.91V13H19.8233V17ZM23.9967 17H26.0833V13H23.9967V17ZM28.17 17H30.2567V13H28.17V17ZM32.3433 17H34.43V13H32.3433V17ZM36.5167 17H37.56V13H36.5167V17Z" fill="white"/>
</g>
<defs>
<filter id="filter0_d_8_31383" x="0" y="0.271484" width="39.5605" height="31.457" filterUnits="userSpaceOnUse" color-interpolation-filters="sRGB">
<feFlood flood-opacity="0" result="BackgroundImageFix"/>
<feColorMatrix in="SourceAlpha" type="matrix" values="0 0 0 0 0 0 0 0 0 0 0 0 0 0 0 0 0 0 127 0" result="hardAlpha"/>
<feOffset dy="2"/>
<feComposite in2="hardAlpha" operator="out"/>
<feColorMatrix type="matrix" values="0 0 0 0 0 0 0 0 0 0 0 0 0 0 0 0 0 0 0.25 0"/>
<feBlend mode="normal" in2="BackgroundImageFix" result="effect1_dropShadow_8_31383"/>
<feBlend mode="normal" in="SourceGraphic" in2="effect1_dropShadow_8_31383" result="shape"/>
</filter>
</defs>
</svg>
