<svg width="600" height="600" viewBox="0 0 600 600" fill="none" xmlns="http://www.w3.org/2000/svg">
<g clip-path="url(#clip0_2400_15414)">
<rect width="600" height="600" rx="100" fill="#FDDC2D"/>
<path fill-rule="evenodd" clip-rule="evenodd" d="M440.863 314.686C423.657 305.491 416.678 283.576 426.393 265.398C436.109 247.22 458.207 240.845 475.412 250.04C492.618 259.235 499.597 281.15 489.882 299.328C480.166 317.507 458.068 323.882 440.863 314.686ZM424.339 345.604C389.665 327.073 376.688 283.736 395.355 248.809C414.021 213.882 457.262 200.591 491.936 219.122C526.61 237.653 539.587 280.99 520.92 315.917C502.254 350.844 459.013 364.135 424.339 345.604Z" fill="#211D1A"/>
<path fill-rule="evenodd" clip-rule="evenodd" d="M349.303 144.619C358.635 141.794 368.5 147.067 371.338 156.395C374.175 165.723 368.91 175.574 359.578 178.399L310.157 193.356L325.534 243.913C328.371 253.241 323.106 263.092 313.774 265.917C304.442 268.741 294.577 263.469 291.74 254.141L276.362 203.584L225.787 218.891C216.455 221.715 206.59 216.443 203.753 207.114C200.915 197.786 206.18 187.935 215.512 185.11L266.088 169.804L251.063 120.406C248.225 111.078 253.49 101.226 262.823 98.4021C272.155 95.5778 282.02 100.85 284.857 110.178L299.882 159.576L349.303 144.619Z" fill="#211D1A"/>
<path fill-rule="evenodd" clip-rule="evenodd" d="M216.514 253.056C221.95 255.33 232.701 263.008 232.216 275.528C231.61 291.178 313.221 354.436 383.558 365.85C389.984 362.401 400.057 362.596 407.571 367.08L367.967 433.439L367.967 433.439L323.77 507.496C316.256 503.012 311.303 494.239 311.288 486.946C267.85 430.458 173.432 388.66 159.946 396.623C149.156 402.994 137.295 397.177 132.713 393.472L172.317 327.113L172.317 327.113L216.514 253.056Z" fill="#211D1A"/>
<rect x="182.247" y="217.789" width="42.4991" height="189.996" rx="21.2495" transform="rotate(30.829 182.247 217.789)" fill="#211D1A"/>
<rect x="418.385" y="358.719" width="42.4991" height="189.996" rx="21.2495" transform="rotate(30.829 418.385 358.719)" fill="#211D1A"/>
<path d="M229.489 409.524L262.743 430.308L156.614 636.359L98.6526 601.768L229.489 409.524Z" fill="#211D1A"/>
<path d="M228.658 343C239.146 366.628 269.163 406.51 333.015 397.521" stroke="#FDDC2D" stroke-width="21" stroke-linecap="round" stroke-linejoin="round"/>
</g>
<defs>
<clipPath id="clip0_2400_15414">
<rect width="600" height="600" rx="100" fill="white"/>
</clipPath>
</defs>
</svg>
