<svg width="168" height="168" viewBox="0 0 168 168" fill="none" xmlns="http://www.w3.org/2000/svg">
<path d="M84.0214 168C80.0915 168 76.1404 167.722 72.2746 167.188L72.659 164.412C76.3966 164.924 80.2197 165.202 84.0214 165.202C90.1297 165.202 96.238 164.519 102.133 163.173L102.752 165.907C96.6438 167.295 90.3219 168 84 168H84.0214ZM65.3974 165.928C55.3593 163.664 45.9191 159.606 37.3547 153.861L38.9138 151.533C47.2006 157.086 56.3204 161.016 66.0168 163.194L65.3974 165.928ZM109.501 164.07L108.647 161.4C118.108 158.389 126.865 153.711 134.661 147.475L136.412 149.675C128.339 156.125 119.283 160.973 109.48 164.091L109.501 164.07ZM31.7162 149.739C23.643 143.31 16.9153 135.557 11.6613 126.715L14.0748 125.284C19.1365 133.848 25.672 141.345 33.4676 147.539L31.7162 149.739ZM141.687 145.083L139.765 143.054C147.027 136.198 152.879 128.188 157.214 119.239L159.735 120.457C155.271 129.726 149.205 138.013 141.687 145.104V145.083ZM8.35088 120.585C3.86575 111.315 1.15332 101.427 0.299008 91.132L3.09687 90.897C3.92982 100.829 6.55683 110.418 10.8924 119.367L8.37223 120.585H8.35088ZM162.49 114.049L159.863 113.045C163.408 103.776 165.202 94.0153 165.202 84.0197V83.7207H168V84.0197C168 94.3784 166.142 104.481 162.468 114.049H162.49ZM2.79786 84.1479H0V83.9984C0 73.7037 1.83677 63.644 5.46758 54.0969L8.09458 55.1008C4.59191 64.3275 2.79786 74.0454 2.79786 83.9984V84.1479ZM164.903 76.9715C164.049 67.04 161.422 57.4715 157.065 48.5224L159.585 47.305C164.092 56.5531 166.825 66.4633 167.701 76.7366L164.903 76.9715ZM10.7643 48.9069L8.24409 47.6895C12.6865 38.42 18.7521 30.1117 26.2487 23.0208L28.1709 25.0498C20.9306 31.9058 15.0786 39.9365 10.7643 48.9069ZM153.883 42.5849C148.799 34.0203 142.264 26.5449 134.447 20.351L136.198 18.1511C144.272 24.5586 151.042 32.2902 156.296 41.1539L153.883 42.5849ZM33.2326 20.6287L31.4813 18.4502C39.5332 11.9786 48.5889 7.13033 58.3707 3.99068L59.225 6.66045C49.7635 9.69331 41.0069 14.3921 33.2326 20.6287ZM128.979 16.3998C120.671 10.868 111.551 6.95947 101.855 4.78094L102.474 2.04709C112.513 4.2897 121.953 8.34775 130.539 14.0717L128.979 16.3998ZM65.7391 4.86637L65.1198 2.13253C75.0297 -0.152798 85.5378 -0.601319 95.6186 0.786961L95.2342 3.56352C85.4737 2.21796 75.3288 2.66648 65.7391 4.86637Z" fill="currentColor"/>
</svg>
