<svg width="23" height="17" viewBox="0 0 23 17" fill="none" xmlns="http://www.w3.org/2000/svg">
<path d="M17.2502 6.80017L11.5 0L5.74983 6.80017L0 5.10006L2.29979 10.2001V15.6424C7.9858 17.3838 14.5685 17.52 20.7002 15.6424V10.2001L23 5.10006L17.2502 6.80017ZM18.4001 14.4653C16.1802 15.0189 13.8529 15.3009 11.51 15.3002H11.509C9.1599 15.301 6.82633 15.019 4.59993 14.4653V12.576C6.85153 13.0299 9.17511 13.2594 11.509 13.2584C13.8481 13.2584 16.1551 13.0294 18.4001 12.576V14.4653ZM17.9654 10.8866C13.6225 11.7873 9.16398 11.7391 5.03222 10.8823L3.75088 8.04025L6.68099 8.90674L11.5 3.20768L16.319 8.907L19.2502 8.0405L17.9654 10.8866Z" fill="white"/>
</svg>
