<svg width="204" height="157" viewBox="0 0 204 157" fill="none" xmlns="http://www.w3.org/2000/svg">
<path d="M65.6582 90.5879L4.9269 53.7285V3.04569" stroke="white" stroke-miterlimit="10"/>
<path d="M4.92594 -0.000514984C2.20559 -0.000514984 0.000317574 2.27404 0.000317574 5.07983C0.000317574 7.88562 2.20559 10.1602 4.92594 10.1602C7.64629 10.1602 9.85156 7.88562 9.85156 5.07983C9.85156 2.27404 7.64629 -0.000514984 4.92594 -0.000514984Z" fill="white"/>
<path d="M74.4629 144.925L90.6674 99.9944L203.362 99.2578L192.314 155.974H81.092C79.3242 155.974 76.1815 148.117 74.4629 144.925Z" fill="url(#paint0_linear_9521_10017)"/>
<path d="M90.385 99.8488L85.2477 90.9531H84.5156L90.0253 100.483H201.857V99.8488H90.385Z" fill="white"/>
<path d="M82.0355 116.239L81.9377 116.394H66.4405L58.6777 102.961L58.6904 102.951H59.4193L59.4098 102.961L66.7971 115.766H81.5811L88.9747 102.961L81.7357 90.4359V89.5303H81.9377L89.7068 102.961L82.0355 116.239Z" fill="white"/>
<path d="M67.5724 92.0959L67.6449 91.957H80.7943L87.2507 103.147H86.629L80.4788 92.4935H67.9542L61.6872 103.349L67.9542 114.188H68.0236V114.731H67.6449L61.0781 103.349L67.5724 92.0959Z" fill="white"/>
<path d="M72.6481 89.085C72.2599 89.085 71.9254 89.3406 71.815 89.694H66.2453L60.9976 97.624H53.4336V98.0532H60.9976L66.2453 90.1232H71.8024C71.8876 90.4987 72.2378 90.7732 72.6481 90.7732C73.1435 90.7732 73.5285 90.3977 73.5285 89.9244C73.5285 89.451 73.1435 89.085 72.6481 89.085ZM72.6481 90.1358C72.5345 90.1358 72.4366 90.0443 72.4366 89.9244C72.4366 89.8139 72.5345 89.7129 72.6481 89.7129C72.7806 89.7129 72.8753 89.8107 72.8753 89.9244C72.8753 90.0443 72.7806 90.1358 72.6481 90.1358Z" fill="white"/>
<path d="M52.6511 98.615C53.033 98.615 53.3801 98.3531 53.4811 98.0091H53.7651V97.5737H53.4968C53.4053 97.1981 53.0614 96.9268 52.648 96.9268C52.1557 96.9268 51.7676 97.3054 51.7676 97.7725C51.7676 98.2395 52.1557 98.615 52.648 98.615H52.6511ZM52.6511 97.5547C52.7616 97.561 52.8626 97.6494 52.8626 97.7693C52.8626 97.8766 52.7647 97.9681 52.6511 97.9681C52.5249 97.9681 52.4303 97.8766 52.4303 97.7693C52.4303 97.6494 52.5249 97.5547 52.6511 97.5547Z" fill="white"/>
<path d="M68.0577 115.393C68.449 115.393 68.7961 115.125 68.8971 114.784H68.9034V114.358H68.9129C68.8214 113.983 68.4774 113.705 68.0545 113.705C67.5749 113.705 67.1836 114.081 67.1836 114.551C67.1836 115.021 67.5749 115.396 68.0545 115.396L68.0577 115.393ZM68.0577 114.333C68.1776 114.339 68.2817 114.431 68.2817 114.548C68.2817 114.664 68.1776 114.756 68.0577 114.756C67.9378 114.756 67.8463 114.661 67.8463 114.548C67.8463 114.434 67.9315 114.333 68.0577 114.333Z" fill="white"/>
<path d="M87.0355 104.27C87.4204 104.27 87.7676 103.995 87.8749 103.657H87.8812V103.222C87.796 102.85 87.4583 102.578 87.0323 102.578C86.5495 102.578 86.1582 102.95 86.1582 103.424C86.1582 103.897 86.5495 104.27 87.0323 104.27H87.0355ZM87.0355 103.209C87.1522 103.219 87.2564 103.31 87.2564 103.424C87.2564 103.537 87.1522 103.626 87.0355 103.626C86.9061 103.626 86.8177 103.534 86.8177 103.424C86.8177 103.313 86.9092 103.209 87.0355 103.209Z" fill="white"/>
<path d="M81.348 90.6377C81.7329 90.6377 82.0801 90.3632 82.1874 90.0255H82.1937V89.59C82.1085 89.2177 81.7708 88.9463 81.3448 88.9463C80.862 88.9463 80.4707 89.3187 80.4707 89.792C80.4707 90.2653 80.862 90.6377 81.3448 90.6377H81.348ZM81.348 89.5774C81.4647 89.5869 81.5689 89.6784 81.5689 89.792C81.5689 89.9056 81.4647 89.9939 81.348 89.9939C81.2186 89.9939 81.1302 89.9024 81.1302 89.792C81.1302 89.6815 81.2217 89.5774 81.348 89.5774Z" fill="white"/>
<path d="M84.6511 91.4011C85.0456 91.4011 85.3896 91.1361 85.4874 90.7984H85.5V90.3598H85.5095C85.4243 89.9906 85.074 89.7129 84.6511 89.7129C84.162 89.7129 83.7676 90.0916 83.7676 90.5649C83.7676 91.0382 84.162 91.4011 84.6511 91.4011ZM84.6511 90.3409C84.7647 90.3472 84.872 90.4387 84.872 90.5649C84.872 90.669 84.7647 90.7637 84.6511 90.7637C84.5312 90.7637 84.4271 90.669 84.4271 90.5649C84.4271 90.4387 84.5312 90.3409 84.6511 90.3409Z" fill="white"/>
<path d="M202.089 100.947C202.478 100.947 202.821 100.685 202.922 100.347H202.935V99.9086H202.945C202.85 99.5363 202.512 99.2617 202.089 99.2617C201.603 99.2617 201.209 99.6404 201.209 100.101C201.209 100.562 201.6 100.947 202.089 100.947ZM202.089 99.8865C202.197 99.8928 202.31 99.9907 202.31 100.101C202.31 100.212 202.197 100.309 202.089 100.309C201.96 100.309 201.865 100.218 201.865 100.101C201.865 99.9844 201.963 99.8865 202.089 99.8865Z" fill="white"/>
<path d="M58.5948 101.512C58.9829 101.512 59.3269 101.241 59.4247 100.903H59.4405V100.467H59.4437C59.3585 100.101 59.0082 99.8174 58.5916 99.8174C58.1088 99.8174 57.7207 100.196 57.7207 100.666C57.7207 101.136 58.1088 101.512 58.5916 101.512H58.5948ZM58.5948 100.452C58.7053 100.458 58.8094 100.546 58.8094 100.669C58.8094 100.78 58.7053 100.878 58.5948 100.878C58.4623 100.878 58.3739 100.78 58.3739 100.669C58.3739 100.549 58.4623 100.452 58.5948 100.452Z" fill="white"/>
<path d="M53.1581 136.545C53.5525 136.545 53.8965 136.274 54.0038 135.933H54.0132V135.497C53.9249 135.135 53.5872 134.851 53.1581 134.851C52.6752 134.851 52.2871 135.226 52.2871 135.696C52.2871 136.166 52.6752 136.545 53.1581 136.545ZM53.1581 135.485C53.2811 135.488 53.3884 135.58 53.3884 135.696C53.3884 135.813 53.2811 135.905 53.1581 135.905C53.035 135.905 52.9372 135.81 52.9372 135.696C52.9372 135.583 53.0318 135.485 53.1581 135.485Z" fill="white"/>
<path d="M76.2015 121.79L76.1069 121.629H60.6002L52.8438 135.069V135.081H53.579L53.5759 135.069L60.9663 122.266H75.744L83.1312 135.069L75.9049 147.587V148.496H76.1069L83.8602 135.069L76.2015 121.79Z" fill="white"/>
<path d="M80.268 156.448L80.3532 156.605H194.501V155.971H80.7192L76.2477 148.231L83.5182 135.63V134.794H83.2689L75.5156 148.231L80.268 156.448Z" fill="white"/>
<path d="M55.7165 134.545L61.6774 124.22H61.0589L55.1074 134.545L61.5985 145.791L61.6742 145.933H74.8142L81.28 134.747H80.652L74.5112 145.397H61.9835L55.7165 134.545Z" fill="white"/>
<path d="M80.9992 133.491C80.6048 133.491 80.2608 133.759 80.1599 134.103H80.1504V134.529C80.2324 134.905 80.5669 135.176 80.9992 135.176C81.4821 135.176 81.8702 134.81 81.8702 134.334C81.8702 133.857 81.4821 133.491 80.9992 133.491ZM80.9992 134.551C80.873 134.548 80.772 134.457 80.772 134.334C80.772 134.226 80.8762 134.135 80.9992 134.135C81.1223 134.135 81.2138 134.223 81.2138 134.334C81.2138 134.457 81.1223 134.551 80.9992 134.551Z" fill="white"/>
<path d="M194.699 155.314C194.311 155.314 193.967 155.586 193.866 155.92H193.844V156.356C193.935 156.728 194.279 157 194.699 157C195.179 157 195.576 156.633 195.576 156.154C195.576 155.674 195.179 155.314 194.699 155.314ZM194.699 156.378C194.585 156.362 194.478 156.274 194.478 156.154C194.478 156.047 194.585 155.955 194.699 155.955C194.822 155.955 194.917 156.047 194.917 156.154C194.917 156.274 194.822 156.378 194.699 156.378Z" fill="white"/>
<path d="M73.5831 148.079C73.1855 148.079 72.8447 148.348 72.7469 148.685H72.4629V149.118H72.7311C72.8195 149.493 73.1634 149.768 73.5863 149.768C74.0691 149.768 74.4572 149.395 74.4572 148.922C74.4572 148.449 74.0691 148.076 73.5863 148.076L73.5831 148.079ZM73.5831 149.146C73.4727 149.14 73.3591 149.051 73.3591 148.925C73.3591 148.818 73.4695 148.72 73.5831 148.72C73.7094 148.72 73.7946 148.818 73.7946 148.925C73.7946 149.051 73.7094 149.146 73.5831 149.146Z" fill="white"/>
<path d="M54.2159 140.821L59.3563 149.091H73.4146V148.669H59.3563L54.2159 140.395H46.6582V140.821H54.2159Z" fill="white"/>
<path d="M45 140.67C45 141.143 45.3881 141.519 45.8741 141.519C46.297 141.519 46.6346 141.238 46.7261 140.865H46.9975V140.436H46.704C46.6062 140.095 46.2622 139.827 45.8741 139.827C45.385 139.827 45 140.212 45 140.667V140.67ZM45.6564 140.67C45.6564 140.562 45.7479 140.468 45.8773 140.468C45.9877 140.468 46.1013 140.562 46.1013 140.67C46.1013 140.786 45.9877 140.887 45.8773 140.891C45.7479 140.891 45.6564 140.786 45.6564 140.67Z" fill="white"/>
<path d="M61.7426 122.803C61.3513 122.803 61.0137 123.074 60.9064 123.415H60.9001V123.85H60.8906C60.9727 124.223 61.3261 124.491 61.7395 124.491C62.2254 124.491 62.6199 124.115 62.6199 123.652C62.6199 123.188 62.2254 122.803 61.7395 122.803H61.7426ZM61.7426 123.866C61.6354 123.857 61.5281 123.768 61.5281 123.652C61.5281 123.535 61.6354 123.443 61.7426 123.443C61.872 123.443 61.9667 123.535 61.9667 123.652C61.9667 123.768 61.872 123.866 61.7426 123.866Z" fill="white"/>
<path d="M109.204 94.54H110.884V96.256L109.492 97.06H106.096L104.704 96.256V89.344L106.096 88.54H109.492L110.884 89.344V91.06H109.204V89.98H106.384V95.62H109.204V94.54ZM119.341 96.256L117.949 97.06H114.193L112.801 96.256V89.344L114.193 88.54H117.949L119.341 89.344V96.256ZM114.481 89.98V95.62H117.661V89.98H114.481ZM126.239 88.6H127.919V96.256L126.527 97.06H122.771L121.379 96.256V88.6H123.059V95.5H126.239V88.6ZM131.638 91.564V97H129.958V88.6H131.53L135.154 94.036H135.178V88.6H136.858V97H135.286L131.662 91.564H131.638ZM142.127 90.04V97H140.447V90.04H138.179V88.6H144.395V90.04H142.127ZM152.259 96.196L150.867 97H145.719V88.6H150.867L152.259 89.404V96.196ZM147.399 90.04V95.56H150.579V90.04H147.399ZM160.837 96.256L159.445 97.06H155.689L154.297 96.256V89.344L155.689 88.54H159.445L160.837 89.344V96.256ZM155.977 89.98V95.62H159.157V89.98H155.977ZM173.075 88.6L170.939 97H169.139L167.627 91.324H167.603L166.091 97H164.291L162.155 88.6H163.787L165.203 94.36H165.227L166.763 88.6H168.467L170.003 94.336H170.027L171.443 88.6H173.075ZM176.075 91.564V97H174.395V88.6H175.967L179.591 94.036H179.615V88.6H181.295V97H179.723L176.099 91.564H176.075Z" fill="white"/>
<defs>
<linearGradient id="paint0_linear_9521_10017" x1="199.679" y1="122.828" x2="80.3554" y2="121.355" gradientUnits="userSpaceOnUse">
<stop stop-opacity="0"/>
<stop offset="0.483758" stop-opacity="0.22"/>
<stop offset="1" stop-opacity="0"/>
</linearGradient>
</defs>
</svg>
