<svg width="61" height="10" viewBox="0 0 61 10" fill="none" xmlns="http://www.w3.org/2000/svg">
<path opacity="0.1" d="M0 0V9.46131L4.70314 4.73066L0 0Z" fill="#24FF00"/>
<path opacity="0.2" d="M6.24414 0V9.46131L10.9473 4.73066L6.24414 0Z" fill="#24FF00"/>
<path opacity="0.3" d="M12.4824 0V9.46131L17.1856 4.73066L12.4824 0Z" fill="#24FF00"/>
<path opacity="0.4" d="M18.7246 0V9.46131L23.4278 4.73066L18.7246 0Z" fill="#24FF00"/>
<path opacity="0.5" d="M24.9648 0V9.46131L29.668 4.73066L24.9648 0Z" fill="#24FF00"/>
<path opacity="0.6" d="M31.207 0V9.46131L35.9102 4.73066L31.207 0Z" fill="#24FF00"/>
<path opacity="0.7" d="M37.4492 0V9.46131L42.1524 4.73066L37.4492 0Z" fill="#24FF00"/>
<path opacity="0.8" d="M43.6875 0V9.46131L48.3906 4.73066L43.6875 0Z" fill="#24FF00"/>
<path opacity="0.9" d="M49.9316 0V9.46131L54.6348 4.73066L49.9316 0Z" fill="#24FF00"/>
<path d="M56.1699 0V9.46131L60.8731 4.73066L56.1699 0Z" fill="#24FF00"/>
</svg>
