<svg width="46" height="62" viewBox="0 0 46 62" fill="none" xmlns="http://www.w3.org/2000/svg">
<mask id="path-1-inside-1_9478_16479" fill="white">
<path fill-rule="evenodd" clip-rule="evenodd" d="M22.699 6.4521C29.2655 6.4521 35.363 12.137 35.363 18.2572L35.3578 18.2524V22.9116H42.164V18.3443C42.1688 15.9662 41.669 13.6104 40.6931 11.4116C39.7172 9.2128 38.2844 7.21395 36.4764 5.5292C34.6685 3.84445 32.5208 2.5068 30.1559 1.59261C27.7911 0.678427 25.2555 0.205615 22.6938 0.201172C17.5212 0.210146 12.5643 2.12603 8.91306 5.52749C5.26184 8.92895 3.21535 13.5374 3.22365 18.3395V22.9164H10.0247V18.2572C10.0247 12.137 16.1273 6.4521 22.699 6.4521ZM19.9288 50.3095H26.6525L25.1785 44.5546C25.907 44.1842 26.5207 43.6098 26.9499 42.8965C27.379 42.1833 27.6065 41.3597 27.6065 40.5193C27.6065 38.0365 25.6732 36.0241 23.2856 36.0241C22.3056 36.0287 21.356 36.3765 20.5912 37.0109C19.8264 37.6453 19.2914 38.529 19.0731 39.5183C18.8549 40.5075 18.9664 41.5441 19.3893 42.4595C19.8123 43.3748 20.5219 44.1151 21.4027 44.5598L19.9288 50.3095ZM5.86047 26.1607H40.7107V26.1659C41.4067 26.1673 42.0957 26.3106 42.7382 26.5877C43.3807 26.8647 43.9643 27.2702 44.4555 27.7808C44.9468 28.2914 45.3361 28.8972 45.6012 29.5636C45.8663 30.23 46.0021 30.944 46.0008 31.6647V56.3572C46.0021 57.078 45.8663 57.7919 45.6012 58.4583C45.3361 59.1247 44.9468 59.7305 44.4555 60.2411C43.9643 60.7518 43.3807 61.1572 42.7382 61.4343C42.0957 61.7114 41.4067 61.8547 40.7107 61.856H5.86047C2.94283 61.856 0.570351 59.3889 0.570351 56.3572V31.67C0.567695 30.9483 0.702494 30.2332 0.967034 29.5656C1.23157 28.898 1.62066 28.291 2.11203 27.7793C2.60339 27.2675 3.18739 26.8612 3.8306 26.5834C4.4738 26.3057 5.16359 26.162 5.86047 26.1607Z"/>
</mask>
<path fill-rule="evenodd" clip-rule="evenodd" d="M22.699 6.4521C29.2655 6.4521 35.363 12.137 35.363 18.2572L35.3578 18.2524V22.9116H42.164V18.3443C42.1688 15.9662 41.669 13.6104 40.6931 11.4116C39.7172 9.2128 38.2844 7.21395 36.4764 5.5292C34.6685 3.84445 32.5208 2.5068 30.1559 1.59261C27.7911 0.678427 25.2555 0.205615 22.6938 0.201172C17.5212 0.210146 12.5643 2.12603 8.91306 5.52749C5.26184 8.92895 3.21535 13.5374 3.22365 18.3395V22.9164H10.0247V18.2572C10.0247 12.137 16.1273 6.4521 22.699 6.4521ZM19.9288 50.3095H26.6525L25.1785 44.5546C25.907 44.1842 26.5207 43.6098 26.9499 42.8965C27.379 42.1833 27.6065 41.3597 27.6065 40.5193C27.6065 38.0365 25.6732 36.0241 23.2856 36.0241C22.3056 36.0287 21.356 36.3765 20.5912 37.0109C19.8264 37.6453 19.2914 38.529 19.0731 39.5183C18.8549 40.5075 18.9664 41.5441 19.3893 42.4595C19.8123 43.3748 20.5219 44.1151 21.4027 44.5598L19.9288 50.3095ZM5.86047 26.1607H40.7107V26.1659C41.4067 26.1673 42.0957 26.3106 42.7382 26.5877C43.3807 26.8647 43.9643 27.2702 44.4555 27.7808C44.9468 28.2914 45.3361 28.8972 45.6012 29.5636C45.8663 30.23 46.0021 30.944 46.0008 31.6647V56.3572C46.0021 57.078 45.8663 57.7919 45.6012 58.4583C45.3361 59.1247 44.9468 59.7305 44.4555 60.2411C43.9643 60.7518 43.3807 61.1572 42.7382 61.4343C42.0957 61.7114 41.4067 61.8547 40.7107 61.856H5.86047C2.94283 61.856 0.570351 59.3889 0.570351 56.3572V31.67C0.567695 30.9483 0.702494 30.2332 0.967034 29.5656C1.23157 28.898 1.62066 28.291 2.11203 27.7793C2.60339 27.2675 3.18739 26.8612 3.8306 26.5834C4.4738 26.3057 5.16359 26.162 5.86047 26.1607Z" fill="url(#paint0_linear_9478_16479)"/>
<path d="M35.363 18.2572L34.6825 18.99L36.363 20.5506V18.2572H35.363ZM35.3578 18.2524L36.0382 17.5196L34.3578 15.9591V18.2524H35.3578ZM35.3578 22.9116H34.3578V23.9116H35.3578V22.9116ZM42.164 22.9116V23.9116H43.164V22.9116H42.164ZM42.164 18.3443L41.164 18.3423V18.3443H42.164ZM40.6931 11.4116L41.6071 11.006V11.006L40.6931 11.4116ZM36.4764 5.5292L35.7947 6.2608V6.2608L36.4764 5.5292ZM22.6938 0.201172L22.6956 -0.798833L22.6921 -0.798827L22.6938 0.201172ZM8.91306 5.52749L8.23142 4.7958L8.91306 5.52749ZM3.22365 18.3395H4.22366L4.22365 18.3378L3.22365 18.3395ZM3.22365 22.9164H2.22365V23.9164H3.22365V22.9164ZM10.0247 22.9164V23.9164H11.0247V22.9164H10.0247ZM26.6525 50.3095V51.3095H27.9409L27.6212 50.0614L26.6525 50.3095ZM19.9288 50.3095L18.9601 50.0612L18.6401 51.3095H19.9288V50.3095ZM25.1785 44.5546L24.7253 43.6632L24.0109 44.0263L24.2098 44.8027L25.1785 44.5546ZM27.6065 40.5193H26.6065V40.5193L27.6065 40.5193ZM23.2856 36.0241V35.0241L23.2809 35.0241L23.2856 36.0241ZM21.4027 44.5598L22.3714 44.8081L22.571 44.0294L21.8534 43.6671L21.4027 44.5598ZM40.7107 26.1607H41.7107V25.1607H40.7107V26.1607ZM5.86047 26.1607V25.1607L5.85851 25.1607L5.86047 26.1607ZM40.7107 26.1659H39.7107V27.1639L40.7087 27.1659L40.7107 26.1659ZM45.6012 29.5636L44.672 29.9333V29.9333L45.6012 29.5636ZM46.0008 31.6647L45.0008 31.6629V31.6647H46.0008ZM46.0008 56.3572H45.0008V56.3591L46.0008 56.3572ZM45.6012 58.4583L44.672 58.0886L45.6012 58.4583ZM44.4555 60.2411L43.7349 59.5478H43.7349L44.4555 60.2411ZM42.7382 61.4343L43.1342 62.3525L43.1342 62.3525L42.7382 61.4343ZM40.7107 61.856V62.856L40.7126 62.856L40.7107 61.856ZM0.570351 31.67H1.57036L1.57034 31.6663L0.570351 31.67ZM0.967034 29.5656L1.89671 29.934L1.89671 29.934L0.967034 29.5656ZM3.8306 26.5834L3.43417 25.6654H3.43417L3.8306 26.5834ZM36.363 18.2572C36.363 14.8637 34.6785 11.6616 32.1753 9.32811C29.6697 6.99223 26.2671 5.4521 22.699 5.4521V7.4521C25.6974 7.4521 28.6269 8.75439 30.8116 10.791C32.9988 12.83 34.363 15.5305 34.363 18.2572H36.363ZM34.6773 18.9852L34.6825 18.99L36.0435 17.5245L36.0382 17.5196L34.6773 18.9852ZM36.3578 22.9116V18.2524H34.3578V22.9116H36.3578ZM42.164 21.9116H35.3578V23.9116H42.164V21.9116ZM41.164 18.3443V22.9116H43.164V18.3443H41.164ZM39.7791 11.8173C40.6987 13.8893 41.1685 16.1063 41.164 18.3423L43.164 18.3464C43.1691 15.8261 42.6393 13.3316 41.6071 11.006L39.7791 11.8173ZM35.7947 6.2608C37.5068 7.85623 38.8594 9.74504 39.7791 11.8173L41.6071 11.006C40.5751 8.68056 39.062 6.57167 37.1582 4.7976L35.7947 6.2608ZM29.7954 2.52534C32.0444 3.39478 34.0824 4.66522 35.7947 6.2608L37.1582 4.7976C35.2545 3.02368 32.9971 1.61881 30.5165 0.659881L29.7954 2.52534ZM22.6921 1.20117C25.1323 1.2054 27.5462 1.65588 29.7954 2.52534L30.5165 0.659881C28.036 -0.299023 25.3786 -0.794173 22.6956 -0.798827L22.6921 1.20117ZM9.59469 6.25918C13.0539 3.03657 17.7652 1.20972 22.6956 1.20117L22.6921 -0.798827C17.2773 -0.789432 12.0746 1.21549 8.23142 4.7958L9.59469 6.25918ZM4.22365 18.3378C4.21585 13.8259 6.13796 9.47945 9.59469 6.25918L8.23142 4.7958C4.38571 8.37844 2.21485 13.249 2.22366 18.3412L4.22365 18.3378ZM4.22365 22.9164V18.3395H2.22365V22.9164H4.22365ZM10.0247 21.9164H3.22365V23.9164H10.0247V21.9164ZM9.02466 18.2572V22.9164H11.0247V18.2572H9.02466ZM22.699 5.4521C19.1286 5.4521 15.7236 6.99203 13.2159 9.32782C10.7108 11.6612 9.02466 14.8634 9.02466 18.2572H11.0247C11.0247 15.5308 12.3899 12.8304 14.579 10.7913C16.7656 8.7546 19.6978 7.4521 22.699 7.4521V5.4521ZM26.6525 49.3095H19.9288V51.3095H26.6525V49.3095ZM24.2098 44.8027L25.6837 50.5577L27.6212 50.0614L26.1472 44.3065L24.2098 44.8027ZM26.093 42.381C25.7586 42.9367 25.2835 43.3794 24.7253 43.6632L25.6317 45.446C26.5306 44.989 27.2828 44.2829 27.8067 43.4121L26.093 42.381ZM26.6065 40.5193C26.6065 41.1799 26.4276 41.8249 26.093 42.381L27.8067 43.4121C28.3305 42.5416 28.6065 41.5395 28.6065 40.5193L26.6065 40.5193ZM23.2856 37.0241C25.0838 37.0241 26.6065 38.551 26.6065 40.5193H28.6065C28.6065 37.522 26.2625 35.0241 23.2856 35.0241V37.0241ZM21.2296 37.7806C21.819 37.2917 22.5454 37.0276 23.2903 37.0241L23.2809 35.0241C22.0659 35.0298 20.8931 35.4612 19.9528 36.2412L21.2296 37.7806ZM20.0497 39.7337C20.221 38.9571 20.6396 38.27 21.2296 37.7806L19.9528 36.2412C19.0132 37.0206 18.3617 38.101 18.0966 39.3029L20.0497 39.7337ZM20.2971 42.04C19.9663 41.3241 19.8783 40.5106 20.0497 39.7337L18.0966 39.3029C17.8316 40.5045 17.9664 41.7642 18.4816 42.879L20.2971 42.04ZM21.8534 43.6671C21.1787 43.3265 20.6277 42.7555 20.2971 42.04L18.4816 42.879C18.9969 43.9942 19.8651 44.9037 20.952 45.4525L21.8534 43.6671ZM20.8974 50.5579L22.3714 44.8081L20.4341 44.3115L18.9601 50.0612L20.8974 50.5579ZM40.7107 25.1607H5.86047V27.1607H40.7107V25.1607ZM41.7107 26.1659V26.1607H39.7107V26.1659H41.7107ZM43.1342 25.6694C42.3679 25.339 41.5449 25.1675 40.7126 25.1659L40.7087 27.1659C41.2685 27.167 41.8234 27.2822 42.3422 27.5059L43.1342 25.6694ZM45.1762 27.0875C44.5939 26.4823 43.9004 25.9998 43.1342 25.6694L42.3422 27.5059C42.8611 27.7297 43.3346 28.0581 43.7349 28.4741L45.1762 27.0875ZM46.5304 29.1939C46.2179 28.4087 45.7583 27.6926 45.1762 27.0875L43.7349 28.4741C44.1352 28.8902 44.4542 29.3857 44.672 29.9333L46.5304 29.1939ZM47.0008 31.6666C47.0023 30.8192 46.8428 29.9791 46.5304 29.1939L44.672 29.9333C44.8899 30.4809 45.0019 31.0687 45.0008 31.6629L47.0008 31.6666ZM47.0008 56.3572V31.6647H45.0008V56.3572H47.0008ZM46.5304 58.828C46.8428 58.0428 47.0023 57.2027 47.0008 56.3554L45.0008 56.3591C45.0019 56.9532 44.8899 57.541 44.672 58.0886L46.5304 58.828ZM45.1762 60.9344C45.7583 60.3293 46.2179 59.6133 46.5304 58.828L44.672 58.0886C44.4542 58.6362 44.1352 59.1317 43.7349 59.5478L45.1762 60.9344ZM43.1342 62.3525C43.9004 62.0221 44.5939 61.5396 45.1762 60.9344L43.7349 59.5478C43.3346 59.9639 42.8611 60.2923 42.3422 60.516L43.1342 62.3525ZM40.7126 62.856C41.5449 62.8544 42.3679 62.683 43.1342 62.3525L42.3422 60.516C41.8234 60.7397 41.2685 60.8549 40.7087 60.856L40.7126 62.856ZM5.86047 62.856H40.7107V60.856H5.86047V62.856ZM-0.429649 56.3572C-0.429649 59.9042 2.3543 62.856 5.86047 62.856V60.856C3.53136 60.856 1.57035 58.8736 1.57035 56.3572H-0.429649ZM-0.429649 31.67V56.3572H1.57035V31.67H-0.429649ZM0.0373592 29.1973C-0.274336 29.9839 -0.432765 30.8253 -0.429642 31.6736L1.57034 31.6663C1.56815 31.0714 1.67932 30.4826 1.89671 29.934L0.0373592 29.1973ZM1.39072 27.0866C0.808411 27.6931 0.349074 28.4106 0.0373588 29.1973L1.89671 29.934C2.11407 29.3855 2.43291 28.8889 2.83334 28.4719L1.39072 27.0866ZM3.43417 25.6654C2.66717 25.9966 1.9731 26.4801 1.39072 27.0866L2.83334 28.4719C3.23369 28.0549 3.70761 27.7258 4.22702 27.5015L3.43417 25.6654ZM5.85851 25.1607C5.0252 25.1623 4.20126 25.3341 3.43417 25.6654L4.22702 27.5015C4.74634 27.2773 5.30198 27.1618 5.86244 27.1607L5.85851 25.1607Z" fill="white" mask="url(#path-1-inside-1_9478_16479)"/>
<defs>
<linearGradient id="paint0_linear_9478_16479" x1="23.2856" y1="0.201172" x2="23.2856" y2="61.856" gradientUnits="userSpaceOnUse">
<stop offset="0.125" stop-color="white"/>
<stop offset="1" stop-color="#999999"/>
</linearGradient>
</defs>
</svg>
