<svg width="31" height="31" viewBox="0 0 31 31" fill="none" xmlns="http://www.w3.org/2000/svg">
<path d="M10.401 23.1762C10.7991 23.1762 11.1761 23.2489 11.5323 23.3942C11.8884 23.5396 12.1974 23.742 12.4593 24.0015C12.7211 24.261 12.9306 24.5673 13.0877 24.9202C13.2448 25.2732 13.3234 25.6469 13.3234 26.0414C13.3234 26.4359 13.2448 26.8096 13.0877 27.1625C12.9306 27.5155 12.7211 27.8217 12.4593 28.0813C12.1974 28.3408 11.8884 28.5484 11.5323 28.7041C11.1761 28.8599 10.7991 28.9377 10.401 28.9377C9.98207 28.9377 9.59452 28.8599 9.23839 28.7041C8.88226 28.5484 8.57327 28.3408 8.31141 28.0813C8.04955 27.8217 7.84006 27.5155 7.68295 27.1625C7.52583 26.8096 7.44727 26.4359 7.44727 26.0414C7.44727 25.6469 7.52583 25.2732 7.68295 24.9202C7.84006 24.5673 8.04955 24.261 8.31141 24.0015C8.57327 23.742 8.88226 23.5396 9.23839 23.3942C9.59452 23.2489 9.98207 23.1762 10.401 23.1762ZM23.473 23.2385C23.8711 23.2385 24.2534 23.3112 24.62 23.4565C24.9866 23.6018 25.3008 23.8043 25.5627 24.0638C25.8245 24.3233 26.034 24.6296 26.1911 24.9825C26.3483 25.3355 26.4268 25.7092 26.4268 26.1037C26.4268 26.4982 26.3483 26.8719 26.1911 27.2248C26.034 27.5778 25.8245 27.884 25.5627 28.1436C25.3008 28.4031 24.9866 28.6107 24.62 28.7664C24.2534 28.9221 23.8711 29 23.473 29C23.075 29 22.6979 28.9221 22.3418 28.7664C21.9857 28.6107 21.6767 28.4031 21.4148 28.1436C21.153 27.884 20.9435 27.5778 20.7864 27.2248C20.6293 26.8719 20.5507 26.4982 20.5507 26.1037C20.5507 25.7092 20.6293 25.3355 20.7864 24.9825C20.9435 24.6296 21.153 24.3233 21.4148 24.0638C21.6767 23.8043 21.9857 23.6018 22.3418 23.4565C22.6979 23.3112 23.075 23.2385 23.473 23.2385ZM28.7521 5.54914C29.3387 5.54914 29.7943 5.627 30.119 5.78271C30.4437 5.93843 30.6742 6.13048 30.8103 6.35886C30.9465 6.58725 31.0094 6.8312 30.9989 7.09073C30.9884 7.35026 30.9517 7.57345 30.8889 7.76031C30.8261 7.94717 30.6899 8.33127 30.4804 8.91261C30.2709 9.49395 30.0457 10.1324 29.8048 10.8279C29.5639 11.5235 29.323 12.2138 29.0821 12.8989C28.8412 13.5841 28.6474 14.1239 28.5007 14.5184C28.2284 15.3489 27.888 15.925 27.4795 16.2468C27.071 16.5687 26.563 16.7296 25.9555 16.7296H24.8557H22.8446H20.205H17.2513H9.45835L9.89827 19.5325H25.7669C26.7725 19.5325 27.2752 19.9581 27.2752 20.8093C27.2752 21.2246 27.1757 21.5879 26.9767 21.8993C26.7777 22.2108 26.3849 22.3561 25.7984 22.3353H24.29H21.3991H17.754H14.0775H11.0295H9.33266C8.91368 22.3353 8.56279 22.2419 8.27998 22.0551C7.99718 21.8682 7.7615 21.6242 7.57296 21.3232C7.38443 21.0221 7.23255 20.6951 7.11733 20.3422C7.00211 19.9892 6.91308 19.657 6.85023 19.3456C6.82928 19.221 6.77168 18.92 6.67741 18.4424C6.58314 17.9649 6.46792 17.368 6.33175 16.6517C6.19559 15.9354 6.04371 15.1361 5.87612 14.2537C5.70853 13.3713 5.54094 12.4837 5.37335 11.5909C4.97532 9.49395 4.52493 7.15821 4.02216 4.5837H1.66542C1.35119 4.5837 1.08933 4.50584 0.879847 4.35012C0.670359 4.19441 0.497532 4.00755 0.361366 3.78954C0.225199 3.57154 0.13093 3.33797 0.0785577 3.08882C0.0261859 2.83968 0 2.61129 0 2.40367C0 1.98843 0.141404 1.64585 0.424212 1.37594C0.707019 1.10604 1.08933 0.981462 1.57115 1.00222H4.74489C5.16386 1.00222 5.49904 1.06451 5.75043 1.18908C6.00181 1.31366 6.20082 1.46937 6.34746 1.65623C6.49411 1.84309 6.59885 2.03514 6.66169 2.23238C6.72454 2.42962 6.77691 2.60091 6.81881 2.74625C6.86071 2.91234 6.90261 3.14592 6.9445 3.44697C6.9864 3.74802 7.0283 4.05426 7.0702 4.36569C7.13304 4.73941 7.19589 5.1339 7.25873 5.54914H28.7521ZM27.5895 8.32089L7.91862 8.2586L9.01843 13.8955L25.4527 13.9267L27.5895 8.32089Z" fill="white"/>
</svg>
