<svg width="18" height="19" viewBox="0 0 18 19" fill="none" xmlns="http://www.w3.org/2000/svg">
<path d="M16.9496 15.2172L13.8045 9.61254C14.4018 8.7342 14.7521 7.68492 14.7521 6.54998C14.7521 3.49517 12.2042 1 9.06699 1C5.92976 1 3.37407 3.49517 3.37407 6.54998C3.37407 7.63822 3.70034 8.65656 4.2498 9.51165L1.05695 15.2172C0.969239 15.3569 0.985155 15.5359 1.08878 15.668C1.19242 15.7922 1.3673 15.8546 1.52652 15.8077L4.13024 15.1472L5.09367 17.7279C5.14955 17.8755 5.29285 17.9845 5.46016 17.9921C5.46799 18 5.47582 18 5.49201 18C5.64315 18 5.78671 17.9144 5.85823 17.7824L9.00333 12.1777L12.1484 17.7824C12.2201 17.9144 12.3634 18 12.5146 18C12.5227 18 12.5386 18 12.5464 17.9921C12.7138 17.9845 12.8571 17.8755 12.9129 17.7279L13.8763 15.1472L16.472 15.8077C16.639 15.8546 16.8063 15.7922 16.91 15.668C17.0133 15.5359 17.0293 15.3569 16.9496 15.2172ZM9.06697 1.82387C11.7344 1.82387 13.9082 3.94601 13.9082 6.54998C13.9082 9.16173 11.7344 11.284 9.06697 11.284C6.39175 11.284 4.21795 9.16173 4.21795 6.54998C4.21795 3.94599 6.39175 1.82387 9.06697 1.82387ZM5.56351 16.593L4.79115 14.5174C4.71961 14.3155 4.49671 14.2066 4.28942 14.261L2.2592 14.774L4.80706 10.2344C5.6512 11.1671 6.81383 11.8124 8.12756 12.0301L5.56351 16.593ZM13.7168 14.261C13.5021 14.2065 13.2869 14.3155 13.2154 14.5174L12.435 16.593L9.88712 12.0456C11.2089 11.859 12.3794 11.2295 13.2392 10.32L15.7393 14.774L13.7168 14.261Z" fill="white" stroke="white"/>
</svg>
