<svg width="126" height="21" viewBox="0 0 126 21" fill="none" xmlns="http://www.w3.org/2000/svg">
<path opacity="0.1" d="M0.601562 0.771484V20.2328L10.2756 10.5021L0.601562 0.771484Z" fill="white"/>
<path opacity="0.2" d="M13.4434 0.771484V20.2328L23.1174 10.5021L13.4434 0.771484Z" fill="white"/>
<path opacity="0.3" d="M26.2773 0.771484V20.2328L35.9514 10.5021L26.2773 0.771484Z" fill="white"/>
<path opacity="0.4" d="M39.1172 0.771484V20.2328L48.7913 10.5021L39.1172 0.771484Z" fill="white"/>
<path opacity="0.5" d="M51.9512 0.771484V20.2328L61.6252 10.5021L51.9512 0.771484Z" fill="white"/>
<path opacity="0.6" d="M64.791 0.771484V20.2328L74.4651 10.5021L64.791 0.771484Z" fill="white"/>
<path opacity="0.7" d="M77.6328 0.771484V20.2328L87.3069 10.5021L77.6328 0.771484Z" fill="white"/>
<path opacity="0.8" d="M90.4648 0.771484V20.2328L100.139 10.5021L90.4648 0.771484Z" fill="white"/>
<path opacity="0.9" d="M103.307 0.771484V20.2328L112.981 10.5021L103.307 0.771484Z" fill="white"/>
<path d="M116.141 0.771484V20.2328L125.815 10.5021L116.141 0.771484Z" fill="white"/>
</svg>
