<svg width="248" height="109" viewBox="0 0 248 109" fill="none" xmlns="http://www.w3.org/2000/svg">
<path d="M46.1387 89.2915L71.5154 18.9289L247.999 17.7754L230.696 106.594H56.52C53.7517 106.594 48.8301 94.29 46.1387 89.2915Z" fill="url(#paint0_linear_9565_9984)"/>
<path d="M71.0745 18.7004L63.0293 4.76953H61.8828L70.5111 19.6937H245.642V18.7004H71.0745Z" fill="#FF0000"/>
<path d="M57.9969 44.3686L57.8437 44.6107H33.5747L21.418 23.5737L21.4377 23.5588H22.5793L22.5645 23.5737L34.1331 43.6273H57.2853L68.8638 23.5737L57.5274 3.95979V2.5415H57.8437L70.0103 23.5737L57.9969 44.3686Z" fill="#FF0000"/>
<path d="M35.3479 6.55923L35.4615 6.3418H56.0539L66.1647 23.8653H65.1912L55.5597 7.1819H35.9458L26.1315 24.1816L35.9458 41.1565H36.0546V42.0065H35.4615L25.1777 24.1816L35.3479 6.55923Z" fill="#FF0000"/>
<path d="M43.2974 1.84424C42.6896 1.84424 42.1658 2.24452 41.9928 2.798H33.2706L25.0524 15.2167H13.207V15.8887H25.0524L33.2706 3.47008H41.973C42.1065 4.05815 42.655 4.48808 43.2974 4.48808C44.0733 4.48808 44.6762 3.90001 44.6762 3.15875C44.6762 2.41748 44.0733 1.84424 43.2974 1.84424ZM43.2974 3.48985C43.1195 3.48985 42.9663 3.34653 42.9663 3.15875C42.9663 2.98579 43.1195 2.82765 43.2974 2.82765C43.505 2.82765 43.6532 2.98084 43.6532 3.15875C43.6532 3.34653 43.505 3.48985 43.2974 3.48985Z" fill="#FF0000"/>
<path d="M11.9814 16.7679C12.5793 16.7679 13.1229 16.3577 13.281 15.819H13.7258V15.1371H13.3057C13.1624 14.549 12.6238 14.124 11.9764 14.124C11.2055 14.124 10.5977 14.717 10.5977 15.4484C10.5977 16.1798 11.2055 16.7679 11.9764 16.7679H11.9814ZM11.9814 15.1074C12.1543 15.1173 12.3124 15.2557 12.3124 15.4435C12.3124 15.6115 12.1593 15.7548 11.9814 15.7548C11.7837 15.7548 11.6354 15.6115 11.6354 15.4435C11.6354 15.2557 11.7837 15.1074 11.9814 15.1074Z" fill="#FF0000"/>
<path d="M36.1072 43.0437C36.7199 43.0437 37.2635 42.6237 37.4217 42.09H37.4315V41.4228H37.4464C37.3031 40.8348 36.7644 40.3999 36.1022 40.3999C35.3511 40.3999 34.7383 40.988 34.7383 41.7243C34.7383 42.4606 35.3511 43.0487 36.1022 43.0487L36.1072 43.0437ZM36.1072 41.3833C36.2949 41.3932 36.458 41.5365 36.458 41.7194C36.458 41.9022 36.2949 42.0455 36.1072 42.0455C35.9194 42.0455 35.7761 41.8973 35.7761 41.7194C35.7761 41.5415 35.9095 41.3833 36.1072 41.3833Z" fill="#FF0000"/>
<path d="M65.8289 25.6244C66.4318 25.6244 66.9754 25.1944 67.1434 24.6657H67.1533V23.9837C67.0199 23.4006 66.4911 22.9756 65.8239 22.9756C65.0679 22.9756 64.4551 23.5587 64.4551 24.3C64.4551 25.0412 65.0679 25.6244 65.8239 25.6244H65.8289ZM65.8289 23.9639C66.0117 23.9788 66.1748 24.1221 66.1748 24.3C66.1748 24.4779 66.0117 24.6163 65.8289 24.6163C65.6263 24.6163 65.4879 24.4729 65.4879 24.3C65.4879 24.127 65.6312 23.9639 65.8289 23.9639Z" fill="#FF0000"/>
<path d="M56.9207 4.27574C57.5236 4.27574 58.0672 3.84581 58.2352 3.31704H58.2451V2.63507C58.1117 2.05194 57.5829 1.62695 56.9157 1.62695C56.1597 1.62695 55.5469 2.21008 55.5469 2.95135C55.5469 3.69261 56.1597 4.27574 56.9157 4.27574H56.9207ZM56.9207 2.61531C57.1035 2.63013 57.2666 2.77344 57.2666 2.95135C57.2666 3.12925 57.1035 3.26762 56.9207 3.26762C56.7181 3.26762 56.5797 3.12431 56.5797 2.95135C56.5797 2.77838 56.723 2.61531 56.9207 2.61531Z" fill="#FF0000"/>
<path d="M62.0946 5.47148C62.7124 5.47148 63.251 5.05637 63.4042 4.5276H63.424V3.8407H63.4388C63.3054 3.26251 62.7568 2.82764 62.0946 2.82764C61.3287 2.82764 60.7109 3.42065 60.7109 4.16191C60.7109 4.90318 61.3287 5.47148 62.0946 5.47148ZM62.0946 3.81105C62.2725 3.82093 62.4406 3.96424 62.4406 4.16191C62.4406 4.32499 62.2725 4.47324 62.0946 4.47324C61.9068 4.47324 61.7438 4.32499 61.7438 4.16191C61.7438 3.96424 61.9068 3.81105 62.0946 3.81105Z" fill="#FF0000"/>
<path d="M246.006 20.4202C246.614 20.4202 247.152 20.01 247.31 19.4812H247.33V18.7943H247.345C247.197 18.2112 246.668 17.7812 246.006 17.7812C245.245 17.7812 244.627 18.3743 244.627 19.0958C244.627 19.8173 245.24 20.4202 246.006 20.4202ZM246.006 18.7597C246.174 18.7696 246.352 18.9228 246.352 19.0958C246.352 19.2687 246.174 19.4219 246.006 19.4219C245.803 19.4219 245.655 19.2786 245.655 19.0958C245.655 18.9129 245.808 18.7597 246.006 18.7597Z" fill="#FF0000"/>
<path d="M21.2907 21.3051C21.8986 21.3051 22.4372 20.8801 22.5904 20.3513H22.6151V19.6694H22.6201C22.4867 19.0961 21.9381 18.6514 21.2858 18.6514C20.5297 18.6514 19.9219 19.2444 19.9219 19.9807C19.9219 20.717 20.5297 21.3051 21.2858 21.3051H21.2907ZM21.2907 19.6447C21.4637 19.6545 21.6268 19.7929 21.6268 19.9856C21.6268 20.1586 21.4637 20.3118 21.2907 20.3118C21.0832 20.3118 20.9448 20.1586 20.9448 19.9856C20.9448 19.7979 21.0832 19.6447 21.2907 19.6447Z" fill="#FF0000"/>
<path d="M12.776 76.1684C13.3938 76.1684 13.9324 75.7434 14.1004 75.2097H14.1153V74.5277C13.9769 73.9594 13.4481 73.5146 12.776 73.5146C12.0199 73.5146 11.4121 74.1027 11.4121 74.839C11.4121 75.5754 12.0199 76.1684 12.776 76.1684ZM12.776 74.5079C12.9688 74.5129 13.1368 74.6562 13.1368 74.839C13.1368 75.0219 12.9688 75.1652 12.776 75.1652C12.5833 75.1652 12.4301 75.0169 12.4301 74.839C12.4301 74.6611 12.5784 74.5079 12.776 74.5079Z" fill="#FF0000"/>
<path d="M48.8621 53.0611L48.7139 52.8091H24.4301L12.2832 73.8561V73.8758H13.4346L13.4297 73.8561L25.0033 53.8073H48.1456L59.7143 73.8561L48.3976 93.46V94.8833H48.7139L60.8558 73.8561L48.8621 53.0611Z" fill="#FF0000"/>
<path d="M55.2314 107.336L55.3648 107.583H234.123V106.59H55.938L48.9356 94.4678L60.3214 74.7353V73.4258H59.931L47.7891 94.4678L55.2314 107.336Z" fill="#FF0000"/>
<path d="M16.7819 73.0357L26.1169 56.8662H25.1483L15.8281 73.0357L25.9933 90.6481L26.1119 90.8705H46.6894L56.8151 73.3519H55.8317L46.215 90.0304H26.5962L16.7819 73.0357Z" fill="#FF0000"/>
<path d="M56.3762 71.3848C55.7585 71.3848 55.2198 71.8048 55.0617 72.3435H55.0469V73.0106C55.1754 73.5987 55.6992 74.0237 56.3762 74.0237C57.1323 74.0237 57.7401 73.4504 57.7401 72.7042C57.7401 71.958 57.1323 71.3848 56.3762 71.3848ZM56.3762 73.0452C56.1785 73.0403 56.0204 72.897 56.0204 72.7042C56.0204 72.5362 56.1835 72.3929 56.3762 72.3929C56.5689 72.3929 56.7122 72.5313 56.7122 72.7042C56.7122 72.897 56.5689 73.0452 56.3762 73.0452Z" fill="#FF0000"/>
<path d="M234.431 105.562C233.823 105.562 233.285 105.987 233.126 106.511H233.092V107.193C233.235 107.776 233.774 108.201 234.431 108.201C235.182 108.201 235.805 107.628 235.805 106.877C235.805 106.125 235.182 105.562 234.431 105.562ZM234.431 107.227C234.253 107.203 234.085 107.064 234.085 106.877C234.085 106.709 234.253 106.565 234.431 106.565C234.624 106.565 234.772 106.709 234.772 106.877C234.772 107.064 234.624 107.227 234.431 107.227Z" fill="#FF0000"/>
<path d="M44.7602 94.2305C44.1375 94.2305 43.6038 94.6506 43.4506 95.1794H43.0059V95.8564H43.4259C43.5643 96.4444 44.1029 96.8744 44.7651 96.8744C45.5212 96.8744 46.1291 96.2912 46.1291 95.55C46.1291 94.8087 45.5212 94.2256 44.7651 94.2256L44.7602 94.2305ZM44.7602 95.9008C44.5872 95.891 44.4093 95.7526 44.4093 95.5549C44.4093 95.3869 44.5823 95.2337 44.7602 95.2337C44.9579 95.2337 45.0913 95.3869 45.0913 95.5549C45.0913 95.7526 44.9579 95.9008 44.7602 95.9008Z" fill="#FF0000"/>
<path d="M14.4332 82.8644L22.4833 95.8168H44.4989V95.1546H22.4833L14.4332 82.1973H2.59766V82.8644H14.4332Z" fill="#FF0000"/>
<path d="M0 82.6276C0 83.3688 0.607835 83.9569 1.36887 83.9569C2.03106 83.9569 2.55983 83.5171 2.70314 82.934H3.12813V82.2619H2.66855C2.51536 81.7282 1.9767 81.3081 1.36887 81.3081C0.602894 81.3081 0 81.911 0 82.6226V82.6276ZM1.02789 82.6276C1.02789 82.4595 1.1712 82.3113 1.37381 82.3113C1.54677 82.3113 1.72467 82.4595 1.72467 82.6276C1.72467 82.8104 1.54677 82.9685 1.37381 82.9735C1.1712 82.9735 1.02789 82.8104 1.02789 82.6276Z" fill="#FF0000"/>
<path d="M26.219 54.6475C25.6063 54.6475 25.0775 55.0725 24.9095 55.6062H24.8996V56.2881H24.8848C25.0133 56.8713 25.5667 57.2913 26.2141 57.2913C26.9751 57.2913 27.5929 56.7032 27.5929 55.9768C27.5929 55.2504 26.9751 54.6475 26.2141 54.6475H26.219ZM26.219 56.3128C26.051 56.298 25.883 56.1596 25.883 55.9768C25.883 55.794 26.051 55.6506 26.219 55.6506C26.4217 55.6506 26.5699 55.794 26.5699 55.9768C26.5699 56.1596 26.4217 56.3128 26.219 56.3128Z" fill="#FF0000"/>
<path d="M198.657 4.43418V12.4053H196.193V0.0878906H198.498L203.813 8.05903H203.848V0.0878906H206.311V12.4053H204.006L198.692 4.43418H198.657Z" fill="#FF0000"/>
<path d="M194.257 0.0878906L191.125 12.4053H188.485L186.268 4.08226H186.233L184.016 12.4053H181.376L178.244 0.0878906H180.637L182.714 8.53413H182.749L185.001 0.0878906H187.5L189.752 8.49893H189.787L191.864 0.0878906H194.257Z" fill="#FF0000"/>
<path d="M176.313 11.3144L174.271 12.4934H168.764L166.723 11.3144V1.17895L168.764 0H174.271L176.313 1.17895V11.3144ZM169.186 2.11156V10.3818H173.849V2.11156H169.186Z" fill="#FF0000"/>
<path d="M163.733 11.2264L161.691 12.4053H154.143V0.0878906H161.691L163.733 1.26684V11.2264ZM156.606 2.19945V10.2938H161.269V2.19945H156.606Z" fill="#FF0000"/>
<path d="M148.877 2.19945V12.4053H146.414V2.19945H143.088V0.0878906H152.203V2.19945H148.877Z" fill="#FF0000"/>
<path d="M133.495 4.43418V12.4053H131.031V0.0878906H133.336L138.65 8.05903H138.686V0.0878906H141.149V12.4053H138.844L133.53 4.43418H133.495Z" fill="#FF0000"/>
<path d="M125.582 0.0878906H128.045V11.3143L126.004 12.4933H120.496L118.455 11.3143V0.0878906H120.919V10.2058H125.582V0.0878906Z" fill="#FF0000"/>
<path d="M115.463 11.3144L113.422 12.4934H107.914L105.873 11.3144V1.17895L107.914 0H113.422L115.463 1.17895V11.3144ZM108.337 2.11156V10.3818H113V2.11156H108.337Z" fill="#FF0000"/>
<path d="M100.599 8.79816H103.062V11.3144L101.021 12.4934H96.0412L94 11.3144V1.17895L96.0412 0H101.021L103.062 1.17895V3.69523H100.599V2.11156H96.4635V10.3818H100.599V8.79816Z" fill="#FF0000"/>
<defs>
<linearGradient id="paint0_linear_9565_9984" x1="242.231" y1="54.6869" x2="55.3665" y2="52.38" gradientUnits="userSpaceOnUse">
<stop stop-color="#FF0000" stop-opacity="0"/>
<stop offset="0.483758" stop-color="#FF0000" stop-opacity="0.22"/>
<stop offset="1" stop-color="#FF0000" stop-opacity="0"/>
</linearGradient>
</defs>
</svg>
