<svg width="269" height="282" viewBox="0 0 269 282" fill="none" xmlns="http://www.w3.org/2000/svg">
<path d="M133.729 4L197.211 113.962L260.698 223.925H133.729H6.75391L70.2414 113.962L133.729 4Z" stroke="#E30613" stroke-width="5" stroke-linejoin="bevel"/>
<path opacity="0.2" d="M133.729 26.8364L187.383 119.77L241.037 212.697H133.729H26.416L80.0698 119.77L133.729 26.8364Z" fill="#FF0000"/>
<path d="M122.344 182.936C122.344 176.847 126.569 172.45 132.321 172.45C138.411 172.45 142.299 176.847 142.299 182.936C142.299 189.025 138.411 193.422 132.321 193.422C126.232 193.422 122.344 188.854 122.344 182.936ZM126.569 158.75L124.202 77.5698H140.44L138.073 158.75H126.575H126.569Z" fill="#FF0000"/>
<path d="M24.3638 193.422L6.75391 223.924H36.6365" stroke="#E30613" stroke-width="15" stroke-linejoin="bevel"/>
<path d="M243.089 193.422L260.699 223.924H230.816" stroke="#E30613" stroke-width="15" stroke-linejoin="bevel"/>
<path d="M119.428 28.7667L133.73 4L148.027 28.7667" stroke="#E30613" stroke-width="15" stroke-linejoin="bevel"/>
<path d="M11.1223 281.096L0 246.335H12.0681L21.0556 275.687H14.9994L24.5344 246.335H35.3083L44.1962 275.687H38.3834L47.7691 246.335H58.8914L47.7691 281.096H35.2032L27.9524 257.059H31.3317L23.6827 281.096H11.1168H11.1223Z" fill="#FF0000"/>
<path d="M56.4648 281.096L71.6633 246.335H83.1839L98.3824 281.096H86.2645L75.0426 251.893H79.611L68.3891 281.096H56.4704H56.4648ZM65.5021 275.04L68.4832 266.6H84.4725L87.4536 275.04H65.5021Z" fill="#FF0000"/>
<path d="M100.27 281.096V246.335H117.006C120.252 246.335 123.056 246.866 125.423 247.922C127.791 248.984 129.621 250.5 130.91 252.469C132.199 254.438 132.846 256.766 132.846 259.448C132.846 262.131 132.199 264.437 130.91 266.378C129.621 268.314 127.791 269.796 125.423 270.825C123.056 271.854 120.252 272.363 117.006 272.363H106.774L111.989 267.545V281.101H100.27V281.096ZM111.989 268.828L106.774 263.513H116.259C117.879 263.513 119.08 263.148 119.859 262.418C120.639 261.688 121.026 260.698 121.026 259.437C121.026 258.176 120.639 257.186 119.859 256.456C119.08 255.726 117.879 255.367 116.259 255.367H106.774L111.989 250.052V268.823V268.828ZM121.076 281.096L112.537 268.43H124.953L133.592 281.096H121.076Z" fill="#FF0000"/>
<path d="M137.264 281.096V246.335H146.898L164.58 267.49H160.111V246.335H171.532V281.096H161.898L144.216 259.941H148.685V281.096H137.264Z" fill="#FF0000"/>
<path d="M177.188 281.096V246.335H188.907V281.096H177.188Z" fill="#FF0000"/>
<path d="M194.572 281.096V246.335H204.207L221.889 267.49H217.42V246.335H228.841V281.096H219.206L201.524 259.941H205.993V281.096H194.572Z" fill="#FF0000"/>
<path d="M252.524 281.892C249.709 281.892 247.121 281.455 244.754 280.576C242.386 279.697 240.334 278.447 238.598 276.826C236.861 275.206 235.512 273.281 234.549 271.063C233.587 268.845 233.111 266.395 233.111 263.713C233.111 261.03 233.592 258.58 234.549 256.362C235.512 254.145 236.867 252.225 238.62 250.599C240.373 248.979 242.453 247.729 244.853 246.85C247.253 245.976 249.892 245.533 252.773 245.533C256.213 245.533 259.288 246.114 261.987 247.27C264.686 248.431 266.91 250.085 268.668 252.236L261.169 258.84C260.074 257.585 258.89 256.628 257.618 255.986C256.34 255.339 254.93 255.018 253.37 255.018C252.082 255.018 250.915 255.218 249.869 255.616C248.824 256.014 247.939 256.595 247.215 257.352C246.485 258.116 245.926 259.023 245.528 260.085C245.13 261.147 244.931 262.352 244.931 263.707C244.931 265.062 245.13 266.185 245.528 267.258C245.926 268.336 246.49 269.255 247.215 270.012C247.945 270.776 248.813 271.362 249.82 271.777C250.826 272.191 251.96 272.396 253.221 272.396C254.543 272.396 255.837 272.175 257.093 271.727C258.348 271.279 259.692 270.51 261.113 269.415L267.667 277.462C265.549 278.884 263.132 279.979 260.417 280.742C257.701 281.505 255.068 281.887 252.519 281.887L252.524 281.892ZM257.491 275.98V262.773H267.673V277.473L257.491 275.985V275.98Z" fill="#FF0000"/>
</svg>
