<svg width="31" height="31" viewBox="0 0 31 31" fill="none" xmlns="http://www.w3.org/2000/svg">
<path d="M6.59481 17.676V20.2766C7.8025 20.5419 8.88336 21.2119 9.65832 22.1756C10.4333 23.1393 10.8559 24.3388 10.856 25.5756C10.8542 26.9627 10.3219 28.2966 9.36824 29.3038C8.41458 30.311 7.11181 30.9151 5.72707 30.9922L5.43266 31C4.09387 31.0023 2.80155 30.5092 1.80443 29.6157C0.807301 28.7221 0.175843 27.4913 0.0315878 26.16C-0.112667 24.8288 0.240477 23.4912 1.02305 22.4048C1.80562 21.3183 2.96232 20.5597 4.2705 20.2751V16.5136C4.2705 16.361 4.30056 16.2098 4.35897 16.0688C4.41737 15.9278 4.50297 15.7996 4.61089 15.6917C4.71881 15.5838 4.84692 15.4982 4.98792 15.4397C5.12892 15.3813 5.28004 15.3513 5.43266 15.3513H14.3425V12.2934C12.9781 12.0324 11.7409 11.3207 10.8291 10.2724C9.91738 9.22422 9.38391 7.90016 9.31424 6.51252L9.3065 6.20255C9.30589 5.02605 9.64001 3.87366 10.2698 2.88002C10.8996 1.88637 11.7991 1.09249 12.8633 0.591114C13.9274 0.0897409 15.1122 -0.0984239 16.2792 0.0486027C17.4463 0.195629 18.5474 0.671776 19.454 1.42142C20.3605 2.17106 21.0351 3.16325 21.3989 4.28207C21.7627 5.4009 21.8007 6.60016 21.5084 7.73976C21.2161 8.87937 20.6057 9.91226 19.7483 10.7178C18.891 11.5233 17.8222 12.0682 16.6668 12.2888V15.3513H25.5766C25.8577 15.3513 26.1292 15.4533 26.3409 15.6382C26.5526 15.8231 26.6901 16.0785 26.7279 16.3571L26.7388 16.5136V20.2766C27.9465 20.5419 29.0273 21.2119 29.8023 22.1756C30.5773 23.1393 30.9998 24.3388 31 25.5756C30.9982 26.9627 30.4659 28.2966 29.5122 29.3038C28.5585 30.311 27.2558 30.9151 25.871 30.9922L25.5766 31C24.2378 31.0023 22.9455 30.5092 21.9484 29.6157C20.9513 28.7221 20.3198 27.4913 20.1756 26.16C20.0313 24.8288 20.3844 23.4912 21.167 22.4048C21.9496 21.3183 23.1063 20.5597 24.4145 20.2751V17.676H6.59481ZM5.43266 22.4759C4.61073 22.4759 3.82247 22.8024 3.24128 23.3837C2.66009 23.9651 2.33358 24.7535 2.33358 25.5756C2.33358 27.2881 3.72042 28.6752 5.39857 28.6752L5.62325 28.669C6.42615 28.6182 7.17781 28.257 7.71933 27.6619C8.26085 27.0669 8.54977 26.2845 8.52502 25.4802C8.50027 24.6759 8.16378 23.9128 7.5867 23.3521C7.00961 22.7915 6.23716 22.4772 5.43266 22.4759ZM25.5766 22.4759C24.7547 22.4759 23.9664 22.8024 23.3853 23.3837C22.8041 23.9651 22.4776 24.7535 22.4776 25.5756C22.4776 27.2881 23.8644 28.6752 25.5425 28.6752L25.7672 28.669C26.5701 28.6182 27.3218 28.257 27.8633 27.6619C28.4048 27.0669 28.6937 26.2845 28.669 25.4802C28.6442 24.6759 28.3077 23.9128 27.7307 23.3521C27.1536 22.7915 26.3811 22.4772 25.5766 22.4759ZM15.5046 2.32795C14.4772 2.32795 13.4919 2.73617 12.7654 3.4628C12.0389 4.18943 11.6308 5.17495 11.6308 6.20255C11.6308 8.34133 13.3663 10.0772 15.4737 10.0772L15.7262 10.071C16.7333 10.0139 17.6784 9.56626 18.3606 8.82316C19.0428 8.08007 19.4083 7.10014 19.3794 6.0917C19.3506 5.08326 18.9296 4.12584 18.206 3.42299C17.4824 2.72014 16.5133 2.32729 15.5046 2.32795Z" fill="white"/>
</svg>
