<svg width="31" height="31" viewBox="0 0 31 31" fill="none" xmlns="http://www.w3.org/2000/svg">
<path d="M15.5 0C24.0606 0 31 6.93944 31 15.5C31 24.0606 24.0606 31 15.5 31C6.93944 31 0 24.0606 0 15.5C0 6.93944 6.93944 0 15.5 0ZM15.5 2.73529C8.45024 2.73529 2.73529 8.45024 2.73529 15.5C2.73529 22.5498 8.45024 28.2647 15.5 28.2647C22.5498 28.2647 28.2647 22.5498 28.2647 15.5C28.2647 8.45024 22.5498 2.73529 15.5 2.73529ZM16.8676 12.7647V23.7059H14.1324V12.7647H16.8676ZM16.8676 8.20588V10.9412H14.1324V8.20588H16.8676Z" fill="white"/>
</svg>
