<svg width="12" height="12" viewBox="0 0 12 12" fill="none" xmlns="http://www.w3.org/2000/svg">
<path fill-rule="evenodd" clip-rule="evenodd" d="M8.52642 0C8.54526 0 8.5641 0.000461814 8.5829 0.00138496C8.60173 0.00230834 8.62052 0.0036933 8.63926 0.00554007C8.658 0.00738684 8.67668 0.00968991 8.69533 0.0124492C8.71396 0.0152194 8.73252 0.0184406 8.75099 0.0221128C8.76947 0.0257852 8.78784 0.0299139 8.80611 0.0344991C8.82438 0.0390738 8.84254 0.0440944 8.86056 0.0495609C8.87859 0.0550276 8.89647 0.0609347 8.91421 0.0672828C8.93194 0.0736306 8.94952 0.0804088 8.96693 0.0876169C8.98433 0.0948253 9.00155 0.102459 9.01858 0.110517C9.03561 0.118575 9.05243 0.127042 9.06905 0.135919C9.08565 0.144806 9.10203 0.154091 9.1182 0.163776C9.13436 0.17346 9.15027 0.183539 9.16593 0.19401C9.18159 0.204471 9.19699 0.215315 9.21212 0.226542C9.22726 0.237759 9.24211 0.249342 9.25667 0.261293C9.27123 0.273243 9.28548 0.285546 9.29944 0.2982C9.3134 0.310854 9.32703 0.323843 9.34036 0.337168C9.35369 0.350483 9.36667 0.364124 9.37933 0.378089C9.39196 0.392044 9.40427 0.406304 9.41621 0.420866C9.42817 0.435429 9.43976 0.450277 9.45098 0.465407C9.4622 0.480547 9.47304 0.495951 9.48351 0.511615C9.49397 0.52728 9.50406 0.543192 9.51374 0.559351C9.52342 0.575509 9.5327 0.591893 9.5416 0.608502C9.55047 0.625122 9.55894 0.641947 9.567 0.658976C9.57504 0.676005 9.58267 0.693223 9.58988 0.71063C9.5971 0.728037 9.60387 0.745612 9.61021 0.763355C9.61655 0.781087 9.62247 0.798966 9.62795 0.816992C9.63341 0.835028 9.63843 0.85318 9.64301 0.871447C9.64759 0.889725 9.65171 0.908103 9.65539 0.92658C9.65906 0.945057 9.66229 0.963613 9.66504 0.982247C9.66781 1.00088 9.67012 1.01957 9.67196 1.03832C9.67381 1.05707 9.67519 1.07586 9.67612 1.09468C9.67705 1.1135 9.6775 1.13233 9.6775 1.15117L9.67713 1.93549H10.8489C10.8678 1.93549 10.8866 1.93594 10.9054 1.93687C10.9242 1.9378 10.943 1.93919 10.9617 1.94103C10.9805 1.94287 10.9992 1.94518 11.0178 1.94795C11.0365 1.95071 11.055 1.95393 11.0735 1.95762C11.092 1.96128 11.1103 1.96541 11.1286 1.96999C11.1469 1.97457 11.165 1.97959 11.1831 1.98506C11.2011 1.99053 11.219 1.99644 11.2367 2.00279C11.2544 2.00913 11.272 2.01591 11.2894 2.02312C11.3068 2.03033 11.324 2.03796 11.3411 2.04602C11.3581 2.05406 11.3749 2.06253 11.3915 2.07142C11.4081 2.0803 11.4245 2.08959 11.4407 2.09926C11.4569 2.10894 11.4728 2.11903 11.4884 2.1295C11.5041 2.13996 11.5195 2.15081 11.5346 2.16203C11.5498 2.17325 11.5646 2.18485 11.5792 2.1968C11.5937 2.20874 11.608 2.22105 11.6219 2.2337C11.6359 2.24636 11.6495 2.25934 11.6629 2.27266C11.6762 2.28599 11.6892 2.29962 11.7018 2.31358C11.7145 2.32754 11.7268 2.34181 11.7387 2.35637C11.7507 2.37093 11.7623 2.38579 11.7735 2.40091C11.7847 2.41604 11.7955 2.43144 11.806 2.4471C11.8165 2.46276 11.8266 2.47868 11.8362 2.49484C11.8459 2.511 11.8552 2.52739 11.8641 2.54401C11.873 2.56061 11.8814 2.57744 11.8895 2.59446C11.8975 2.61151 11.9052 2.62873 11.9124 2.64612C11.9196 2.66353 11.9264 2.68111 11.9327 2.69884C11.939 2.71658 11.945 2.73448 11.9504 2.7525C11.9559 2.77052 11.9609 2.78868 11.9655 2.80695C11.9701 2.82522 11.9742 2.84361 11.9779 2.86208C11.9816 2.88056 11.9848 2.89912 11.9875 2.91775C11.9903 2.93639 11.9926 2.95508 11.9945 2.97383C11.9963 2.99257 11.9977 3.01136 11.9986 3.03017C11.9995 3.049 12 3.06782 12 3.08666L11.9996 5.03252H6.58071V8.12955H11.9996V10.0754C11.9996 10.0942 11.9992 10.1131 11.9982 10.1319C11.9973 10.1507 11.9959 10.1695 11.9941 10.1882C11.9922 10.207 11.9899 10.2257 11.9872 10.2443C11.9844 10.2629 11.9812 10.2815 11.9775 10.3C11.9738 10.3185 11.9697 10.3368 11.9651 10.3551C11.9605 10.3734 11.9555 10.3915 11.95 10.4096C11.9446 10.4276 11.9387 10.4455 11.9323 10.4632C11.926 10.4809 11.9192 10.4985 11.912 10.5159C11.9048 10.5333 11.8972 10.5506 11.8891 10.5676C11.881 10.5846 11.8726 10.6014 11.8637 10.6181C11.8548 10.6347 11.8455 10.651 11.8358 10.6672C11.8262 10.6834 11.8161 10.6993 11.8056 10.7149C11.7952 10.7306 11.7843 10.746 11.7731 10.7612C11.7619 10.7763 11.7503 10.7911 11.7383 10.8057C11.7264 10.8203 11.7141 10.8345 11.7014 10.8485C11.6888 10.8624 11.6758 10.8761 11.6625 10.8894C11.6491 10.9027 11.6355 10.9157 11.6215 10.9284C11.6076 10.941 11.5933 10.9533 11.5788 10.9653C11.5642 10.9772 11.5494 10.9888 11.5342 11C11.5191 11.0112 11.5037 11.0221 11.488 11.0326C11.4724 11.043 11.4565 11.0531 11.4403 11.0628C11.4242 11.0725 11.4078 11.0818 11.3912 11.0906C11.3745 11.0995 11.3577 11.108 11.3407 11.116C11.3237 11.1241 11.3064 11.1317 11.289 11.1389C11.2716 11.1462 11.2541 11.1529 11.2363 11.1593C11.2186 11.1656 11.2007 11.1715 11.1827 11.177C11.1647 11.1825 11.1465 11.1875 11.1282 11.1921C11.11 11.1966 11.0916 11.2008 11.0731 11.2044C11.0546 11.2081 11.0361 11.2113 11.0174 11.2141C10.9988 11.2169 10.9801 11.2192 10.9614 11.221C10.9426 11.2229 10.9238 11.2242 10.905 11.2252C10.8862 11.2261 10.8674 11.2266 10.8485 11.2266H1.15108C1.13224 11.2266 1.11341 11.2261 1.0946 11.2252C1.07578 11.2242 1.05699 11.2229 1.03824 11.221C1.0195 11.2192 1.00081 11.2169 0.982172 11.2141C0.963539 11.2113 0.944985 11.2081 0.926509 11.2044C0.908033 11.2008 0.889657 11.1966 0.871381 11.1921C0.853114 11.1875 0.834964 11.1825 0.816929 11.177C0.798905 11.1715 0.781027 11.1656 0.763296 11.1593C0.745555 11.1529 0.727981 11.1462 0.710576 11.1389C0.69317 11.1317 0.675954 11.1241 0.658926 11.116C0.641898 11.108 0.625074 11.0995 0.608456 11.0906C0.591848 11.0818 0.575465 11.0725 0.559308 11.0628C0.54315 11.0531 0.52724 11.043 0.511576 11.0326C0.495913 11.0221 0.480511 11.0112 0.465371 11C0.450243 10.9888 0.435396 10.9772 0.420834 10.9653C0.406272 10.9533 0.392014 10.941 0.37806 10.9284C0.364096 10.9157 0.350457 10.9027 0.337143 10.8894C0.323818 10.8761 0.31083 10.8624 0.298177 10.8485C0.285535 10.8345 0.273233 10.8203 0.261273 10.8057C0.249323 10.7911 0.23774 10.7763 0.226524 10.7611C0.215299 10.746 0.204456 10.7306 0.193995 10.7149C0.183525 10.6993 0.173447 10.6834 0.163764 10.6672C0.15408 10.651 0.144795 10.6347 0.135908 10.6181C0.127033 10.6014 0.118566 10.5846 0.110508 10.5676C0.102461 10.5506 0.0948285 10.5333 0.0876102 10.5159C0.0804025 10.4985 0.073625 10.4809 0.0672775 10.4632C0.0609301 10.4455 0.0550234 10.4276 0.0495571 10.4096C0.044091 10.3915 0.0390708 10.3734 0.0344964 10.3551C0.0299116 10.3368 0.0257832 10.3185 0.0221111 10.3C0.0184391 10.2815 0.0152181 10.2629 0.0124483 10.2443C0.00968904 10.2257 0.00738615 10.207 0.00553965 10.1882C0.00369302 10.1695 0.00230816 10.1507 0.00138485 10.1319C0.000461657 10.1131 0 10.0942 0 10.0754V1.9186C0 1.8872 0.00077119 1.85584 0.00231345 1.82447C0.00384514 1.7931 0.00615331 1.7618 0.00923783 1.73056C0.0123119 1.69931 0.0161519 1.66815 0.0207577 1.63708C0.0253635 1.60603 0.03073 1.57511 0.036857 1.5443C0.0429841 1.51351 0.0498613 1.48288 0.0574888 1.45242C0.0651161 1.42196 0.0734885 1.39171 0.0826057 1.36166C0.0917229 1.33162 0.101569 1.30182 0.112145 1.27225C0.12272 1.24268 0.134015 1.2134 0.146028 1.18439C0.15804 1.15538 0.170762 1.12668 0.184191 1.09829C0.19761 1.06991 0.21172 1.04187 0.226524 1.01418C0.241329 0.986492 0.256798 0.959179 0.272934 0.932246C0.289081 0.905312 0.305872 0.878793 0.323309 0.852687C0.340758 0.826581 0.358834 0.800918 0.377541 0.775694C0.396237 0.750469 0.415546 0.725724 0.43547 0.701455C0.455383 0.677186 0.475884 0.653416 0.496972 0.630143C0.51806 0.606881 0.539704 0.58415 0.561904 0.561947C0.584105 0.539745 0.606835 0.5181 0.630095 0.49701C0.653366 0.47592 0.677134 0.455417 0.701401 0.435503C0.725668 0.415578 0.750412 0.396267 0.775634 0.377569C0.800857 0.358861 0.826518 0.340784 0.852622 0.323334C0.878725 0.305896 0.905243 0.289103 0.932174 0.272955C0.959106 0.256818 0.986416 0.241347 1.0141 0.226542C1.04179 0.211736 1.06983 0.197625 1.09822 0.184205C1.1266 0.170775 1.15529 0.158052 1.1843 0.146039C1.2133 0.134025 1.24258 0.12273 1.27215 0.112154C1.30172 0.101577 1.33152 0.09173 1.36155 0.0826122C1.3916 0.0734943 1.42186 0.0651211 1.45231 0.0574932C1.48277 0.0498651 1.51339 0.0429875 1.54419 0.03686C1.57498 0.0307323 1.60591 0.0253653 1.63696 0.0207592C1.66802 0.0161532 1.69918 0.0123128 1.73042 0.00923866C1.76166 0.0061539 1.79296 0.00384556 1.82433 0.00231362C1.85569 0.000771369 1.88707 0 1.91847 0H8.52642ZM11.9524 6.18369V6.97838H7.73179V6.18407L11.9524 6.18369ZM1.91847 1.15117H8.52567L8.52604 1.93549H1.15069L1.15108 1.9186C1.15108 1.90604 1.15139 1.8935 1.15199 1.88095C1.15261 1.86841 1.15354 1.85588 1.15476 1.84339C1.156 1.83089 1.15754 1.81842 1.15938 1.80601C1.16122 1.79359 1.16337 1.78122 1.16583 1.7689C1.16827 1.75657 1.17102 1.74431 1.17407 1.73213C1.17713 1.71995 1.18047 1.70784 1.18411 1.69584C1.18777 1.68381 1.1917 1.67188 1.19593 1.66006C1.20016 1.64824 1.20468 1.63652 1.20948 1.62492C1.21429 1.61332 1.21938 1.60183 1.22475 1.59048C1.23012 1.57913 1.23576 1.56791 1.24168 1.55683C1.24761 1.54576 1.2538 1.53484 1.26025 1.52407C1.2667 1.51329 1.27342 1.50268 1.2804 1.49224C1.28738 1.4818 1.29462 1.47153 1.3021 1.46144C1.30958 1.45136 1.3173 1.44146 1.32526 1.43174C1.33323 1.42204 1.34143 1.41253 1.34986 1.40322C1.3583 1.39392 1.36696 1.38483 1.37584 1.37595C1.38472 1.36706 1.39381 1.3584 1.40312 1.34996C1.41242 1.34153 1.42193 1.33333 1.43163 1.32536C1.44135 1.3174 1.45125 1.30968 1.46133 1.3022C1.47142 1.29471 1.48169 1.28747 1.49213 1.28049C1.50257 1.27352 1.51317 1.2668 1.52395 1.26035C1.53472 1.2539 1.54565 1.24771 1.55671 1.24178C1.56779 1.23586 1.57901 1.23021 1.59036 1.22484C1.60171 1.21947 1.6132 1.21438 1.62479 1.20958C1.63639 1.20477 1.64812 1.20025 1.65994 1.19603C1.67175 1.1918 1.68368 1.18786 1.69571 1.18421C1.70771 1.18056 1.71982 1.17722 1.732 1.17416C1.74418 1.17111 1.75644 1.16836 1.76876 1.16592C1.78108 1.16346 1.79345 1.16131 1.80587 1.15946C1.81829 1.15763 1.83075 1.15609 1.84324 1.15485C1.85574 1.15363 1.86827 1.1527 1.88081 1.15208C1.89335 1.15147 1.9059 1.15117 1.91847 1.15117Z" fill="#1B1B1B"/>
</svg>
