<svg width="27" height="16" viewBox="0 0 27 16" fill="none" xmlns="http://www.w3.org/2000/svg">
<path d="M0.606772 13.3815L5.15621 7.56359L1.51558 2.61845C1.21354 2.32668 0.908809 2.03491 0.908809 1.74564C0.908809 0.872817 1.51559 0.289277 2.72913 0C3.3359 0 3.64063 0.289277 4.2474 0.872818L6.97653 4.65337L10.0104 0.872818C10.6172 0.289277 10.9219 0 11.5287 0C12.7422 0 13.0442 0.581047 13.349 1.74564C13.349 2.03491 13.349 2.32668 13.0442 2.61845L9.10158 7.56359L13.651 13.3815C13.9531 13.6733 13.9531 13.9651 13.9531 14.5461C13.9531 15.419 13.3463 16 12.1327 16C11.8307 16 11.2239 15.7107 10.9192 15.419L7.27856 10.4738L3.33859 15.419C3.03656 15.7107 2.73182 16 1.82032 16C0.606776 16 0.304734 15.419 0 14.5461C0.304734 13.9651 0.304734 13.6733 0.609468 13.3815H0.606772ZM15.1693 14.5461V2.03491C15.1693 0.872819 15.7761 0.289276 16.9896 0.289276H21.237C24.8776 0.581047 27 2.32668 27 5.52619C26.6953 8.72818 24.8776 10.4738 21.237 10.7631H18.8099V14.2544C18.8099 15.419 18.2032 15.7107 16.9896 15.7107C15.7761 15.7107 15.4713 15.419 15.1693 14.5461ZM18.8099 3.1995V7.85536H20.9323C22.4506 7.85536 23.0546 6.98254 23.3594 5.52619C23.3594 4.07232 22.4479 3.1995 20.9323 3.1995H18.8099Z" fill="#F2D861"/>
</svg>
