<svg width="14" height="13" viewBox="0 0 14 13" fill="none" xmlns="http://www.w3.org/2000/svg">
<path d="M9.184 0.590774C9.34347 0.410582 9.53892 0.265097 9.75802 0.163503C9.97712 0.0619098 10.2151 0.00641547 10.457 0.00052403C10.6988 -0.00536741 10.9393 0.0384721 11.1631 0.129274C11.387 0.220077 11.5894 0.35587 11.7577 0.528079C11.9259 0.700289 12.0562 0.905174 12.1405 1.1298C12.2247 1.35442 12.261 1.59391 12.2471 1.83313C12.2332 2.07235 12.1693 2.30612 12.0596 2.51967C11.9498 2.73322 11.7966 2.92191 11.6095 3.07383L10.4125 4.25946L7.938 1.8076L9.17525 0.582107L9.184 0.590774ZM4.22538 10.3869V10.3887H1.75V7.93595L7.31938 2.42035L9.79388 4.87221L4.22538 10.3869ZM0 11.2666H14V13H0V11.2666Z" fill="white"/>
</svg>
