<svg width="12" height="12" viewBox="0 0 12 12" fill="none" xmlns="http://www.w3.org/2000/svg">
<path id="Vector" d="M4.8267 4.72531H3.00206C2.95324 4.72622 2.90532 4.71208 2.86482 4.68481C2.55209 4.46204 2.55509 4.10202 2.75608 3.89801L5.65315 0.144782C5.69786 0.0993726 5.75107 0.063216 5.80976 0.0383767C5.86844 0.0135374 5.93144 0.000501742 5.99516 1.42013e-05C6.05888 -0.000473339 6.12208 0.0115968 6.18113 0.0355352C6.24019 0.0594737 6.29395 0.0948116 6.33935 0.139531L6.3446 0.144782L9.24317 3.90026C9.32343 3.89985 9.40254 3.91932 9.47343 3.95693C9.54433 3.99455 9.60481 4.04914 9.64947 4.11583C9.69412 4.18253 9.72157 4.25924 9.72936 4.33913C9.73714 4.41902 9.72503 4.49959 9.69409 4.57365C9.66315 4.64771 9.61435 4.71296 9.55205 4.76356C9.48975 4.81416 9.41589 4.84855 9.33707 4.86364C9.25825 4.87873 9.17691 4.87407 9.10033 4.85006C9.02375 4.82605 8.9543 4.78345 8.89819 4.72606H7.17255V8.39078C7.17255 8.45523 7.14695 8.51704 7.10138 8.56262C7.05581 8.60819 6.99401 8.6338 6.92957 8.6338H5.06968C5.00524 8.6338 4.94344 8.60819 4.89787 8.56262C4.8523 8.51704 4.8267 8.45523 4.8267 8.39078V4.72606V4.72531ZM1.5974 8.25802V10.1751C1.5974 10.3094 1.70614 10.4182 1.84039 10.4182H10.1514C10.2158 10.4182 10.2776 10.3926 10.3232 10.347C10.3688 10.3014 10.3944 10.2396 10.3944 10.1751V8.25802C10.3944 8.11327 10.5113 7.99626 10.6561 7.99626H11.739C11.883 7.99626 12 8.11327 12 8.25802V11.757C12 11.8214 11.9744 11.8832 11.9288 11.9288C11.8833 11.9744 11.8215 12 11.757 12H0.242985C0.178671 12 0.11698 11.9745 0.0714332 11.9291C0.0258862 11.8837 0.000198496 11.8221 0 11.7577V8.25877C0 8.11401 0.116993 7.99701 0.260984 7.99701H1.33567C1.47966 7.99701 1.59665 8.11401 1.59665 8.25877L1.5974 8.25802Z" fill="#1B1B1B"/>
</svg>
