<svg width="11" height="9" viewBox="0 0 11 9" fill="none" xmlns="http://www.w3.org/2000/svg">
<path d="M11 4.27469L8.43352 8.60938H7.36026L7.2836 8.56438L9.82342 4.27469L7.29193 -9.53674e-07H8.46852L11 4.27469Z" fill="white"/>
<path d="M8.57227 4.27469L6.00578 8.60938H4.93253L4.85587 8.56438L7.39568 4.27469L4.8642 -9.53674e-07H6.04078L8.57227 4.27469Z" fill="white"/>
<path d="M6.14258 4.27469L3.5761 8.60938H2.50284L2.42618 8.56438L4.966 4.27469L2.43451 -9.53674e-07H3.61276L6.14258 4.27469Z" fill="white"/>
<path d="M3.71875 4.27469L1.1506 8.60938H0.0790138L0.00068593 8.56438L2.5405 4.27469L0.0106862 -9.53674e-07H1.18727L3.71875 4.27469Z" fill="white"/>
</svg>
