<svg width="20" height="20" viewBox="0 0 20 20" fill="none" xmlns="http://www.w3.org/2000/svg">
<circle cx="10" cy="10" r="10" fill="#F2D861"/>
<path fill-rule="evenodd" clip-rule="evenodd" d="M8.40406 11.0443C9.86961 11.0443 11.0577 9.13912 11.0577 7.66646C11.0577 6.19382 9.86961 5 8.40406 5C6.93852 5 5.75047 6.19382 5.75047 7.66646C5.75047 9.13912 6.93851 11.0443 8.40406 11.0443ZM6.48938 11.4442H5.97236C4.99366 11.4442 4.20312 12.24 4.20312 13.2218V14.1115C4.20312 14.602 4.59864 14.9994 5.08651 14.9994H9.43653C9.92589 14.9994 10.3199 14.6019 10.3199 14.1115L10.5054 12.8029C10.5054 12.1598 11.185 11.973 11.3757 11.9206C11.4071 11.912 11.4253 11.907 11.4249 11.9042C11.4245 11.9004 11.3894 11.9007 11.3063 11.9015C11.2571 11.9019 11.1912 11.9025 11.1056 11.9025L10.3199 11.4442C9.79299 11.8616 9.12777 12.1108 8.40466 12.1108C7.68154 12.1108 7.01632 11.8616 6.48938 11.4442ZM14.9252 9.28761C14.8125 9.34044 14.7119 9.41609 14.6299 9.50979L14.6254 9.50528L13.9889 10.1425L15.2619 11.4175L15.8778 10.8009C15.974 10.7219 16.0528 10.6238 16.1093 10.5128C16.1658 10.4017 16.1986 10.2802 16.2058 10.1558C16.2129 10.0314 16.1943 9.90688 16.1509 9.79007C16.1076 9.67327 16.0405 9.56673 15.954 9.47719C15.8674 9.38764 15.7633 9.31703 15.6481 9.26981C15.5329 9.2226 15.4092 9.1998 15.2848 9.20287C15.1604 9.20593 15.0379 9.23479 14.9252 9.28761ZM12.0788 14.6046V14.6037L14.9437 11.7361L13.6706 10.4611L10.8053 13.3292V14.6046H12.0788Z" fill="#474645"/>
</svg>
