<svg width="32" height="33" viewBox="0 0 32 33" fill="none" xmlns="http://www.w3.org/2000/svg">
<rect x="1" y="1" width="30" height="30.0583" rx="9" stroke="white" stroke-width="2"/>
<path d="M21 5H11C10.4696 5 9.96086 5.21071 9.58579 5.58579C9.21071 5.96086 9 6.46957 9 7V10H11V8H21V24H11V22H9V25C9 25.5304 9.21071 26.0391 9.58579 26.4142C9.96086 26.7893 10.4696 27 11 27H21C21.5304 27 22.0391 26.7893 22.4142 26.4142C22.7893 26.0391 23 25.5304 23 25V7C23 6.46957 22.7893 5.96086 22.4142 5.58579C22.0391 5.21071 21.5304 5 21 5Z" fill="white"/>
<path d="M13 16C13 18.2091 11.2091 20 9 20C6.79086 20 5 18.2091 5 16C5 13.7909 6.79086 12 9 12C11.2091 12 13 13.7909 13 16Z" fill="white"/>
<path d="M9.6 13.6C9.6 13.2686 9.33136 13 9 13C8.66864 13 8.4 13.2686 8.4 13.6V15.4H6.6C6.26863 15.4 6 15.6686 6 16C6 16.3314 6.26863 16.6 6.6 16.6H8.4V18.4C8.4 18.7314 8.66864 19 9 19C9.33136 19 9.6 18.7314 9.6 18.4V16.6H11.4C11.7314 16.6 12 16.3314 12 16C12 15.6686 11.7314 15.4 11.4 15.4H9.6V13.6Z" fill="#303030"/>
</svg>
