<svg width="45" height="39" viewBox="0 0 45 39" fill="none" xmlns="http://www.w3.org/2000/svg">
<g clip-path="url(#clip0_2042_11629)">
<path d="M34 27.0556V35H2V16.6667L18.6154 2L24.7692 7.5" stroke="white" stroke-width="3" stroke-linecap="round" stroke-linejoin="round"/>
<path d="M35.5 1C35.5 0.171573 34.8284 -0.5 34 -0.5C33.1716 -0.5 32.5 0.171573 32.5 1L35.5 1ZM32.9393 22.0607C33.5251 22.6464 34.4749 22.6464 35.0607 22.0607L44.6066 12.5147C45.1924 11.9289 45.1924 10.9792 44.6066 10.3934C44.0208 9.80761 43.0711 9.80761 42.4853 10.3934L34 18.8787L25.5147 10.3934C24.9289 9.80761 23.9792 9.80761 23.3934 10.3934C22.8076 10.9792 22.8076 11.9289 23.3934 12.5147L32.9393 22.0607ZM32.5 1L32.5 21L35.5 21L35.5 1L32.5 1Z" fill="white"/>
</g>
<defs>
<clipPath id="clip0_2042_11629">
<rect width="43.8462" height="37.5824" fill="white" transform="translate(0.286133 0.549454)"/>
</clipPath>
</defs>
</svg>
