<svg width="32" height="33" viewBox="0 0 32 33" fill="none" xmlns="http://www.w3.org/2000/svg">
<rect x="1" y="1" width="30" height="30.0583" rx="9" stroke="white" stroke-width="2"/>
<path d="M15.3387 6.98438C21.1147 6.98438 25.797 11.6753 25.797 17.4617C25.797 23.2482 21.1147 27.9391 15.3387 27.9391C9.56272 27.9391 4.88037 23.2482 4.88037 17.4617C4.88037 13.8831 6.67131 10.7234 9.40427 8.83332" stroke="white" stroke-width="2" stroke-linecap="round"/>
<path d="M17.7791 3.49219L13.9443 7.33389L17.7791 11.1756" stroke="white" stroke-width="2" stroke-linecap="round" stroke-linejoin="round"/>
<path d="M18.6206 16.0802C19.9521 16.8503 19.9521 18.7726 18.6206 19.5427L14.6797 21.8221C13.3464 22.5933 11.6784 21.6311 11.6784 20.0908L11.6784 15.532C11.6784 13.9917 13.3464 13.0296 14.6797 13.8008L18.6206 16.0802Z" stroke="white" stroke-width="2" stroke-linejoin="round"/>
</svg>
