<svg width="14" height="14" viewBox="0 0 14 14" fill="none" xmlns="http://www.w3.org/2000/svg">
<path d="M7 0C5.61553 0 4.26215 0.410543 3.11101 1.17971C1.95987 1.94888 1.06266 3.04213 0.532846 4.32122C0.00303299 5.6003 -0.13559 7.00776 0.134506 8.36563C0.404603 9.7235 1.07129 10.9708 2.05026 11.9497C3.02922 12.9287 4.2765 13.5954 5.63437 13.8655C6.99224 14.1356 8.3997 13.997 9.67878 13.4672C10.9579 12.9373 12.0511 12.0401 12.8203 10.889C13.5895 9.73785 14 8.38447 14 7C14 5.14348 13.2625 3.36301 11.9497 2.05025C10.637 0.737498 8.85652 0 7 0ZM7.7 9.8C7.7 9.98565 7.62625 10.1637 7.49498 10.295C7.3637 10.4262 7.18565 10.5 7 10.5C6.81435 10.5 6.6363 10.4262 6.50503 10.295C6.37375 10.1637 6.3 9.98565 6.3 9.8V6.3C6.3 6.11435 6.37375 5.9363 6.50503 5.80502C6.6363 5.67375 6.81435 5.6 7 5.6C7.18565 5.6 7.3637 5.67375 7.49498 5.80502C7.62625 5.9363 7.7 6.11435 7.7 6.3V9.8ZM7 4.9C6.86155 4.9 6.72622 4.85894 6.6111 4.78203C6.49599 4.70511 6.40627 4.59579 6.35329 4.46788C6.3003 4.33997 6.28644 4.19922 6.31345 4.06344C6.34046 3.92765 6.40713 3.80292 6.50503 3.70502C6.60292 3.60713 6.72765 3.54046 6.86344 3.51345C6.99923 3.48644 7.13997 3.5003 7.26788 3.55328C7.39579 3.60626 7.50511 3.69599 7.58203 3.8111C7.65895 3.92621 7.7 4.06155 7.7 4.2C7.7 4.29192 7.6819 4.38295 7.64672 4.46788C7.61154 4.55281 7.55998 4.62997 7.49498 4.69497C7.42997 4.75997 7.35281 4.81154 7.26788 4.84671C7.18295 4.88189 7.09193 4.9 7 4.9Z" fill="#F2D861"/>
</svg>
