<svg width="34" height="34" viewBox="0 0 34 34" fill="none" xmlns="http://www.w3.org/2000/svg">
<path d="M25.1437 20.4468C25.6043 20.8118 26.3411 20.6294 26.7094 20.0817C26.8935 19.8077 26.8935 19.5339 26.8935 19.2601C26.8013 18.9863 26.6172 18.7124 26.4329 18.53C25.7882 18.1648 25.1435 17.7084 24.4068 17.4347C25.3278 16.5217 26.0645 15.5178 26.5249 14.3309C27.0772 13.0532 27.3539 11.6839 27.3539 10.2234C27.3539 4.56425 22.7488 0 17.0385 0C11.3283 0 6.81518 4.65524 6.81518 10.3144C6.81518 13.0528 7.92049 15.6088 9.85459 17.5259C3.8682 20.2641 0 26.1974 0 32.7697C0 33.4086 0.460416 33.865 1.10512 33.865C1.74982 33.865 2.21023 33.4086 2.21023 32.7697C2.21023 26.654 6.07824 21.1772 11.7887 19.0777C15.0124 20.9942 19.1569 20.9034 22.2882 19.0777C23.3016 19.4425 24.3149 19.8991 25.1437 20.4468ZM17.0389 18.256C12.6181 18.256 9.026 14.6959 9.026 10.3144C9.026 5.93315 12.6179 2.37322 17.0389 2.37322C21.46 2.37322 25.0518 5.93315 25.0518 10.3144C25.0518 11.4097 24.8678 12.5054 24.4071 13.5092C24.0388 14.4221 23.3939 15.2436 22.6569 15.9738C21.1836 17.4345 19.1571 18.256 17.0389 18.256ZM32.7871 26.7215H29.1484V23.0931C29.1484 22.7723 29.0206 22.4647 28.7932 22.2379C28.5657 22.0111 28.2572 21.8837 27.9356 21.8837C27.6139 21.8837 27.3054 22.0111 27.078 22.2379C26.8505 22.4647 26.7227 22.7723 26.7227 23.0931V26.7215H23.0839C22.7622 26.7215 22.4537 26.8489 22.2262 27.0758C21.9987 27.3026 21.8709 27.6102 21.8709 27.931C21.8709 28.2517 21.9987 28.5594 22.2262 28.7862C22.4537 29.013 22.7622 29.1404 23.0839 29.1404H26.7227V32.7687C26.7198 32.9294 26.7491 33.089 26.8087 33.2382C26.8684 33.3875 26.9573 33.5234 27.0702 33.638C27.1831 33.7526 27.3177 33.8437 27.4663 33.9058C27.6149 33.968 27.7744 34 27.9356 34C28.0967 34 28.2562 33.968 28.4048 33.9058C28.5534 33.8437 28.6881 33.7526 28.801 33.638C28.9139 33.5234 29.0028 33.3875 29.0624 33.2382C29.1221 33.089 29.1513 32.9294 29.1484 32.7687V29.1404H32.7871C33.1088 29.1404 33.4173 29.013 33.6447 28.7862C33.8722 28.5594 34 28.2517 34 27.931C34 27.6102 33.8722 27.3026 33.6447 27.0758C33.4173 26.8489 33.1088 26.7215 32.7871 26.7215Z" fill="white"/>
</svg>
