<svg width="32" height="37" viewBox="0 0 32 37" fill="none" xmlns="http://www.w3.org/2000/svg">
<path d="M16 6C24.2843 6 31 12.7157 31 21C31 29.2843 24.2843 36 16 36C7.71573 36 1 29.2843 1 21C1 15.8765 3.56868 11.353 7.48846 8.64706" stroke="white" stroke-width="2" stroke-linecap="round"/>
<path d="M19.5 1L14 6.5L19.5 12" stroke="white" stroke-width="2" stroke-linecap="round" stroke-linejoin="round"/>
<path d="M22 19.7679C23.3333 20.5377 23.3333 22.4623 22 23.2321L13.75 27.9952C12.4167 28.765 10.75 27.8027 10.75 26.2631L10.75 16.7369C10.75 15.1973 12.4167 14.235 13.75 15.0048L22 19.7679Z" stroke="white" stroke-width="2" stroke-linejoin="round"/>
</svg>
