<svg width="20" height="24" viewBox="0 0 20 24" fill="none" xmlns="http://www.w3.org/2000/svg">
<path d="M2 10.5C1.17157 10.5 0.5 11.1716 0.5 12C0.5 12.8284 1.17157 13.5 2 13.5L2 10.5ZM18.81 13.0607C19.3958 12.4749 19.3958 11.5251 18.81 10.9393L9.2641 1.3934C8.67831 0.807611 7.72856 0.807611 7.14278 1.3934C6.55699 1.97918 6.55699 2.92893 7.14278 3.51472L15.6281 12L7.14278 20.4853C6.55699 21.0711 6.55699 22.0208 7.14278 22.6066C7.72857 23.1924 8.67831 23.1924 9.2641 22.6066L18.81 13.0607ZM2 13.5L17.7494 13.5L17.7494 10.5L2 10.5L2 13.5Z" fill="white"/>
</svg>
