<svg width="34" height="36" viewBox="0 0 34 36" fill="none" xmlns="http://www.w3.org/2000/svg">
<path fill-rule="evenodd" clip-rule="evenodd" d="M27.6406 29.0115C31.0572 25.9701 33.2093 21.5387 33.2093 16.6047C33.2093 7.43416 25.7751 0 16.6047 0C7.43416 0 0 7.43416 0 16.6047C0 25.7751 7.43416 33.2093 16.6047 33.2093C18.6999 33.2093 20.7045 32.8212 22.5505 32.113C23.8077 33.7128 26.0575 35.536 31.3957 36.0002C29.3091 33.8208 28.1374 30.8484 27.6406 29.0115Z" fill="#D9D9D9"/>
<path fill-rule="evenodd" clip-rule="evenodd" d="M22.7665 20.4994C23.168 21.0359 23.0388 21.7823 22.478 22.1664C20.1086 23.7891 17.8241 24.1791 15.8625 23.9319C13.9383 23.6894 12.4142 22.8468 11.4718 22.1302C10.9319 21.7196 10.8421 20.968 11.2713 20.4514C11.7005 19.9349 12.4861 19.849 13.026 20.2596C13.7168 20.7849 14.8281 21.3913 16.1887 21.5628C17.5121 21.7296 19.162 21.4987 21.0241 20.2234C21.5849 19.8393 22.365 19.9629 22.7665 20.4994Z" fill="#303030"/>
<ellipse cx="11.1966" cy="14.1976" rx="2.19656" ry="2.19759" fill="#303030"/>
<ellipse cx="22.1966" cy="14.1976" rx="2.19656" ry="2.19759" fill="#303030"/>
</svg>
