<svg width="35" height="38" viewBox="0 0 35 38" fill="none" xmlns="http://www.w3.org/2000/svg">
<path d="M28.6406 30.0115L28.3081 29.638L28.0772 29.8435L28.1579 30.142L28.6406 30.0115ZM23.5505 33.113L23.9436 32.8041L23.7157 32.5141L23.3714 32.6462L23.5505 33.113ZM32.3957 37.0002L32.3524 37.4983L33.675 37.6133L32.7569 36.6544L32.3957 37.0002ZM33.7093 17.6047C33.7093 22.3901 31.6227 26.6875 28.3081 29.638L28.973 30.3849C32.4918 27.2527 34.7093 22.6873 34.7093 17.6047H33.7093ZM17.6047 1.5C26.499 1.5 33.7093 8.7103 33.7093 17.6047H34.7093C34.7093 8.15801 27.0513 0.5 17.6047 0.5V1.5ZM1.5 17.6047C1.5 8.7103 8.7103 1.5 17.6047 1.5V0.5C8.15801 0.5 0.5 8.15801 0.5 17.6047H1.5ZM17.6047 33.7093C8.7103 33.7093 1.5 26.499 1.5 17.6047H0.5C0.5 27.0513 8.15801 34.7093 17.6047 34.7093V33.7093ZM23.3714 32.6462C21.5816 33.3328 19.6377 33.7093 17.6047 33.7093V34.7093C19.7621 34.7093 21.8273 34.3096 23.7296 33.5799L23.3714 32.6462ZM23.1573 33.422C24.509 35.1419 26.8915 37.0234 32.3524 37.4983L32.439 36.5021C27.2234 36.0485 25.1065 34.2838 23.9436 32.8041L23.1573 33.422ZM32.7569 36.6544C30.7513 34.5597 29.609 31.6772 29.1232 29.8809L28.1579 30.142C28.6657 32.0196 29.8669 35.0819 32.0346 37.346L32.7569 36.6544Z" fill="#D9D9D9"/>
<path fill-rule="evenodd" clip-rule="evenodd" d="M23.7665 21.4994C24.168 22.0359 24.0388 22.7823 23.478 23.1664C21.1086 24.7891 18.8241 25.1791 16.8625 24.9319C14.9383 24.6894 13.4142 23.8468 12.4718 23.1302C11.9319 22.7196 11.8421 21.968 12.2713 21.4514C12.7005 20.9349 13.4861 20.849 14.026 21.2596C14.7168 21.7849 15.8281 22.3913 17.1887 22.5628C18.5121 22.7296 20.162 22.4987 22.0241 21.2234C22.5849 20.8393 23.365 20.9629 23.7665 21.4994Z" fill="#D9D9D9"/>
<ellipse cx="12.1966" cy="15.1976" rx="2.19656" ry="2.19759" fill="#D9D9D9"/>
<ellipse cx="23.1966" cy="15.1976" rx="2.19656" ry="2.19759" fill="#D9D9D9"/>
</svg>
