<svg width="33" height="33" viewBox="0 0 33 33" fill="none" xmlns="http://www.w3.org/2000/svg">
<rect x="1.35547" y="1" width="30.4359" height="30.4359" rx="9" stroke="white" stroke-width="2"/>
<path d="M6.29758 14.6786V21.0386H10.1976V14.6786H6.29758ZM8.70958 22.1186H6.48958L5.09758 21.3146V14.4026L6.48958 13.5986H10.0056L11.3976 14.4026V21.3146L10.0056 22.1186L11.3616 24.4586H10.0296L8.70958 22.1186ZM13.4385 21.3146V16.0586H14.6025V21.0746H17.3745V16.0586H18.5385V22.1186H17.6625L17.3745 21.6266L16.5225 22.1186H14.8305L13.4385 21.3146ZM21.622 16.0586V22.0586H20.458V16.0586H21.622ZM20.398 14.5826V13.2986H21.682V14.5826H20.398ZM23.0601 17.1026V16.0586H24.1641V15.0506L25.3281 14.3786V16.0586H26.7681V17.1026H25.3281V21.0146H26.7681V22.0586H25.5561L24.1641 21.2546V17.1026H23.0601Z" fill="white"/>
</svg>
