<svg width="46" height="46" viewBox="0 0 46 46" fill="none" xmlns="http://www.w3.org/2000/svg">
<rect x="1" y="1" width="43.3222" height="43.3222" rx="9" stroke="white" stroke-width="2"/>
<path d="M31.3333 26.6687C30.0391 26.6687 28.8662 27.1977 28.02 28.0502L20.7898 23.8747C20.9671 23.2804 21.0667 22.6518 21.0667 22.0016C21.0667 21.3917 20.9764 20.8036 20.8209 20.2436L26.1067 17.1912C27.1333 18.4203 28.6733 19.2012 30.4 19.2012C33.4924 19.2012 36 16.6934 36 13.6006C36 10.5078 33.4924 8 30.4 8C27.3076 8 24.8 10.5078 24.8 13.6006C24.8 13.9616 24.8373 14.3131 24.9027 14.6523L19.5049 17.77C18.3071 16.3636 16.5244 15.4675 14.5333 15.4675C10.9244 15.4675 8 18.3923 8 22.0016C8 25.6108 10.9244 28.5356 14.5333 28.5356C16.484 28.5356 18.2293 27.6769 19.4271 26.3203L26.7476 30.5456C26.704 30.8039 26.6667 31.0621 26.6667 31.3328C26.6667 33.9091 28.7573 36 31.3333 36C33.9093 36 36 33.9091 36 31.3328C36 28.7565 33.9093 26.6687 31.3333 26.6687ZM30.4 10.8003C31.9462 10.8003 33.2 12.0542 33.2 13.6006C33.2 15.147 31.9462 16.4009 30.4 16.4009C28.8538 16.4009 27.6 15.147 27.6 13.6006C27.6 12.0542 28.8538 10.8003 30.4 10.8003ZM14.5333 25.7353C12.4707 25.7353 10.8 24.0645 10.8 22.0016C10.8 19.9387 12.4707 18.2678 14.5333 18.2678C16.596 18.2678 18.2667 19.9387 18.2667 22.0016C18.2667 24.0645 16.596 25.7353 14.5333 25.7353ZM31.3333 33.2028C30.3036 33.2028 29.4667 32.3658 29.4667 31.3359C29.4667 30.306 30.3036 29.4691 31.3333 29.4691C32.3631 29.4691 33.2 30.306 33.2 31.3359C33.2 32.3658 32.3631 33.2028 31.3333 33.2028Z" fill="white"/>
</svg>
