<svg width="30" height="30" viewBox="0 0 30 30" fill="none" xmlns="http://www.w3.org/2000/svg">
<path d="M15 0C6.70753 0 0 6.751 0 15C0 23.2824 6.71422 30 15 30C18.3738 30 21.4935 28.8598 23.998 27.0007V22.9213C21.7945 25.4124 18.5845 27.0007 15 27.0007C11.8168 27.0007 8.76728 25.7367 6.51694 23.4864C4.26661 21.2327 3.00267 18.1832 3.00267 15C3.00267 8.37272 8.37606 2.99933 15.0033 2.99933C20.0424 2.99933 24.3491 6.10566 26.1179 10.4993H29.3112C27.4053 4.41039 21.751 0 15 0ZM13.502 7.5V16.498L21.3765 21.2227L22.5 19.3803L15.749 15.3745V7.5H13.502ZM27.0007 13.4987V23.998H30V13.4987H27.0007ZM27.0007 26.9973V29.9967H30V26.9973H27.0007Z" fill="currentColor"/>
</svg>
