<svg width="44" height="41" viewBox="0 0 44 41" fill="none" xmlns="http://www.w3.org/2000/svg">
<g clip-path="url(#clip0_363_119)">
<path d="M27.2375 34.5102C27.2375 31.5969 24.8758 29.2352 21.9625 29.2352C19.0492 29.2352 16.6875 31.5969 16.6875 34.5102C16.6875 37.4235 19.0492 39.7852 21.9625 39.7852C24.8758 39.7852 27.2375 37.4235 27.2375 34.5102Z" stroke="white" stroke-width="2"/>
<path d="M11.55 20.392C11.55 17.4787 9.1883 15.117 6.275 15.117C3.3617 15.117 1 17.4787 1 20.392C1 23.3053 3.3617 25.667 6.275 25.667C9.1883 25.667 11.55 23.3053 11.55 20.392Z" stroke="white" stroke-width="2"/>
<path d="M32.3719 6.27402C32.3719 9.18733 34.7336 11.549 37.6469 11.549C40.5602 11.549 42.9219 9.18733 42.9219 6.27402C42.9219 3.36072 40.5602 0.999024 37.6469 0.999024C34.7336 0.999024 32.3719 3.36072 32.3719 6.27402Z" stroke="white" stroke-width="2"/>
<path d="M27.2375 20.392C27.2375 17.4787 24.8758 15.117 21.9625 15.117C19.0492 15.117 16.6875 17.4787 16.6875 20.392C16.6875 23.3053 19.0492 25.667 21.9625 25.667C24.8758 25.667 27.2375 23.3053 27.2375 20.392Z" stroke="white" stroke-width="2"/>
<path d="M16.6844 6.27402C16.6844 9.18733 19.0461 11.549 21.9594 11.549C24.8727 11.549 27.2344 9.18733 27.2344 6.27402C27.2344 3.36072 24.8727 0.999024 21.9594 0.999024C19.0461 0.999024 16.6844 3.36072 16.6844 6.27402Z" stroke="white" stroke-width="2"/>
<path d="M0.707031 41.4922L13.2582 28.941" stroke="white" stroke-width="2"/>
<path d="M-0.707031 41.4945L11.8441 28.9434" stroke="white" stroke-width="2"/>
<path d="M32.082 27.374L44.6332 14.8229" stroke="white" stroke-width="2"/>
<path d="M30.668 27.3763L43.2191 14.8252" stroke="white" stroke-width="2"/>
<path d="M11.8438 -0.707031L-0.707394 11.8441" stroke="white" stroke-width="2"/>
<path d="M13.2578 -0.709349L0.706667 11.8418" stroke="white" stroke-width="2"/>
<path d="M32.082 41.4922L44.6332 28.941" stroke="white" stroke-width="2"/>
<path d="M30.668 41.4945L43.2191 28.9434" stroke="white" stroke-width="2"/>
</g>
<defs>
<clipPath id="clip0_363_119">
<rect width="43.92" height="40.79" fill="white" transform="matrix(1 0 0 -1 0 40.7852)"/>
</clipPath>
</defs>
</svg>
