<svg width="19" height="19" viewBox="0 0 19 19" fill="none" xmlns="http://www.w3.org/2000/svg">
<path fill-rule="evenodd" clip-rule="evenodd" d="M8.11076 0H10.8884C11.4538 0 11.9161 0.475885 11.9161 1.05796V2.02153C11.9161 2.60753 11.4538 3.07949 10.8884 3.07949H8.11076C7.5453 3.07949 7.08301 2.6036 7.08301 2.02153V1.05796C7.08301 0.471952 7.5453 0 8.11076 0ZM8.73751 15.2103C8.93236 15.4345 9.21127 15.5604 9.50163 15.5604C9.792 15.5604 10.0709 15.4345 10.2658 15.2103L14.8429 9.99133C15.1141 9.68063 15.1829 9.23621 15.0186 8.85078C14.8543 8.46929 14.4837 8.22152 14.0788 8.22152H11.9163V5.41733C11.9163 4.83133 11.4578 4.35938 10.8885 4.35938H8.11092C7.54165 4.35938 7.08318 4.83133 7.08318 5.41733V8.22152H4.9207C4.51571 8.22152 4.14511 8.46929 3.98082 8.85078C3.81654 9.23228 3.88531 9.68063 4.15657 9.99133L8.73369 15.2103H8.73751ZM1.0545 16.832H17.9455H17.9493C18.5339 16.832 19.0038 17.3158 19.0038 17.9175C19.0038 18.5193 18.5301 19.003 17.9493 19.003H1.0545C0.46994 19.003 0 18.5193 0 17.9175C0 17.3158 0.473755 16.832 1.0545 16.832Z" fill="white"/>
</svg>
