<svg width="80" height="80" viewBox="0 0 80 80" fill="none" xmlns="http://www.w3.org/2000/svg">
<g clip-path="url(#clip0_9458_6798)">
<rect x="70" y="70" width="10" height="10" fill="white"/>
<rect x="60" y="70" width="10" height="10" fill="white"/>
<rect x="50" y="70" width="10" height="10" fill="#986DB9"/>
<rect x="40" y="70" width="10" height="10" fill="#09E625"/>
<rect x="30" y="70" width="10" height="10" fill="white"/>
<rect x="20" y="70" width="10" height="10" fill="#986DB9"/>
<rect x="10" y="70" width="10" height="10" fill="#09E625"/>
<rect y="70" width="10" height="10" fill="#09E625"/>
<rect x="70" y="60" width="10" height="10" fill="#09E625"/>
<rect x="60" y="60" width="10" height="10" fill="white"/>
<rect x="50" y="60" width="10" height="10" fill="#DCA7AC"/>
<rect x="40" y="60" width="10" height="10" fill="#986DB9"/>
<rect x="30" y="60" width="10" height="10" fill="#DCA7AC"/>
<rect x="20" y="60" width="10" height="10" fill="#DCA7AC"/>
<rect x="10" y="60" width="10" height="10" fill="#DCA7AC"/>
<rect y="60" width="10" height="10" fill="#DCA7AC"/>
<rect x="70" y="50" width="10" height="10" fill="#986DB9"/>
<rect x="60" y="50" width="10" height="10" fill="white"/>
<rect x="50" y="50" width="10" height="10" fill="white"/>
<rect x="40" y="50" width="10" height="10" fill="#DCA7AC"/>
<rect x="30" y="50" width="10" height="10" fill="#DCA7AC"/>
<rect x="20" y="50" width="10" height="10" fill="#09E625"/>
<rect x="10" y="50" width="10" height="10" fill="#986DB9"/>
<rect y="50" width="10" height="10" fill="white"/>
<rect x="70" y="40" width="10" height="10" fill="#09E625"/>
<rect x="60" y="40" width="10" height="10" fill="#DCA7AC"/>
<rect x="50" y="40" width="10" height="10" fill="#986DB9"/>
<rect x="40" y="40" width="10" height="10" fill="#09E625"/>
<rect x="30" y="40" width="10" height="10" fill="white"/>
<rect x="20" y="40" width="10" height="10" fill="#DCA7AC"/>
<rect x="10" y="40" width="10" height="10" fill="#986DB9"/>
<rect y="40" width="10" height="10" fill="white"/>
<rect x="70" y="30" width="10" height="10" fill="#09E625"/>
<rect x="60" y="30" width="10" height="10" fill="#986DB9"/>
<rect x="50" y="30" width="10" height="10" fill="#09E625"/>
<rect x="40" y="30" width="10" height="10" fill="#986DB9"/>
<rect x="30" y="30" width="10" height="10" fill="#986DB9"/>
<rect x="20" y="30" width="10" height="10" fill="white"/>
<rect x="10" y="30" width="10" height="10" fill="#DCA7AC"/>
<rect y="30" width="10" height="10" fill="#09E625"/>
<rect x="70" y="20" width="10" height="10" fill="#DCA7AC"/>
<rect x="60" y="20" width="10" height="10" fill="#986DB9"/>
<rect x="50" y="20" width="10" height="10" fill="#986DB9"/>
<rect x="40" y="20" width="10" height="10" fill="#986DB9"/>
<rect x="30" y="20" width="10" height="10" fill="#986DB9"/>
<rect x="20" y="20" width="10" height="10" fill="#986DB9"/>
<rect x="10" y="20" width="10" height="10" fill="#DCA7AC"/>
<rect y="20" width="10" height="10" fill="#09E625"/>
<rect x="70" y="10" width="10" height="10" fill="#986DB9"/>
<rect x="60" y="10" width="10" height="10" fill="white"/>
<rect x="50" y="10" width="10" height="10" fill="#DCA7AC"/>
<rect x="40" y="10" width="10" height="10" fill="#986DB9"/>
<rect x="30" y="10" width="10" height="10" fill="#09E625"/>
<rect x="20" y="10" width="10" height="10" fill="white"/>
<rect x="10" y="10" width="10" height="10" fill="white"/>
<rect y="10" width="10" height="10" fill="#09E625"/>
<rect x="70" width="10" height="10" fill="#09E625"/>
<rect x="60" width="10" height="10" fill="white"/>
<rect x="50" width="10" height="10" fill="white"/>
<rect x="40" width="10" height="10" fill="white"/>
<rect x="30" width="10" height="10" fill="#DCA7AC"/>
<rect x="20" width="10" height="10" fill="#DCA7AC"/>
<rect x="10" width="10" height="10" fill="white"/>
<rect width="10" height="10" fill="#09E625"/>
</g>
<defs>
<clipPath id="clip0_9458_6798">
<rect width="80" height="80" fill="white"/>
</clipPath>
</defs>
</svg>
