<svg width="10" height="10" viewBox="0 0 10 10" fill="none" xmlns="http://www.w3.org/2000/svg">
<path d="M5 0C2.23657 0 0 2.23657 0 5C0 7.76343 2.23657 10 5 10C7.76343 10 10 7.76343 10 5C10 2.23657 7.76343 0 5 0ZM4.256 1.904C4.352 1.88914 4.45257 1.87429 4.55543 1.86743C4.66286 1.86057 4.76229 1.856 4.848 1.856C4.94057 1.856 5.04457 1.85943 5.15543 1.86743C5.26286 1.87429 5.36686 1.88914 5.45943 1.904C5.47429 2 5.48571 2.09257 5.49257 2.18514C5.496 2.27771 5.49943 2.37371 5.49943 2.46629C5.49943 2.55543 5.496 2.648 5.49257 2.744C5.48571 2.84 5.47429 2.93257 5.45943 3.02971C5.36686 3.04457 5.26629 3.056 5.16 3.06286C5.05257 3.06629 4.95314 3.06971 4.85943 3.06971C4.77029 3.06971 4.67086 3.06629 4.56343 3.06286C4.45257 3.056 4.352 3.04457 4.256 3.02971C4.22286 2.84114 4.208 2.65143 4.208 2.46629C4.20686 2.28914 4.22171 2.10057 4.256 1.904ZM6.12229 8.144H3.87771C3.84457 8 3.82971 7.85143 3.82971 7.69943C3.82971 7.62857 3.83314 7.55086 3.84114 7.46971C3.848 7.38857 3.86286 7.31086 3.87771 7.24H4.42629V4.66286H3.87771C3.86286 4.592 3.848 4.51429 3.84114 4.43314C3.83429 4.352 3.82971 4.27771 3.82971 4.20343C3.82971 4.05143 3.84457 3.904 3.87771 3.75886H5.57371V7.24H6.12229C6.13714 7.31086 6.152 7.38857 6.15886 7.46971C6.16571 7.55086 6.17029 7.62857 6.17029 7.69943C6.17029 7.85143 6.15543 8 6.12229 8.144Z" fill="white"/>
</svg>
