<svg width="14" height="16" viewBox="0 0 14 16" fill="none" xmlns="http://www.w3.org/2000/svg">
<path fill-rule="evenodd" clip-rule="evenodd" d="M5.82658 0.268668C6.44558 -0.0889022 7.20836 -0.0889052 7.82736 0.26866L12.6543 3.05694C13.2729 3.41426 13.6539 4.07439 13.6539 4.78876V10.8618C13.6539 11.2667 13.4384 11.6411 13.0881 11.8443C12.3308 12.2837 11.382 11.7373 11.382 10.8618V6.10271C11.382 5.38765 11.0003 4.72698 10.3807 4.36991L7.82627 2.89766C7.20781 2.5412 6.44624 2.5414 5.82796 2.89818L3.27784 4.36974C2.65882 4.72694 2.27745 5.38732 2.27745 6.10201V9.04955C2.27745 9.76359 2.65812 10.4235 3.27623 10.7809L6.19715 12.47L6.4208 8.71576C5.56065 8.75468 4.8822 8.91676 4.78958 9.08657C4.64117 9.35864 4.3155 9.38544 4.17122 9.36482V7.45331L4.17121 5.32012C4.31549 5.29951 4.64116 5.3263 4.78956 5.59838C4.97507 5.93848 7.51033 6.24754 9.14896 5.59838C9.24172 5.44366 9.45814 5.32012 9.67457 5.32012V7.23163V9.36482C9.45815 9.36482 9.24173 9.24129 9.14898 9.08657C8.62833 8.88031 8.01717 8.77079 7.41962 8.72826L7.64891 12.3956C8.35007 12.1881 9.10449 12.708 9.10449 13.4893C9.10449 13.8962 8.88729 14.2721 8.53481 14.4752L7.82679 14.8833C7.20805 15.2399 6.4461 15.2395 5.8277 14.8823L0.999615 12.0934C0.38103 11.7361 0 11.0759 0 10.3616V4.78883C0 4.07447 0.381023 3.41434 0.9996 3.05701L5.82658 0.268668ZM3 5.5261C3 5.23581 3.23533 5.00049 3.52561 5.00049C3.8159 5.00049 4.05123 5.23581 4.05123 5.5261V9.17448C4.05123 9.46477 3.8159 9.70009 3.52561 9.70009C3.23533 9.70009 3 9.46477 3 9.17448V5.5261ZM10.3274 5.00049C10.0371 5.00049 9.80181 5.23581 9.80181 5.5261V9.17448C9.80181 9.46476 10.0371 9.70009 10.3274 9.70009C10.6177 9.70009 10.853 9.46476 10.853 9.17448V5.5261C10.853 5.23581 10.6177 5.00049 10.3274 5.00049Z" fill="#F2D861"/>
</svg>
