<svg xmlns="http://www.w3.org/2000/svg" xmlns:xlink="http://www.w3.org/1999/xlink" width="201.771484375" height="257.2763671875" viewBox="0 0 201.771484375 257.2763671875" fill="none"><g filter="url(#filter_0)"><path fill-rule="evenodd"  id="并集" style="fill:#38F8FF; opacity:1;" d="M173.786 48.5085C172.221 43.3117 166.789 40.3591 161.599 41.945L141.79 47.9975L135.762 27.9917C134.196 22.7949 128.765 19.8423 123.575 21.4282C118.413 23.0052 115.517 28.5182 117.074 33.6855L123.106 53.7061L102.775 59.9181C97.6141 61.4951 94.7178 67.0081 96.2748 72.1754C97.8406 77.3721 103.272 80.3248 108.462 78.7388L128.779 72.5314L134.961 93.0516C136.527 98.2483 141.958 101.201 147.149 99.615C152.31 98.038 155.207 92.5251 153.65 87.3577L147.462 66.8227L167.286 60.7658C172.447 59.1888 175.343 53.6758 173.786 48.5085ZM144.973 65.4921L166.701 58.8531C170.804 57.5994 173.119 53.2263 171.871 49.0855C170.624 44.9446 166.286 42.6041 162.183 43.8578L142.367 49.9124L140.454 50.4968L139.877 48.5819L133.847 28.5687C132.6 24.4279 128.262 22.0873 124.159 23.341C120.056 24.5946 117.741 28.9677 118.989 33.1085L125.596 55.0367L103.36 61.8308C99.2568 63.0845 96.9421 67.4576 98.1898 71.5984C99.4374 75.7392 103.775 78.0798 107.878 76.8261L128.202 70.6164L130.114 70.032L130.691 71.9469L136.876 92.4746C138.124 96.6154 142.462 98.9559 146.565 97.7023C150.668 96.4487 152.982 92.0756 151.735 87.9347L144.973 65.4921ZM38.4383 126.468C34.9402 128.696 30.3383 128.907 26.5405 126.619C21.1584 123.376 19.397 116.4 22.5941 110.99L55.8689 54.6887C59.0597 49.2898 66.0395 47.5269 71.4111 50.7637C75.0819 52.9756 77.0684 56.9239 76.9462 60.9273L78.2 61.4568Q81.1168 62.6886 83.3594 65.2693Q86.4953 68.8782 86.3238 73.3513Q86.2569 75.0971 91.6521 80.3211Q97.6685 86.1467 107.006 92.3622Q130.145 107.764 150.544 111.286Q156.332 108.513 162.452 112.201L163.955 113.106C167.364 111.23 171.654 111.169 175.231 113.324C180.613 116.567 182.375 123.543 179.178 128.953L145.903 185.254C142.712 190.653 135.732 192.416 130.361 189.179C126.606 186.917 124.614 182.838 124.837 178.741L123.548 177.964Q117.434 174.28 117.11 167.832Q109.441 157.951 96.606 148.622L51.8971 236.276L22.7738 218.728L77.8535 137.003Q69.198 132.47 62.1002 130.168Q55.0433 127.88 53.5787 128.753Q49.7449 131.039 45.0936 129.961Q41.7759 129.193 39.3171 127.186L38.4383 126.468ZM57.9932 96.1763L40.582 125.636C42.5964 127.281 47.8111 129.863 52.5545 127.035C55.3786 125.351 66.2752 128.679 78.9774 135.335C79.5653 135.643 80.157 135.958 80.752 136.281L79.6289 137.947L26.7275 216.44L25.6083 218.101L27.3235 219.134L49.3735 232.421L51.0908 233.456L52.0018 231.669L94.9616 147.444L95.8796 145.644C96.43 146.032 96.9788 146.423 97.5255 146.819C105.684 152.731 113.388 159.639 119.092 167.129C119.098 169.803 120.585 172.926 122.965 175.054C123.465 175.501 124.006 175.905 124.58 176.251L125.598 174.529L144.01 143.375L144.009 143.374L161.42 113.914C161.371 113.884 161.321 113.855 161.271 113.826C160.741 113.519 160.183 113.259 159.609 113.047C156.625 111.942 153.197 112.103 150.863 113.368C119.94 108.302 84.059 80.2223 84.3253 73.2747C84.5384 67.7167 79.8118 64.3085 77.4218 63.2992L57.9917 96.1754L57.9932 96.1763ZM70.3789 52.4767C74.8096 55.1465 76.2677 60.921 73.6356 65.3745L40.3609 121.676C37.7288 126.129 32.0034 127.575 27.5727 124.906C23.142 122.236 21.6839 116.461 24.3159 112.008L57.5907 55.7063C60.2227 51.2528 65.9482 49.8069 70.3789 52.4767ZM94.2499 124.572Q83.8694 117.208 78.5605 105.16C77.9916 103.898 77.9843 102.393 78.6697 101.069C79.8504 98.787 82.6395 97.9039 84.8993 99.096C85.8733 99.6098 86.59 100.425 86.9957 101.37Q91.2667 111.063 99.5578 116.944Q111.182 125.19 127.949 122.823C128.887 122.678 129.876 122.823 130.782 123.3C133.041 124.492 133.916 127.308 132.735 129.59C132.009 130.995 130.672 131.869 129.224 132.056Q108.853 134.931 94.2499 124.572ZM95.4071 122.941Q85.477 115.897 80.3907 104.354L80.3839 104.338Q79.8466 103.146 80.446 101.988C81.1135 100.698 82.6816 100.187 83.9661 100.865Q84.7885 101.299 85.1655 102.176Q89.6591 112.375 98.4007 118.576Q110.674 127.282 128.255 124.8Q129.092 124.67 129.848 125.069C131.142 125.752 131.631 127.372 130.959 128.671Q130.324 129.897 128.945 130.075Q109.361 132.839 95.4071 122.941ZM174.199 115.037C178.63 117.707 180.088 123.482 177.456 127.935L144.181 184.237C141.549 188.69 135.824 190.136 131.393 187.466C126.962 184.796 125.504 179.022 128.136 174.568L161.411 118.267C164.043 113.813 169.768 112.367 174.199 115.037Z"></path></g><defs><filter id="filter_0" x="0" y="0" width="224.76621200958266" height="279.45599999999996" filterUnits="userSpaceOnUse" color-interpolation-filters="sRGB"><feFlood flood-opacity="0" result="feFloodId"/>
        <feColorMatrix in="SourceAlpha" type="matrix" values="0 0 0 0 0 0 0 0 0 0 0 0 0 0 0 0 0 0 127 0" result="hardAlpha"/>
        <feMorphology radius="2" operator="dilate" in="SourceAlpha"/>
        <feOffset dx="0" dy="0"/>
        <feGaussianBlur stdDeviation="9.5"/>
         <feComposite in2="hardAlpha" operator="out"/>
        <feColorMatrix type="matrix" values="0 0 0 0 0 0 0 0 0 0.8 0 0 0 0 1 0 0 0 1 0"/>
        <feBlend mode="normal" in2="BackgroundImageFix" result="dropShadow_1"/>
        <feBlend mode="normal" in="SourceGraphic" in2="dropShadow_2" result="shape"/></filter></defs></svg>