<svg width="18" height="18" viewBox="0 0 18 18" fill="none" xmlns="http://www.w3.org/2000/svg">
<path fill-rule="evenodd" clip-rule="evenodd" d="M0.48752 15.1381C-0.162506 15.7926 -0.162508 16.8505 0.48752 17.505C1.13755 18.1596 2.1922 18.1638 2.84222 17.5092L9.0005 11.3079L15.1585 17.5091C15.8086 18.1636 16.8625 18.1636 17.5125 17.5091C18.1625 16.8545 18.1625 15.7932 17.5125 15.1387L11.3544 8.93743L17.3874 2.86214C18.0375 2.20755 18.0333 1.14552 17.3833 0.490935C16.7332 -0.163646 15.6828 -0.163645 15.0328 0.490936L8.99972 6.56624L2.96968 0.493969C2.31965 -0.160611 1.26575 -0.160613 0.615727 0.493965C-0.0342955 1.14854 -0.0342938 2.20982 0.615733 2.86441L6.64577 8.93671L0.48752 15.1381Z" fill="black"/>
</svg>
