<svg width="426" height="239" viewBox="0 0 426 239" fill="none" xmlns="http://www.w3.org/2000/svg">
<path d="M276.228 62.48L281.744 48.389L270.292 20.5068H278.506L285.882 38.1356H286.001L292.957 20.5068H301.172L284.323 62.48H276.228Z" fill="white"/>
<path d="M245.785 27.5217V20.5062H251.301V15.4694L259.516 10.7324V20.5062H266.112V27.5217H259.516V43.4715H266.112V50.487H258.257L251.301 46.4696V27.5217H245.785Z" fill="white"/>
<path d="M232.205 50.7875H224.35L220.093 48.329V62.48H211.878V20.207H218.654L220.093 22.6655L224.35 20.207H232.205L239.161 24.2245V46.77L232.205 50.7875ZM220.093 27.2225V43.772H230.946V27.2225H220.093Z" fill="white"/>
<path d="M202.912 24.2245V50.4877H194.697V27.2225H185.943V50.4877H177.728V27.2225H168.974V50.4877H160.759V20.207H167.534L168.974 22.6655L173.231 20.207H178.987L184.564 23.445L190.2 20.207H195.956L202.912 24.2245Z" fill="white"/>
<path d="M136.844 32.4983V43.2914H153.574V50.4868H128.45V8.51367H153.574V15.7091H136.844V25.3029H149.976V32.4983H136.844Z" fill="white"/>
<mask id="path-6-inside-1_2411_15950" fill="white">
<path fill-rule="evenodd" clip-rule="evenodd" d="M336.968 39.1138C341.227 36.5716 346.742 37.9639 349.284 42.2236L381.235 95.7601C383.777 100.02 382.385 105.534 378.125 108.076C373.865 110.618 368.351 109.226 365.809 104.966L333.858 51.4298C331.316 47.1701 332.708 41.6561 336.968 39.1138ZM323.559 58.9181C323.354 53.6259 327.898 50.3806 330.196 49.4194L348.878 80.7227L348.878 80.7229L365.618 108.773C363.681 110.339 358.668 112.798 354.107 110.105C351.266 108.427 339.928 111.974 326.995 118.911L377.029 192.428C378.648 194.807 377.929 198.059 375.458 199.534L360.085 208.709C357.609 210.187 354.399 209.269 353.078 206.705L312.451 127.827C304.027 133.696 295.987 140.674 290.136 148.284C290.13 151.366 288.036 155.075 284.86 156.97L266.178 125.667L266.178 125.667L249.438 97.6166C252.613 95.7212 256.871 95.6387 259.587 97.0968C289.319 92.272 323.815 65.5334 323.559 58.9181ZM249.47 101.794C246.928 97.5339 241.414 96.1416 237.154 98.6839C232.894 101.226 231.502 106.74 234.044 111L265.995 164.536C268.537 168.796 274.051 170.188 278.311 167.646C282.571 165.104 283.963 159.59 281.421 155.33L249.47 101.794Z"/>
</mask>
<path d="M330.196 49.4194L329.81 48.4969L330.61 48.1622L331.055 48.9069L330.196 49.4194ZM323.559 58.9181L322.56 58.9568L323.559 58.9181ZM348.878 80.7227L349.737 80.2103L350.249 81.069L349.39 81.5814L348.878 80.7227ZM348.878 80.7229L348.019 81.2354L347.507 80.3767L348.365 79.8642L348.878 80.7229ZM365.618 108.773L366.477 108.26L366.921 109.005L366.247 109.55L365.618 108.773ZM354.107 110.105L354.616 109.244L354.107 110.105ZM326.995 118.911L326.168 119.473L325.543 118.554L326.522 118.029L326.995 118.911ZM377.029 192.428L376.202 192.99L377.029 192.428ZM353.078 206.705L352.189 207.163L352.189 207.163L353.078 206.705ZM312.451 127.827L311.879 127.007L312.817 126.354L313.34 127.37L312.451 127.827ZM290.136 148.284L289.136 148.282L289.136 147.943L289.343 147.674L290.136 148.284ZM284.86 156.97L285.372 157.829L284.513 158.341L284.001 157.482L284.86 156.97ZM266.178 125.667L265.319 126.179L264.806 125.32L265.665 124.808L266.178 125.667ZM266.178 125.667L267.037 125.154L267.549 126.013L266.69 126.525L266.178 125.667ZM249.438 97.6166L248.579 98.1291L248.066 97.2704L248.925 96.7579L249.438 97.6166ZM259.587 97.0968L259.748 98.0839L259.413 98.1382L259.114 97.9779L259.587 97.0968ZM249.47 101.794L248.611 102.306L249.47 101.794ZM281.421 155.33L282.279 154.818L281.421 155.33ZM348.425 42.7361C346.166 38.9506 341.266 37.7134 337.48 39.9725L336.455 38.2551C341.189 35.4299 347.317 36.9772 350.142 41.7111L348.425 42.7361ZM380.376 96.2726L348.425 42.7361L350.142 41.7111L382.093 95.2476L380.376 96.2726ZM377.612 107.217C381.398 104.958 382.635 100.058 380.376 96.2726L382.093 95.2476C384.919 99.9816 383.371 106.11 378.637 108.935L377.612 107.217ZM366.668 104.454C368.927 108.239 373.827 109.477 377.612 107.217L378.637 108.935C373.903 111.76 367.775 110.213 364.95 105.479L366.668 104.454ZM334.717 50.9173L366.668 104.454L364.95 105.479L332.999 51.9423L334.717 50.9173ZM337.48 39.9725C333.695 42.2317 332.458 47.1319 334.717 50.9173L332.999 51.9423C330.174 47.2084 331.721 41.0804 336.455 38.2551L337.48 39.9725ZM330.582 50.342C329.557 50.7707 327.977 51.7382 326.691 53.2041C325.416 54.6572 324.468 56.5513 324.558 58.8794L322.56 58.9568C322.445 55.9927 323.667 53.6181 325.187 51.8851C326.696 50.165 328.537 49.0292 329.81 48.4969L330.582 50.342ZM348.019 81.2352L329.337 49.9319L331.055 48.9069L349.737 80.2103L348.019 81.2352ZM348.365 79.8642L348.365 79.864L349.39 81.5814L349.39 81.5816L348.365 79.8642ZM364.759 109.285L348.019 81.2354L349.736 80.2104L366.477 108.26L364.759 109.285ZM354.616 109.244C356.622 110.428 358.739 110.494 360.623 110.061C362.524 109.625 364.125 108.694 364.989 107.995L366.247 109.55C365.174 110.418 363.301 111.499 361.07 112.011C358.823 112.526 356.153 112.474 353.599 110.966L354.616 109.244ZM326.522 118.029C333.028 114.54 339.152 111.892 344.03 110.325C346.465 109.543 348.619 109.021 350.369 108.805C351.244 108.697 352.043 108.663 352.739 108.721C353.425 108.777 354.08 108.928 354.616 109.244L353.599 110.966C353.424 110.863 353.103 110.757 352.575 110.714C352.057 110.671 351.403 110.693 350.613 110.79C349.034 110.985 347.012 111.468 344.641 112.23C339.906 113.751 333.895 116.345 327.468 119.792L326.522 118.029ZM376.202 192.99L326.168 119.473L327.822 118.348L377.856 191.865L376.202 192.99ZM374.945 198.676C376.923 197.496 377.498 194.894 376.202 192.99L377.856 191.865C379.799 194.721 378.936 198.623 375.97 200.393L374.945 198.676ZM359.573 207.85L374.945 198.676L375.97 200.393L360.598 209.568L359.573 207.85ZM353.967 206.247C355.023 208.298 357.592 209.033 359.573 207.85L360.598 209.568C357.626 211.341 353.774 210.24 352.189 207.163L353.967 206.247ZM313.34 127.37L353.967 206.247L352.189 207.163L311.562 128.285L313.34 127.37ZM289.343 147.674C295.277 139.957 303.404 132.911 311.879 127.007L313.022 128.648C304.65 134.48 296.697 141.391 290.928 148.893L289.343 147.674ZM284.347 156.111C287.247 154.381 289.13 150.984 289.136 148.282L291.136 148.286C291.129 151.748 288.824 155.768 285.372 157.829L284.347 156.111ZM267.036 125.154L285.718 156.458L284.001 157.482L265.319 126.179L267.036 125.154ZM266.69 126.525L266.69 126.525L265.665 124.808L265.665 124.808L266.69 126.525ZM250.296 97.1041L267.037 125.154L265.319 126.179L248.579 98.1291L250.296 97.1041ZM259.114 97.9779C256.733 96.6996 252.85 96.7448 249.95 98.4753L248.925 96.7579C252.377 94.6977 257.009 94.5778 260.06 96.2157L259.114 97.9779ZM324.558 58.8794C324.582 59.5028 324.403 60.153 324.125 60.7858C323.843 61.4283 323.431 62.1176 322.918 62.8396C321.891 64.2833 320.401 65.9378 318.545 67.7176C314.828 71.2817 309.56 75.4319 303.369 79.5138C291 87.6681 274.808 95.6399 259.748 98.0839L259.427 96.1097C274.098 93.7288 290.02 85.919 302.268 77.844C308.385 73.8112 313.552 69.7349 317.16 66.2741C318.967 64.5416 320.361 62.9841 321.288 61.6805C321.752 61.0288 322.084 60.4607 322.294 59.9823C322.508 59.4943 322.568 59.1604 322.56 58.9568L324.558 58.8794ZM236.641 97.8252C241.375 94.9999 247.503 96.5472 250.328 101.281L248.611 102.306C246.352 98.5206 241.452 97.2834 237.666 99.5426L236.641 97.8252ZM233.185 111.512C230.36 106.778 231.907 100.65 236.641 97.8252L237.666 99.5426C233.881 101.802 232.644 106.702 234.903 110.487L233.185 111.512ZM265.136 165.049L233.185 111.512L234.903 110.487L266.854 164.024L265.136 165.049ZM278.823 168.505C274.089 171.33 267.962 169.783 265.136 165.049L266.854 164.024C269.113 167.809 274.013 169.047 277.798 166.787L278.823 168.505ZM282.279 154.818C285.105 159.552 283.557 165.68 278.823 168.505L277.798 166.787C281.584 164.528 282.821 159.628 280.562 155.843L282.279 154.818ZM250.328 101.281L282.279 154.818L280.562 155.843L248.611 102.306L250.328 101.281Z" fill="#D9D9D9" mask="url(#path-6-inside-1_2411_15950)"/>
<path fill-rule="evenodd" clip-rule="evenodd" d="M296.984 120.03C296.675 121.339 297.487 122.65 298.797 122.958C300.106 123.265 301.418 122.453 301.727 121.143L304.649 108.739L317.056 111.651C318.366 111.958 319.678 111.146 319.986 109.837C320.295 108.527 319.483 107.216 318.173 106.909L305.766 103.997L308.629 91.8453C308.937 90.5357 308.125 89.2249 306.815 88.9176C305.506 88.6102 304.194 89.4226 303.885 90.7321L301.023 102.884L288.87 100.032C287.56 99.7243 286.248 100.537 285.939 101.846C285.631 103.156 286.443 104.467 287.752 104.774L299.906 107.626L296.984 120.03Z" fill="#D9D9D9"/>
<path d="M327.379 104.192L324.132 98.9499L329.168 95.8315L332.415 101.074L327.379 104.192ZM323.385 95.6713L315.144 83.9021L319.702 81.0791L326.566 93.7018L323.385 95.6713Z" fill="#D9D9D9"/>
<path fill-rule="evenodd" clip-rule="evenodd" d="M88.4175 39.1129C84.1578 36.5706 78.6437 37.9629 76.1015 42.2226L44.1506 95.7591C41.6083 100.019 43.0006 105.533 47.2603 108.075C51.52 110.617 57.0341 109.225 59.5763 104.965L91.5273 51.4289C94.0695 47.1691 92.6772 41.6551 88.4175 39.1129ZM101.826 58.9174C102.031 53.6251 97.487 50.3798 95.1892 49.4187L76.5071 80.722L76.5074 80.7222L59.767 108.772C61.7037 110.338 66.7174 112.797 71.2779 110.104C74.1191 108.427 85.4575 111.974 98.3906 118.91L48.3564 192.428C46.737 194.807 47.4559 198.059 49.9276 199.534L65.3001 208.709C67.7767 210.187 70.9869 209.269 72.3075 206.705L112.935 127.827C121.358 133.695 129.398 140.674 135.249 148.283C135.256 151.366 137.35 155.074 140.525 156.969L159.207 125.666L159.207 125.666L175.948 97.6159C172.772 95.7205 168.514 95.638 165.798 97.0961C136.067 92.2712 101.57 65.5327 101.826 58.9174ZM175.916 101.794C178.458 97.5339 183.972 96.1416 188.232 98.6839C192.491 101.226 193.884 106.74 191.341 111L159.39 164.536C156.848 168.796 151.334 170.188 147.074 167.646C142.815 165.104 141.422 159.59 143.965 155.33L175.916 101.794Z" fill="#D9D9D9"/>
<path fill-rule="evenodd" clip-rule="evenodd" d="M103.444 103.545C107.345 105.789 112.521 104.463 114.924 100.284C117.327 96.1047 115.868 90.965 111.966 88.7219C108.065 86.4787 102.889 87.804 100.486 91.9833C98.0835 96.1626 99.5422 101.302 103.444 103.545ZM99.711 110.038C107.283 114.391 117.001 111.696 121.416 104.017C125.831 96.3377 123.271 86.5834 115.699 82.2297C108.127 77.876 98.4092 80.5717 93.9942 88.2506C89.5792 95.9295 92.1387 105.684 99.711 110.038Z" fill="#1B1B1B"/>
<path d="M136.401 112.022L134.15 115.175L130.131 112.864L132.844 107.299L138.546 107.192L140.775 108.473L143.264 104.144L138.148 101.203L136.183 104.621L131.067 101.679L134.19 96.2486L139.892 96.1411L146.761 100.091L149.537 105.072L144.733 113.427L139.031 113.535L136.401 112.022ZM122.381 122.961L126.529 115.746L133.472 119.737L129.323 126.953L122.381 122.961Z" fill="#1B1B1B"/>
<rect x="68.9463" y="1.44922" width="7" height="19" transform="rotate(-11.945 68.9463 1.44922)" fill="#D9D9D9"/>
<rect width="7" height="19" transform="matrix(-0.978347 -0.206973 -0.206973 0.978347 353.781 1.44922)" fill="#D9D9D9"/>
<rect x="44" y="6.75293" width="7" height="19" transform="rotate(-27.5684 44 6.75293)" fill="#D9D9D9"/>
<rect width="7" height="19" transform="matrix(-0.886459 -0.462807 -0.462807 0.886459 378.727 6.75293)" fill="#D9D9D9"/>
<rect x="25" y="28.3262" width="7" height="19" transform="rotate(-56.1428 25 28.3262)" fill="#D9D9D9"/>
<rect width="7" height="19" transform="matrix(-0.557125 -0.830429 -0.830429 0.557125 397.727 28.3262)" fill="#D9D9D9"/>
</svg>
