<svg width="11" height="9" viewBox="0 0 11 9" fill="none" xmlns="http://www.w3.org/2000/svg">
<path d="M9.94633 0.220703C9.60093 0.220703 9.32093 0.500708 9.32093 0.846111V5.11079C9.32093 5.66307 8.87321 6.11079 8.32093 6.11079H4.44563C4.01158 6.11079 3.65972 5.75893 3.65972 5.32489C3.65972 4.65546 2.87626 4.29253 2.36563 4.72539L0.900097 5.96773C0.428853 6.3672 0.428953 7.09417 0.900306 7.49351L2.36639 8.73562C2.87683 9.16809 3.65972 8.80528 3.65972 8.13627C3.65972 7.70243 4.01142 7.35073 4.44527 7.35073H9.94633C10.292 7.35073 10.5717 7.07261 10.5717 6.73074V0.846111C10.5717 0.500708 10.2917 0.220703 9.94633 0.220703Z" fill="white"/>
</svg>
