<svg width="150" height="261" viewBox="0 0 150 261" fill="none" xmlns="http://www.w3.org/2000/svg">
<path fill-rule="evenodd" clip-rule="evenodd" d="M82.2415 62.1048C88.1413 48.1789 104.131 41.6379 117.956 47.4949C131.781 53.3519 138.206 69.3891 132.306 83.315C126.406 97.2408 110.416 103.782 96.5913 97.9249C82.7664 92.0678 76.3417 76.0306 82.2415 62.1048ZM94.617 67.3478C97.6877 60.0999 105.874 56.9159 112.734 59.8222C119.594 62.7286 123.001 70.8241 119.931 78.072C116.86 85.3199 108.674 88.5039 101.814 85.5976C94.9537 82.6912 91.5464 74.5956 94.617 67.3478Z" fill="#211D1A"/>
<path fill-rule="evenodd" clip-rule="evenodd" d="M61.1453 24.0579C64.5977 22.663 68.5311 24.3294 69.9307 27.7799C71.3304 31.2304 69.6663 35.1583 66.2139 36.5531L47.9304 43.9402L55.5162 62.6411C56.9159 66.0916 55.2518 70.0195 51.7994 71.4143C48.347 72.8092 44.4136 71.1428 43.0139 67.6923L35.4281 48.9914L16.7176 56.5509C13.2652 57.9458 9.33183 56.2794 7.93218 52.8289C6.53253 49.3785 8.19663 45.4505 11.649 44.0557L30.3595 36.4961L22.9476 18.2239C21.5479 14.7734 23.212 10.8455 26.6644 9.45061C30.1168 8.05575 34.0502 9.72215 35.4499 13.1726L42.8618 31.4449L61.1453 24.0579Z" fill="#211D1A"/>
<path fill-rule="evenodd" clip-rule="evenodd" d="M-6.21761 48.9458C-11.5889 46.3645 -18.0357 48.6263 -20.617 53.9976L-53.0588 121.505C-55.64 126.876 -53.3783 133.323 -48.007 135.904C-42.6357 138.485 -36.1888 136.224 -33.6076 130.852L-1.16583 63.3452C1.41545 57.9739 -0.84631 51.5271 -6.21761 48.9458ZM11.9647 71.1892C11.6381 64.8353 5.85041 61.4436 2.99741 60.542L-15.9712 100.013L-15.9704 100.014L-32.9678 135.383C-30.4813 137.047 -24.2172 139.448 -19.0519 135.733C-15.834 133.419 -1.885 136.437 14.3382 143.338L-40.6777 242.277L-9.7853 257.123L32.7027 152.435C43.4153 158.545 53.7886 166.026 61.6115 174.497C61.9521 178.185 64.8581 182.395 68.8628 184.32L87.8313 144.849L87.8304 144.848L104.828 109.478C100.823 107.554 95.7201 107.915 92.628 109.953C56.5355 107.394 12.3731 79.1316 11.9647 71.1892ZM105.241 114.481C107.822 109.11 114.269 106.848 119.64 109.43C125.012 112.011 127.274 118.458 124.692 123.829L92.2505 191.336C89.6692 196.707 83.2224 198.969 77.8511 196.388C72.4798 193.807 70.2181 187.36 72.7993 181.989L105.241 114.481ZM69.7287 133.47C72.5958 132.799 74.376 129.931 73.7048 127.064C73.0337 124.196 70.1654 122.416 67.2982 123.087C52.6545 126.515 41.8215 123.87 33.9788 119.355C25.9968 114.76 20.7641 108.017 17.9061 102.881C16.4742 100.308 13.2276 99.3829 10.6546 100.815C8.08153 102.247 7.15645 105.493 8.58834 108.066C12.1135 114.401 18.5735 122.791 28.6587 128.597C38.8832 134.483 52.4917 137.505 69.7287 133.47Z" fill="#211D1A"/>
</svg>
