<svg width="38" height="23" viewBox="0 0 38 23" fill="none" xmlns="http://www.w3.org/2000/svg">
<circle cx="27.4545" cy="11.4545" r="9.45455" stroke="white" stroke-width="2"/>
<circle cx="23.1285" cy="9.29162" r="1.44201" fill="white"/>
<circle cx="31.0602" cy="9.29162" r="1.44201" fill="white"/>
<path d="M33.2226 13.9766H21.6865C21.6865 15.5988 23.489 17.9421 27.4545 17.9421C31.4201 17.9421 33.2226 15.7791 33.2226 13.9766Z" stroke="white" stroke-width="2"/>
<mask id="path-5-inside-1_2493_12830" fill="white">
<path fill-rule="evenodd" clip-rule="evenodd" d="M14.4904 19.8888C22.4932 19.8888 28.9808 15.4365 28.9808 9.94438C28.9808 4.45225 22.4932 0 14.4904 0C6.48757 0 0 4.45225 0 9.94438C0 13.0435 2.06569 15.8114 5.30368 17.6352L5.48073 22.2995L10.6994 19.545C11.9078 19.7692 13.1787 19.8888 14.4904 19.8888Z"/>
</mask>
<path fill-rule="evenodd" clip-rule="evenodd" d="M14.4904 19.8888C22.4932 19.8888 28.9808 15.4365 28.9808 9.94438C28.9808 4.45225 22.4932 0 14.4904 0C6.48757 0 0 4.45225 0 9.94438C0 13.0435 2.06569 15.8114 5.30368 17.6352L5.48073 22.2995L10.6994 19.545C11.9078 19.7692 13.1787 19.8888 14.4904 19.8888Z" fill="#787878"/>
<path d="M5.30368 17.6352L7.30224 17.5593L7.25982 16.4415L6.28518 15.8926L5.30368 17.6352ZM5.48073 22.2995L3.48217 22.3754L3.60276 25.5523L6.41432 24.0683L5.48073 22.2995ZM10.6994 19.545L11.0642 17.5785L10.3807 17.4517L9.76585 17.7763L10.6994 19.545ZM26.9808 9.94438C26.9808 11.8406 25.8625 13.7778 23.605 15.3271C21.3565 16.8701 18.1401 17.8888 14.4904 17.8888V21.8888C18.8435 21.8888 22.8723 20.6813 25.8683 18.6252C28.8553 16.5753 30.9808 13.5403 30.9808 9.94438H26.9808ZM14.4904 2C18.1401 2 21.3565 3.01864 23.605 4.56167C25.8625 6.11096 26.9808 8.04817 26.9808 9.94438H30.9808C30.9808 6.34847 28.8553 3.31348 25.8683 1.26362C22.8723 -0.792514 18.8435 -2 14.4904 -2V2ZM2 9.94438C2 8.04817 3.11828 6.11096 5.37582 4.56167C7.62424 3.01864 10.8406 2 14.4904 2V-2C10.1373 -2 6.10853 -0.792514 3.11245 1.26362C0.125505 3.31348 -2 6.34847 -2 9.94438H2ZM6.28518 15.8926C3.43162 14.2854 2 12.0785 2 9.94438H-2C-2 14.0085 0.699746 17.3375 4.32218 19.3778L6.28518 15.8926ZM7.4793 22.2237L7.30224 17.5593L3.30512 17.7111L3.48217 22.3754L7.4793 22.2237ZM9.76585 17.7763L4.54715 20.5308L6.41432 24.0683L11.633 21.3137L9.76585 17.7763ZM14.4904 17.8888C13.3 17.8888 12.1511 17.7802 11.0642 17.5785L10.3346 21.5114C11.6644 21.7581 13.0575 21.8888 14.4904 21.8888V17.8888Z" fill="white" mask="url(#path-5-inside-1_2493_12830)"/>
<circle cx="7.28213" cy="10.0116" r="1.82021" fill="white"/>
<circle cx="14.5624" cy="10.0116" r="1.82021" fill="white"/>
<circle cx="21.8437" cy="10.0116" r="1.82021" fill="white"/>
</svg>
