<svg width="23" height="27" viewBox="0 0 23 27" fill="none" xmlns="http://www.w3.org/2000/svg">
<path fill-rule="evenodd" clip-rule="evenodd" d="M10.2652 1.06506C10.8842 0.707485 11.647 0.707481 12.266 1.06505L21.5316 6.41729C22.1502 6.77462 22.5312 7.43475 22.5312 8.14912V18.9211C22.5312 19.5894 22.1755 20.2071 21.5975 20.5425C20.3478 21.2676 18.7822 20.3659 18.7822 18.9211V10.3165C18.7822 9.60144 18.4004 8.94078 17.7809 8.58371L12.2649 5.40457C11.6465 5.04812 10.8849 5.04832 10.2666 5.4051L4.75855 8.58353C4.13953 8.94074 3.75816 9.60112 3.75816 10.3158V16.6808C3.75816 17.3948 4.13883 18.0547 4.75695 18.4122L10.2249 21.5742L10.5938 15.3826C9.17403 15.4468 8.0541 15.7143 7.90122 15.9946C7.65633 16.4436 7.11893 16.4878 6.88084 16.4538V13.2994L6.88082 9.77933C7.11891 9.74532 7.65631 9.78953 7.9012 10.2385C8.20732 10.7997 12.3909 11.3097 15.0949 10.2385C15.248 9.98319 15.6051 9.77933 15.9623 9.77933V12.9336V16.4538C15.6051 16.4538 15.248 16.2499 15.095 15.9946C14.236 15.6543 13.2277 15.4736 12.2419 15.4034L12.6201 21.4527C13.7777 21.1089 15.0239 21.967 15.0239 23.257C15.0239 23.9284 14.6655 24.5487 14.0838 24.8839L12.2654 25.932C11.6467 26.2886 10.8847 26.2882 10.2663 25.931L0.999615 20.5781C0.38103 20.2208 0 19.5606 0 18.8463V8.14924C0 7.43487 0.381024 6.77474 0.999601 6.41742L10.2652 1.06506ZM4.94786 10.1186C4.94786 9.63959 5.33618 9.25126 5.81521 9.25126C6.29423 9.25126 6.68256 9.63959 6.68256 10.1186V16.139C6.68256 16.618 6.29423 17.0064 5.81521 17.0064C5.33618 17.0064 4.94786 16.618 4.94786 16.139V10.1186ZM17.0376 9.25126C16.5586 9.25126 16.1703 9.63959 16.1703 10.1186V16.139C16.1703 16.618 16.5586 17.0064 17.0376 17.0064C17.5166 17.0064 17.905 16.618 17.905 16.139V10.1186C17.905 9.63959 17.5166 9.25126 17.0376 9.25126Z" fill="#F2D861"/>
</svg>
