<svg width="47" height="34" viewBox="0 0 47 34" fill="none" xmlns="http://www.w3.org/2000/svg">
<path d="M18.955 0.670968C18.955 0.670968 20.1558 5.31003 24.7274 5.31055C29.9724 5.31106 31.4381 0 31.4381 0C31.4381 0 30.4221 3.90115 34.0186 6.14336C37.6153 8.38582 41.9979 5.12459 41.9979 5.12459C41.9979 5.12459 37.7651 8.44994 38.5145 12.9987C39.2639 17.5475 46.0948 17.4049 46.0948 17.4049C46.0948 17.4049 40.2378 18.1241 37.5405 22.2245C34.8431 26.325 38.5453 30.6055 38.5453 30.6055C38.5453 30.6055 34.9416 27.6187 30.4241 28.6198C27.2037 29.3333 25.5452 33.6251 25.5452 33.6251C25.5452 33.6251 23.3768 28.4376 18.4979 28.6198C14.606 28.7649 12.589 32.988 12.589 32.988C12.589 32.988 13.5019 28.0616 9.42541 26.286C5.45408 24.5562 3.25503 26.2334 3.25503 26.2334C3.25503 26.2334 5.87831 23.6898 4.26976 20.5397C2.73735 17.5385 0 16.5685 0 16.5685C0 16.5685 4.66522 15.4251 7.23604 11.4095C9.8066 7.39398 7.61112 2.44098 7.61112 2.44098C7.61112 2.44098 10.9932 5.99921 14.4041 5.32286C17.8152 4.6465 18.9557 0.671224 18.9557 0.671224L18.955 0.670968Z" fill="black"/>
<path d="M18.9555 0.671224C18.9555 0.671224 20.1645 5.24643 24.5175 5.24668C29.512 5.24719 31.4386 0 31.4386 0C31.4386 0 29.9403 3.90449 33.3649 6.03974C36.7895 8.17498 41.9984 5.12459 41.9984 5.12459C41.9984 5.12459 36.9326 8.23603 37.6461 12.5676C38.3596 16.8991 45.5661 17.3872 45.5661 17.3872C45.5661 17.3872 39.2873 17.4482 36.7187 21.3527C34.1502 25.2572 37.2553 29.4356 37.2553 29.4356C37.2553 29.4356 34.2439 26.4891 29.9423 27.4425C26.8757 28.1219 25.2965 32.2088 25.2965 32.2088C25.2965 32.2088 23.2316 27.2691 18.5857 27.4425C14.8797 27.5807 12.959 31.6022 12.959 31.6022C12.959 31.6022 13.8281 26.911 9.9464 25.2203C6.16478 23.5731 3.25529 26.2334 3.25529 26.2334C3.25529 26.2334 6.56863 22.748 5.03699 19.7484C3.57766 16.8906 0 16.5688 0 16.5688C0 16.5688 5.4136 14.8783 7.86143 11.0546C10.3093 7.23086 7.95564 2.76313 7.95564 2.76313C7.95564 2.76313 11.4391 5.90252 14.6872 5.25874C17.9354 4.6147 18.9557 0.671481 18.9557 0.671481L18.9555 0.671224Z" fill="#FFE000"/>
<path d="M1.54834 10.3781L2.31225 9.6086L8.12614 8.07225L14.6945 18.8924L15.5389 6.62874L16.3028 5.85928L22.1551 5.29117L19.8578 26.7126L14.0016 27.8953L1.54834 10.3781Z" fill="black"/>
<path d="M2.31299 9.60831L8.89079 7.3025L15.4592 18.1226L16.3035 5.859L22.9198 4.52142L20.6225 25.9429L14.7663 27.1255L2.31299 9.60831Z" fill="black"/>
<path d="M3.12305 9.86781L8.67007 7.92338L15.8565 19.7615L16.7844 6.28546L22.3383 5.16257L20.1558 25.5142L14.9884 26.5579L3.12305 9.86781Z" fill="#FF0055"/>
<path d="M20.6785 19.9708L17.0483 23.665C17.0483 23.665 19.9581 27.1506 23.5225 27.5372C27.0869 27.9237 31.3052 26.9593 32.7475 22.5606C34.1898 18.1618 31.1138 15.5216 29.1739 14.789C27.2341 14.0565 25.4715 13.5222 25.3539 12.2247C25.2362 10.9271 26.8995 9.4159 29.4128 10.4488C31.3526 11.2459 31.9421 13.0159 31.9421 13.0159L35.4864 10.1258C35.4864 10.1258 33.1521 6.57967 29.6236 5.63939C26.2099 4.72989 22.2911 6.5789 21.1256 9.38153C19.9601 12.1842 20.377 15.1789 23.2867 16.8699C26.1965 18.5609 27.7895 19.187 27.7693 20.719C27.7492 22.251 25.7819 23.2215 23.6213 22.3808C22.3438 21.8837 20.6787 19.9711 20.6787 19.9711L20.6785 19.9708Z" fill="black"/>
<path d="M21.4411 19.2011L17.811 22.8953C17.811 22.8953 20.7208 26.3809 24.2852 26.7674C27.8496 27.154 32.0679 26.1896 33.5102 21.7908C34.9525 17.3921 31.8765 14.7518 29.9366 14.0193C27.9968 13.2868 26.2342 12.7525 26.1166 11.455C25.9989 10.1577 27.6622 8.64618 30.1755 9.67905C32.1153 10.4762 32.7048 12.2462 32.7048 12.2462L36.2491 9.35614C36.2491 9.35614 33.9148 5.80996 30.3863 4.86968C26.9726 3.96018 23.0535 5.80919 21.8883 8.61181C20.7228 11.4144 21.1397 14.4092 24.0494 16.1002C26.9591 17.7912 28.5522 18.4173 28.532 19.9493C28.5119 21.4813 26.5446 22.4518 24.384 21.611C23.1065 21.114 21.4414 19.2014 21.4414 19.2014L21.4411 19.2011Z" fill="black"/>
<path d="M25.7013 26.3314C25.2552 26.3314 24.7971 26.3063 24.3398 26.2568C23.3913 26.1539 21.8741 25.7289 20.0331 24.288C19.3573 23.7589 18.8325 23.2446 18.5137 22.9091L21.4288 19.9426C22.0287 20.5728 23.1929 21.6972 24.2002 22.0892C24.7887 22.3182 25.3828 22.4341 25.9664 22.4341C26.7818 22.4341 27.538 22.1989 28.0964 21.7719C28.6964 21.313 29.0317 20.668 29.0412 19.9557C29.0513 19.1834 28.7325 18.5448 28.0381 17.9461C27.4492 17.4383 26.5984 16.9581 25.5216 16.35C25.1365 16.1328 24.7391 15.9083 24.3039 15.6555C23.0424 14.9222 22.2454 13.9108 21.935 12.6492C21.6495 11.4888 21.7959 10.1613 22.3579 8.80958C22.7794 7.79646 23.6344 6.86901 24.766 6.1983C25.9083 5.52143 27.2579 5.1485 28.5665 5.1485C29.1478 5.1485 29.7165 5.22134 30.256 5.36523C31.972 5.82254 33.3944 6.95929 34.2857 7.83263C34.8604 8.39587 35.2912 8.92064 35.5525 9.26356L32.8875 11.4365C32.5035 10.7543 31.7424 9.76858 30.3678 9.20355C29.7534 8.95091 29.1499 8.82292 28.5736 8.82292C27.6259 8.82292 26.7917 9.16764 26.2246 9.79321C25.7798 10.2841 25.5554 10.9066 25.6091 11.5009C25.6718 12.1931 26.0739 12.7636 26.8378 13.2447C27.4896 13.6551 28.347 13.9737 29.2548 14.311C29.4206 14.3725 29.5884 14.4348 29.7577 14.499C30.6059 14.8193 31.7882 15.5936 32.563 16.8071C32.9728 17.4485 33.2299 18.1495 33.328 18.8908C33.4415 19.751 33.3402 20.6723 33.0265 21.6293C32.4375 23.4254 31.3148 24.7307 29.6892 25.5089C28.2691 26.1888 26.7364 26.3314 25.7011 26.3314H25.7013Z" fill="#FF0055"/>
</svg>
