<svg width="12" height="12" viewBox="0 0 12 12" fill="none" xmlns="http://www.w3.org/2000/svg">
<path d="M6 0C9.31376 0 12 2.68624 12 6C12 9.31376 9.31376 12 6 12C2.68624 12 0 9.31376 0 6C0 2.68624 2.68624 0 6 0ZM6 1.05882C3.27106 1.05882 1.05882 3.27106 1.05882 6C1.05882 8.72894 3.27106 10.9412 6 10.9412C8.72894 10.9412 10.9412 8.72894 10.9412 6C10.9412 3.27106 8.72894 1.05882 6 1.05882ZM6.52941 4.94118V9.17647H5.47059V4.94118H6.52941ZM6.52941 3.17647V4.23529H5.47059V3.17647H6.52941Z" fill="white"/>
</svg>
