<svg width="44" height="44" viewBox="0 0 44 44" fill="none" xmlns="http://www.w3.org/2000/svg">
<path fill-rule="evenodd" clip-rule="evenodd" d="M32.3279 26.4265C32.9201 26.8938 33.8673 26.6602 34.341 25.959C34.5776 25.6082 34.5776 25.2577 34.5776 24.9072C34.459 24.5567 34.2224 24.206 33.9854 23.9725C33.756 23.8431 33.5266 23.7048 33.2947 23.565C32.6887 23.1995 32.0655 22.8237 31.3804 22.5702C32.5646 21.4015 33.5118 20.1163 34.1038 18.5968C34.8138 16.961 35.1696 15.208 35.1696 13.3383C35.1696 6.09325 29.2487 0.25 21.9069 0.25C14.565 0.25 8.76244 6.20975 8.76244 13.4548C8.76244 16.9605 10.1836 20.2327 12.6703 22.687C4.97344 26.1925 0 33.7885 0 42.2025C0 43.0205 0.591969 43.6047 1.42088 43.6047C2.24978 43.6047 2.84175 43.0205 2.84175 42.2025C2.84175 34.373 7.81494 27.3615 15.157 24.6737C19.3018 27.1273 24.6305 27.011 28.6565 24.6737C29.9595 25.1408 31.2623 25.7253 32.3279 26.4265ZM21.9079 23.6226C16.2239 23.6226 11.6055 19.0648 11.6055 13.4556C11.6055 7.84656 16.2236 3.28906 21.9079 3.28906C27.5921 3.28906 32.2103 7.84656 32.2103 13.4556C32.2103 14.8578 31.9736 16.2606 31.3814 17.5456C30.9078 18.7143 30.0786 19.7661 29.1311 20.7008C27.2369 22.5708 24.6313 23.6226 21.9079 23.6226ZM37.4769 34.4591H42.1553C42.5689 34.4591 42.9655 34.6223 43.258 34.9126C43.5504 35.203 43.7147 35.5968 43.7147 36.0075C43.7147 36.4182 43.5504 36.812 43.258 37.1024C42.9655 37.3927 42.5689 37.5559 42.1553 37.5559H37.4769V42.2009C37.4806 42.4065 37.4431 42.6109 37.3664 42.8019C37.2897 42.993 37.1754 43.167 37.0302 43.3138C36.8851 43.4605 36.7119 43.5771 36.5209 43.6567C36.3298 43.7362 36.1247 43.7772 35.9176 43.7772C35.7104 43.7772 35.5053 43.7362 35.3143 43.6567C35.1232 43.5771 34.95 43.4605 34.8049 43.3138C34.6597 43.167 34.5454 42.993 34.4688 42.8019C34.3921 42.6109 34.3545 42.4065 34.3582 42.2009V37.5559H29.6796C29.266 37.5559 28.8693 37.3927 28.5769 37.1024C28.2844 36.812 28.1201 36.4182 28.1201 36.0075C28.1201 35.5968 28.2844 35.203 28.5769 34.9126C28.8693 34.6223 29.266 34.4591 29.6796 34.4591H34.3582V29.8139C34.3582 29.4033 34.5225 29.0095 34.8149 28.7191C35.1074 28.4287 35.504 28.2656 35.9176 28.2656C36.3311 28.2656 36.7278 28.4287 37.0202 28.7191C37.3126 29.0095 37.4769 29.4033 37.4769 29.8139V34.4591Z" fill="white"/>
</svg>
