<svg xmlns="http://www.w3.org/2000/svg" xmlns:xlink="http://www.w3.org/1999/xlink" width="196.57958984375" height="238.857421875" viewBox="0 0 196.57958984375 238.857421875" fill="none"><g filter="url(#filter_0)"><path fill-rule="evenodd"  id="并集" style="fill:#FFECC7; opacity:1;" d="M88.2913 30.6622C97.6507 47.6149 90.8542 69.129 73.6549 78.0269C56.055 87.132 34.5673 80.8796 24.9899 63.5321C15.6306 46.5795 22.427 25.0653 39.6263 16.1674C57.2263 7.06229 78.7139 13.3147 88.2913 30.6622ZM86.5404 31.6289C95.4296 47.7298 89.2491 67.7077 72.7359 76.2506C56.2227 84.7935 35.63 78.6665 26.7408 62.5655C17.8516 46.4645 24.0321 26.4867 40.5453 17.9438C57.0585 9.40088 77.6512 15.5279 86.5404 31.6289ZM71.7585 39.2761C76.385 47.6561 73.0612 57.7587 64.8671 61.9978C56.673 66.2369 46.1492 63.2982 41.5228 54.9182C36.8963 46.5383 40.22 36.4357 48.4141 32.1966C56.6082 27.9574 67.132 30.8962 71.7585 39.2761ZM52.4244 61.2723Q58.4637 63.0588 63.9481 60.2214Q69.4049 57.3984 71.2108 51.5955Q73.0365 45.7291 70.0076 40.2428Q66.9631 34.7283 60.8568 32.922Q54.8176 31.1356 49.3331 33.9729Q43.8763 36.7959 42.0704 42.5989Q40.2447 48.4653 43.2736 53.9516Q46.3181 59.466 52.4244 61.2723ZM124.459 44.9204L122.953 45.5306Q119.832 46.7944 117.425 49.45Q114.041 53.1835 114.227 57.8245Q114.3 59.6446 108.435 65.0892Q101.909 71.1486 91.7818 77.6121Q66.6377 93.6603 44.4609 97.3125Q38.2712 94.4355 31.7142 98.2241L29.9558 99.24C26.3011 97.2467 21.7305 97.1579 17.8757 99.385C12.1412 102.698 10.2748 110.092 13.7506 115.73L49.5887 173.858C53.0896 179.536 60.4728 181.399 66.2487 178.061C70.2043 175.776 72.3194 171.549 72.1103 167.296L73.6249 166.421Q80.2021 162.621 80.5493 155.942Q88.9276 145.587 102.995 135.816L151.438 226.857L182.727 208.779L123.058 123.91Q132.492 119.167 140.228 116.76Q147.977 114.35 149.651 115.308Q153.727 117.637 158.671 116.539Q162.216 115.751 164.846 113.692L165.94 112.836C169.696 115.21 174.605 115.461 178.704 113.093C184.438 109.779 186.305 102.385 182.829 96.7477L146.991 38.62C143.49 32.9417 136.107 31.079 130.331 34.4162C126.456 36.6549 124.348 40.7564 124.459 44.9204ZM145.801 83.2278L163.613 112.118C161.431 113.826 155.782 116.508 150.644 113.571C147.575 111.817 135.709 115.3 121.896 122.257C121.3 122.557 120.7 122.864 120.097 123.177L121.258 124.828L178.679 206.498L179.834 208.141L178.095 209.145L153.963 223.088L152.231 224.089L151.291 222.322L104.656 134.678L103.711 132.903C103.156 133.277 102.602 133.656 102.05 134.039C93.1683 140.197 84.7756 147.401 78.5686 155.215C78.5629 158.032 76.906 161.327 74.2645 163.538C73.9153 163.83 73.549 164.104 73.1669 164.354C72.9894 164.471 72.8085 164.583 72.6244 164.689L52.626 132.253L51.5757 130.549L51.5765 130.549L50.5262 128.845L33.7648 101.659L32.7147 99.9558C33.2951 99.6205 33.9076 99.3371 34.5395 99.1046C37.8035 97.9033 41.5865 98.056 44.1503 99.3882C77.6478 94.1242 116.514 64.9595 116.226 57.7446C115.995 51.9726 121.115 48.4328 123.703 47.3844L144.752 81.5242L144.751 81.5247L145.801 83.2278ZM131.331 36.148C126.532 38.921 124.999 44.9936 127.908 49.7115L163.746 107.839C166.655 112.557 172.904 114.134 177.703 111.361C182.503 108.588 184.035 102.515 181.127 97.7973L145.288 39.6696C142.38 34.9516 136.131 33.375 131.331 36.148ZM105.474 111.017Q116.718 103.37 122.469 90.8579C123.086 89.5469 123.094 87.9843 122.352 86.6087C121.073 84.2392 118.052 83.3219 115.604 84.5598C114.549 85.0933 113.773 85.9402 113.333 86.9208Q108.706 96.9876 99.7252 103.095Q87.1336 111.658 68.9721 109.198C67.957 109.048 66.8849 109.198 65.9043 109.694C63.4565 110.932 62.5088 113.856 63.7875 116.225C64.5748 117.684 66.0225 118.593 67.5906 118.786Q89.6554 121.774 105.474 111.017ZM104.349 109.363Q115.133 102.029 120.652 90.0226L120.66 90.0071Q121.243 88.7658 120.591 87.5585C119.817 86.1234 117.962 85.6086 116.507 86.3446Q115.571 86.8177 115.15 87.7561Q110.291 98.3285 100.85 104.749Q87.6246 113.742 68.6787 111.177Q67.6928 111.03 66.8069 111.478C65.3816 112.199 64.789 113.87 65.5475 115.276Q66.2664 116.608 67.8589 116.804Q89.1643 119.689 104.349 109.363ZM18.8763 101.117C14.0769 103.89 12.5442 109.962 15.453 114.68L51.2912 172.808C54.2 177.526 60.4487 179.103 65.2482 176.33C70.0476 173.557 71.5802 167.484 68.6714 162.766L32.8333 104.638C29.9245 99.9204 23.6757 98.3438 18.8763 101.117Z"></path></g><defs><filter id="filter_0" x="0" y="0" width="210.59954174777394" height="252.089" filterUnits="userSpaceOnUse" color-interpolation-filters="sRGB"><feFlood flood-opacity="0" result="feFloodId"/>
        <feColorMatrix in="SourceAlpha" type="matrix" values="0 0 0 0 0 0 0 0 0 0 0 0 0 0 0 0 0 0 127 0" result="hardAlpha"/>
        <feMorphology radius="3" operator="dilate" in="SourceAlpha"/>
        <feOffset dx="0" dy="0"/>
        <feGaussianBlur stdDeviation="4.5"/>
         <feComposite in2="hardAlpha" operator="out"/>
        <feColorMatrix type="matrix" values="0 0 0 0 1 0 0 0 0 0.9215686274509803 0 0 0 0 0.23137254901960785 0 0 0 1 0"/>
        <feBlend mode="normal" in2="BackgroundImageFix" result="dropShadow_1"/>
        <feBlend mode="normal" in="SourceGraphic" in2="dropShadow_2" result="shape"/></filter></defs></svg>