<svg width="23" height="23" viewBox="0 0 23 23" fill="none" xmlns="http://www.w3.org/2000/svg">
<ellipse cx="11.0962" cy="11.8199" rx="11.0962" ry="11.1461" fill="#F0C11C"/>
<path d="M8.2486 5.94214C8.2486 5.8079 8.2743 5.67497 8.32422 5.55095C8.37414 5.42693 8.4473 5.31424 8.53954 5.21932C8.63178 5.1244 8.74128 5.0491 8.8618 4.99773C8.98231 4.94636 9.11148 4.91992 9.24192 4.91992H17.1884C17.4518 4.91992 17.7045 5.02762 17.8907 5.21932C18.077 5.41102 18.1817 5.67103 18.1817 5.94214V14.1199C18.1817 14.391 18.077 14.651 17.8907 14.8427C17.7045 15.0344 17.4518 15.1421 17.1884 15.1421H12.7185C12.455 15.1421 12.2024 15.0344 12.0161 14.8427C11.8298 14.651 11.7252 14.391 11.7252 14.1199V11.5643C11.7252 11.4288 11.7775 11.2988 11.8706 11.2029C11.9638 11.1071 12.0901 11.0532 12.2218 11.0532C12.3536 11.0532 12.4799 11.1071 12.573 11.2029C12.6662 11.2988 12.7185 11.4288 12.7185 11.5643V14.1199H17.1883V5.94214H9.24192V7.47546C9.24192 7.61102 9.1896 7.74102 9.09646 7.83687C9.00332 7.93272 8.87699 7.98657 8.74527 7.98657C8.61355 7.98657 8.48722 7.93272 8.39408 7.83687C8.30094 7.74102 8.24862 7.61102 8.24862 7.47546L8.2486 5.94214ZM14.2085 17.6976C14.2085 17.8318 14.1828 17.9648 14.1328 18.0888C14.0829 18.2128 14.0098 18.3255 13.9175 18.4204C13.8253 18.5153 13.7158 18.5906 13.5953 18.642C13.4747 18.6934 13.3456 18.7198 13.2151 18.7198H5.2687C5.00526 18.7198 4.7526 18.6121 4.56632 18.4204C4.38004 18.2287 4.27539 17.9687 4.27539 17.6976V9.51988C4.27539 9.24877 4.38004 8.98877 4.56632 8.79706C4.7526 8.60536 5.00526 8.49766 5.2687 8.49766H9.73856C10.002 8.49766 10.2547 8.60536 10.4409 8.79706C10.6272 8.98877 10.7319 9.24877 10.7319 9.51988V12.0754C10.7319 12.211 10.6795 12.341 10.5864 12.4368C10.4933 12.5327 10.3669 12.5865 10.2352 12.5865C10.1035 12.5865 9.97717 12.5327 9.88403 12.4368C9.79089 12.341 9.73856 12.211 9.73856 12.0754V9.51988H5.2687V17.6976H13.2151V16.1643C13.2151 16.0287 13.2675 15.8987 13.3606 15.8029C13.4537 15.707 13.5801 15.6532 13.7118 15.6532C13.8435 15.6532 13.9698 15.707 14.063 15.8029C14.1561 15.8987 14.2084 16.0287 14.2084 16.1643V17.6976H14.2085Z" fill="black" stroke="black"/>
</svg>
