<svg width="24" height="33" viewBox="0 0 24 33" fill="none" xmlns="http://www.w3.org/2000/svg">
<rect x="5.20113" y="25.396" width="14.0749" height="1.83586" rx="0.91793" stroke="#F2D861" stroke-width="1.83586"/>
<rect x="7.03707" y="29.6796" width="10.4032" height="1.83586" rx="0.91793" stroke="#F2D861" stroke-width="1.83586"/>
<circle cx="11.9331" cy="11.9331" r="10.9331" stroke="#F2D861" stroke-width="2"/>
<path d="M10.4028 24.784C10.4028 22.3362 10.4028 16.8899 10.4028 14.6868C10.4028 13.1569 9.48488 12.239 8.26098 12.239C6.73109 12.239 6.11914 13.4629 6.11914 14.0749C6.11914 15.6048 7.34304 16.2167 8.26098 16.2167C10.2192 16.2167 11.6267 16.2167 12.2387 16.2167" stroke="#F2D861" stroke-width="2"/>
<path d="M14.0747 24.784C14.0747 22.3362 14.0747 16.8899 14.0747 14.6868C14.0747 13.1569 14.9927 12.239 16.2166 12.239C17.7464 12.239 18.3584 13.4629 18.3584 14.0749C18.3584 15.6048 17.1345 16.2167 16.2166 16.2167C14.2583 16.2167 12.8508 16.2167 12.2389 16.2167" stroke="#F2D861" stroke-width="2"/>
</svg>
