<svg width="15" height="15" viewBox="0 0 15 15" fill="none" xmlns="http://www.w3.org/2000/svg">
<path d="M14.667 5.74712L14.1892 6.01015C13.9593 6.1379 13.8304 6.38214 13.8661 6.63577C13.9097 6.91947 13.9315 7.20691 13.9315 7.50376C13.9315 7.8006 13.9077 8.08805 13.8661 8.37174C13.8304 8.62538 13.9553 8.86774 14.2527 9.03119L14.669 9.25852C14.9466 9.40882 15.0675 9.72445 14.9624 10.0081C14.8197 10.3952 14.6393 10.7672 14.4311 11.1241C14.3815 11.2124 14.326 11.3026 14.2685 11.389C14.0485 11.7366 13.7967 12.0635 13.5191 12.3697C13.3109 12.6008 12.962 12.6534 12.625 12.4693L12.2027 12.2382C11.9727 12.1105 11.6813 12.1293 11.4711 12.2852C10.9933 12.644 10.462 12.939 9.88505 13.1569C9.63722 13.2509 9.47862 13.482 9.47862 13.7318V14.2598C9.47862 14.5622 9.25062 14.8215 8.93737 14.8779C8.46948 14.9587 7.99168 15 7.5 15C7.00832 15 6.53052 14.9587 6.06263 14.8779C5.74938 14.8215 5.52138 14.5622 5.52138 14.2598V13.7318C5.52138 13.482 5.36278 13.2509 5.11495 13.1569C4.53802 12.939 4.00669 12.644 3.52889 12.2852C3.31873 12.1293 3.02729 12.1105 2.79732 12.2382L2.31555 12.5031C2.03799 12.6534 1.68905 12.6008 1.48088 12.3679C1.20332 12.0616 0.953514 11.7328 0.731464 11.3871C0.675952 11.2988 0.618457 11.2087 0.568893 11.1222C0.360721 10.7653 0.180306 10.3933 0.0375605 10.0063C-0.0675163 9.72257 0.0534212 9.40694 0.330983 9.25664L0.808785 8.99361C1.03876 8.86586 1.16763 8.62162 1.13195 8.36799C1.08833 8.08429 1.06652 7.79684 1.06652 7.5C1.06652 7.20316 1.09031 6.91571 1.13195 6.63201C1.16763 6.37838 1.03876 6.13602 0.808785 6.00639L0.330983 5.74336C0.0534212 5.59306 -0.0675163 5.27743 0.0375605 4.99374C0.180306 4.60672 0.360721 4.23472 0.568893 3.87776C0.618457 3.78945 0.673969 3.69928 0.731464 3.61285C0.951531 3.26528 1.20332 2.93838 1.48088 2.63214C1.68905 2.40105 2.03799 2.34845 2.31555 2.49687L2.79732 2.76177C3.02729 2.88953 3.31873 2.87074 3.52889 2.7148C4.00669 2.35596 4.53802 2.061 5.11495 1.84306C5.36278 1.74912 5.52138 1.51804 5.52138 1.26816V0.740231C5.52138 0.437751 5.74938 0.178483 6.06263 0.12212C6.53052 0.0413332 7.00832 0 7.5 0C7.99168 0 8.46948 0.0413332 8.93737 0.12212C9.25062 0.178483 9.47862 0.437751 9.47862 0.740231V1.26816C9.47862 1.51804 9.63722 1.74912 9.88505 1.84306C10.462 2.061 10.9933 2.35596 11.4711 2.7148C11.6813 2.87074 11.9727 2.88953 12.2027 2.76177L12.6845 2.49687C12.962 2.34657 13.3109 2.39917 13.5191 2.63214C13.7967 2.93838 14.0465 3.26716 14.2685 3.61285C14.324 3.70115 14.3815 3.79133 14.4311 3.87776C14.6393 4.23472 14.8197 4.60672 14.9624 4.99374C15.0655 5.28119 14.9446 5.59682 14.667 5.74712ZM7.5 4.69126C5.8604 4.69126 4.53207 5.95002 4.53207 7.50376C4.53207 9.05749 5.8604 10.3163 7.5 10.3163C9.1396 10.3163 10.4679 9.05749 10.4679 7.50376C10.4679 5.95002 9.1396 4.69126 7.5 4.69126Z" fill="white"/>
</svg>
